<?xml version="1.0" encoding="UTF-8"?>
<svg xmlns="http://www.w3.org/2000/svg" xmlns:xlink="http://www.w3.org/1999/xlink" viewBox="0 0 284.93 302">
  <defs>
    <style>
      .cls-1, .cls-2 {
        fill: none;
      }

      .cls-3 {
        filter: url(#outer-glow-1);
      }

      .cls-2 {
        opacity: .7;
      }

      .cls-2, .cls-4 {
        stroke: #fff;
      }

      .cls-2, .cls-4, .cls-5, .cls-6 {
        stroke-miterlimit: 10;
      }

      .cls-2, .cls-6 {
        stroke-width: 1.94px;
      }

      .cls-7 {
        opacity: .74;
      }

      .cls-7, .cls-4, .cls-6, .cls-8 {
        fill: #fff;
      }

      .cls-4 {
        stroke-width: .97px;
      }

      .cls-9 {
        fill: #52c3c3;
      }

      .cls-10 {
        clip-path: url(#clippath-1);
      }

      .cls-11 {
        fill: #009696;
      }

      .cls-5 {
        stroke: #3f2414;
        stroke-width: .69px;
      }

      .cls-5, .cls-12 {
        fill: #3f2414;
      }

      .cls-6 {
        stroke: url(#radial-gradient);
      }

      .cls-13 {
        opacity: .8;
      }

      .cls-14 {
        opacity: .6;
      }

      .cls-15 {
        fill: #502b19;
        font-family: Futura-Medium, Futura;
        font-size: 27.84px;
        font-weight: 500;
      }

      .cls-16 {
        clip-path: url(#clippath);
      }
    </style>
    <filter id="outer-glow-1" x="38.92" y="-9" width="201" height="215" filterUnits="userSpaceOnUse">
      <feOffset dx="0" dy="0"/>
      <feGaussianBlur result="blur" stdDeviation="5"/>
      <feFlood flood-color="#f6ff00" flood-opacity=".41"/>
      <feComposite in2="blur" operator="in"/>
      <feComposite in="SourceGraphic"/>
    </filter>
    <clipPath id="clippath">
      <path class="cls-1" d="M83.51,157.08c-5.62,3.98-15.76-.69-22.66-10.45-6.9-9.72-7.94-20.85-2.32-24.82,5.61-3.98,15.76.69,22.66,10.42,6.9,9.76,7.94,20.87,2.32,24.85Z"/>
    </clipPath>
    <clipPath id="clippath-1">
      <path class="cls-1" d="M186.01,180.44c3.42,5.96,14.6,6,24.94.07,10.36-5.95,15.97-15.6,12.56-21.57-3.42-5.97-14.59-6-24.95-.04-10.35,5.91-15.98,15.57-12.55,21.54Z"/>
    </clipPath>
    <radialGradient id="radial-gradient" cx="143.57" cy="25.62" fx="143.57" fy="25.62" r="18.86" gradientTransform="translate(31.66 -27.59) rotate(12.43)" gradientUnits="userSpaceOnUse">
      <stop offset=".21" stop-color="#009696"/>
      <stop offset=".33" stop-color="#009696"/>
      <stop offset=".33" stop-color="#009696"/>
    </radialGradient>
  </defs>
  <g id="Platforms">
    <g>
      <path class="cls-9" d="M12.51,283.16h259.92c2.78,0,5.04-2.26,5.04-5.04l4-127.92c0-2.78-2.26-5.04-5.04-5.04H8.51c-2.78,0-5.04,2.26-5.04,5.04l3,127.92c0,2.78,3.26,5.04,6.04,5.04Z"/>
      <path d="M6.46,278.12c0,2.78,3.26,5.04,6.04,5.04h259.92c2.78,0,5.04-2.26,5.04-5.04H6.46Z"/>
    </g>
  </g>
  <g id="Bells">
    <g class="cls-3">
      <g>
        <path class="cls-11" d="M221.05,147.6c-.09,3.14-.71,6.21-1.48,9.2-.99,3.88-2.37,7.61-4.2,11.07-2.96,5.66-7.29,9.95-12.67,13.26-6.34,3.92-13.33,6.06-20.58,7.59-9.23,1.97-18.57,2.47-28,1.79-6.69-.46-13.32-1.36-19.9-2.66-1.52-.33-3.01-.66-4.5-.99-7.54-1.56-14.88-3.65-22.1-6.29-12.74-4.67-24.3-11.28-34.23-20.66-4.13-3.88-7.64-8.25-10.16-13.34-2.63-5.4-3.71-11.09-3.39-17.11.23-4.31.83-8.52,2.01-12.64,2.05-7.16,6.12-12.86,11.99-17.41,2.86-2.21,6.09-3.88,9.3-5.48,1.18-.62,2.39-1.24,3.41-2.14.78-.68,1.46-1.4,1.72-2.42.63-2.4,1.77-4.54,3.14-6.55,5.65-8.13,10.56-16.79,16.55-24.77,3.83-5.07,8.31-9.59,13.66-13.09.66-.44,1.31-.87,1.98-1.26,2.14-1.29,4.4-2.36,6.55-3.74,3.17-1.96,6.83-2.7,10.51-3.11,5.52-.65,11.01-.33,16.46.53,6.27,1.03,12.31,2.71,18.14,5.24,3.96,1.76,7.82,3.8,11.01,6.73,6.2,5.69,11.34,12.14,14.34,20.13,1.93,5.09,3.21,10.34,4.03,15.7,1.23,7.97,2.3,15.93,3.56,23.9.3,2.06.45,4.15.07,6.25-.3,1.66.24,3.1,1.1,4.44,1.42,2.18,3.16,4.12,4.69,6.2,4.67,6.49,7.19,13.65,7.01,21.63Z"/>
        <path class="cls-1" d="M132.95,56.96c.7-3.19,5.66-4.79,11.1-3.59"/>
        <g>
          <path class="cls-4" d="M142.14,86.47c-.63,2.84-1.73,5.74-4.32,6.61-1.33.45-3.78-.19-5.25-.51-1.55-.34-4.35-1.02-5.4-2.07-1.88-1.87-1.33-4.72-.72-7.49.96-4.34,5.25-7.09,9.58-6.14,4.34.96,7.07,5.25,6.11,9.6Z"/>
          <path class="cls-5" d="M137.72,87.48c-.19.86-.54,2.28-1.11,2.75-.61.5-1.6.34-2.34.18-.72-.16-1.94-.43-2.29-1.11-.35-.68.31-2.1.51-2.98.39-1.79,1.88-2.95,3.33-2.63s2.31,2,1.91,3.78Z"/>
          <path class="cls-4" d="M165.42,91.6c-.63,2.84-.84,5.94,1.14,7.81,1.02.97,3.51,1.42,4.98,1.74,1.55.34,4.38.9,5.77.4,2.49-.91,3.19-3.73,3.8-6.49.96-4.34-1.78-8.64-6.11-9.6-4.34-.96-8.62,1.8-9.58,6.14Z"/>
          <path class="cls-5" d="M169.01,94.38c-.19.86-.47,2.29-.15,2.97.34.71,1.3.98,2.04,1.15s1.94.43,2.55-.04c.6-.48.6-2.03.79-2.91.39-1.79-.47-3.47-1.91-3.78-1.44-.32-2.93.84-3.33,2.63Z"/>
          <path class="cls-12" d="M146.58,107.79c.44-.08.79-.35,1.21-.47.48-.14,1.04-.04,1.49.12.43.16.79.46,1.17.7s.73.57,1.01.94.91.01.63-.37c-.31-.43-.68-.82-1.13-1.12s-.9-.63-1.4-.83c-.53-.21-1.15-.29-1.71-.21-.52.08-.94.43-1.46.52-.46.08-.27.78.19.7h0Z"/>
          <path class="cls-12" d="M131.94,67.22c.74-.63,1.7-1.05,2.55-1.5.77-.4,1.52-.23,2.34-.15,1.31.13,3.21.28,3.71,1.75.15.44.85.25.7-.19-.6-1.77-2.56-2.08-4.19-2.26-.91-.1-1.8-.29-2.67.1-.53.24-1.03.55-1.55.82s-.98.55-1.41.92c-.36.3.16.81.51.51h0Z"/>
          <path class="cls-12" d="M182.73,77.2c-.44-.95-1.2-1.81-1.85-2.64-.55-.7-1.28-.92-2.08-1.2-1.63-.57-3.72-1.31-5.12.13-.33.33.19.85.51.51,1.21-1.23,3.15-.38,4.52.09.34.12.7.21,1.01.38s.53.44.74.73c.55.78,1.24,1.49,1.64,2.36.2.42.82.06.63-.37h0Z"/>
          <ellipse class="cls-7" cx="143.49" cy="132.8" rx="14.26" ry="13.4" transform="translate(-6.4 258.32) rotate(-82.73)"/>
        </g>
      </g>
      <g class="cls-13">
        <g class="cls-16">
          <path class="cls-8" d="M66.65,124.13c.56,14.86,8,30.79,22.37,36.82,3.6,1.51,7.48,2.24,11.38,2.14,1.87-.05,1.88-2.96,0-2.91-13.88.39-24.47-10.86-28.57-23.27-1.37-4.13-2.1-8.43-2.26-12.78-.07-1.87-2.98-1.88-2.91,0h0Z"/>
        </g>
      </g>
      <g class="cls-14">
        <g class="cls-10">
          <path class="cls-8" d="M212.58,156.31c-6.23,12.21-18.54,22.87-32.94,22.44-3.52-.11-6.98-.97-10.13-2.53-1.67-.83-3.15,1.68-1.47,2.51,13.55,6.74,29.19.87,39.05-9.55,3.21-3.39,5.88-7.26,8-11.41.85-1.66-1.66-3.14-2.51-1.47h0Z"/>
        </g>
      </g>
      <g>
        <rect class="cls-8" x="158.49" y="36.97" width="6.37" height="16.63" transform="translate(82.64 193.42) rotate(-77.57)"/>
        <path class="cls-6" d="M185.15,32.48c-1.53,6.95-8.23,11.68-16.17,12.11-1.98.12-4.04-.05-6.13-.51-2.73-.6-5.22-1.66-7.36-3.07-6.04-3.91-9.38-10.41-7.97-16.83,1.91-8.68,11.88-13.87,22.26-11.58,10.4,2.29,17.27,11.19,15.36,19.87Z"/>
      </g>
      <text class="cls-15" transform="translate(156.31 29.99) rotate(12.43) scale(1.06 1)"><tspan x="0" y="0">g</tspan></text>
      <path class="cls-2" d="M200.82,144.01c-1.12-.64-1.98-2.58-2.14-3.83-.14-1.06.4-3.15.17-3.79"/>
    </g>
  </g>
</svg>