<?xml version="1.0" encoding="UTF-8"?><svg xmlns="http://www.w3.org/2000/svg" xmlns:xlink="http://www.w3.org/1999/xlink" viewBox="0 0 284.93 302"><defs><style>.cls-1{fill:none;}.cls-2{clip-path:url(#clippath);}.cls-3{stroke-width:1.16px;}.cls-3,.cls-4,.cls-5{fill:#502b19;}.cls-3,.cls-5{stroke:#502b19;}.cls-3,.cls-5,.cls-6{stroke-miterlimit:10;}.cls-7{fill:#ec6ba4;}.cls-8{fill:#f5b4d1;}.cls-9,.cls-6,.cls-10{fill:#fff;}.cls-5{stroke-width:1.2px;}.cls-11{clip-path:url(#clippath-1);}.cls-6{stroke:#ec6ba4;}.cls-12{opacity:.6;}.cls-10{opacity:.74;}.cls-13{filter:url(#outer-glow-4);}</style><filter id="outer-glow-4" filterUnits="userSpaceOnUse"><feOffset dx="0" dy="0"/><feGaussianBlur result="blur" stdDeviation="5"/><feFlood flood-color="#f6ff00" flood-opacity=".41"/><feComposite in2="blur" operator="in"/><feComposite in="SourceGraphic"/></filter><clipPath id="clippath"><path class="cls-1" d="m73.18,198.67c-6.02,5.51-18.64,1.52-28.2-8.9-9.57-10.43-12.44-23.35-6.43-28.87,6.02-5.51,18.64-1.53,28.2,8.9,9.57,10.44,12.44,23.36,6.43,28.87Z"/></clipPath><clipPath id="clippath-1"><path class="cls-1" d="m196.49,211.07c4.91,6.51,18.05,4.89,29.35-3.63,11.29-8.52,16.46-20.71,11.56-27.22-4.93-6.52-18.06-4.89-29.35,3.64-11.3,8.52-16.47,20.72-11.56,27.22Z"/></clipPath></defs><g id="Platforms"><path class="cls-8" d="m12.51,283.16h259.92c2.78,0,5.04-2.26,5.04-5.04l4-127.92c0-2.78-2.26-5.04-5.04-5.04H8.51c-2.78,0-5.04,2.26-5.04,5.04l3,127.92c0,2.78,3.26,5.04,6.04,5.04Z"/><path d="m6.46,278.12c0,2.78,3.26,5.04,6.04,5.04h259.92c2.78,0,5.04-2.26,5.04-5.04H6.46Z"/></g><g id="Bells"><g class="cls-13"><path class="cls-7" d="m233.07,167.1c.37,3.7.1,7.36-.37,11.04-.6,4.69-1.66,9.24-3.3,13.65-2.61,7.06-7.08,12.77-12.89,17.46-6.89,5.56-14.82,9.1-23.08,11.98-10.59,3.69-21.5,5.65-32.68,6.26-7.95.44-15.89.41-23.82-.2-1.82-.13-3.63-.31-5.42-.48-9.09-.7-18.06-2.09-26.93-4.11-15.68-3.58-30.29-9.66-43.34-19.18-5.41-3.96-10.2-8.55-13.9-14.18-3.9-5.96-6.03-12.51-6.54-19.63-.37-5.07-.31-10.14.47-15.15,1.34-8.7,5.27-16.06,11.49-22.25,3.06-3.05,6.61-5.45,10.15-7.88,1.31-.88,2.6-1.79,3.66-2.98.84-.89,1.53-1.92,1.69-3.14.36-2.89,1.37-5.58,2.7-8.12,5.44-10.42,9.92-21.34,15.77-31.57,3.78-6.59,8.36-12.54,14.13-17.51.69-.59,1.38-1.18,2.11-1.72,2.33-1.84,4.84-3.46,7.17-5.39,3.43-2.81,7.63-4.17,11.88-5.2,6.41-1.56,12.88-2.01,19.47-1.82,7.5.25,14.88,1.31,22.08,3.46,4.94,1.47,9.75,3.28,13.97,6.27,8.14,5.76,15.13,12.6,19.87,21.52,3.02,5.7,5.32,11.68,7.08,17.88,2.61,9.18,5.07,18.4,7.71,27.58.7,2.38,1.15,4.84,1.02,7.37-.1,1.94.76,3.59,1.98,5.04,1.98,2.35,4.31,4.38,6.43,6.62,6.45,6.9,10.48,14.93,11.44,24.39Z"/><g class="cls-12"><g class="cls-2"><path class="cls-9" d="m48.48,162.69c2.85,17.33,14.16,34.97,31.91,39.79,4.51,1.22,9.17,1.43,13.78.71.93-.15,1.43-1.3,1.21-2.13-.26-.99-1.21-1.36-2.13-1.21-16.27,2.54-30.33-9.51-36.93-23.39-2.21-4.64-3.66-9.62-4.49-14.68-.36-2.2-3.71-1.27-3.35.92h0Z"/></g></g><g class="cls-12"><g class="cls-11"><path class="cls-9" d="m224.07,178.95c-5.45,15.14-18.53,29.63-35.4,31.09-4.23.37-8.41-.16-12.42-1.56-2.11-.74-3.02,2.61-.92,3.35,16.95,5.94,34.43-3.66,44.41-17.29,3.28-4.47,5.8-9.45,7.68-14.66.76-2.11-2.59-3.01-3.35-.92h0Z"/></g></g><rect class="cls-9" x="144.76" y="45.97" width="7.54" height="19.24" transform="translate(79.65 198.44) rotate(-84.78)"/><path class="cls-6" d="m174.17,37.03c-.77,8.4-7.94,14.94-17.21,16.63-2.31.42-4.77.54-7.29.31-3.3-.3-6.38-1.17-9.13-2.5-7.65-3.69-12.57-10.87-11.86-18.61.96-10.51,11.92-18.1,24.47-16.96s21.97,10.6,21.01,21.12Z"/><path class="cls-3" d="m144.08,46.63l2.29-25.03,3.99.37c1.78.16,3.18.42,4.21.78,1.04.36,1.9.88,2.58,1.56.69.71,1.21,1.55,1.55,2.54.36,1,.49,2,.4,2.98-.16,1.79-1.03,3.25-2.6,4.36,1.37.58,2.41,1.48,3.12,2.69.72,1.2,1.02,2.55.88,4.04-.18,1.96-1.06,3.54-2.66,4.76-.96.75-2,1.24-3.13,1.46-1.23.2-2.76.22-4.57.06l-6.07-.56Zm4.33-3.18l2.48.23c1.81.17,3.17-.05,4.08-.64.96-.64,1.49-1.52,1.59-2.63.1-1.08-.25-2.03-1.04-2.84-.77-.8-2.23-1.3-4.39-1.5l-2.03-.19-.69,7.57Zm.98-10.73l1.25.12c1.49.14,2.61-.08,3.36-.63.75-.56,1.18-1.44,1.29-2.65.11-1.18-.17-2.11-.82-2.78-.66-.68-1.66-1.08-3.01-1.2l-1.41-.13-.67,7.28Z"/><path class="cls-5" d="m129.78,102.87c-.3,3.32-3.23,5.75-6.54,5.45-3.31-.3-5.75-3.22-5.44-6.54.3-3.3,3.23-5.75,6.54-5.45,3.31.3,5.74,3.24,5.44,6.54Z"/><path class="cls-5" d="m174.33,106.94c-.3,3.32-3.23,5.75-6.54,5.45-3.31-.3-5.75-3.22-5.45-6.54.3-3.3,3.23-5.75,6.54-5.45,3.31.3,5.74,3.24,5.44,6.54Z"/><path class="cls-4" d="m122.9,75.75c2.41-.3,4.74.02,6.86.84.66.25,1.13-.64.55-1.04-2.16-1.49-4.85-2.22-7.66-1.87-2.81.35-5.24,1.72-6.97,3.69-.46.53.21,1.29.79.88,1.85-1.31,4.04-2.19,6.44-2.49Z"/><path class="cls-4" d="m169.18,79.45c2.24.92,4.12,2.35,5.57,4.09.45.54,1.3,0,.99-.64-1.15-2.36-3.14-4.32-5.76-5.39-2.62-1.07-5.41-1.07-7.89-.2-.66.23-.45,1.22.25,1.15,2.25-.23,4.59.07,6.84.99Z"/><path class="cls-4" d="m141.98,126.66c1.34.13,2.57.58,3.63,1.27.33.22.69-.22.42-.5-1-1.07-2.37-1.79-3.94-1.93-1.57-.15-3.05.31-4.23,1.17-.32.23-.04.72.32.57,1.16-.49,2.46-.71,3.8-.58Z"/><ellipse class="cls-10" cx="136.89" cy="162" rx="18" ry="16.5" transform="translate(-47.04 267.6) rotate(-79.66)"/></g></g></svg>