<?xml version="1.0" encoding="UTF-8"?>
<svg xmlns="http://www.w3.org/2000/svg" xmlns:xlink="http://www.w3.org/1999/xlink" viewBox="0 0 284.93 302">
  <defs>
    <style>
      .cls-1 {
        fill: none;
      }

      .cls-2 {
        font-size: 17.54px;
      }

      .cls-2, .cls-3, .cls-4, .cls-5 {
        fill: #fff;
      }

      .cls-2, .cls-5 {
        font-family: Futura-Medium, Futura;
        font-weight: 500;
      }

      .cls-6, .cls-7 {
        fill: #502b19;
      }

      .cls-8 {
        fill: #c3c3c3;
      }

      .cls-3 {
        stroke: #fff;
        stroke-width: .83px;
      }

      .cls-3, .cls-9, .cls-7 {
        stroke-miterlimit: 10;
      }

      .cls-10 {
        clip-path: url(#clippath-1);
      }

      .cls-9 {
        stroke: #000;
        stroke-width: 1.66px;
      }

      .cls-11 {
        fill: #0480cb;
      }

      .cls-7 {
        stroke: #502b19;
        stroke-width: .99px;
      }

      .cls-12 {
        opacity: .6;
      }

      .cls-5 {
        font-size: 21.62px;
        letter-spacing: 0em;
      }

      .cls-13 {
        fill: #51bdec;
      }

      .cls-14 {
        clip-path: url(#clippath);
      }

      .cls-15 {
        filter: url(#outer-glow-15);
      }
    </style>
    <filter id="outer-glow-15" x="21.92" y="0" width="241" height="251" filterUnits="userSpaceOnUse">
      <feOffset dx="0" dy="0"/>
      <feGaussianBlur result="blur" stdDeviation="5"/>
      <feFlood flood-color="#f6ff00" flood-opacity=".41"/>
      <feComposite in2="blur" operator="in"/>
      <feComposite in="SourceGraphic"/>
    </filter>
    <clipPath id="clippath">
      <path class="cls-1" d="M77.26,208.87c-5.96,5.94-19.15,2.39-29.46-7.94-10.32-10.33-13.85-23.53-7.89-29.48,5.96-5.94,19.15-2.39,29.46,7.94,10.32,10.34,13.85,23.54,7.89,29.48Z"/>
    </clipPath>
    <clipPath id="clippath-1">
      <path class="cls-1" d="M204.92,216.26c5.34,6.5,18.82,4.25,30.09-5.03,11.26-9.28,16.07-22.07,10.73-28.57-5.36-6.5-18.83-4.25-30.1,5.03-11.28,9.28-16.08,22.07-10.72,28.56Z"/>
    </clipPath>
  </defs>
  <g id="Platforms">
    <g>
      <path class="cls-13" d="M12.51,283.16h259.92c2.78,0,5.04-2.26,5.04-5.04l4-127.92c0-2.78-2.26-5.04-5.04-5.04H8.51c-2.78,0-5.04,2.26-5.04,5.04l3,127.92c0,2.78,3.26,5.04,6.04,5.04Z"/>
      <path d="M6.46,278.12c0,2.78,3.26,5.04,6.04,5.04h259.92c2.78,0,5.04-2.26,5.04-5.04H6.46Z"/>
    </g>
  </g>
  <g id="Bells">
    <g class="cls-15">
      <g>
        <g>
          <g>
            <path class="cls-11" d="M240.71,169.33c.55,3.8.42,7.59.1,11.4-.41,4.85-1.3,9.59-2.81,14.21-2.38,7.39-6.74,13.48-12.53,18.56-6.86,6.03-14.88,10.03-23.27,13.36-10.75,4.26-21.92,6.77-33.41,7.89-8.17.8-16.36,1.11-24.57.83-1.88-.05-3.75-.16-5.61-.25-9.4-.33-18.71-1.36-27.94-3.06-16.32-3-31.65-8.63-45.51-17.88-5.75-3.85-10.89-8.37-14.95-14.01-4.28-5.97-6.76-12.63-7.6-19.95-.6-5.21-.76-10.44-.18-15.64,1-9.03,4.73-16.79,10.88-23.44,3.02-3.28,6.57-5.91,10.12-8.56,1.31-.97,2.61-1.96,3.65-3.23.83-.97,1.49-2.05,1.61-3.32.25-3,1.17-5.81,2.43-8.49,5.15-10.98,9.29-22.43,14.87-33.23,3.6-6.96,8.07-13.29,13.8-18.66.68-.64,1.37-1.28,2.1-1.87,2.32-2,4.84-3.78,7.16-5.87,3.41-3.05,7.68-4.62,12.02-5.88,6.54-1.89,13.19-2.64,19.99-2.72,7.74-.07,15.4.7,22.91,2.6,5.15,1.3,10.2,2.96,14.67,5.85,8.64,5.58,16.14,12.33,21.42,21.31,3.36,5.75,5.99,11.81,8.08,18.12,3.09,9.35,6.03,18.75,9.15,28.09.83,2.42,1.4,4.94,1.37,7.55-.02,2,.94,3.67,2.26,5.11,2.14,2.33,4.64,4.32,6.92,6.54,6.95,6.84,11.45,14.94,12.86,24.64Z"/>
            <path class="cls-1" d="M116.36,78.01c.19-3.98,5.85-6.93,12.65-6.59"/>
          </g>
          <g class="cls-12">
            <g class="cls-14">
              <path class="cls-4" d="M50.54,172.7c3.67,17.61,15.96,35.29,34.36,39.44,4.63,1.04,9.38,1.09,14.03.16,1.82-.36,1.05-3.15-.77-2.78-16.83,3.36-32.02-8.39-39.53-22.6-2.49-4.71-4.22-9.77-5.31-14.98-.38-1.82-3.16-1.05-2.78.77h0Z"/>
            </g>
          </g>
          <g class="cls-12">
            <g class="cls-10">
              <path class="cls-4" d="M232.29,181.96c-5.02,16.07-17.96,31.62-35.51,33.94-4.32.57-8.7.19-12.87-1.07-1.78-.54-2.54,2.24-.77,2.78,17.55,5.32,35-5.12,44.64-19.47,3.18-4.74,5.59-9.97,7.29-15.41.56-1.78-2.23-2.54-2.78-.77h0Z"/>
            </g>
          </g>
          <g>
            <rect class="cls-9" x="144.79" y="48.15" width="7.78" height="19.85" transform="translate(83.42 203.75) rotate(-87.2)"/>
            <path class="cls-9" d="M174.3,37.83c-.42,8.69-7.53,15.75-17.01,17.9-2.37.53-4.9.77-7.5.64-3.41-.17-6.63-.93-9.52-2.18-8.05-3.47-13.44-10.65-13.04-18.66.53-10.88,11.49-19.18,24.48-18.55,13.01.64,23.12,9.97,22.59,20.85Z"/>
          </g>
          <text class="cls-2" transform="translate(131.04 37.77) rotate(2.8) scale(1.06 1)"><tspan x="0" y="0">G</tspan></text>
          <text class="cls-5" transform="translate(147.04 31.34) rotate(2.8) scale(.62 .58)"><tspan x="0" y="0">#</tspan></text>
          <text class="cls-2" transform="translate(146.5 49.62) rotate(2.8) scale(1.06 1)"><tspan x="0" y="0">A</tspan></text>
          <text class="cls-5" transform="translate(160.62 43.11) rotate(2.8) scale(.62 .58)"><tspan x="0" y="0">b</tspan></text>
        </g>
        <line class="cls-3" x1="163.36" y1="28" x2="137.73" y2="43.81"/>
      </g>
      <g>
        <path class="cls-8" d="M193.97,181.77c-3.1-1.42-5.54-3.8-7.8-6.17-1.23-1.29-2.45-2.61-3.69-3.9,1.01-.33,1.98-.84,2.9-1.57-2.55-1.56-4.54-4.24-6.39-6.9-4.61-6.64-8.99-13.97-15.45-15.62-5.18-1.43-13.99-3.59-19.11.4-4.71-4.48-13.69-3.18-18.98-2.26-6.59,1.01-11.67,7.87-16.9,14.04-2.09,2.46-4.33,4.94-7.02,6.24,1.06,1.04,2.26,1.74,3.53,2.15-1.25,1.08-2.5,2.19-3.75,3.26-2.48,2.14-5.14,4.28-8.36,5.38,5.05,3.61,12.49,2.9,17.28-.84-.83.67-1.65,1.84-2.48,2.63,3.43.35,6.07-3.04,8.92-4.56-.35.84-.31,2.3-.66,3.14,3.99,1.17,10.23-2.08,13.41-5.27-.33,1.26-.3,3.14-.99,4.4,3.44.77,7.19-.98,9.84-3.32,0,.42.02,1.04.03,1.67,2.22.86,4.03,0,5.46-1.66,1.26,1.78,2.98,2.82,5.27,2.18.07-.62.15-1.24.19-1.66,2.42,2.6,5.98,4.7,9.47,4.27-.57-1.33-.35-3.19-.56-4.48,2.86,3.49,8.75,7.33,12.83,6.55-.26-.87-.09-2.32-.35-3.19,2.69,1.79,4.98,5.42,8.43,5.41-.75-.87-1.45-2.11-2.21-2.86,4.41,4.18,11.74,5.62,17.12,2.52ZM143.63,161.23c.06-.09.12-.18.18-.27.1.21.21.4.33.59-.16-.11-.34-.21-.51-.31Z"/>
        <path class="cls-8" d="M111.01,81.39c.72-1.26,2.62-1.8,3.97-2.2-.01.01-.03.02-.04.04-.04.02-.09.04-.13.06-1.18.33-2.28.87-3.02,1.61-.05.05,0,.12.06.08.43-.32.89-.56,1.37-.76-.34.25-.65.51-.93.8-.03.03.01.08.05.06.23-.13.46-.26.68-.39,0,.03.05.06.09.03.22-.14.44-.28.66-.41.02,0,.04.01.06,0,.17-.11.34-.21.51-.31.16-.09.32-.17.49-.25.11-.02.22-.04.33-.06-.57.37-1.07.81-1.41,1.36-.02.03.03.07.05.04.44-.65,1.2-1.11,1.99-1.49.05,0,.09-.01.14-.02-.57.34-1.12.7-1.62,1.08-.04.03,0,.11.05.08.8-.45,1.62-.87,2.46-1.25.13,0,.25-.02.38-.03-.52.31-1.01.61-1.46.86-.06.04-.03.13.04.11.8-.33,1.57-.69,2.35-1.03.11,0,.22-.01.33-.02-.4.19-.8.41-1.17.67-.05.03,0,.1.05.08.81-.31,1.66-.66,2.52-.92.1,0,.2,0,.3,0,.11,0,.23.02.34.03-.44.16-.88.35-1.31.56-.04.02,0,.07.03.06.56-.22,1.13-.4,1.71-.55.14.02.28.05.42.08-.36.07-.72.16-1.06.29-.03.01-.01.06.02.06.57-.08,1.13-.17,1.7-.22.02,0,.04,0,.05.01.03,0,.04,0,.06-.02.17-.01.34-.03.51-.04.04,0,.08,0,.12,0,.11.04.22.08.33.12.07.02.13-.07.07-.11,0,0-.01,0-.02-.01.01,0,.02,0,.03,0,.27.12.53.23.8.33.1.04.18-.09.09-.16-.04-.03-.09-.07-.13-.1.02-.02.03-.05.04-.07.09,0,.18,0,.28-.01.25.13.42.26.41.35,0,.08.05.15.14.14.02,0,.04,0,.07,0,.07,0,.12-.06.15-.12.16.08.31.16.47.24.09.04.15-.08.08-.14-.24-.21-.49-.39-.75-.56,0,0,0,0,0,0,0-.03,0-.06-.01-.08.24.13.48.27.72.41-.06.05-.02.16.06.17.11.02.21.03.32.05.1.01.18-.06.2-.15.32.2.63.4.96.59.1.05.2-.09.13-.17-.1-.11-.2-.22-.31-.32.08.05.17.1.26.14.07.03.13,0,.17-.05.4.23.79.45,1.21.64.09.04.15-.08.08-.14-.18-.17-.37-.34-.56-.49-.13-.16-.27-.31-.41-.46.07.05.14.09.2.14.08.09.17.18.26.26.03.03.08.03.11,0,.48.36.95.74,1.46,1.06.08.05.19-.04.13-.13-.15-.19-.3-.36-.47-.53,0,0,.01,0,.02,0,.02-.01.04-.02.05-.04.03-.02.05-.05.06-.09.47.32.96.63,1.46.9.06.03.13-.06.08-.11-.18-.2-.38-.39-.58-.58.03-.01.05-.04.06-.08,0-.04,0-.07,0-.11.63.41,1.24.85,1.87,1.27.06.04.14-.03.09-.09-.1-.11-.2-.22-.31-.33.08.04.19-.02.17-.12-.01-.07-.04-.15-.07-.22.4.36.77.73,1.18,1.08.08.07.17-.05.12-.12,0-.01-.02-.03-.03-.04,0,0,.01-.01.01-.02.01-.03.02-.07.02-.11.28.27.57.53.89.74.09.05.18-.04.13-.13-.05-.07-.1-.14-.15-.21.03,0,.05-.01.07-.03.1.14.16.23.15.24-.09.06-.04.17.04.2.01.03.04.06.08.07.19.04.3,0,.36-.07,0,.01,0,.03,0,.04,0,.07.06.12.13.13.07.12.14.24.2.37.08.16.31.03.24-.13-.04-.09-.08-.18-.12-.27-.01-.03-.03-.04-.05-.05-.02-.04-.04-.08-.07-.12.01-.06.01-.13,0-.19,0,0,.01.02.02.03.05.07.14.03.17-.03.15.39.3.78.44,1.19-.02.03-.03.06,0,.09.03.06.07.12.1.18.09.16.36.12.33-.09,0,0,0,0,0,0,.06.03.15.01.16-.07,0-.08.01-.17.01-.25.02.04.05.06.09.07.03,0,.06,0,.09,0,.07,0,.14-.02.18-.07,0,.15.19.24.29.11.08-.12.11-.28.12-.46.39-.98-.21-2.56-.55-3.43-.46-1.19-1.23-2.14-2.35-2.75-.07-.04-.13.07-.07.12,1.16.8,1.99,2.21,2.36,3.69-.01-.03-.03-.05-.04-.08-.24-.56-.54-1.1-.88-1.62-.06-.09-.18.01-.13.1,0,0,0,0,0,0-.26-.32-.53-.62-.82-.9-.03-.03-.08.01-.05.04.65.81,1.16,1.64,1.62,2.53.04.12.08.24.11.37.08.28.14.56.19.85-.05-.14-.11-.28-.16-.4-.33-1.3-1.07-2.67-2.08-3.51-.04-.03-.07.03-.05.06.38.53.76,1.04,1.08,1.61-.08-.1-.17-.2-.26-.29,0,0-.02-.01-.03-.02-.4-.69-.89-1.32-1.45-1.81-.03-.02-.06,0-.04.04.46.63.91,1.26,1.28,1.94-.44-.62-.95-1.19-1.54-1.66-.06-.05-.15.04-.1.1.73.85,1.41,1.72,1.91,2.72-.56-.97-1.29-1.85-2.09-2.6-.39-.52-.81-1.02-1.3-1.43-.02-.02-.07,0-.05.04.62.94,1.35,1.79,1.95,2.75.3.47.57.96.83,1.46-.01-.01-.02-.03-.04-.04-.05-.06-.09-.12-.12-.18-.46-.71-.96-1.62-1.69-2.09-.33-.43-.67-.85-1.02-1.26-.07-.08-.46-.56-.56-.24,0,.03.02.04.04.02.12-.15.64.61.7.69.17.23.35.46.52.69.03.04.06.09.09.13-.37-.41-.77-.8-1.19-1.16-.05-.05-.13.03-.08.09.09.11.4.5.8,1.01-.28-.31-.58-.59-.91-.79-.57-.61-1.19-1.21-1.86-1.64-.04-.03-.09.03-.06.07.44.5.92.97,1.4,1.44,0,.03,0,.08.05.1.09.05.36.33.71.73-.15-.08-.3-.15-.45-.2-.15-.14-.29-.28-.44-.41-.67-.62-1.35-1.28-2.1-1.8-.03-.02-.07.02-.04.05.64.69,1.37,1.3,2.04,1.95.03.03.06.05.08.08-.12-.02-.25-.03-.38-.03-.02,0-.04-.02-.06-.03-.72-.68-1.5-1.31-2.33-1.82-.03-.02-.07.02-.04.05.54.48,1.08.94,1.6,1.42-.23-.09-.45-.17-.68-.24-.57-.45-1.16-.86-1.76-1.22-.02-.01-.05.02-.03.03.42.39.86.76,1.31,1.13,0,.02.01.05.03.06.04.02.07.04.11.06.13.11.26.21.39.32-.05.02-.06.09,0,.12.12.05.23.11.34.17.06.05.12.1.17.15-.15-.08-.32-.17-.47-.16-.84-.76-1.81-1.42-2.73-2.02-.03-.02-.07.03-.03.05.62.45,1.22.92,1.8,1.42-.4-.21-.82-.4-1.23-.57-.35-.27-.71-.53-1.08-.76-.02-.01-.05.02-.03.04.18.17.37.34.56.5-.33-.12-.65-.24-.97-.35-.05-.03-.1-.07-.15-.1-.03-.02-.05,0-.05.03-.09-.03-.18-.06-.28-.09-.09-.03-.15.11-.06.14.24.09.48.18.71.28.09.08.18.15.27.23-.26-.12-.53-.24-.8-.36-.08-.04-.13.09-.05.13.6.29,1.19.63,1.75.99.09.08.18.15.27.23-.05-.01-.1-.02-.15-.03-.07-.04-.14-.07-.21-.11-.31-.19-.63-.37-.96-.54-.07-.04-.14-.08-.21-.11,0,0,0,0-.01,0-.52-.25-1.06-.47-1.59-.66-.09-.03-.15.1-.06.14.38.15.74.31,1.09.49,0,0,0,0-.01,0-.56-.26-1.14-.46-1.74-.6-.23-.11-.47-.2-.71-.27-.04-.01-.07.05-.03.07.53.33,1.1.6,1.64.9-.25-.07-.5-.15-.76-.21-.43-.3-.91-.61-1.4-.65-.03,0-.03.04,0,.05.33.14.65.32.95.52-.17-.02-.33-.03-.5-.02-.35-.17-.7-.34-1.05-.5-.03-.01-.05.04-.03.05.26.16.52.32.78.48-.04,0-.08.01-.11.02-.04.01-.06.07-.03.1-.33-.13-.66-.25-1-.34-.03,0-.05.03-.02.05.33.16.65.32.98.48-.02,0-.04,0-.05,0-.34-.14-.69-.25-1.03-.31-.04,0-.06.05-.02.07.17.08.34.16.51.24-1.37-.22-2.92.01-3.92.74-.05.04,0,.11.06.08,1.02-.67,2.24-.69,3.43-.52.21.04.42.09.63.14-.15,0-.31,0-.46.02-.84-.12-1.68-.14-2.52.15-.74.25-1.49.57-2.18.97-.48.13-.96.28-1.42.44-1.26.43-3.08.96-3.57,2.37-.02.06.06.1.09.04ZM136,80.79s0,.02.01.03c.2.48.74,1.6.56,2.14-.02-.56-.2-1.15-.44-1.71-.04-.15-.08-.31-.13-.46ZM132.03,78.99s-.09-.06-.13-.09c-.11-.11-.23-.23-.34-.34.15.1.3.2.44.31.06.07.12.14.18.22-.05-.03-.1-.07-.15-.1ZM130.94,80.03c.37.27.73.56,1,.89-.3-.3-.64-.6-1-.89ZM129.52,77.94s-.07-.03-.1-.04c0,0-.02-.01-.02-.02.04.02.09.04.13.06ZM130.94,78.3c-.15-.09-.31-.18-.47-.27.1.03.2.06.31.11.05.05.11.11.16.16ZM130.07,78.52s-.07-.07-.11-.1c.18.1.36.21.54.31.04.04.08.08.12.12-.18-.11-.37-.22-.55-.33ZM129.81,79.9s.03-.05.04-.07c.09.1.18.21.25.32-.1-.08-.19-.16-.29-.24ZM129.02,80.06s.02.01.02.01c0,0,0,0,0,0,0,0-.01-.01-.02-.02ZM129.04,78.15c.19.09.41.23.61.37,0,0-.01,0-.02.01-.04-.02-.08-.02-.11,0-.16-.13-.32-.26-.48-.38ZM127.89,79.13s0,0,.01,0c.14.12.28.24.41.35-.12-.09-.24-.18-.36-.27-.02-.03-.04-.05-.06-.08ZM126.2,77.06c-.16-.12-.33-.24-.5-.36.36.16.71.33,1.05.5.09.07.19.15.28.22.14.12.29.23.43.35,0,0,0,0-.01,0-.41-.26-.82-.49-1.25-.7ZM124.31,79.03c.1.04.19.09.29.13-.02,0-.04,0-.07,0-.07-.04-.15-.08-.22-.12ZM123.69,77.28c.17.06.33.12.5.17.1.04.21.07.31.11-.04.02-.04.09,0,.11.06.03.11.06.17.1-.14-.04-.27-.09-.38-.12-.2-.12-.4-.25-.59-.37ZM122.5,76.93c.17.04.34.08.51.13.14.09.27.19.41.28.03.02.05.04.08.05-.1-.03-.2-.06-.3-.09-.23-.13-.47-.26-.71-.38ZM121.53,76.81h0c.12,0,.24,0,.36.02.15.09.3.18.45.27-.09-.02-.17-.03-.26-.05-.18-.09-.36-.17-.55-.25ZM117.8,77.92c.13-.05.25-.09.38-.13.19-.06.38-.11.57-.13-.06.02-.11.03-.17.05-.23.06-.47.13-.7.21-.03,0-.06,0-.08,0Z"/>
        <path class="cls-8" d="M188.97,85.16c-.34-1.45-2.1-2.15-3.32-2.7-.44-.2-.9-.4-1.37-.57-.65-.47-1.36-.86-2.07-1.18-.81-.37-1.65-.43-2.5-.39-.15-.03-.3-.05-.46-.06.21-.03.42-.05.64-.07,1.2-.05,2.41.09,3.36.85.05.04.11-.03.07-.07-.92-.83-2.44-1.2-3.83-1.12.17-.06.35-.13.53-.19.04-.01.03-.07-.02-.07-.34.03-.7.11-1.05.21-.02,0-.04,0-.05,0,.34-.13.68-.26,1.02-.39.03-.01,0-.05-.02-.05-.34.06-.69.14-1.03.24.03-.02.02-.09-.02-.1-.04-.01-.07-.02-.11-.03.28-.14.55-.27.83-.4.03-.01.01-.07-.02-.05-.36.13-.73.26-1.09.4-.17-.02-.33-.03-.5-.02.32-.17.65-.32,1-.42.03,0,.02-.05,0-.05-.49,0-.99.26-1.45.51-.26.04-.52.09-.77.14.57-.25,1.16-.46,1.72-.74.04-.02.02-.08-.03-.07-.25.05-.49.12-.73.2-.61.09-1.21.23-1.79.43,0,0,0,0-.01,0,.37-.14.74-.27,1.13-.39.1-.03.05-.17-.05-.15-.54.14-1.1.31-1.65.5,0,0,0,0-.01,0-.08.03-.15.06-.22.09-.34.13-.68.28-1.01.44-.07.03-.15.06-.22.09-.05,0-.1,0-.16.02.1-.07.19-.13.29-.2.6-.3,1.21-.58,1.84-.81.08-.03.04-.16-.04-.13-.28.09-.56.18-.83.28.1-.07.19-.13.29-.2.25-.07.49-.14.74-.21.1-.03.05-.17-.05-.15-.09.02-.19.04-.28.07,0-.02-.01-.05-.04-.04-.05.03-.1.06-.16.08-.33.08-.66.16-1,.26.21-.14.41-.29.6-.45.02-.02,0-.05-.03-.04-.39.19-.77.42-1.15.65-.43.13-.86.28-1.28.45.63-.44,1.27-.86,1.93-1.24.03-.02,0-.07-.03-.05-.97.51-2,1.07-2.91,1.74-.15-.02-.33.05-.49.11.06-.04.13-.09.19-.13.12-.04.24-.09.36-.13.06-.02.05-.1,0-.12.14-.09.28-.19.41-.28.04-.02.07-.03.11-.05.02-.01.04-.03.04-.06.48-.32.95-.65,1.41-1,.02-.02,0-.05-.03-.04-.64.3-1.27.65-1.87,1.04-.24.05-.47.11-.7.17.57-.43,1.15-.84,1.74-1.26.03-.02,0-.06-.03-.05-.88.42-1.71.97-2.49,1.58-.02,0-.04.01-.06.02-.13-.02-.25-.02-.38-.01.03-.02.06-.05.09-.07.74-.58,1.52-1.12,2.22-1.74.03-.03,0-.08-.04-.06-.8.44-1.54,1.03-2.26,1.58-.16.12-.32.24-.48.37-.16.04-.31.1-.47.16.39-.36.68-.61.78-.65.05-.02.06-.06.05-.09.52-.42,1.04-.84,1.53-1.3.04-.03,0-.1-.05-.07-.72.37-1.39.9-2.01,1.46-.35.16-.68.42-.98.7.45-.47.8-.82.9-.93.05-.05-.02-.13-.08-.09-.45.32-.88.67-1.29,1.04.04-.04.07-.08.11-.12.19-.21.39-.43.58-.64.07-.08.66-.78.77-.62.01.02.05.01.04-.02-.07-.33-.51.12-.58.19-.39.37-.77.76-1.14,1.15-.77.4-1.36,1.25-1.89,1.91-.04.05-.09.11-.14.17-.01.01-.03.02-.04.04.31-.47.63-.93.97-1.37.69-.89,1.49-1.68,2.2-2.55.02-.03-.02-.06-.05-.04-.52.37-.99.82-1.43,1.3-.87.66-1.68,1.47-2.34,2.38.6-.95,1.36-1.75,2.17-2.52.06-.06-.02-.15-.09-.11-.64.42-1.21.93-1.7,1.51.44-.65.95-1.22,1.47-1.81.02-.03,0-.06-.04-.04-.6.43-1.15,1.01-1.61,1.66-.01,0-.02,0-.03.01-.1.08-.19.17-.29.26.37-.53.81-1,1.23-1.49.03-.03,0-.09-.05-.07-1.08.75-1.96,2.04-2.41,3.3-.06.12-.13.25-.2.38.08-.28.17-.55.28-.82.05-.12.1-.24.15-.36.54-.84,1.13-1.62,1.85-2.36.03-.03-.01-.08-.04-.05-.31.25-.61.52-.9.82,0,0,0,0,0,0,.06-.08-.05-.2-.12-.11-.39.48-.74.99-1.03,1.52-.02.02-.03.05-.05.07.51-1.44,1.48-2.76,2.71-3.44.07-.04.02-.15-.06-.12-1.18.5-2.03,1.37-2.61,2.51-.42.83-1.17,2.35-.88,3.36-.02.18,0,.34.07.47.08.14.29.07.3-.08.04.05.1.09.17.09.03,0,.06,0,.09,0,.04,0,.08-.02.1-.06,0,.08-.01.17-.01.25,0,.09.09.12.15.09,0,0,0,0,0,0-.05.2.21.27.32.12.04-.06.08-.11.12-.17.02-.03.02-.07,0-.09.18-.39.36-.77.55-1.14.02.07.11.11.17.05,0,0,.01-.02.02-.02-.01.06-.01.13,0,.19-.03.04-.05.08-.08.12-.02,0-.04.02-.06.04-.05.09-.1.17-.15.26-.09.15.13.3.23.15.08-.12.16-.23.24-.34.06,0,.13-.05.14-.12,0-.01,0-.03,0-.04.05.08.16.12.35.1.04,0,.07-.03.09-.06.08-.02.14-.13.06-.2-.01,0,.05-.09.17-.22.02.02.04.03.07.04-.06.06-.12.13-.17.19-.07.08.02.18.11.14.34-.17.66-.41.96-.65,0,.04,0,.07.01.11,0,0,0,.02.01.03,0,.01-.02.03-.03.04-.05.07.02.2.11.13.43-.31.85-.64,1.28-.96-.04.07-.07.14-.09.21-.03.1.08.17.16.14-.12.1-.23.2-.34.3-.06.05.02.13.08.1.67-.36,1.32-.73,1.98-1.08,0,.04,0,.07,0,.11,0,.04.02.07.05.08-.22.16-.43.34-.63.52-.05.05,0,.15.07.12.53-.22,1.04-.48,1.54-.76,0,.04.02.07.05.09.02.01.03.03.05.04,0,0,0,0,.01,0-.18.15-.36.31-.52.48-.07.08.03.19.11.14.53-.28,1.04-.6,1.55-.92.03.02.07.03.11,0,.1-.07.19-.15.28-.24.07-.04.14-.08.21-.12-.16.13-.31.27-.46.42-.21.13-.41.28-.61.43-.07.06-.03.19.07.15.43-.15.85-.33,1.26-.52.03.05.09.09.16.06.09-.03.18-.07.27-.11-.12.1-.24.19-.34.29-.08.07.01.22.11.18.34-.15.68-.32,1.01-.49.01.09.08.18.18.17.11,0,.22-.01.32-.02.08,0,.12-.11.07-.17.25-.12.5-.23.75-.34-.02.02-.03.05-.02.08,0,0,0,0,0,0-.28.15-.54.31-.8.49-.07.05-.02.18.07.15.16-.06.33-.13.49-.19.01.07.06.12.13.14.02,0,.04,0,.07.01.08.02.14-.05.15-.12,0-.09.18-.2.45-.31.09.01.18.03.27.04,0,.03.01.05.03.08-.05.03-.09.06-.14.09-.09.06-.02.19.08.17.28-.07.56-.16.83-.25.01,0,.02,0,.03,0,0,0-.01,0-.02.01-.07.04-.01.13.05.12.11-.03.23-.06.34-.08.04,0,.08,0,.11.02.17.03.34.06.5.09.01.02.03.03.05.03.02,0,.04,0,.05,0,.56.11,1.12.24,1.67.38.03,0,.06-.04.03-.05-.33-.16-.68-.29-1.03-.4.14-.01.28-.03.42-.04.56.21,1.12.45,1.65.72.04.02.07-.03.04-.05-.41-.25-.82-.48-1.25-.68.11,0,.23,0,.34,0,.1,0,.2.02.3.03.83.34,1.64.77,2.42,1.16.05.02.1-.04.05-.07-.35-.29-.72-.55-1.1-.78.11.02.22.04.33.05.74.41,1.48.85,2.24,1.25.07.04.11-.06.05-.1-.42-.3-.88-.65-1.36-1,.12.02.25.04.37.06.8.45,1.57.96,2.32,1.48.04.03.09-.04.05-.07-.46-.43-.97-.84-1.5-1.23.05,0,.09.02.14.03.74.45,1.46.99,1.83,1.68.02.04.07,0,.05-.03-.28-.58-.74-1.07-1.27-1.49.11.03.22.06.32.09.16.1.31.19.46.29.16.12.32.24.47.36.02.01.04.02.06,0,.21.15.41.31.61.47.04.03.08,0,.09-.02.21.15.43.3.64.45.03.02.08-.03.05-.06-.25-.31-.54-.6-.85-.88.45.24.88.53,1.28.89.05.05.11-.02.07-.07-.66-.8-1.7-1.45-2.84-1.89-.04-.02-.08-.05-.13-.07-.01-.01-.03-.03-.04-.04,1.3.53,3.14,1.26,3.73,2.58.03.06.11.04.1-.03ZM163.88,82.61c-.29.53-.53,1.1-.6,1.65-.13-.56.51-1.61.76-2.08,0,0,0-.02.01-.02-.06.15-.12.3-.18.44ZM168.02,80.84c.07-.07.14-.13.2-.2.15-.09.31-.18.47-.26-.13.1-.25.2-.38.3-.05.02-.09.05-.14.07-.05.03-.1.06-.16.08ZM168.09,82.68c.3-.3.69-.55,1.08-.79-.39.25-.75.52-1.08.79ZM170.92,79.9s-.02.01-.03.02c-.04.01-.07.02-.11.03.04-.02.09-.03.13-.05ZM169.51,80.03c.11-.03.21-.06.31-.08-.17.07-.33.14-.49.22.06-.05.12-.09.18-.14ZM169.6,80.75s.09-.07.13-.1c.19-.09.38-.18.57-.26-.04.03-.08.06-.12.09-.2.09-.39.18-.58.27ZM170,82.09c.08-.1.18-.2.28-.29.01.03.02.05.03.08-.11.07-.21.14-.31.21ZM171.06,82.13s0,0,0,0c0,0,0,0,.02-.01,0,0-.01.01-.02.02ZM170.72,80.53s-.07-.02-.11,0c0,0,0-.01-.02-.01.21-.12.44-.23.64-.31-.18.1-.35.21-.52.33ZM172.23,81.37c-.13.07-.26.15-.38.23.14-.1.29-.2.44-.31,0,0,0,0,.01,0-.02.02-.05.05-.07.07ZM172.86,79.98s-.01,0-.02,0c.15-.1.31-.2.46-.31.1-.06.2-.13.3-.19.36-.14.73-.28,1.1-.4-.18.1-.36.21-.53.31-.44.17-.88.36-1.31.58ZM175.63,81.65s-.04,0-.07,0c.1-.03.2-.06.3-.1-.08.03-.16.06-.23.1ZM176.02,80.17c-.12.03-.26.05-.4.09.06-.03.12-.05.17-.08.05-.02.05-.09.02-.11.11-.03.21-.06.32-.08.17-.04.34-.08.51-.12-.21.1-.42.21-.63.31ZM177.13,79.94c-.1.02-.2.04-.31.06.03-.02.06-.03.09-.05.15-.08.29-.16.44-.24.17-.03.35-.06.52-.08-.25.1-.5.2-.74.31ZM178.28,79.8c-.09,0-.18.01-.26.02.16-.08.31-.15.47-.23.12,0,.24,0,.36.02h0c-.19.06-.38.12-.57.19ZM182.37,81.06c-.22-.1-.45-.19-.67-.27-.05-.02-.11-.04-.16-.07.18.05.37.11.55.19.12.05.24.11.36.17-.03,0-.06-.01-.08-.02Z"/>
        <g>
          <g>
            <path class="cls-7" d="M131.08,102.28c-.17,3.43-3.07,6.07-6.5,5.9-3.42-.17-6.07-3.07-5.9-6.5.17-3.42,3.08-6.07,6.5-5.9,3.43.17,6.06,3.09,5.9,6.51Z"/>
            <path class="cls-7" d="M177.18,104.54c-.17,3.43-3.08,6.07-6.5,5.9s-6.07-3.07-5.9-6.5c.17-3.42,3.08-6.07,6.51-5.9,3.43.17,6.06,3.09,5.9,6.51Z"/>
          </g>
          <path class="cls-6" d="M146.68,128.12c1.39.07,2.68.48,3.79,1.16.35.21.7-.25.41-.54-1.07-1.06-2.52-1.74-4.15-1.82-1.62-.08-3.13.45-4.31,1.39-.32.25,0,.75.36.57,1.18-.56,2.5-.84,3.89-.77Z"/>
        </g>
      </g>
    </g>
  </g>
</svg>