<?xml version="1.0" encoding="UTF-8"?><svg xmlns="http://www.w3.org/2000/svg" xmlns:xlink="http://www.w3.org/1999/xlink" viewBox="0 0 284.93 302"><defs><style>.cls-1{fill:none;}.cls-2{clip-path:url(#clippath);}.cls-3{fill:#0480cb;}.cls-4,.cls-5,.cls-6{fill:#fff;}.cls-7{fill:#51bdec;}.cls-8,.cls-9{fill:#502b19;}.cls-9{stroke:#502b19;stroke-width:1.2px;}.cls-9,.cls-5,.cls-10{stroke-miterlimit:10;}.cls-11{clip-path:url(#clippath-1);}.cls-5{stroke:#fff;}.cls-10{stroke:#000;stroke-width:2px;}.cls-12{opacity:.6;}.cls-6{opacity:.74;}.cls-13{filter:url(#outer-glow-6);}</style><filter id="outer-glow-6" filterUnits="userSpaceOnUse"><feOffset dx="0" dy="0"/><feGaussianBlur result="blur" stdDeviation="5"/><feFlood flood-color="#f6ff00" flood-opacity=".41"/><feComposite in2="blur" operator="in"/><feComposite in="SourceGraphic"/></filter><clipPath id="clippath"><path class="cls-1" d="m77.45,216.77c-5.71,5.83-18.53,2.53-28.64-7.36-10.12-9.89-13.69-22.64-7.99-28.48,5.71-5.83,18.53-2.54,28.65,7.36,10.12,9.91,13.69,22.65,7.99,28.48Z"/></clipPath><clipPath id="clippath-1"><path class="cls-1" d="m201.26,222.47c5.25,6.24,18.29,3.9,29.11-5.22,10.81-9.12,15.32-21.58,10.07-27.81-5.27-6.24-18.3-3.9-29.11,5.22-10.82,9.12-15.33,21.58-10.06,27.81Z"/></clipPath></defs><g id="Platforms"><path class="cls-7" d="m12.51,283.16h259.92c2.78,0,5.04-2.26,5.04-5.04l4-127.92c0-2.78-2.26-5.04-5.04-5.04H8.51c-2.78,0-5.04,2.26-5.04,5.04l3,127.92c0,2.78,3.26,5.04,6.04,5.04Z"/><path d="m6.46,278.12c0,2.78,3.26,5.04,6.04,5.04h259.92c2.78,0,5.04-2.26,5.04-5.04H6.46Z"/></g><g id="Bells"><g class="cls-13"><line class="cls-5" x1="162.78" y1="39.98" x2="138.12" y2="55.6"/><path class="cls-3" d="m235.4,176.58c.57,3.68.5,7.35.23,11.04-.34,4.72-1.15,9.31-2.56,13.81-2.23,7.19-6.37,13.13-11.93,18.14-6.58,5.92-14.3,9.89-22.39,13.22-10.37,4.26-21.16,6.81-32.29,8.03-7.91.87-15.85,1.27-23.8,1.09-1.82-.03-3.64-.11-5.44-.18-9.11-.21-18.15-1.1-27.12-2.65-15.86-2.72-30.77-8-44.31-16.8-5.62-3.66-10.65-7.99-14.65-13.4-4.22-5.74-6.7-12.17-7.59-19.25-.64-5.05-.86-10.11-.36-15.16.87-8.75,4.39-16.32,10.27-22.84,2.89-3.21,6.3-5.8,9.71-8.42,1.26-.95,2.5-1.93,3.5-3.17.79-.94,1.42-2.01,1.52-3.22.21-2.91,1.07-5.64,2.26-8.26,4.87-10.7,8.75-21.85,14.03-32.38,3.41-6.79,7.67-12.97,13.16-18.25.65-.63,1.32-1.25,2.02-1.84,2.23-1.97,4.65-3.72,6.87-5.77,3.27-2.99,7.39-4.56,11.58-5.84,6.31-1.9,12.76-2.71,19.34-2.87,7.5-.16,14.93.5,22.24,2.26,5.01,1.2,9.92,2.75,14.29,5.5,8.44,5.31,15.79,11.76,21,20.41,3.32,5.53,5.94,11.38,8.04,17.46,3.1,9.03,6.06,18.1,9.19,27.12.83,2.34,1.41,4.77,1.41,7.3,0,1.94.95,3.54,2.25,4.93,2.1,2.23,4.55,4.14,6.78,6.26,6.81,6.54,11.27,14.34,12.75,23.74Z"/><g class="cls-12"><g class="cls-2"><path class="cls-4" d="m50.81,182.1c3.78,17.12,15.98,34.22,33.95,38.07,4.56.98,9.24.98,13.8,0,2.18-.46,1.26-3.81-.92-3.35-16.11,3.42-30.81-7.7-38.18-21.24-2.46-4.52-4.19-9.38-5.3-14.41-.48-2.18-3.83-1.26-3.35.92h0Z"/></g></g><g class="cls-12"><g class="cls-11"><path class="cls-4" d="m227.08,188.81c-4.66,15.54-16.85,30.54-33.69,33.06-4.14.62-8.38.3-12.39-.87-2.15-.62-3.07,2.72-.92,3.35,17.27,5.01,34.27-5.43,43.51-19.65,3-4.61,5.26-9.69,6.84-14.96.64-2.14-2.71-3.06-3.35-.92h0Z"/></g></g><rect class="cls-10" x="141.17" y="60.19" width="7.54" height="19.24" transform="translate(69.82 212.08) rotate(-87.88)"/><path class="cls-10" d="m169.53,49.9c-.31,8.42-7.11,15.35-16.28,17.54-2.29.55-4.74.8-7.26.71-3.31-.12-6.43-.83-9.25-2-7.84-3.27-13.14-10.17-12.86-17.94.39-10.55,10.92-18.72,23.52-18.26,12.62.47,22.52,9.39,22.13,19.94Z"/><path class="cls-4" d="m136.48,43.99l5.62.21-.02.42c-.04.96-.19,1.81-.46,2.54-.26.68-.68,1.3-1.26,1.88-1.31,1.29-2.94,1.9-4.89,1.83-1.9-.07-3.5-.78-4.81-2.12-1.31-1.35-1.93-2.93-1.86-4.75.07-1.86.82-3.41,2.24-4.65,1.43-1.25,3.13-1.84,5.11-1.76,1.06.04,2.05.28,2.95.72.86.44,1.71,1.14,2.52,2.09l-1.51,1.26c-1.06-1.44-2.4-2.19-4-2.25-1.44-.05-2.66.37-3.67,1.27-1.01.88-1.54,2.01-1.59,3.4-.05,1.43.45,2.62,1.5,3.58.98.9,2.07,1.36,3.25,1.41,1.01.04,1.93-.25,2.75-.86.83-.62,1.31-1.37,1.43-2.27l-3.39-.12.07-1.82Z"/><path class="cls-4" d="m151.06,37.6l-.04,1.05-1.54-.06-.29,1.7,1.4.05-.04,1.05-1.54-.06-.48,2.83-1.11-.18.46-2.7-1.88-.07-.48,2.84-1.12-.18.46-2.72-1.44-.05.04-1.02,1.6.06.29-1.7-1.46-.05.04-1.05,1.6.06.45-2.66,1.1.18-.43,2.52,1.87.07.45-2.66,1.1.18-.43,2.52,1.42.05Zm-2.72.95l-1.86-.07-.29,1.7,1.87.07.28-1.7Z"/><path class="cls-4" d="m152.47,58.9l-5.82-.21-1.63,3.05-2.21-.08,7.23-13.36,5.98,13.85-2.24-.08-1.31-3.16Zm-.77-1.85l-1.85-4.43-2.27,4.28,4.13.15Z"/><path class="cls-4" d="m159.04,45.19l-.18,4.94c.59-.54,1.25-.79,1.97-.76.83.03,1.51.35,2.04.95.53.6.78,1.33.75,2.2-.03.89-.34,1.62-.92,2.19-.57.56-1.28.82-2.12.79-.71-.03-1.34-.31-1.88-.85l-.02.61-1.42-.05.37-10.07,1.42.05Zm3.12,7.33c.02-.56-.12-1.02-.43-1.38-.31-.37-.71-.56-1.2-.58-.52-.02-.96.14-1.3.47-.34.33-.52.77-.54,1.32-.02.56.12,1.02.43,1.37.31.36.72.55,1.25.57.49.02.91-.14,1.25-.47.34-.34.52-.77.54-1.29Z"/><line class="cls-5" x1="158.82" y1="40.49" x2="134.16" y2="56.11"/><path class="cls-9" d="m126.89,120.15c-.12,3.33-2.91,5.91-6.23,5.79s-5.91-2.91-5.79-6.24c.12-3.31,2.91-5.92,6.24-5.79,3.32.12,5.91,2.92,5.79,6.24Z"/><path class="cls-9" d="m171.6,121.8c-.12,3.33-2.91,5.91-6.23,5.79-3.32-.12-5.92-2.91-5.79-6.24.12-3.31,2.92-5.92,6.24-5.79s5.91,2.92,5.79,6.24Z"/><path class="cls-8" d="m120.76,97.32c2.39-.43,4.74-.24,6.89.46.67.22,1.09-.7.49-1.07-2.24-1.37-4.97-1.96-7.75-1.45-2.79.5-5.14,2-6.76,4.07-.43.55.28,1.27.83.83,1.78-1.41,3.91-2.41,6.3-2.84Z"/><path class="cls-8" d="m167.17,98.51c2.29.8,4.24,2.12,5.78,3.78.48.52,1.3-.08.95-.69-1.28-2.29-3.37-4.14-6.04-5.07-2.67-.93-5.46-.78-7.89.23-.65.27-.38,1.25.32,1.14,2.24-.35,4.59-.18,6.88.62Z"/><path class="cls-8" d="m142.26,141.13c1.35.05,2.6.44,3.69,1.08.34.2.68-.25.39-.52-1.05-1.01-2.46-1.66-4.04-1.72-1.57-.06-3.03.47-4.16,1.4-.3.25,0,.72.35.55,1.13-.55,2.41-.84,3.76-.79Z"/><ellipse class="cls-6" cx="140.32" cy="177.45" rx="18" ry="16.5" transform="translate(-49.65 300.28) rotate(-84.55)"/></g></g></svg>