<?xml version="1.0" encoding="UTF-8"?>
<svg xmlns="http://www.w3.org/2000/svg" xmlns:xlink="http://www.w3.org/1999/xlink" viewBox="0 0 284.93 302">
  <defs>
    <style>
      .cls-1, .cls-2 {
        fill: none;
      }

      .cls-2 {
        opacity: .7;
      }

      .cls-2, .cls-3 {
        stroke: #fff;
      }

      .cls-2, .cls-3, .cls-4, .cls-5, .cls-6 {
        stroke-miterlimit: 10;
      }

      .cls-2, .cls-6 {
        stroke-width: 1.94px;
      }

      .cls-7 {
        opacity: .74;
      }

      .cls-7, .cls-3, .cls-8, .cls-5, .cls-6 {
        fill: #fff;
      }

      .cls-9 {
        fill: #502b19;
        font-family: Futura-Medium, Futura;
        font-size: 27.61px;
        font-weight: 500;
      }

      .cls-3 {
        stroke-width: .97px;
      }

      .cls-10 {
        clip-path: url(#clippath-1);
      }

      .cls-4 {
        stroke: #3f2414;
        stroke-width: .69px;
      }

      .cls-4, .cls-11 {
        fill: #3f2414;
      }

      .cls-5 {
        stroke-width: .47px;
      }

      .cls-5, .cls-6 {
        stroke: #69b945;
      }

      .cls-12 {
        opacity: .8;
      }

      .cls-13 {
        opacity: .6;
      }

      .cls-14 {
        fill: #69b945;
      }

      .cls-15 {
        clip-path: url(#clippath);
      }

      .cls-16 {
        fill: #afd366;
      }

      .cls-17 {
        filter: url(#outer-glow-13);
      }
    </style>
    <filter id="outer-glow-13" x="34.92" y="18" width="204" height="210" filterUnits="userSpaceOnUse">
      <feOffset dx="0" dy="0"/>
      <feGaussianBlur result="blur" stdDeviation="5"/>
      <feFlood flood-color="#f6ff00" flood-opacity=".41"/>
      <feComposite in2="blur" operator="in"/>
      <feComposite in="SourceGraphic"/>
    </filter>
    <clipPath id="clippath">
      <path class="cls-1" d="M82.05,186.62c-5.19,4.52-15.76.88-23.59-8.14-7.84-8.98-9.97-19.95-4.78-24.46,5.19-4.52,15.75-.88,23.59,8.11,7.83,9.02,9.98,19.97,4.79,24.5Z"/>
    </clipPath>
    <clipPath id="clippath-1">
      <path class="cls-1" d="M186.36,199.65c4,5.59,15.12,4.51,24.83-2.41,9.71-6.95,14.34-17.11,10.34-22.72-4-5.6-15.12-4.52-24.83,2.44-9.71,6.91-14.35,17.09-10.34,22.69Z"/>
    </clipPath>
  </defs>
  <g id="Platforms">
    <g>
      <path class="cls-16" d="M12.51,283.16h259.92c2.78,0,5.04-2.26,5.04-5.04l4-127.92c0-2.78-2.26-5.04-5.04-5.04H8.51c-2.78,0-5.04,2.26-5.04,5.04l3,127.92c0,2.78,3.26,5.04,6.04,5.04Z"/>
      <path d="M6.46,278.12c0,2.78,3.26,5.04,6.04,5.04h259.92c2.78,0,5.04-2.26,5.04-5.04H6.46Z"/>
    </g>
  </g>
  <g id="Bells">
    <g class="cls-17">
      <g>
        <path class="cls-14" d="M217.96,163.49c.22,3.14-.09,6.25-.56,9.3-.6,3.96-1.6,7.8-3.08,11.43-2.39,5.92-6.27,10.62-11.28,14.46-5.92,4.53-12.66,7.36-19.72,9.6-8.98,2.88-18.23,4.31-27.68,4.57-6.71.21-13.39-.03-20.06-.66-1.54-.17-3.06-.36-4.58-.54-7.66-.8-15.17-2.15-22.62-4.06-13.15-3.38-25.31-8.81-36.11-17.14-4.49-3.45-8.42-7.45-11.44-12.26-3.15-5.11-4.8-10.66-5.08-16.68-.2-4.31-.02-8.56.74-12.78,1.33-7.33,4.81-13.4,10.2-18.52,2.62-2.48,5.68-4.47,8.71-6.38,1.12-.74,2.26-1.47,3.17-2.47.71-.75,1.31-1.54,1.47-2.58.39-2.45,1.31-4.69,2.47-6.83,4.81-8.65,8.83-17.76,14-26.29,3.31-5.43,7.32-10.38,12.29-14.39.61-.5,1.21-.99,1.84-1.45,2-1.5,4.14-2.79,6.14-4.38,2.96-2.27,6.52-3.37,10.15-4.14,5.42-1.19,10.92-1.42,16.43-1.12,6.34.4,12.52,1.47,18.57,3.41,4.11,1.35,8.16,3,11.63,5.6,6.74,5.04,12.5,10.95,16.28,18.6,2.43,4.88,4.23,9.97,5.57,15.22,2.01,7.81,3.88,15.62,5.92,23.43.51,2.02.86,4.08.69,6.21-.13,1.68.55,3.06,1.53,4.31,1.63,2.02,3.55,3.79,5.29,5.71,5.29,5.99,8.52,12.87,9.13,20.82Z"/>
        <path class="cls-1" d="M121.26,82.08c.38-3.25,5.15-5.33,10.69-4.68"/>
        <g>
          <path class="cls-3" d="M133.12,112.51c-.34,2.89-1.15,5.88-3.64,7.01-1.28.58-3.78.19-5.28.01-1.58-.19-4.43-.58-5.58-1.52-2.05-1.68-1.79-4.57-1.46-7.38.52-4.42,4.51-7.58,8.92-7.06,4.41.52,7.56,4.52,7.04,8.94Z"/>
          <path class="cls-4" d="M128.82,113.96c-.1.87-.31,2.32-.84,2.85-.56.56-1.55.5-2.31.41-.73-.09-1.98-.23-2.39-.88-.41-.65.1-2.12.21-3.01.21-1.82,1.58-3.12,3.05-2.95,1.47.17,2.49,1.76,2.28,3.58Z"/>
          <path class="cls-3" d="M156.79,115.3c-.34,2.89-.25,5.99,1.91,7.66,1.11.86,3.63,1.06,5.13,1.24,1.58.19,4.45.46,5.78-.18,2.39-1.15,2.8-4.02,3.14-6.84.52-4.42-2.63-8.42-7.04-8.94s-8.4,2.65-8.92,7.06Z"/>
          <path class="cls-4" d="M160.64,117.7c-.1.87-.24,2.33.15,2.97.41.68,1.39.85,2.15.94s1.98.23,2.53-.3c.55-.53.39-2.08.5-2.98.21-1.82-.81-3.4-2.28-3.58s-2.83,1.13-3.05,2.95Z"/>
          <path class="cls-11" d="M139.85,131.31c.42-.12.74-.4,1.14-.58.45-.2,1.01-.17,1.49-.06s.88.39,1.31.6.8.52,1.13.88.83-.17.51-.51c-.35-.39-.77-.74-1.23-.97-.49-.25-.98-.56-1.52-.69s-1.15-.16-1.7,0c-.48.14-.84.51-1.31.64s-.26.83.19.7h0Z"/>
          <path class="cls-11" d="M120.79,96.39c.68-.7,1.57-1.21,2.38-1.75.73-.48,1.44-.4,2.27-.4,1.38,0,3.29-.06,3.97,1.42.19.43.82.06.63-.37-.78-1.7-2.87-1.77-4.49-1.78-.88,0-1.73-.1-2.52.36-.5.28-.96.64-1.44.96s-.93.64-1.32,1.05c-.33.34.19.85.51.51h0Z"/>
          <path class="cls-11" d="M172.37,101.26c-.55-.93-1.4-1.73-2.15-2.5-.62-.64-1.41-.78-2.24-.98-1.63-.39-3.76-.89-4.98.63-.29.36.22.88.51.51,1.06-1.33,2.98-.75,4.39-.42.73.17,1.37.28,1.9.86.66.72,1.44,1.42,1.95,2.26.24.4.87.04.63-.37h0Z"/>
          <ellipse class="cls-7" cx="139.33" cy="156.33" rx="14.26" ry="13.4" transform="translate(-20.72 291.37) rotate(-88.45)"/>
        </g>
      </g>
      <g class="cls-12">
        <g class="cls-15">
          <path class="cls-8" d="M62.03,155.76c2.03,14.65,11.12,29.66,25.9,34.19,3.67,1.12,7.57,1.47,11.37.98,1.83-.23,1.86-3.15,0-2.91-13.91,1.78-25.52-8.32-30.93-20.37-1.8-4.01-2.93-8.32-3.53-12.67-.26-1.85-3.06-1.06-2.81.77h0Z"/>
        </g>
      </g>
      <g class="cls-13">
        <g class="cls-10">
          <path class="cls-8" d="M210.32,173.22c-4.94,12.65-16.29,24.54-30.55,25.4-3.59.22-7.11-.33-10.46-1.6-1.75-.66-2.51,2.15-.77,2.81,14.12,5.34,29.09-2.33,37.77-13.6,2.87-3.73,5.11-7.86,6.82-12.24.68-1.75-2.13-2.5-2.81-.77h0Z"/>
        </g>
      </g>
      <g>
        <rect class="cls-5" x="145.5" y="59.29" width="6.37" height="16.63" transform="translate(64.16 207.36) rotate(-83.29)"/>
        <path class="cls-6" d="M170.77,52.51c-.83,7.07-7.03,12.44-14.88,13.66-1.96.32-4.02.35-6.15.1-2.78-.33-5.36-1.13-7.63-2.32-6.4-3.29-10.37-9.42-9.6-15.95,1.04-8.83,10.44-14.98,21-13.74,10.58,1.25,18.3,9.41,17.26,18.25Z"/>
      </g>
      <text class="cls-9" transform="translate(144.5 60.48) rotate(6.71) scale(1.14 1)"><tspan x="0" y="0">f</tspan></text>
      <path class="cls-2" d="M197.47,161.94c-1.18-.53-2.23-2.37-2.51-3.6-.24-1.04.08-3.17-.21-3.79"/>
    </g>
  </g>
</svg>