<?xml version="1.0" encoding="UTF-8"?><svg xmlns="http://www.w3.org/2000/svg" xmlns:xlink="http://www.w3.org/1999/xlink" viewBox="0 0 284.93 302"><defs><style>.cls-1,.cls-2{fill:none;}.cls-3{clip-path:url(#clippath);}.cls-4{fill:#f4941d;}.cls-5,.cls-6,.cls-7{fill:#fff;}.cls-8{fill:#fcbe85;}.cls-9,.cls-10{fill:#3f2414;}.cls-6{stroke-width:.97px;}.cls-6,.cls-2{stroke:#fff;}.cls-6,.cls-2,.cls-10,.cls-7,.cls-11{stroke-miterlimit:10;}.cls-12{clip-path:url(#clippath-1);}.cls-2{opacity:.7;stroke-width:1.94px;}.cls-10{stroke:#3f2414;stroke-width:.69px;}.cls-7{stroke:#f4941d;stroke-width:2.23px;}.cls-13{opacity:.3;}.cls-11{fill:#502b19;stroke:#502b19;stroke-width:.44px;}.cls-14{opacity:.6;}.cls-15{opacity:.8;}</style><clipPath id="clippath"><path class="cls-1" d="m89.87,228.9c-4.64,5.09-15.55,2.7-24.37-5.36-8.82-8.02-12.21-18.66-7.58-23.74,4.63-5.09,15.54-2.7,24.37,5.33,8.82,8.05,12.22,18.69,7.58,23.78Z"/></clipPath><clipPath id="clippath-1"><path class="cls-1" d="m194.99,229.79c4.62,5.09,15.54,2.73,24.38-5.27,8.85-8.03,12.27-18.65,7.65-23.76-4.62-5.1-15.54-2.74-24.38,5.3-8.85,7.99-12.28,18.63-7.65,23.73Z"/></clipPath></defs><g id="Platforms"><rect class="cls-8" x="3.46" y="145.16" width="278" height="128" rx="5.04" ry="5.04"/><path d="m3.46,268.12c0,2.78,2.26,5.04,5.04,5.04h267.92c2.78,0,5.04-2.26,5.04-5.04"/></g><g id="Bells"><path class="cls-4" d="m222.2,190.22c.59,3.09.63,6.22.52,9.3-.14,4-.68,7.94-1.73,11.71-1.69,6.16-5,11.28-9.54,15.66-5.35,5.18-11.73,8.78-18.48,11.82-8.59,3.9-17.61,6.39-26.97,7.74-6.64.99-13.3,1.52-20,1.66-1.55,0-3.08,0-4.61,0-7.7.09-15.32-.38-22.94-1.42-13.45-1.84-26.16-5.82-37.85-12.85-4.86-2.9-9.22-6.42-12.78-10.85-3.72-4.71-6-10.04-6.97-15.98-.7-4.26-1.01-8.5-.75-12.78.47-7.43,3.22-13.87,7.99-19.58,2.32-2.77,5.12-5.09,7.91-7.35,1.02-.86,2.07-1.72,2.87-2.82.62-.83,1.12-1.68,1.16-2.73.1-2.48.76-4.81,1.66-7.07,3.78-9.15,6.72-18.66,10.86-27.73,2.66-5.78,6.07-11.15,10.54-15.71.55-.57,1.09-1.13,1.66-1.65,1.81-1.72,3.79-3.25,5.59-5.06,2.68-2.6,6.09-4.1,9.61-5.28,5.25-1.81,10.68-2.68,16.19-3.01,6.34-.34,12.6,0,18.84,1.24,4.24.87,8.45,2.04,12.2,4.22,7.28,4.23,13.68,9.43,18.32,16.6,2.97,4.56,5.35,9.41,7.3,14.47,2.9,7.53,5.66,15.07,8.59,22.59.74,1.94,1.32,3.95,1.4,6.09.06,1.69.9,2.97,2.02,4.1,1.86,1.82,3.96,3.35,5.91,5.06,5.95,5.34,9.95,11.8,11.47,19.63Z"/><path class="cls-1" d="m116.74,120.53c0-3.27,4.5-5.89,10.07-5.89"/><path class="cls-6" d="m132.03,153.38c0,2.91-.46,5.98-2.8,7.38-1.21.72-3.73.62-5.24.62-1.59,0-4.47-.07-5.72-.86-2.23-1.43-2.31-4.33-2.3-7.16,0-4.45,3.61-8.05,8.04-8.04,4.44,0,8.03,3.62,8.02,8.07Z"/><path class="cls-10" d="m127.92,155.32c0,.88-.04,2.34-.5,2.93-.49.62-1.48.68-2.24.68s-1.99,0-2.48-.59c-.48-.59-.14-2.12-.14-3.02,0-1.83,1.21-3.28,2.69-3.28,1.48,0,2.68,1.46,2.68,3.29Z"/><path class="cls-6" d="m155.87,153.41c0,2.91.45,5.98,2.78,7.39,1.21.73,3.73.63,5.24.64,1.59,0,4.47-.05,5.72-.85,2.24-1.42,2.32-4.32,2.32-7.15,0-4.45-3.58-8.06-8.02-8.07-4.44,0-8.04,3.6-8.04,8.04Z"/><path class="cls-10" d="m159.97,155.36c0,.88.03,2.34.49,2.93.49.62,1.48.68,2.24.68s1.99,0,2.48-.59c.49-.59.15-2.11.15-3.02,0-1.83-1.2-3.29-2.68-3.29s-2.68,1.45-2.69,3.28Z"/><path class="cls-9" d="m140.86,167.29c.41-.17.7-.46,1.07-.69.42-.26.94-.3,1.43-.26.51.04.98.28,1.46.45.44.16.83.4,1.18.71s.87-.21.51-.51c-.4-.35-.84-.65-1.34-.84-.52-.2-1.06-.45-1.62-.52s-1.13-.03-1.64.18c-.46.19-.78.6-1.23.79-.18.07-.31.24-.25.45.05.17.27.33.45.25h0Z"/><path class="cls-9" d="m117.95,136.75c.59-.77,1.43-1.38,2.16-2,.63-.53,1.31-.54,2.09-.63,1.36-.16,3.33-.48,4.17.91.24.4.87.03.63-.37-1.01-1.67-3.13-1.46-4.8-1.27-.88.1-1.68.12-2.41.68-.87.67-1.81,1.43-2.48,2.31-.28.37.35.73.63.37h0Z"/><path class="cls-9" d="m169.74,135.71c-.34-.45-.75-.83-1.18-1.19s-.85-.75-1.29-1.1c-.71-.57-1.54-.6-2.41-.7-1.68-.2-3.77-.4-4.81,1.25-.25.4.38.76.63.37.86-1.38,2.81-1.06,4.18-.89.78.09,1.48.12,2.1.65.72.63,1.58,1.21,2.16,1.98.28.37.91,0,.63-.37h0Z"/><g class="cls-13"><path class="cls-5" d="m159.44,181.33h.08c-.01,9.04-7.53,16.35-16.87,16.43-9.32-.11-16.85-7.44-16.83-16.47h.1c.01,3.24,7.37,5.88,16.55,5.97h.39c9.18-.06,16.56-2.69,16.58-5.93Z"/></g><path class="cls-5" d="m159.63,181.33h.11c-.01,9.04-7.54,16.35-16.87,16.43-9.37-.11-16.86-7.44-16.85-16.47h.09c.01,3.24,7.39,5.88,16.57,5.97h.41c9.18-.06,16.52-2.69,16.54-5.93Z"/><g class="cls-15"><g class="cls-3"><path class="cls-5" d="m66.37,200.4c3.71,14.32,14.48,28.45,29.78,31.13,3.86.68,7.77.56,11.58-.39,1.82-.45,1.05-3.26-.77-2.81-13.45,3.34-26.16-5.44-32.81-16.62-2.24-3.77-3.87-7.84-4.97-12.08-.47-1.81-3.28-1.04-2.81.77h0Z"/></g></g><g class="cls-14"><g class="cls-12"><path class="cls-5" d="m215.77,200.6c-3.48,13.27-13.24,26.24-27.38,28.92-3.47.66-7.05.53-10.48-.33-1.82-.46-2.59,2.35-.77,2.81,14.66,3.67,28.65-5.46,36.04-17.7,2.42-4.01,4.21-8.39,5.4-12.92.48-1.81-2.33-2.59-2.81-.77h0Z"/></g></g><rect class="cls-5" x="139.12" y="94.66" width="6.37" height="16.63" transform="translate(39.13 245.14) rotate(-89.92)"/><path class="cls-7" d="m162.5,85.44c0,7.11-5.54,13.17-13.2,15.29-1.91.54-3.96.82-6.1.81-2.8,0-5.46-.5-7.84-1.42-6.73-2.52-11.39-8.16-11.38-14.73.01-8.89,8.64-16.09,19.27-16.08,10.65.01,19.27,7.24,19.25,16.13Z"/><path class="cls-11" d="m144.78,73.74h3.16s-.03,22.11-.03,22.11h-3.16s0-1.34,0-1.34c-1.24,1.13-2.65,1.7-4.21,1.7-1.86,0-3.41-.64-4.64-1.92-1.22-1.3-1.83-2.92-1.82-4.87,0-1.9.61-3.49,1.84-4.76,1.21-1.28,2.74-1.92,4.57-1.92,1.59,0,3.02.61,4.28,1.84v-10.84Zm-7.49,15.68c0,1.22.35,2.22,1.04,2.98.72.78,1.62,1.17,2.71,1.17,1.17,0,2.11-.37,2.83-1.12.72-.78,1.08-1.76,1.08-2.96,0-1.2-.36-2.18-1.07-2.96-.72-.76-1.65-1.14-2.79-1.14-1.08,0-1.99.38-2.71,1.15-.72.78-1.08,1.73-1.08,2.88Z"/><path class="cls-2" d="m201.67,191.04c-1.23-.39-2.49-2.09-2.91-3.28-.36-1-.28-3.16-.64-3.74"/></g></svg>