<?xml version="1.0" encoding="UTF-8"?><svg xmlns="http://www.w3.org/2000/svg" xmlns:xlink="http://www.w3.org/1999/xlink" viewBox="0 0 284.93 302"><defs><style>.cls-1{fill:none;}.cls-2{clip-path:url(#clippath);}.cls-3{stroke-width:1.16px;}.cls-3,.cls-4,.cls-5{fill:#502b19;}.cls-3,.cls-5{stroke:#502b19;}.cls-3,.cls-5,.cls-6{stroke-miterlimit:10;}.cls-7,.cls-6,.cls-8{fill:#fff;}.cls-9{fill:#a082bb;}.cls-10{fill:#79559f;}.cls-5{stroke-width:1.2px;}.cls-6{stroke:#79559f;stroke-width:2px;}.cls-11{clip-path:url(#clippath-1);}.cls-12{opacity:.6;}.cls-8{opacity:.74;}.cls-13{filter:url(#outer-glow-5);}</style><filter id="outer-glow-5" filterUnits="userSpaceOnUse"><feOffset dx="0" dy="0"/><feGaussianBlur result="blur" stdDeviation="5"/><feFlood flood-color="#f6ff00" flood-opacity=".41"/><feComposite in2="blur" operator="in"/><feComposite in="SourceGraphic"/></filter><clipPath id="clippath"><path class="cls-1" d="m75.73,208.14c-5.91,5.62-18.61,1.87-28.37-8.37-9.76-10.25-12.88-23.12-6.97-28.74,5.91-5.62,18.61-1.88,28.37,8.37,9.76,10.26,12.88,23.12,6.97,28.75Z"/></clipPath><clipPath id="clippath-1"><path class="cls-1" d="m199.26,218.23c5.03,6.42,18.14,4.55,29.27-4.18,11.13-8.73,16.07-21.02,11.05-27.43-5.05-6.42-18.15-4.55-29.28,4.19-11.14,8.73-16.08,21.02-11.05,27.43Z"/></clipPath></defs><g id="Platforms"><path class="cls-9" d="m12.51,283.16h259.92c2.78,0,5.04-2.26,5.04-5.04l4-127.92c0-2.78-2.26-5.04-5.04-5.04H8.51c-2.78,0-5.04,2.26-5.04,5.04l3,127.92c0,2.78,3.26,5.04,6.04,5.04Z"/><path d="m6.46,278.12c0,2.78,3.26,5.04,6.04,5.04h259.92c2.78,0,5.04-2.26,5.04-5.04H6.46Z"/></g><g id="Bells"><g class="cls-13"><path class="cls-10" d="m235.01,173.58c.44,3.69.24,7.36-.16,11.04-.51,4.7-1.48,9.27-3.05,13.7-2.48,7.11-6.84,12.92-12.57,17.71-6.79,5.69-14.64,9.38-22.85,12.41-10.52,3.88-21.39,6.06-32.55,6.87-7.94.59-15.88.7-23.82.24-1.82-.09-3.63-.24-5.43-.37-9.1-.53-18.1-1.75-27.01-3.61-15.75-3.29-30.47-9.09-43.69-18.37-5.48-3.86-10.36-8.36-14.17-13.92-4.01-5.89-6.26-12.4-6.9-19.51-.46-5.07-.5-10.13.18-15.16,1.18-8.72,4.97-16.15,11.07-22.46,3-3.11,6.5-5.58,10-8.06,1.29-.91,2.57-1.84,3.61-3.05.83-.91,1.49-1.95,1.63-3.17.31-2.9,1.27-5.6,2.55-8.17,5.24-10.52,9.52-21.52,15.17-31.86,3.65-6.66,8.13-12.69,13.8-17.77.68-.6,1.36-1.2,2.08-1.76,2.3-1.89,4.78-3.55,7.07-5.53,3.38-2.87,7.55-4.31,11.78-5.42,6.38-1.68,12.84-2.26,19.43-2.18,7.5.11,14.91,1.03,22.14,3.05,4.96,1.38,9.81,3.1,14.08,6.01,8.25,5.6,15.36,12.32,20.27,21.14,3.12,5.64,5.53,11.58,7.42,17.74,2.78,9.13,5.41,18.3,8.22,27.43.75,2.36,1.24,4.82,1.15,7.35-.06,1.94.83,3.57,2.07,5.01,2.02,2.31,4.4,4.3,6.55,6.5,6.57,6.77,10.75,14.73,11.89,24.17Z"/><g class="cls-12"><g class="cls-2"><path class="cls-7" d="m50.35,172.6c3.17,17.24,14.76,34.68,32.56,39.19,4.55,1.15,9.24,1.29,13.86.48,2.2-.38,1.27-3.73-.92-3.35-16.19,2.84-30.46-8.85-37.34-22.59-2.32-4.62-3.87-9.58-4.81-14.66-.4-2.19-3.75-1.26-3.35.92h0Z"/></g></g><g class="cls-12"><g class="cls-11"><path class="cls-7" d="m226.23,185.57c-5.16,15.22-17.95,30-34.79,31.78-4.22.44-8.42,0-12.45-1.32-2.13-.7-3.04,2.65-.92,3.35,17.05,5.62,34.36-4.26,44.1-18.08,3.19-4.53,5.64-9.55,7.41-14.8.72-2.12-2.63-3.03-3.35-.92h0Z"/></g></g><rect class="cls-7" x="144.62" y="54.05" width="7.54" height="19.24" transform="translate(74.15 207.07) rotate(-85.85)"/><path class="cls-6" d="m173.68,44.64c-.61,8.41-7.66,15.09-16.89,16.95-2.3.46-4.76.63-7.28.45-3.3-.24-6.4-1.05-9.17-2.33-7.72-3.55-12.77-10.63-12.21-18.38.76-10.53,11.58-18.32,24.15-17.41,12.59.91,22.17,10.19,21.4,20.72Z"/><path class="cls-3" d="m156.66,49.68l-11.39-.83-3.41,5.87-4.33-.31,15.1-25.69,10.76,27.57-4.39-.32-2.35-6.29Zm-1.38-3.67l-3.33-8.81-4.75,8.22,8.08.59Z"/><path class="cls-5" d="m128.57,113.33c-.24,3.32-3.12,5.81-6.43,5.57-3.31-.24-5.81-3.12-5.57-6.44.24-3.31,3.12-5.81,6.44-5.57,3.32.24,5.8,3.13,5.56,6.44Z"/><path class="cls-5" d="m173.19,116.57c-.24,3.32-3.12,5.81-6.44,5.57-3.31-.24-5.81-3.12-5.57-6.44.24-3.31,3.12-5.81,6.44-5.57s5.8,3.13,5.56,6.44Z"/><path class="cls-4" d="m123.26,90.3c2.4-.34,4.74-.07,6.87.71.66.24,1.11-.67.53-1.05-2.19-1.45-4.9-2.13-7.7-1.73-2.8.4-5.21,1.82-6.9,3.82-.45.54.24,1.28.8.86,1.82-1.34,4-2.27,6.4-2.61Z"/><path class="cls-4" d="m169.6,93.14c2.26.88,4.17,2.27,5.64,3.99.46.53,1.3-.03.98-.66-1.2-2.34-3.22-4.26-5.86-5.28-2.64-1.02-5.43-.97-7.89-.05-.66.25-.42,1.23.28,1.15,2.25-.27,4.59-.02,6.85.86Z"/><path class="cls-4" d="m143.18,134.85c1.34.1,2.58.53,3.65,1.21.33.21.69-.23.41-.51-1.02-1.05-2.4-1.74-3.97-1.86-1.57-.12-3.05.36-4.21,1.25-.31.24-.03.72.33.57,1.15-.51,2.44-.75,3.79-.65Z"/><ellipse class="cls-8" cx="139.91" cy="169.1" rx="18" ry="16.5" transform="translate(-45.85 285.99) rotate(-82.58)"/></g></g></svg>