<?xml version="1.0" encoding="UTF-8"?><svg xmlns="http://www.w3.org/2000/svg" xmlns:xlink="http://www.w3.org/1999/xlink" viewBox="0 0 284.93 302"><defs><style>.cls-1{fill:none;}.cls-2{filter:url(#outer-glow-22);}.cls-3{clip-path:url(#clippath);}.cls-4{fill:#69b945;}.cls-5,.cls-6,.cls-7{fill:#fff;}.cls-8{fill:#afd366;}.cls-9,.cls-10,.cls-11{fill:#502b19;}.cls-12{clip-path:url(#clippath-1);}.cls-10{stroke-width:.99px;}.cls-10,.cls-11{stroke:#502b19;}.cls-10,.cls-11,.cls-6{stroke-miterlimit:10;}.cls-11{stroke-width:.96px;}.cls-6{stroke:#69b945;stroke-width:1.66px;}.cls-13{opacity:.6;}.cls-7{opacity:.74;}</style><filter id="outer-glow-22" filterUnits="userSpaceOnUse"><feOffset dx="0" dy="0"/><feGaussianBlur result="blur" stdDeviation="5"/><feFlood flood-color="#f6ff00" flood-opacity=".41"/><feComposite in2="blur" operator="in"/><feComposite in="SourceGraphic"/></filter><clipPath id="clippath"><path class="cls-1" d="m71.63,202.02c-6.16,5.74-19.22,1.73-29.17-8.95-9.96-10.68-13.04-23.99-6.88-29.73,6.16-5.74,19.22-1.74,29.18,8.94,9.96,10.69,13.04,24,6.88,29.73Z"/></clipPath><clipPath id="clippath-1"><path class="cls-1" d="m198.97,213.77c5.12,6.68,18.66,4.89,30.25-4,11.58-8.89,16.81-21.51,11.7-28.18-5.14-6.68-18.67-4.89-30.25,4-11.59,8.89-16.82,21.51-11.69,28.18Z"/></clipPath></defs><g id="Platforms"><path class="cls-8" d="m12.51,283.16h259.92c2.78,0,5.04-2.26,5.04-5.04l4-127.92c0-2.78-2.26-5.04-5.04-5.04H8.51c-2.78,0-5.04,2.26-5.04,5.04l3,127.92c0,2.78,3.26,5.04,6.04,5.04Z"/><path d="m6.46,278.12c0,2.78,3.26,5.04,6.04,5.04h259.92c2.78,0,5.04-2.26,5.04-5.04H6.46Z"/></g><g id="Bells"><g class="cls-2"><path class="cls-4" d="m236.33,168.09c.42,3.82.17,7.6-.29,11.4-.58,4.83-1.63,9.54-3.29,14.11-2.63,7.3-7.19,13.24-13.15,18.13-7.05,5.79-15.2,9.52-23.71,12.56-10.89,3.89-22.12,6.02-33.66,6.74-8.2.52-16.39.55-24.58,0-1.88-.12-3.74-.29-5.6-.45-9.38-.65-18.65-2-27.82-4.01-16.21-3.56-31.33-9.71-44.87-19.42-5.62-4.04-10.6-8.74-14.47-14.51-4.08-6.12-6.33-12.86-6.91-20.2-.42-5.23-.4-10.46.35-15.63,1.31-8.99,5.3-16.62,11.67-23.06,3.13-3.17,6.77-5.68,10.4-8.2,1.34-.93,2.67-1.87,3.75-3.1.86-.94,1.56-2,1.72-3.26.35-2.99,1.37-5.77,2.72-8.41,5.52-10.8,10.06-22.1,16-32.71,3.84-6.83,8.52-13.01,14.43-18.18.71-.61,1.42-1.23,2.18-1.8,2.38-1.92,4.96-3.61,7.35-5.63,3.52-2.93,7.83-4.35,12.21-5.47,6.6-1.66,13.28-2.19,20.07-2.04,7.74.2,15.38,1.23,22.81,3.38,5.11,1.47,10.09,3.3,14.46,6.35,8.45,5.87,15.71,12.87,20.68,22.03,3.17,5.86,5.58,12.01,7.47,18.38,2.76,9.45,5.38,18.94,8.18,28.39.74,2.45,1.23,4.98,1.12,7.59-.08,2,.8,3.69,2.07,5.19,2.08,2.4,4.5,4.48,6.7,6.77,6.72,7.07,10.93,15.32,12.01,25.07Z"/><g class="cls-13"><g class="cls-3"><path class="cls-5" d="m46.18,165.01c3.06,17.74,14.78,35.78,33.03,40.55,4.59,1.2,9.34,1.38,14.01.61,1.83-.3,1.05-3.08-.77-2.78-16.93,2.79-31.71-9.55-38.71-23.99-2.32-4.79-3.88-9.92-4.78-15.16-.32-1.83-3.1-1.05-2.78.77h0Z"/></g></g><g class="cls-13"><g class="cls-12"><path class="cls-5" d="m227.49,180.47c-5.55,15.85-19.08,31.04-36.68,32.65-4.36.4-8.68-.11-12.82-1.53-1.76-.6-2.52,2.19-.77,2.78,17.36,5.92,35.14-3.99,45.25-17.99,3.34-4.63,5.92-9.77,7.8-15.15.62-1.76-2.17-2.51-2.78-.77h0Z"/></g></g><rect class="cls-5" x="144.27" y="43.83" width="7.78" height="19.85" transform="translate(82.31 196.96) rotate(-85.25)"/><path class="cls-6" d="m174.46,34.39c-.72,8.67-8.06,15.48-17.61,17.31-2.38.45-4.92.6-7.52.38-3.4-.28-6.59-1.16-9.44-2.5-7.93-3.75-13.06-11.1-12.4-19.1.9-10.86,12.14-18.78,25.1-17.7,12.98,1.08,22.76,10.75,21.86,21.61Z"/><path class="cls-11" d="m158.28,23.44l-9.56-.79-.52,6.21,9.22.77-.3,3.67-9.22-.77-1.02,12.3-4.14-.34,2.15-25.85,13.7,1.14-.3,3.67Z"/><path class="cls-10" d="m127.18,102.78c-.28,3.42-3.28,5.96-6.7,5.67-3.42-.28-5.96-3.28-5.67-6.7.28-3.41,3.29-5.96,6.7-5.67,3.42.28,5.95,3.29,5.67,6.7Z"/><path class="cls-10" d="m173.17,106.6c-.28,3.42-3.28,5.96-6.7,5.67s-5.96-3.28-5.67-6.7c.28-3.41,3.29-5.96,6.7-5.67,3.42.28,5.95,3.29,5.67,6.7Z"/><path class="cls-9" d="m121.94,74.96c2.48-.33,4.89-.02,7.08.8.68.26,1.16-.67.56-1.08-2.24-1.52-5.03-2.25-7.92-1.87-2.9.38-5.39,1.82-7.16,3.87-.47.55.23,1.32.82.9,1.9-1.37,4.15-2.3,6.63-2.63Z"/><path class="cls-9" d="m169.72,78.39c2.32.93,4.27,2.38,5.78,4.17.47.56,1.34-.02,1.02-.67-1.21-2.42-3.28-4.43-5.99-5.51-2.71-1.09-5.59-1.06-8.14-.14-.68.25-.45,1.27.27,1.19,2.32-.26,4.74.03,7.06.96Z"/><path class="cls-9" d="m142.01,127.14c1.39.12,2.66.58,3.75,1.28.34.22.71-.23.43-.52-1.04-1.09-2.46-1.82-4.08-1.96-1.62-.14-3.15.34-4.35,1.25-.32.24-.03.75.34.59,1.19-.51,2.53-.75,3.91-.63Z"/><ellipse class="cls-7" cx="138.21" cy="159.28" rx="16.5" ry="18" transform="translate(-13.76 13.08) rotate(-5.16)"/></g></g></svg>