<?xml version="1.0" encoding="UTF-8"?><svg xmlns="http://www.w3.org/2000/svg" xmlns:xlink="http://www.w3.org/1999/xlink" viewBox="0 0 284.93 302"><defs><style>.cls-1,.cls-2{fill:none;}.cls-3{clip-path:url(#clippath);}.cls-4{fill:#502b19;stroke:#502b19;stroke-width:1.16px;}.cls-4,.cls-5,.cls-2,.cls-6,.cls-7{stroke-miterlimit:10;}.cls-8{fill:#f26973;}.cls-9{fill:#e92024;}.cls-10,.cls-5,.cls-6{fill:#fff;}.cls-11,.cls-7{fill:#3f2414;}.cls-5{stroke:#e92024;}.cls-5,.cls-2{stroke-width:2px;}.cls-12{clip-path:url(#clippath-1);}.cls-2{opacity:.7;}.cls-2,.cls-6{stroke:#fff;}.cls-13{opacity:.3;}.cls-14{opacity:.6;}.cls-15{opacity:.8;}.cls-7{stroke:#3f2414;stroke-width:.71px;}</style><clipPath id="clippath"><path class="cls-1" d="m88.28,230.26c-4.77,5.25-16.03,2.8-25.13-5.49-9.11-8.25-12.62-19.22-7.85-24.47,4.76-5.25,16.02-2.8,25.13,5.46,9.11,8.29,12.62,19.25,7.85,24.5Z"/></clipPath><clipPath id="clippath-1"><path class="cls-1" d="m196.65,231.03c4.77,5.25,16.03,2.8,25.13-5.46,9.11-8.29,12.62-19.25,7.85-24.51-4.77-5.26-16.02-2.81-25.13,5.49-9.11,8.25-12.63,19.22-7.85,24.47Z"/></clipPath></defs><g id="Platforms"><rect class="cls-8" x="3.46" y="145.16" width="278" height="128" rx="5.04" ry="5.04"/><path d="m3.46,268.12c0,2.78,2.26,5.04,5.04,5.04h267.92c2.78,0,5.04-2.26,5.04-5.04"/></g><g id="Bells"><path class="cls-9" d="m224.64,190.19c.61,3.18.66,6.41.55,9.59-.14,4.13-.69,8.18-1.77,12.08-1.73,6.35-5.14,11.63-9.81,16.16-5.51,5.35-12.08,9.06-19.04,12.21-8.85,4.03-18.15,6.61-27.79,8.02-6.84,1.03-13.71,1.58-20.62,1.74-1.6,0-3.18,0-4.75,0-7.93.1-15.79-.37-23.65-1.43-13.87-1.87-26.97-5.97-39.04-13.2-5.02-2.99-9.52-6.61-13.19-11.17-3.84-4.85-6.2-10.34-7.21-16.47-.73-4.39-1.05-8.77-.79-13.17.48-7.66,3.3-14.3,8.21-20.19,2.39-2.86,5.27-5.26,8.15-7.58,1.05-.89,2.13-1.78,2.95-2.91.63-.86,1.16-1.74,1.19-2.82.1-2.56.78-4.96,1.7-7.29,3.89-9.44,6.9-19.25,11.16-28.61,2.73-5.96,6.24-11.5,10.85-16.21.56-.59,1.12-1.16,1.71-1.7,1.87-1.77,3.9-3.36,5.76-5.22,2.76-2.68,6.27-4.24,9.9-5.46,5.41-1.87,11.01-2.77,16.69-3.12,6.54-.36,12.99,0,19.42,1.25,4.37.89,8.71,2.09,12.58,4.33,7.51,4.35,14.12,9.71,18.91,17.09,3.07,4.7,5.53,9.7,7.54,14.91,3,7.76,5.85,15.53,8.89,23.27.76,2,1.37,4.07,1.46,6.27.07,1.74.93,3.06,2.09,4.23,1.92,1.87,4.09,3.45,6.1,5.2,6.14,5.5,10.27,12.15,11.86,20.22Z"/><path class="cls-1" d="m115.82,118.5c0-3.37,4.63-6.08,10.38-6.08"/><path class="cls-6" d="m131.63,152.34c0,3-.47,6.16-2.88,7.61-1.24.75-3.85.65-5.4.65-1.64,0-4.61-.06-5.89-.88-2.3-1.47-2.39-4.46-2.39-7.38,0-4.58,3.71-8.3,8.28-8.3s8.28,3.72,8.28,8.3Z"/><path class="cls-7" d="m127.4,154.34c0,.9-.03,2.41-.51,3.02-.5.64-1.53.7-2.31.7s-2.05,0-2.55-.61c-.5-.61-.15-2.18-.15-3.11,0-1.89,1.24-3.39,2.76-3.39s2.76,1.5,2.76,3.39Z"/><path class="cls-6" d="m156.21,152.34c0,3,.47,6.16,2.88,7.61,1.24.75,3.85.65,5.4.65,1.64,0,4.61-.06,5.9-.88,2.3-1.47,2.39-4.46,2.39-7.38,0-4.58-3.71-8.3-8.28-8.3s-8.28,3.72-8.28,8.3Z"/><path class="cls-7" d="m160.44,154.34c0,.9.03,2.41.51,3.02.5.64,1.53.7,2.31.7s2.05,0,2.55-.61c.5-.61.15-2.18.15-3.11,0-1.89-1.24-3.39-2.76-3.39s-2.76,1.5-2.76,3.39Z"/><path class="cls-11" d="m140.75,166.67c.42-.17.72-.48,1.1-.72.44-.27.97-.31,1.47-.28.53.04,1.01.29,1.5.46.45.16.86.41,1.22.73s.89-.21.53-.53c-.41-.36-.87-.67-1.38-.86-.54-.21-1.09-.46-1.67-.53s-1.17-.03-1.7.19c-.48.19-.8.62-1.27.81-.19.08-.32.25-.26.46.05.18.27.34.46.26h0Z"/><path class="cls-11" d="m117.1,135.22c.6-.79,1.47-1.42,2.23-2.06.65-.54,1.35-.56,2.16-.65,1.4-.16,3.43-.5,4.3.93.25.41.9.04.65-.38-1.04-1.72-3.22-1.5-4.95-1.3-.9.1-1.73.12-2.48.7-.9.7-1.86,1.48-2.55,2.38-.29.38.36.76.65.38h0Z"/><path class="cls-11" d="m170.49,134.07c-.35-.46-.77-.85-1.22-1.22s-.88-.77-1.33-1.14c-.73-.58-1.59-.61-2.49-.72-1.74-.21-3.89-.41-4.95,1.3-.26.41.39.79.65.38.89-1.42,2.9-1.09,4.31-.93.8.1,1.53.12,2.16.67.74.65,1.63,1.25,2.23,2.04.29.38.94,0,.65-.38h0Z"/><g class="cls-13"><path class="cls-10" d="m159.93,181.11h.08c0,9.32-7.74,16.86-17.37,16.96-9.61-.1-17.38-7.65-17.38-16.96h.1c.02,3.34,7.61,6.05,17.07,6.13h.41c9.46-.08,17.07-2.79,17.09-6.14Z"/></g><path class="cls-10" d="m160.12,181.11h.11c0,9.32-7.75,16.86-17.36,16.96-9.66-.1-17.4-7.65-17.4-16.96h.09c.02,3.34,7.63,6.05,17.09,6.13h.43c9.47-.08,17.02-2.79,17.04-6.14Z"/><g class="cls-15"><g class="cls-3"><path class="cls-10" d="m64.01,200.9c3.84,14.76,14.98,29.33,30.77,32.06,3.97.69,8,.56,11.91-.42,1.87-.47,1.08-3.36-.8-2.89-13.87,3.47-27-5.58-33.86-17.12-2.31-3.88-3.99-8.06-5.13-12.42-.49-1.87-3.38-1.08-2.89.8h0Z"/></g></g><g class="cls-14"><g class="cls-12"><path class="cls-10" d="m218.03,200.9c-3.57,13.7-13.63,27.09-28.22,29.86-3.57.68-7.25.54-10.76-.33-1.87-.47-2.67,2.43-.8,2.89,15.13,3.77,29.56-5.69,37.15-18.33,2.48-4.13,4.31-8.63,5.52-13.29.49-1.87-2.41-2.67-2.89-.8h0Z"/></g></g><rect class="cls-10" x="133.58" y="97.08" width="17.14" height="6.57"/><path class="cls-5" d="m162.95,82.26c0,7.33-5.7,13.59-13.59,15.78-1.97.56-4.08.85-6.28.85-2.88,0-5.63-.51-8.09-1.45-6.95-2.59-11.76-8.4-11.76-15.17,0-9.17,8.88-16.6,19.84-16.6s19.87,7.43,19.87,16.6Z"/><path class="cls-4" d="m149.58,77.35v5.65c-1.03-1.18-1.95-2-2.77-2.44-.8-.45-1.74-.68-2.83-.68-1.7,0-3.11.56-4.23,1.68-1.12,1.12-1.68,2.52-1.68,4.21s.54,3.14,1.62,4.25c1.1,1.11,2.49,1.66,4.19,1.66,1.08,0,2.04-.22,2.87-.66.8-.43,1.74-1.26,2.83-2.49v5.61c-1.83.89-3.66,1.34-5.49,1.34-3.02,0-5.55-.92-7.58-2.76-2.03-1.85-3.05-4.15-3.05-6.89s1.03-5.06,3.09-6.95c2.06-1.89,4.58-2.83,7.58-2.83,1.92,0,3.74.43,5.45,1.3Z"/><path class="cls-4" d="m140.77,70.96c0-.59.23-1.11.69-1.54.46-.43,1.01-.65,1.66-.65s1.19.22,1.66.65c.46.44.69.96.69,1.56s-.23,1.14-.69,1.58c-.45.42-1,.64-1.66.64s-1.22-.21-1.67-.64c-.45-.42-.68-.95-.68-1.59Z"/><path class="cls-2" d="m203.48,191.07c-1.27-.4-2.57-2.16-3-3.38-.37-1.03-.3-3.26-.67-3.85"/></g></svg>