<?xml version="1.0" encoding="UTF-8"?><svg xmlns="http://www.w3.org/2000/svg" xmlns:xlink="http://www.w3.org/1999/xlink" viewBox="0 0 284.93 302"><defs><style>.cls-1{fill:none;}.cls-2{clip-path:url(#clippath);}.cls-3,.cls-4{fill:#fff;}.cls-5{fill:#a05a90;}.cls-6{fill:#c3c3c3;}.cls-7{fill:#d78dbc;}.cls-8,.cls-9{fill:#502b19;}.cls-10{clip-path:url(#clippath-1);}.cls-9{stroke:#502b19;stroke-width:.99px;}.cls-9,.cls-4,.cls-11{stroke-miterlimit:10;}.cls-4{stroke:#fff;stroke-width:.83px;}.cls-12{opacity:.6;}.cls-11{stroke:#000;stroke-width:1.66px;}</style><clipPath id="clippath"><path class="cls-1" d="m78.53,225.5c-5.66,6.23-19.01,3.32-29.82-6.5-10.81-9.82-14.98-22.83-9.32-29.06,5.66-6.23,19.01-3.32,29.82,6.49,10.81,9.83,14.98,22.83,9.32,29.06Z"/></clipPath><clipPath id="clippath-1"><path class="cls-1" d="m206.41,226.65c5.65,6.23,19,3.33,29.81-6.49,10.8-9.82,14.97-22.83,9.32-29.06-5.67-6.23-19.01-3.32-29.82,6.49-10.81,9.82-14.98,22.83-9.32,29.05Z"/></clipPath></defs><g id="Platforms"><rect class="cls-7" x="3.46" y="145.16" width="278" height="128" rx="5.04" ry="5.04"/><path d="m3.46,268.12c0,2.78,2.26,5.04,5.04,5.04h267.92c2.78,0,5.04-2.26,5.04-5.04"/></g><g id="Bells"><path class="cls-5" d="m239.85,178.03c.73,3.77.79,7.56.66,11.38-.17,4.86-.83,9.64-2.11,14.33-2.02,7.49-6.07,13.79-11.61,19.15-6.56,6.36-14.37,10.74-22.59,14.48-10.53,4.78-21.56,7.83-32.99,9.51-8.12,1.2-16.29,1.91-24.5,2.03-1.88.04-3.76.02-5.62.02-9.4.13-18.76-.45-28.06-1.7-16.45-2.2-32.03-7.08-46.33-15.64-5.93-3.56-11.28-7.83-15.62-13.26-4.57-5.76-7.37-12.29-8.56-19.56-.85-5.18-1.27-10.39-.94-15.61.56-9.07,3.91-17,9.72-23.95,2.85-3.42,6.28-6.23,9.69-9.04,1.26-1.04,2.51-2.08,3.48-3.4.78-1.01,1.39-2.12,1.44-3.39.1-3.01.88-5.86,2.01-8.6,4.61-11.22,8.19-22.86,13.23-33.92,3.26-7.13,7.41-13.67,12.88-19.32.65-.67,1.31-1.34,2.01-1.97,2.22-2.11,4.65-4.01,6.87-6.22,3.26-3.21,7.44-4.99,11.72-6.46,6.44-2.2,13.05-3.28,19.83-3.7,7.73-.45,15.42-.05,23.01,1.48,5.21,1.05,10.33,2.46,14.94,5.13,8.91,5.15,16.73,11.53,22.43,20.24,3.64,5.58,6.56,11.51,8.96,17.7,3.54,9.19,6.94,18.43,10.51,27.61.94,2.38,1.64,4.86,1.74,7.47.08,2,1.12,3.62,2.51,5,2.25,2.22,4.84,4.09,7.23,6.19,7.27,6.49,12.17,14.36,14.05,23.99Z"/><path class="cls-1" d="m111.21,92.89c0-3.98,5.51-7.2,12.31-7.2"/><g class="cls-12"><g class="cls-2"><path class="cls-3" d="m50.06,190.61c4.52,17.42,17.68,34.6,36.33,37.79,4.63.79,9.33.63,13.89-.51,1.8-.45,1.04-3.24-.77-2.78-16.56,4.16-32.28-6.61-40.51-20.39-2.77-4.64-4.8-9.65-6.15-14.88-.47-1.8-3.25-1.03-2.78.77h0Z"/></g></g><g class="cls-12"><g class="cls-10"><path class="cls-3" d="m232.09,191c-4.25,16.35-16.3,32.36-33.71,35.67-4.29.82-8.72.66-12.96-.4-1.8-.45-2.57,2.33-.77,2.78,17.84,4.48,34.86-6.8,43.77-21.72,2.89-4.84,5.03-10.12,6.45-15.57.47-1.8-2.32-2.57-2.78-.77h0Z"/></g></g><rect class="cls-11" x="132.59" y="67.51" width="19.85" height="7.78"/><path class="cls-11" d="m167.12,49.93c0,8.7-6.75,16.1-16.12,18.71-2.34.65-4.85,1.01-7.46,1.01-3.42,0-6.67-.61-9.61-1.71-8.21-3.08-13.94-9.98-13.94-18,0-10.89,10.54-19.72,23.55-19.72s23.57,8.83,23.57,19.72Z"/><path class="cls-3" d="m132.98,47.94h-6.01l-1.56,3.21h-2.28l6.94-14.05,6.7,14.05h-2.32l-1.47-3.21Zm-.86-1.88l-2.08-4.5-2.18,4.5h4.26Z"/><path class="cls-3" d="m144.86,37.12v1.08h-1.59l-.24,1.77h1.45v1.08h-1.59l-.39,2.94-1.15-.14.37-2.8h-1.94l-.39,2.94-1.16-.14.37-2.82h-1.49v-1.06h1.65l.24-1.77h-1.51v-1.08h1.65l.36-2.76,1.14.14-.35,2.62h1.93l.37-2.76,1.14.14-.35,2.62h1.46Zm-2.77,1.08h-1.92l-.24,1.77h1.93l.22-1.77Z"/><path class="cls-3" d="m144.93,63.07v-13.22h2.11c.94,0,1.69.07,2.24.21.56.14,1.04.37,1.43.69.39.34.71.76.94,1.26.24.51.35,1.02.35,1.54,0,.95-.38,1.75-1.15,2.41.75.24,1.33.66,1.76,1.26.44.59.65,1.28.65,2.07,0,1.03-.39,1.91-1.16,2.62-.47.44-.99.74-1.57.92-.64.17-1.43.25-2.39.25h-3.21Zm2.12-7.54h.66c.79,0,1.36-.16,1.73-.49.37-.33.55-.81.55-1.45s-.19-1.09-.56-1.42c-.38-.32-.92-.48-1.64-.48h-.75v3.84Zm0,5.67h1.31c.96,0,1.66-.18,2.11-.53.47-.38.71-.87.71-1.46s-.23-1.05-.68-1.44c-.44-.38-1.23-.57-2.37-.57h-1.07v4Z"/><path class="cls-3" d="m156.65,45.48v5.09c.59-.57,1.25-.86,2-.86.86,0,1.57.3,2.14.9.57.6.86,1.35.86,2.24s-.29,1.69-.86,2.29c-.57.6-1.29.9-2.16.9-.74,0-1.39-.27-1.97-.8v.63h-1.47v-10.39h1.47Zm3.49,7.44c0-.57-.17-1.04-.5-1.4-.34-.37-.76-.55-1.26-.55-.54,0-.98.18-1.32.54-.34.35-.5.81-.5,1.38s.17,1.05.5,1.4c.33.36.77.54,1.31.54.51,0,.93-.18,1.27-.54.34-.36.51-.81.51-1.35Z"/><line class="cls-4" x1="155.71" y1="40.64" x2="130.88" y2="57.69"/><path class="cls-6" d="m194.66,198.47c-3.16-1.26-5.72-3.53-8.09-5.78-1.29-1.23-2.58-2.48-3.87-3.71.99-.37,1.94-.93,2.82-1.7-2.63-1.44-4.75-4.01-6.72-6.58-4.93-6.41-9.66-13.52-16.19-14.84-5.24-1.17-14.15-2.91-19.07,1.33-4.92-4.24-13.83-2.51-19.07-1.33-6.53,1.33-11.27,8.43-16.19,14.84-1.97,2.56-4.09,5.14-6.71,6.58,1.11.98,2.35,1.63,3.63,1.97-1.2,1.14-2.39,2.3-3.59,3.44-2.37,2.25-4.93,4.52-8.09,5.78,5.22,3.36,12.62,2.29,17.22-1.68-.8.71-1.56,1.91-2.35,2.75,3.44.18,5.91-3.33,8.69-4.99-.3.86-.2,2.31-.51,3.17,4.04.98,10.11-2.58,13.13-5.92-.27,1.27-.14,3.15-.78,4.45,3.47.6,7.13-1.32,9.67-3.8.03.42.07,1.04.11,1.67,2.26.75,4.03-.2,5.37-1.92,1.34,1.72,3.11,2.67,5.37,1.92.04-.62.09-1.25.11-1.67,2.54,2.47,6.2,4.4,9.67,3.8-.64-1.3-.51-3.17-.78-4.45,3.02,3.34,9.1,6.9,13.13,5.92-.3-.86-.2-2.31-.51-3.17,2.78,1.65,5.24,5.17,8.69,4.99-.79-.84-1.55-2.04-2.34-2.75,4.61,3.96,12,5.04,17.22,1.68Zm-51.29-18.05c.06-.09.11-.19.17-.28.11.2.23.39.35.57-.17-.1-.35-.19-.52-.29Z"/><path class="cls-6" d="m105.1,106.35c.66-1.29,2.53-1.93,3.85-2.4-.01.01-.03.03-.04.04-.04.02-.09.04-.13.07-1.17.38-2.24.98-2.93,1.75-.04.05.01.12.07.08.42-.34.86-.61,1.33-.82-.33.26-.63.54-.89.84-.03.03.02.08.05.06.22-.14.44-.28.66-.42.01.03.05.05.09.03.21-.15.42-.3.64-.44.02,0,.04,0,.06,0,.16-.12.33-.23.49-.34.16-.09.32-.18.48-.27.11-.03.22-.05.33-.08-.55.4-1.03.86-1.34,1.43-.02.04.03.07.05.04.41-.67,1.15-1.17,1.91-1.59.05,0,.09-.02.14-.02-.56.36-1.08.75-1.56,1.16-.04.03,0,.11.05.08.77-.49,1.57-.95,2.39-1.36.13-.02.25-.03.38-.05-.51.33-.98.66-1.41.93-.06.04-.02.14.05.1.78-.37,1.54-.77,2.3-1.14.11-.01.22-.02.33-.04-.39.21-.78.45-1.14.72-.04.03,0,.1.05.08.8-.35,1.62-.74,2.47-1.04.1,0,.2-.01.3-.01.11,0,.23,0,.34.01-.44.18-.86.39-1.28.62-.04.02,0,.07.03.06.55-.24,1.11-.45,1.69-.64.14.02.28.04.42.06-.36.09-.71.2-1.05.35-.03.01,0,.06.02.06.56-.11,1.12-.22,1.69-.3.02,0,.04,0,.05,0,.03,0,.04,0,.05-.02.17-.02.34-.04.51-.06.04,0,.08,0,.12-.01.11.03.22.07.34.1.07.02.13-.08.06-.12,0,0-.01,0-.02-.01.01,0,.02,0,.03,0,.27.1.54.2.82.29.1.03.17-.1.08-.16-.04-.03-.09-.06-.13-.09.02-.02.03-.05.03-.07.09,0,.18-.01.28-.02.26.12.43.24.43.33,0,.08.06.14.14.13.02,0,.04,0,.07-.01.07-.01.12-.07.14-.13.16.07.32.15.48.22.09.04.14-.09.07-.14-.25-.19-.51-.37-.77-.53,0,0,0,0,0,0,0-.03,0-.06-.02-.08.25.12.49.24.74.38-.05.05-.02.16.07.17.11.01.21.02.32.03.1,0,.18-.07.19-.16.33.18.65.37.99.54.1.05.19-.1.12-.17-.1-.1-.21-.21-.33-.31.09.05.17.09.26.13.07.03.13,0,.16-.06.41.21.81.41,1.24.58.1.04.14-.09.08-.15-.18-.16-.38-.32-.59-.46-.14-.15-.28-.3-.44-.44.07.04.14.09.21.13.09.09.17.17.27.25.04.03.08.02.11,0,.5.34.99.69,1.51.99.09.05.19-.05.12-.13-.15-.18-.32-.35-.5-.51,0,0,.01,0,.02,0,.02-.01.03-.03.05-.04.03-.02.05-.06.05-.09.49.3.99.58,1.5.83.06.03.13-.06.08-.11-.19-.19-.39-.38-.61-.55.03-.01.05-.04.05-.08,0-.04,0-.07,0-.11.65.38,1.28.79,1.93,1.17.06.04.14-.04.08-.09-.1-.1-.21-.21-.33-.31.08.03.19-.03.17-.13-.02-.07-.04-.14-.08-.21.41.34.81.69,1.23,1.02.08.07.17-.05.12-.13,0-.01-.02-.03-.03-.04,0,0,.01-.02.01-.02.01-.04.02-.07.02-.11.29.26.6.51.93.69.09.05.18-.05.12-.13-.05-.07-.1-.13-.16-.2.03,0,.05-.02.07-.03.11.14.17.22.16.23-.09.06-.03.17.05.2.02.03.04.06.08.06.19.03.3,0,.35-.09,0,.01,0,.03,0,.04.01.07.07.11.13.12.07.12.15.24.22.36.09.15.31.02.24-.14-.05-.09-.09-.18-.14-.27-.01-.03-.03-.04-.05-.05-.02-.04-.05-.08-.07-.12,0-.06,0-.13,0-.19,0,0,.01.02.02.02.06.07.14.03.17-.04.17.38.34.77.49,1.17-.02.03-.03.06,0,.09.04.06.07.12.11.17.1.15.36.1.32-.1,0,0,0,0,0,0,.06.03.15,0,.16-.08,0-.08,0-.17,0-.25.02.04.05.06.09.06.03,0,.06,0,.1,0,.07,0,.14-.03.18-.08,0,.15.21.23.29.1.08-.12.1-.28.09-.46.34-1-.33-2.55-.71-3.4-.52-1.17-1.33-2.07-2.48-2.63-.07-.03-.13.08-.06.12,1.2.74,2.09,2.11,2.54,3.57-.01-.02-.03-.05-.04-.07-.26-.55-.59-1.07-.95-1.57-.06-.09-.18.02-.13.11,0,0,0,0,0,0-.27-.31-.56-.6-.86-.86-.03-.03-.08.01-.05.05.69.77,1.24,1.58,1.74,2.45.05.12.09.24.13.36.09.28.17.56.24.84-.06-.14-.12-.27-.18-.39-.39-1.28-1.2-2.61-2.25-3.41-.04-.03-.07.03-.05.06.4.51.81,1,1.16,1.55-.09-.1-.18-.19-.27-.28,0,0-.02-.01-.03-.01-.43-.67-.96-1.28-1.53-1.74-.03-.02-.06.01-.04.04.49.61.97,1.21,1.38,1.88-.47-.6-1-1.14-1.62-1.59-.06-.05-.15.05-.09.1.77.81,1.49,1.65,2.04,2.63-.61-.94-1.38-1.78-2.22-2.49-.41-.5-.86-.98-1.37-1.37-.03-.02-.07,0-.05.04.67.9,1.43,1.73,2.08,2.65.32.46.62.93.9,1.42-.01-.01-.03-.03-.04-.04-.05-.06-.09-.12-.13-.17-.49-.68-1.04-1.57-1.79-2-.35-.41-.71-.82-1.08-1.21-.07-.07-.49-.54-.57-.21,0,.03.03.04.04.02.11-.16.67.58.74.66.18.22.37.44.55.67.03.04.07.09.1.13-.39-.39-.81-.76-1.24-1.1-.06-.04-.12.04-.08.09.09.11.42.48.85.97-.29-.29-.61-.56-.95-.74-.6-.59-1.24-1.15-1.94-1.55-.04-.03-.09.03-.05.07.46.48.97.92,1.46,1.37,0,.04,0,.08.05.1.1.04.38.31.75.69-.15-.07-.3-.13-.46-.18-.15-.13-.31-.26-.46-.39-.7-.59-1.41-1.21-2.18-1.69-.03-.02-.07.03-.04.05.67.66,1.43,1.23,2.13,1.85.03.03.06.05.09.08-.13-.01-.25-.02-.38,0-.02,0-.04-.02-.06-.03-.75-.65-1.56-1.24-2.41-1.7-.03-.02-.06.03-.04.05.56.45,1.12.89,1.67,1.34-.23-.08-.46-.15-.69-.21-.59-.42-1.2-.8-1.82-1.13-.02-.01-.05.02-.03.04.44.37.9.72,1.36,1.07,0,.02.01.05.04.06.04.02.07.03.11.05.13.1.27.2.4.3-.05.02-.06.09,0,.12.12.05.23.1.35.15.06.05.12.09.18.14-.16-.08-.33-.15-.48-.14-.88-.72-1.88-1.33-2.83-1.88-.03-.02-.06.03-.03.05.65.42,1.26.86,1.87,1.33-.41-.19-.83-.36-1.26-.51-.36-.25-.73-.49-1.11-.71-.02-.01-.05.02-.03.04.19.17.38.32.58.47-.33-.11-.66-.21-.98-.3-.05-.03-.1-.06-.15-.09-.03-.02-.05.01-.05.03-.09-.03-.19-.05-.28-.08-.09-.03-.15.11-.05.14.24.08.49.16.73.25.09.07.19.14.28.21-.27-.11-.54-.21-.82-.32-.08-.03-.13.09-.05.13.62.26,1.21.57,1.8.9.09.07.19.14.28.21-.05-.01-.1-.02-.16-.02-.07-.03-.14-.07-.22-.1-.32-.18-.65-.34-.99-.49-.07-.04-.14-.07-.22-.1,0,0,0,0-.01,0-.54-.22-1.08-.41-1.62-.58-.09-.03-.15.11-.05.14.38.13.75.28,1.11.44,0,0,0,0-.01,0-.57-.23-1.16-.4-1.76-.52-.24-.09-.48-.18-.72-.24-.04-.01-.07.05-.03.07.55.3,1.12.55,1.69.82-.25-.06-.51-.13-.77-.17-.45-.28-.94-.57-1.43-.58-.03,0-.03.04,0,.05.34.12.66.29.98.47-.17-.01-.33-.02-.5,0-.36-.15-.72-.3-1.07-.45-.03-.01-.05.04-.02.05.27.15.54.3.81.44-.04,0-.07.02-.11.03-.04.01-.06.07-.03.1-.33-.12-.67-.22-1.01-.29-.03,0-.05.03-.02.05.33.15.67.29,1,.44-.02,0-.04,0-.05,0-.35-.12-.7-.21-1.04-.26-.04,0-.06.05-.02.07.18.07.35.14.52.21-1.38-.15-2.92.15-3.88.93-.05.04.01.11.06.07.99-.71,2.2-.8,3.4-.69.21.03.42.07.63.11-.15,0-.31.02-.46.04-.85-.08-1.69-.06-2.51.27-.72.29-1.46.64-2.13,1.08-.48.15-.94.33-1.4.51-1.24.49-3.03,1.11-3.45,2.54-.02.06.07.09.1.04Zm24.93-1.82s0,.02.01.02c.23.47.82,1.56.66,2.11-.05-.56-.26-1.14-.52-1.68-.05-.15-.1-.3-.15-.45Zm-4.05-1.6s-.09-.05-.13-.08c-.12-.11-.24-.22-.36-.32.15.09.31.19.46.29.06.07.13.14.19.21-.05-.03-.1-.06-.15-.09Zm-1.04,1.09c.38.25.75.52,1.04.84-.32-.29-.67-.57-1.04-.84Zm-1.52-2.01s-.07-.03-.11-.04c0,0-.02-.01-.03-.02.04.02.09.04.13.06Zm1.44.29c-.16-.08-.32-.16-.48-.24.1.02.21.05.31.09.06.05.11.1.17.15Zm-.86.26s-.07-.07-.11-.1c.19.09.37.19.55.29.04.04.08.07.13.11-.19-.1-.38-.2-.57-.3Zm-.2,1.39s.02-.05.04-.08c.1.1.19.2.26.3-.1-.08-.2-.15-.3-.23Zm-.78.2s.02.01.02.01c0,0,0,0,0,0,0,0-.01-.01-.02-.02Zm-.07-1.91c.2.08.42.21.63.34,0,0-.01,0-.02.01-.04-.01-.08-.01-.11,0-.16-.12-.33-.24-.5-.35Zm-1.11,1.03s0,0,.01,0c.14.11.29.22.43.33-.12-.08-.25-.17-.37-.25-.02-.03-.04-.05-.07-.08Zm-1.78-1.98c-.17-.12-.34-.23-.52-.34.36.14.72.29,1.08.45.1.07.19.14.29.21.15.11.3.22.45.33,0,0-.01,0-.02,0-.42-.24-.85-.45-1.28-.64Zm-1.79,2.06c.1.04.2.08.3.11-.02,0-.04,0-.07,0-.07-.04-.15-.08-.23-.11Zm-.7-1.72c.17.05.34.1.5.15.11.03.21.06.32.1-.04.02-.04.09,0,.11.06.03.11.06.17.09-.14-.04-.27-.07-.39-.1-.2-.11-.41-.23-.61-.34Zm-1.21-.29c.17.03.35.07.52.11.14.09.28.18.42.26.03.02.06.03.08.05-.1-.03-.2-.05-.3-.07-.24-.12-.48-.23-.72-.34Zm-.97-.07h0c.12,0,.24,0,.36,0,.15.08.3.17.46.25-.09-.01-.18-.02-.26-.03-.18-.08-.37-.15-.56-.22Zm-3.68,1.29c.12-.05.25-.1.37-.15.19-.07.38-.13.56-.16-.05.02-.11.04-.16.06-.23.07-.46.15-.69.24-.03,0-.06,0-.08.01Z"/><path class="cls-6" d="m183.15,106.31c-.41-1.43-2.21-2.04-3.45-2.54-.45-.18-.92-.35-1.4-.51-.67-.44-1.4-.79-2.13-1.08-.82-.33-1.67-.35-2.51-.27-.15-.02-.3-.03-.46-.04.21-.04.42-.07.63-.11,1.2-.11,2.42-.03,3.4.69.05.04.11-.03.06-.07-.96-.78-2.5-1.08-3.88-.93.17-.07.34-.14.52-.21.04-.02.03-.07-.02-.07-.34.05-.69.14-1.04.26-.02,0-.04,0-.05,0,.33-.15.67-.29,1-.44.03-.01,0-.05-.02-.05-.34.07-.68.17-1.01.29.03-.03.01-.09-.03-.1-.04-.01-.07-.02-.11-.03.27-.15.54-.3.81-.44.03-.02,0-.07-.02-.05-.35.15-.71.3-1.07.45-.17-.02-.33-.01-.5,0,.31-.18.64-.35.98-.47.02,0,.02-.05,0-.05-.49.02-.98.31-1.43.58-.26.05-.51.11-.77.17.56-.27,1.14-.52,1.69-.82.04-.02.01-.08-.03-.07-.24.06-.48.14-.72.24-.6.12-1.19.29-1.76.52,0,0,0,0-.01,0,.36-.16.73-.31,1.11-.44.09-.03.04-.17-.05-.14-.54.17-1.08.36-1.62.58,0,0,0,0-.01,0-.07.03-.15.06-.22.1-.34.15-.67.31-.99.49-.07.03-.14.06-.22.1-.05,0-.1.01-.16.02.09-.07.19-.14.28-.21.59-.33,1.18-.64,1.8-.9.08-.03.04-.16-.05-.13-.27.1-.55.21-.82.32.09-.07.19-.14.28-.21.24-.09.48-.17.73-.25.09-.03.04-.17-.05-.14-.09.03-.19.05-.28.08,0-.02-.02-.05-.05-.03-.05.03-.1.06-.15.09-.32.09-.65.2-.98.3.2-.15.4-.31.58-.47.02-.02,0-.05-.03-.04-.38.21-.75.45-1.11.71-.42.15-.85.32-1.26.51.61-.47,1.22-.92,1.87-1.33.03-.02,0-.07-.03-.05-.95.56-1.95,1.17-2.83,1.88-.16-.02-.32.06-.48.14.06-.05.12-.09.18-.14.12-.05.23-.1.35-.15.06-.02.05-.1,0-.12.13-.1.27-.2.4-.3.04-.02.07-.03.11-.05.02-.01.04-.03.04-.06.46-.34.92-.69,1.36-1.07.02-.02,0-.05-.03-.04-.62.33-1.23.71-1.82,1.13-.23.06-.46.13-.69.21.55-.45,1.11-.9,1.67-1.34.03-.02,0-.06-.04-.05-.85.46-1.66,1.05-2.41,1.7-.02,0-.04.02-.06.03-.13,0-.25,0-.38,0,.03-.03.06-.05.09-.08.71-.62,1.47-1.19,2.13-1.85.03-.03,0-.08-.04-.05-.78.48-1.48,1.11-2.18,1.69-.15.13-.31.26-.46.39-.16.05-.31.11-.46.18.37-.38.65-.65.75-.69.04-.02.06-.06.05-.1.5-.45,1-.89,1.46-1.37.03-.04,0-.09-.05-.07-.7.4-1.34.97-1.94,1.55-.34.18-.65.45-.95.74.43-.49.76-.86.85-.97.04-.05-.03-.13-.08-.09-.44.34-.85.71-1.24,1.1.03-.04.07-.09.1-.13.18-.22.36-.45.55-.67.07-.08.62-.81.74-.66.01.02.05,0,.04-.02-.09-.33-.5.14-.57.21-.37.39-.73.79-1.08,1.21-.75.44-1.3,1.32-1.79,2-.04.06-.08.11-.13.17-.01.01-.03.03-.04.04.28-.48.58-.96.9-1.42.64-.93,1.41-1.75,2.08-2.65.02-.03-.02-.06-.05-.04-.5.39-.95.87-1.37,1.37-.83.71-1.61,1.55-2.22,2.49.55-.98,1.27-1.82,2.04-2.63.06-.06-.03-.15-.09-.1-.62.45-1.16.99-1.62,1.59.4-.67.89-1.27,1.38-1.88.02-.03-.01-.06-.04-.04-.58.46-1.1,1.07-1.53,1.74-.01,0-.02,0-.03.01-.1.09-.19.18-.27.28.35-.55.76-1.04,1.16-1.55.02-.03,0-.09-.05-.06-1.04.8-1.86,2.13-2.25,3.41-.06.12-.12.26-.18.39.07-.28.14-.56.24-.84.04-.12.08-.24.13-.36.49-.86,1.05-1.68,1.74-2.45.03-.03-.01-.08-.05-.05-.3.26-.59.55-.86.86,0,0,0,0,0,0,.06-.09-.06-.2-.13-.11-.36.5-.69,1.02-.95,1.57-.01.02-.03.05-.04.07.44-1.46,1.34-2.83,2.54-3.57.07-.04,0-.15-.06-.12-1.15.56-1.96,1.46-2.48,2.63-.38.85-1.06,2.4-.71,3.4,0,.18.02.34.09.46.09.14.29.05.29-.1.04.05.1.08.18.08.03,0,.06,0,.1,0,.04,0,.08-.03.09-.06,0,.08,0,.17,0,.25,0,.09.09.11.16.08,0,0,0,0,0,0-.04.2.23.26.32.1.04-.06.07-.12.11-.17.02-.03.01-.07,0-.09.16-.4.32-.79.49-1.17.03.07.11.11.17.04,0,0,.01-.02.02-.02,0,.06,0,.13,0,.19-.02.04-.05.08-.07.12-.02,0-.04.02-.05.05-.05.09-.09.18-.14.27-.08.16.14.29.24.14.07-.12.15-.24.22-.36.06,0,.12-.05.13-.12,0-.01,0-.03,0-.04.05.08.16.11.35.09.04,0,.07-.03.08-.06.08-.03.14-.14.05-.2-.01,0,.05-.09.16-.23.02.02.04.03.07.03-.06.06-.11.13-.16.2-.06.08.03.18.12.13.33-.19.64-.44.93-.69,0,.04,0,.07.02.11,0,0,0,.02.01.02,0,.01-.02.03-.03.04-.05.08.03.2.12.13.42-.33.81-.68,1.23-1.02-.04.07-.07.14-.08.21-.02.1.09.16.17.13-.11.1-.22.21-.33.31-.05.05.03.13.08.09.65-.39,1.28-.79,1.93-1.17,0,.04,0,.07,0,.11,0,.04.03.07.05.08-.21.17-.41.36-.61.55-.05.05.01.15.08.11.51-.25,1.01-.53,1.5-.83,0,.04.02.07.05.09.02.01.03.03.05.04,0,0,.01,0,.02,0-.18.16-.34.33-.5.51-.07.08.03.18.12.13.52-.3,1.01-.65,1.51-.99.03.02.07.03.11,0,.1-.08.19-.16.27-.25.07-.04.14-.09.21-.13-.15.14-.3.28-.44.44-.2.14-.4.3-.59.46-.07.06-.02.19.08.15.42-.17.83-.37,1.24-.58.03.05.09.08.16.06.09-.04.18-.08.26-.13-.12.1-.23.21-.33.31-.07.08.02.22.12.17.34-.17.66-.36.99-.54.02.09.09.17.19.16.11-.01.21-.02.32-.03.08,0,.12-.12.07-.17.24-.13.49-.26.74-.38-.02.03-.02.06-.02.08,0,0,0,0,0,0-.27.16-.53.33-.77.53-.07.05-.01.18.07.14.16-.07.32-.14.48-.22.02.07.07.12.14.13.02,0,.04,0,.07.01.08.01.14-.05.14-.13,0-.09.17-.21.43-.33.09,0,.18.02.28.02,0,.03.01.05.03.07-.05.03-.09.06-.13.09-.09.06-.02.19.08.16.28-.08.55-.18.82-.29.01,0,.02,0,.03,0,0,0-.01,0-.02.01-.07.04,0,.14.06.12.11-.03.22-.07.34-.1.04,0,.08,0,.12.01.17.02.34.04.51.06.01.02.03.03.05.02.02,0,.04,0,.05,0,.57.08,1.13.19,1.69.3.03,0,.06-.04.02-.06-.34-.15-.69-.26-1.05-.35.14-.02.28-.04.42-.06.57.18,1.14.39,1.69.64.04.02.07-.04.03-.06-.42-.23-.84-.44-1.28-.62.11,0,.23-.01.34-.01.1,0,.2,0,.3.01.84.3,1.67.69,2.47,1.04.05.02.09-.04.05-.08-.36-.27-.75-.51-1.14-.72.11.01.22.03.33.04.76.37,1.52.78,2.3,1.14.07.03.11-.06.05-.1-.43-.27-.91-.6-1.41-.93.13.01.25.03.38.05.82.41,1.62.88,2.39,1.36.05.03.09-.04.05-.08-.48-.4-1.01-.8-1.56-1.16.05,0,.09.02.14.02.76.41,1.5.92,1.91,1.59.02.04.07,0,.05-.04-.31-.57-.79-1.03-1.34-1.43.11.02.22.05.33.08.16.09.32.18.48.27.16.11.33.22.49.34.02.01.04.01.06,0,.22.14.43.29.64.44.04.03.08,0,.09-.03.22.14.44.28.66.42.03.02.08-.03.05-.06-.27-.3-.57-.58-.89-.84.46.22.91.49,1.33.82.05.04.11-.03.07-.08-.7-.77-1.77-1.37-2.93-1.75-.04-.02-.09-.05-.13-.07-.01-.01-.03-.03-.04-.04,1.33.47,3.2,1.1,3.85,2.4.03.06.11.03.1-.04Zm-25.18-1.33c-.26.54-.48,1.12-.52,1.68-.15-.55.44-1.64.66-2.11,0,0,0-.02.01-.02-.06.15-.11.3-.15.45Zm4.05-1.96c.07-.07.13-.14.19-.21.15-.1.3-.2.46-.29-.12.11-.24.21-.36.32-.04.03-.09.05-.13.08-.05.03-.1.06-.15.09Zm.15,1.83c.29-.32.66-.59,1.04-.84-.37.27-.72.55-1.04.84Zm2.7-2.91s-.02.01-.03.02c-.04.01-.07.02-.11.04.04-.02.09-.04.13-.06Zm-1.4.2c.1-.04.21-.07.31-.09-.16.08-.32.16-.48.24.06-.05.11-.1.17-.15Zm.12.71s.08-.07.13-.11c.18-.1.37-.19.55-.29-.04.03-.07.07-.11.1-.19.1-.38.19-.57.3Zm.47,1.32c.08-.11.17-.21.26-.3.01.03.02.05.04.08-.1.07-.2.15-.3.23Zm1.06-.01s0,0,0,0c0,0,0,0,.02-.01,0,0-.01.01-.02.02Zm-.42-1.58s-.07-.01-.11,0c0,0-.01,0-.02-.01.21-.13.43-.26.63-.34-.17.11-.34.23-.5.35Zm1.54.76c-.12.08-.25.16-.37.25.14-.11.28-.22.43-.33,0,0,0,0,.01,0-.02.03-.05.05-.07.08Zm.57-1.42s-.01,0-.02,0c.15-.11.3-.22.45-.33.1-.07.19-.14.29-.21.35-.16.71-.31,1.08-.45-.17.11-.34.22-.52.34-.44.19-.86.4-1.28.64Zm2.84,1.53s-.04,0-.07,0c.1-.04.2-.07.3-.11-.08.03-.16.07-.23.11Zm.32-1.49c-.12.03-.25.07-.39.1.06-.03.11-.06.17-.09.05-.03.05-.09,0-.11.11-.03.21-.07.32-.1.17-.05.33-.1.5-.15-.2.11-.41.23-.61.34Zm1.1-.29c-.1.02-.2.05-.3.07.03-.02.06-.03.08-.05.14-.08.28-.17.42-.26.17-.04.35-.08.52-.11-.24.11-.49.23-.72.34Zm1.14-.19c-.09,0-.18.02-.26.03.15-.08.31-.17.46-.25.12,0,.24,0,.36,0h0c-.19.07-.37.14-.56.22Zm4.15,1.06c-.23-.09-.45-.17-.69-.24-.05-.02-.11-.04-.16-.06.19.04.37.09.56.16.12.05.25.1.37.15-.03,0-.06,0-.08-.01Z"/><path class="cls-9" d="m128.27,128.14c0,3.44-2.78,6.21-6.21,6.21s-6.21-2.77-6.21-6.21,2.78-6.21,6.21-6.21,6.21,2.79,6.21,6.21Z"/><path class="cls-9" d="m174.42,128.14c0,3.44-2.78,6.21-6.21,6.21s-6.21-2.77-6.21-6.21,2.78-6.21,6.21-6.21,6.21,2.79,6.21,6.21Z"/><path class="cls-8" d="m144.9,149.19c1.39,0,2.7.35,3.84.97.36.19.69-.29.39-.56-1.12-1-2.6-1.61-4.23-1.62-1.62,0-3.11.6-4.23,1.6-.3.27.03.75.38.56,1.15-.61,2.46-.96,3.85-.96Z"/></g></svg>