<?xml version="1.0" encoding="UTF-8"?><svg xmlns="http://www.w3.org/2000/svg" xmlns:xlink="http://www.w3.org/1999/xlink" viewBox="0 0 284.93 302"><defs><style>.cls-1,.cls-2{fill:none;}.cls-3{filter:url(#outer-glow-16);}.cls-4{clip-path:url(#clippath);}.cls-5,.cls-6{fill:#fff;}.cls-7{fill:#818181;}.cls-8{fill:#a082bb;}.cls-9{fill:#c3c3c3;}.cls-10{fill:#79559f;}.cls-11,.cls-12,.cls-13,.cls-14{fill:#502b19;}.cls-15{clip-path:url(#clippath-1);}.cls-12{stroke-width:.99px;}.cls-12,.cls-13{stroke:#502b19;}.cls-12,.cls-13,.cls-16,.cls-2{stroke-miterlimit:10;}.cls-13{stroke-width:.96px;}.cls-16{fill:#f6f6f6;stroke:#79559f;stroke-width:1.66px;}.cls-17{opacity:.6;}.cls-2{stroke:#818181;stroke-width:1.91px;}.cls-6{opacity:.74;}.cls-14{opacity:.64;}</style><filter id="outer-glow-16" filterUnits="userSpaceOnUse"><feOffset dx="0" dy="0"/><feGaussianBlur result="blur" stdDeviation="5"/><feFlood flood-color="#f6ff00" flood-opacity=".41"/><feComposite in2="blur" operator="in"/><feComposite in="SourceGraphic"/></filter><clipPath id="clippath"><path class="cls-1" d="m80.5,221.32c-5.24,6.59-18.75,4.56-30.18-4.52-11.43-9.08-16.45-21.79-11.21-28.38,5.24-6.59,18.75-4.57,30.18,4.52,11.43,9.1,16.45,21.8,11.21,28.38Z"/></clipPath><clipPath id="clippath-1"><path class="cls-1" d="m208.17,214.06c6.05,5.85,19.18,2.07,29.32-8.44,10.13-10.51,13.44-23.77,7.39-29.61-6.07-5.84-19.19-2.06-29.32,8.44-10.14,10.51-13.45,23.77-7.38,29.6Z"/></clipPath></defs><g id="Platforms"><path class="cls-8" d="m12.51,283.16h259.92c2.78,0,5.04-2.26,5.04-5.04l4-127.92c0-2.78-2.26-5.04-5.04-5.04H8.51c-2.78,0-5.04,2.26-5.04,5.04l3,127.92c0,2.78,3.26,5.04,6.04,5.04Z"/><path d="m6.46,278.12c0,2.78,3.26,5.04,6.04,5.04h259.92c2.78,0,5.04-2.26,5.04-5.04H6.46Z"/></g><g id="Bells"><g class="cls-3"><path class="cls-9" d="m172.9,43.85c1.44,21.87-15.12,40.78-36.99,42.22-21.88,1.44-40.78-15.12-42.22-37-1.44-21.88,15.12-40.78,37-42.22,21.88-1.44,40.78,15.12,42.22,36.99Z"/><path class="cls-10" d="m238.34,163.34c.98,3.71,1.29,7.49,1.41,11.32.15,4.87-.2,9.67-1.16,14.44-1.52,7.61-5.15,14.16-10.32,19.88-6.13,6.78-13.63,11.67-21.58,15.94-10.19,5.47-21,9.23-32.29,11.66-8.03,1.73-16.13,2.98-24.31,3.64-1.87.16-3.75.27-5.6.39-9.37.75-18.75.79-28.11.15-16.56-1.12-32.43-4.96-47.26-12.56-6.15-3.17-11.77-7.07-16.46-12.21-4.94-5.44-8.17-11.78-9.83-18.95-1.19-5.11-1.95-10.28-1.97-15.51-.04-9.09,2.78-17.22,8.12-24.53,2.62-3.6,5.85-6.62,9.07-9.66,1.19-1.12,2.37-2.24,3.25-3.62.71-1.05,1.25-2.21,1.22-3.48-.1-3.01.5-5.91,1.44-8.72,3.86-11.5,6.66-23.35,10.97-34.72,2.78-7.33,6.5-14.13,11.58-20.12.6-.71,1.22-1.42,1.88-2.1,2.08-2.25,4.38-4.31,6.44-6.65,3.04-3.42,7.1-5.47,11.27-7.22,6.28-2.62,12.81-4.13,19.55-4.99,7.68-.95,15.38-1.07,23.06-.04,5.27.7,10.47,1.77,15.24,4.13,9.23,4.55,17.45,10.4,23.72,18.72,3.99,5.32,7.3,11.05,10.1,17.07,4.14,8.94,8.13,17.94,12.31,26.86,1.1,2.31,1.95,4.75,2.22,7.34.21,1.99,1.35,3.53,2.83,4.82,2.4,2.07,5.1,3.76,7.62,5.71,7.68,6,13.09,13.53,15.59,23.01Z"/><g class="cls-17"><g class="cls-4"><path class="cls-5" d="m49.76,188.29c5.7,17.2,19.77,33.16,38.58,35.38,4.67.55,9.44.07,13.92-1.37,1.76-.57,1.01-3.35-.77-2.78-16.3,5.26-32.77-4.4-41.9-17.7-3.02-4.41-5.37-9.23-7.05-14.3-.58-1.75-3.37-1-2.78.77h0Z"/></g></g><g class="cls-17"><g class="cls-15"><path class="cls-5" d="m231.47,176.69c-3.17,16.62-14.15,33.54-31.39,37.91-4.18,1.06-8.55,1.24-12.79.46-1.82-.33-2.59,2.45-.77,2.78,18.04,3.28,34.26-8.86,42.22-24.3,2.61-5.06,4.44-10.5,5.5-16.09.35-1.81-2.43-2.59-2.78-.77h0Z"/></g></g><path class="cls-12" d="m121.2,118.82c.23,3.43-2.36,6.38-5.78,6.6s-6.38-2.36-6.6-5.79,2.37-6.38,5.79-6.61c3.42-.23,6.38,2.37,6.6,5.79Z"/><path class="cls-12" d="m167.26,115.78c.23,3.43-2.36,6.38-5.78,6.6-3.42.23-6.38-2.36-6.61-5.79s2.37-6.38,5.79-6.61c3.42-.23,6.38,2.37,6.6,5.79Z"/><path class="cls-11" d="m139.19,138.73c1.39-.09,2.72.17,3.9.71.37.17.67-.33.35-.58-1.19-.93-2.7-1.44-4.33-1.34-1.62.1-3.06.81-4.12,1.88-.28.29.08.74.42.53,1.1-.69,2.39-1.12,3.78-1.21Z"/><path class="cls-14" d="m116.07,135.62c-1.39.09-2.7.04-3.86-.12-.36-.05-.68.16-.37.24,1.15.32,2.64.46,4.26.35,1.62-.11,3.08-.44,4.18-.91.29-.13-.05-.29-.4-.19-1.13.32-2.43.54-3.81.63Z"/><path class="cls-14" d="m161.83,132.6c-1.39.03-2.7-.07-3.85-.28-.36-.07-.68.13-.38.23,1.13.37,2.62.57,4.25.53,1.62-.04,3.1-.32,4.21-.74.3-.11-.04-.29-.39-.21-1.14.27-2.45.44-3.84.47Z"/><path class="cls-2" d="m130.12,117.34c1.13,9.96-6.03,18.95-15.99,20.08-9.96,1.13-18.96-6.03-20.09-15.99-1.13-9.96,6.03-18.95,16-20.08,9.96-1.13,18.95,6.03,20.08,15.99Z"/><path class="cls-2" d="m181.2,109.07c1.13,9.96-6.03,18.95-15.99,20.08-9.96,1.13-18.95-6.03-20.08-15.99-1.13-9.96,6.03-18.95,15.99-20.08,9.96-1.13,18.95,6.03,20.08,15.99Z"/><rect class="cls-7" x="129.97" y="113.64" width="15.08" height="3.82" transform="translate(-12.15 16.23) rotate(-6.47)"/><path class="cls-9" d="m132.37,75.83c-16.86,14.34-54.85,34.96-55.28,45.63-10.16-4.79-6.41-10.05-7.26-22.93-2.08-31.52,28.21-51.49,64.55-53.14,36.34-1.65,53.31,18.41,60.45,32.14,7.15,13.73,3.11,24.75-1.55,34.55-4.49-16.38-46.61-26.25-60.9-36.24Z"/><rect class="cls-9" x="120.71" y="63.52" width="19.85" height="7.78" transform="translate(-4.15 8.74) rotate(-3.77)"/><path class="cls-16" d="m153.77,44.37c.57,8.68-5.68,16.51-14.85,19.73-2.29.8-4.78,1.32-7.38,1.49-3.41.22-6.69-.17-9.7-1.07-8.4-2.53-14.57-9.05-15.09-17.05-.72-10.87,9.22-20.37,22.2-21.23,13-.86,24.1,7.26,24.82,18.13Z"/><path class="cls-13" d="m137.08,51.88l-11.76.78-2.64,6.49-4.46.29,11.77-28.4,14.92,26.64-4.54.3-3.3-6.09Zm-1.93-3.56l-4.65-8.53-3.69,9.08,8.34-.55Z"/><path class="cls-9" d="m173.13,96.47c-.03-1.49-1.59-2.55-2.66-3.35-.39-.29-.8-.58-1.22-.85-.53-.6-1.15-1.13-1.77-1.6-.71-.53-1.52-.77-2.36-.92-.14-.06-.29-.11-.43-.16.21.02.43.04.64.06,1.19.21,2.34.6,3.1,1.55.04.05.12,0,.08-.05-.72-1-2.13-1.7-3.5-1.91.18-.02.37-.05.56-.07.05,0,.04-.07,0-.07-.34-.04-.71-.05-1.07-.02-.02,0-.03,0-.05-.01.36-.05.72-.1,1.08-.16.03,0,.02-.05,0-.05-.35-.02-.7,0-1.05.02.03-.02.04-.08,0-.1-.03-.02-.07-.04-.1-.06.3-.07.6-.15.89-.22.03,0,.03-.06,0-.06-.38.05-.76.1-1.15.16-.16-.06-.32-.1-.48-.13.35-.09.7-.17,1.07-.2.03,0,.03-.04,0-.05-.48-.11-1.03.04-1.53.19-.26-.02-.52-.02-.79-.03.61-.12,1.24-.2,1.84-.35.04-.01.03-.07-.01-.07-.25,0-.5.01-.76.04-.61-.04-1.23-.03-1.84.04,0,0,0,0-.01-.01.39-.06.78-.11,1.19-.13.1,0,.09-.16-.01-.15-.56.02-1.14.06-1.71.14,0,0,0,0-.01,0-.08,0-.16.02-.24.04-.36.05-.73.12-1.08.21-.08.01-.16.02-.24.04-.05,0-.1-.01-.16-.02.11-.04.22-.09.33-.13.65-.17,1.31-.31,1.97-.4.09-.01.08-.15-.01-.14-.29.03-.58.06-.87.09.11-.04.22-.09.32-.13.26-.02.51-.04.77-.05.1,0,.08-.15-.01-.15-.1,0-.19,0-.29,0,.01-.02,0-.05-.03-.04-.06.02-.11.03-.17.05-.34,0-.68.02-1.03.04.23-.09.46-.19.69-.31.02-.01,0-.05-.02-.04-.43.1-.84.24-1.26.39-.45.04-.9.09-1.35.16.71-.3,1.42-.57,2.15-.8.04-.01.02-.07-.02-.06-1.06.29-2.18.62-3.22,1.08-.15-.06-.33-.03-.5,0,.07-.03.14-.06.21-.09.13-.02.25-.04.38-.05.06,0,.07-.08.03-.11.15-.06.31-.12.47-.19.04,0,.08-.01.12-.02.02,0,.04-.02.05-.05.53-.21,1.07-.43,1.59-.67.02-.01,0-.05-.02-.04-.69.15-1.38.36-2.05.61-.24,0-.48,0-.72.02.65-.29,1.3-.58,1.97-.86.03-.01,0-.06-.02-.06-.95.22-1.88.58-2.77,1.01-.02,0-.04,0-.06,0-.12-.04-.24-.07-.37-.09.03-.02.07-.03.1-.05.84-.41,1.73-.77,2.54-1.23.03-.02.01-.07-.03-.06-.88.26-1.72.68-2.55,1.06-.18.08-.36.17-.55.26-.16,0-.33.03-.49.05.46-.27.8-.45.9-.47.05,0,.07-.04.07-.08.6-.3,1.2-.6,1.77-.94.04-.03.02-.09-.03-.08-.78.21-1.55.58-2.28.99-.38.09-.75.26-1.11.47.54-.36.96-.63,1.07-.71.06-.04.01-.13-.05-.11-.51.22-1,.47-1.49.74.04-.03.09-.07.13-.1.23-.17.47-.34.7-.5.09-.06.81-.62.88-.44,0,.02.04.02.04,0,0-.34-.52,0-.61.06-.46.28-.91.57-1.36.88-.84.22-1.6.93-2.25,1.46-.05.04-.11.09-.17.13-.02,0-.03.02-.05.03.4-.39.81-.77,1.24-1.13.86-.73,1.82-1.32,2.7-2.02.03-.02,0-.06-.04-.05-.59.24-1.15.59-1.68.96-.99.46-1.96,1.08-2.79,1.82.79-.8,1.7-1.42,2.66-2,.07-.04.01-.15-.06-.12-.72.27-1.38.65-1.98,1.11.56-.54,1.19-.99,1.82-1.45.03-.02,0-.06-.03-.05-.68.3-1.34.74-1.93,1.28-.01,0-.02,0-.04,0-.12.06-.23.13-.34.2.48-.44,1-.8,1.53-1.2.03-.02.02-.09-.03-.07-1.22.5-2.35,1.57-3.06,2.7-.09.1-.18.22-.28.33.14-.25.29-.5.45-.75.07-.11.15-.21.22-.32.7-.71,1.45-1.34,2.32-1.91.04-.02,0-.08-.03-.06-.36.18-.71.38-1.06.61,0,0,0,0,0,0,.08-.07,0-.21-.09-.14-.48.39-.93.81-1.33,1.27-.02.02-.04.04-.06.06.81-1.29,2.03-2.38,3.38-2.78.07-.02.05-.15-.03-.13-1.26.24-2.28.9-3.09,1.89-.59.72-1.65,2.04-1.58,3.09-.05.17-.07.33-.03.47.05.16.27.13.31-.01.02.06.08.11.15.12.03,0,.06.02.09.02.04.01.08,0,.11-.04-.03.08-.05.16-.06.24-.02.08.06.13.13.12,0,0,0,0,0,0-.09.19.15.31.28.19.05-.05.1-.09.15-.14.03-.03.03-.06.02-.09.26-.34.52-.68.78-1,0,.07.08.13.15.08,0,0,.02-.01.03-.02-.02.06-.04.12-.05.19-.03.03-.07.06-.1.1-.02,0-.04,0-.06.03-.07.07-.13.15-.2.22-.12.13.06.32.19.19.1-.1.2-.19.3-.29.06,0,.13-.02.16-.08,0-.01.01-.02.02-.04.03.09.13.15.32.18.04,0,.07-.01.1-.04.08,0,.17-.1.1-.18,0,0,.07-.07.21-.18.02.02.04.04.06.05-.07.05-.14.1-.21.15-.08.06-.02.18.08.16.37-.1.73-.26,1.08-.43,0,.04-.01.07-.01.11,0,0,0,.02,0,.03-.01.01-.03.02-.04.03-.07.06-.02.2.08.16.49-.21.97-.45,1.45-.66-.05.06-.1.12-.14.18-.05.09.04.18.13.17-.14.07-.27.14-.4.22-.07.04,0,.13.06.11.73-.2,1.44-.43,2.17-.63-.01.03-.02.07-.03.11,0,.04,0,.07.03.09-.25.11-.49.24-.73.37-.06.04-.02.14.05.13.56-.1,1.12-.25,1.67-.41,0,.04,0,.07.03.1.01.02.03.03.04.05,0,0,0,0,.01.01-.21.11-.42.23-.61.36-.09.06-.01.19.08.16.58-.15,1.14-.37,1.71-.56.03.03.07.04.11.03.11-.05.22-.11.33-.17.08-.02.16-.05.24-.07-.19.09-.36.2-.54.31-.23.09-.46.18-.69.29-.08.04-.07.18.04.16.45-.05.9-.14,1.35-.24.02.06.07.11.14.1.1-.01.19-.03.29-.05-.14.07-.27.14-.4.21-.09.05-.04.22.07.2.37-.07.73-.17,1.09-.26,0,.09.05.19.14.21.11.02.21.04.32.05.08.01.14-.08.11-.15.27-.06.54-.12.81-.17-.02.02-.04.05-.04.08,0,0,0,0-.01,0-.3.08-.6.18-.89.31-.08.03-.06.17.03.16.17-.03.35-.05.52-.09,0,.07.04.13.1.16.02,0,.04.02.06.03.08.04.15-.01.17-.09.02-.09.22-.15.5-.2.09.03.17.07.26.1,0,.03,0,.06.01.08-.05.02-.1.04-.15.06-.1.04-.07.18.04.18.29,0,.58-.03.86-.06.01,0,.02,0,.03.01,0,0-.02,0-.02,0-.07.02-.04.13.03.13.12,0,.23,0,.35,0,.04.01.07.03.11.04.16.06.32.13.47.19,0,.02.02.03.05.04.02,0,.04,0,.05,0,.53.23,1.04.48,1.55.73.03.01.07-.02.04-.05-.29-.23-.6-.43-.92-.61.14.02.28.03.42.05.51.32,1,.68,1.46,1.05.03.03.08-.02.05-.05-.34-.33-.7-.64-1.07-.93.11.02.22.05.33.08.1.03.19.06.29.09.74.51,1.43,1.1,2.11,1.65.04.03.1-.02.07-.06-.28-.36-.59-.69-.91-1,.1.04.21.08.31.12.64.56,1.26,1.15,1.92,1.7.06.05.12-.03.08-.09-.34-.38-.72-.82-1.12-1.27.12.05.23.09.35.14.68.61,1.33,1.27,1.95,1.94.04.04.1-.02.07-.06-.36-.52-.76-1.03-1.2-1.53.04.02.08.04.13.06.63.6,1.21,1.28,1.43,2.03.01.04.07.02.06-.02-.15-.63-.5-1.2-.92-1.73.1.05.2.11.3.16.13.13.26.26.39.39.13.15.26.3.38.45.01.02.03.02.05.02.17.19.34.39.5.59.03.04.07.02.09,0,.18.19.35.39.53.58.03.03.08,0,.06-.04-.18-.36-.4-.71-.64-1.05.39.33.75.71,1.06,1.14.04.05.11,0,.08-.06-.47-.92-1.35-1.78-2.37-2.46-.04-.03-.07-.07-.11-.1-.01-.02-.02-.03-.03-.05,1.16.8,2.8,1.9,3.09,3.32.01.06.1.06.1,0Zm-23.96-7.87c-.4.45-.75.96-.94,1.49,0-.57.85-1.47,1.19-1.86,0,0,.01-.01.02-.02-.09.13-.18.26-.27.4Zm4.42-.84c.08-.05.16-.1.24-.15.17-.06.34-.11.51-.16-.14.07-.29.14-.43.22-.05.01-.1.03-.15.04-.06.02-.11.03-.17.05Zm-.33,1.81c.36-.23.79-.39,1.22-.54-.43.16-.84.34-1.22.54Zm3.36-2.1s-.02,0-.03.01c-.04,0-.07,0-.11,0,.05,0,.09-.01.14-.02Zm-1.4-.18c.11,0,.22-.01.32,0-.18.03-.35.07-.53.11.07-.03.14-.07.2-.1Zm-.07.72c.05-.02.1-.05.15-.07.2-.05.4-.09.61-.13-.04.02-.09.04-.13.07-.21.04-.42.09-.63.14Zm.11,1.4c.1-.08.22-.16.33-.23,0,.03.01.06.02.08-.12.05-.23.09-.35.14Zm1.03.26s0,0,0,0c0,0,.01,0,.02,0,0,0-.01,0-.02.01Zm.01-1.63s-.06-.03-.11-.03c0,0,0-.01-.01-.02.23-.07.48-.13.69-.16-.2.06-.39.13-.58.21Zm1.29,1.14c-.14.05-.28.09-.42.14.16-.07.33-.14.5-.21,0,0,0,0,.01,0-.03.02-.06.04-.09.06Zm.92-1.22s-.01,0-.02,0c.17-.07.35-.13.52-.2.11-.04.22-.08.33-.12.38-.06.77-.11,1.16-.15-.2.06-.39.13-.59.19-.47.07-.94.16-1.41.28Zm2.35,2.22s-.04-.01-.07-.02c.1,0,.21-.02.31-.03-.09.01-.17.03-.25.05Zm.7-1.36c-.13,0-.26,0-.4,0,.06-.01.12-.03.19-.04.06-.01.07-.07.04-.11.11,0,.22,0,.33-.01.17,0,.35,0,.52-.01-.23.06-.45.11-.68.17Zm1.13,0c-.1,0-.21,0-.31,0,.03,0,.06-.02.09-.03.16-.04.32-.09.48-.14.18,0,.35.02.53.03-.26.04-.53.09-.79.14Zm1.15.11c-.09-.01-.17-.03-.26-.04.17-.04.34-.08.51-.12.12.03.23.06.35.09h0c-.2.02-.4.04-.59.07Zm3.73,2.11c-.19-.14-.39-.28-.6-.41-.05-.03-.09-.07-.14-.1.17.08.34.18.5.3.11.08.21.16.32.24-.03-.01-.05-.02-.08-.03Z"/><ellipse class="cls-6" cx="140.89" cy="165" rx="16.5" ry="18" transform="translate(-14.27 13.34) rotate(-5.16)"/><path class="cls-9" d="m95.6,100.65c.3-1.42,1.93-2.52,3.09-3.32-.01.02-.02.03-.03.05-.04.03-.07.07-.11.1-1.03.67-1.9,1.53-2.37,2.46-.03.06.04.11.08.06.32-.44.67-.81,1.06-1.14-.25.34-.46.69-.64,1.05-.02.03.04.07.06.04.18-.19.35-.39.53-.58.02.03.06.04.09,0,.16-.2.33-.4.5-.59.02,0,.04,0,.05-.02.13-.16.25-.31.38-.45.13-.13.26-.26.39-.39.1-.06.2-.11.3-.16-.43.52-.77,1.1-.92,1.73,0,.04.05.06.06.02.22-.75.8-1.43,1.43-2.03.04-.02.08-.04.13-.06-.44.5-.85,1.01-1.2,1.53-.03.04.03.1.07.06.62-.67,1.27-1.33,1.95-1.94.12-.05.23-.1.35-.14-.4.45-.77.89-1.12,1.27-.05.05.02.14.08.09.66-.56,1.28-1.15,1.92-1.7.1-.04.21-.08.31-.12-.33.31-.63.64-.91,1-.03.04.03.09.07.06.68-.55,1.37-1.13,2.11-1.65.1-.03.19-.06.29-.09.11-.03.22-.06.33-.08-.37.29-.73.6-1.07.93-.03.03.01.07.05.05.46-.38.96-.73,1.46-1.05.14-.02.28-.04.42-.05-.32.18-.63.38-.92.61-.03.02,0,.06.04.05.51-.26,1.03-.51,1.55-.73.02,0,.04,0,.05,0,.03,0,.04-.02.05-.04.16-.07.31-.13.47-.19.04-.01.07-.03.11-.04.12,0,.23,0,.35,0,.07,0,.1-.11.03-.13,0,0-.01,0-.02,0,.01,0,.02,0,.03-.01.29.03.58.05.86.06.1,0,.14-.14.04-.18-.05-.02-.1-.04-.15-.06.01-.03.02-.05.01-.08.09-.03.17-.06.26-.1.28.05.48.12.5.2.02.08.09.12.17.09.02,0,.04-.02.06-.03.06-.03.1-.1.1-.16.17.03.35.06.52.09.1.01.11-.12.03-.16-.29-.12-.59-.22-.89-.31,0,0,0,0-.01,0,0-.03-.02-.05-.04-.08.27.05.54.11.81.17-.04.07.03.16.11.15.11-.02.21-.04.32-.05.1-.02.15-.12.14-.21.36.09.72.19,1.09.26.11.02.16-.14.07-.2-.12-.07-.26-.14-.4-.21.1.02.19.04.29.05.07,0,.13-.04.14-.1.45.1.89.19,1.35.24.1.01.11-.12.04-.16-.22-.11-.45-.21-.69-.29-.17-.11-.35-.22-.54-.31.08.02.16.05.24.07.11.06.21.12.33.17.04.02.08,0,.11-.03.57.2,1.13.41,1.71.56.1.03.17-.1.08-.16-.2-.13-.4-.25-.61-.36,0,0,0,0,.01-.01.01-.02.03-.03.04-.05.02-.03.03-.07.03-.1.55.16,1.1.3,1.67.41.07.01.11-.1.05-.13-.24-.14-.48-.26-.73-.37.02-.02.04-.05.03-.09,0-.04-.02-.07-.03-.11.72.2,1.44.42,2.17.63.07.02.12-.07.06-.11-.13-.07-.26-.15-.4-.22.09.01.17-.08.13-.17-.03-.07-.08-.13-.14-.18.49.22.96.45,1.45.66.1.04.15-.1.08-.16-.01-.01-.03-.02-.04-.03,0,0,0-.02,0-.03,0-.04,0-.07-.01-.11.35.17.71.33,1.08.43.1.03.16-.09.08-.16-.07-.05-.14-.1-.21-.15.02-.01.04-.03.06-.05.14.1.22.17.21.18-.07.08.02.17.1.18.02.03.06.04.1.04.19-.02.29-.09.32-.18,0,.01.01.02.02.04.03.07.1.09.16.08.1.1.2.19.3.29.13.12.31-.07.19-.19-.07-.07-.13-.15-.2-.22-.02-.02-.04-.03-.06-.03-.03-.03-.07-.06-.1-.1,0-.06-.03-.13-.05-.19,0,0,.02.01.03.02.07.05.15-.01.15-.08.27.32.53.65.78,1-.01.03,0,.07.02.09.05.05.1.09.15.14.13.12.38,0,.28-.19,0,0,0,0,0,0,.07.01.15-.04.13-.12-.02-.08-.04-.16-.06-.24.03.03.06.05.11.04.03,0,.06-.02.09-.02.07-.02.12-.06.15-.12.04.14.26.17.31.01.04-.14.02-.3-.03-.47.07-1.05-.99-2.37-1.58-3.09-.81-.99-1.83-1.65-3.09-1.89-.08-.01-.1.11-.03.13,1.35.4,2.57,1.49,3.38,2.78-.02-.02-.04-.04-.06-.06-.4-.46-.85-.88-1.33-1.27-.08-.07-.17.07-.09.14,0,0,0,0,0,0-.34-.22-.7-.43-1.06-.61-.04-.02-.07.03-.03.06.86.57,1.61,1.2,2.32,1.91.07.1.15.21.22.32.16.24.31.49.45.75-.09-.12-.19-.23-.28-.33-.71-1.13-1.84-2.21-3.06-2.7-.05-.02-.06.05-.03.07.52.39,1.05.76,1.53,1.2-.11-.07-.22-.14-.34-.2-.01,0-.02,0-.04,0-.59-.53-1.26-.98-1.93-1.28-.03-.01-.06.03-.03.05.63.46,1.26.92,1.82,1.45-.61-.46-1.27-.84-1.98-1.11-.07-.03-.13.08-.06.12.96.58,1.87,1.2,2.66,2-.84-.75-1.8-1.36-2.79-1.82-.53-.38-1.09-.72-1.68-.96-.03-.01-.07.03-.04.05.88.7,1.84,1.29,2.7,2.02.43.36.84.74,1.24,1.13-.02,0-.03-.02-.05-.03-.06-.05-.12-.09-.17-.13-.65-.53-1.41-1.24-2.25-1.46-.44-.31-.9-.6-1.36-.88-.09-.05-.61-.39-.61-.06,0,.03.04.03.04,0,.07-.18.79.38.88.44.24.17.47.33.7.5.04.03.09.06.13.1-.48-.27-.98-.52-1.49-.74-.06-.03-.11.07-.05.11.12.08.54.35,1.07.71-.36-.21-.73-.38-1.11-.47-.73-.41-1.5-.78-2.28-.99-.05-.01-.08.06-.03.08.57.34,1.17.64,1.77.94,0,.04.02.07.07.08.1.02.44.2.9.47-.16-.03-.33-.05-.49-.05-.18-.09-.36-.17-.55-.26-.83-.38-1.68-.8-2.55-1.06-.04-.01-.06.04-.03.06.82.46,1.7.81,2.54,1.23.03.02.07.03.1.05-.12.02-.25.05-.37.09-.02,0-.04,0-.06,0-.9-.43-1.83-.79-2.77-1.01-.03,0-.06.04-.02.06.66.29,1.32.57,1.97.86-.24-.02-.48-.02-.72-.02-.68-.25-1.37-.46-2.05-.61-.02,0-.04.03-.02.04.52.24,1.06.46,1.59.67,0,.02.03.04.05.05.04,0,.08.01.12.02.16.06.31.12.47.19-.04.03-.03.11.03.11.13.02.25.03.38.05.07.03.14.06.21.09-.17-.03-.36-.06-.5,0-1.04-.46-2.16-.79-3.22-1.08-.04-.01-.05.05-.02.06.73.23,1.44.5,2.15.8-.45-.08-.9-.13-1.35-.16-.42-.15-.83-.29-1.26-.39-.03,0-.04.03-.02.04.22.11.45.21.69.31-.35-.02-.69-.03-1.03-.04-.06-.02-.11-.03-.17-.05-.03,0-.05.02-.03.04-.1,0-.2,0-.29,0-.1,0-.11.15-.01.15.26.01.51.03.77.05.11.04.22.09.32.13-.29-.03-.58-.06-.87-.09-.09,0-.1.12-.01.14.66.09,1.32.23,1.97.4.11.04.22.09.33.13-.05,0-.1,0-.16.02-.08-.01-.16-.03-.24-.04-.36-.09-.72-.16-1.08-.21-.08-.02-.16-.03-.24-.04,0,0-.01,0-.01,0-.58-.08-1.15-.12-1.71-.14-.1,0-.11.15-.01.15.4.03.8.07,1.19.13,0,0,0,0-.01.01-.61-.07-1.23-.08-1.84-.04-.25-.03-.51-.05-.76-.04-.04,0-.05.06-.01.07.61.15,1.23.23,1.84.35-.26,0-.52.01-.79.03-.5-.15-1.05-.3-1.53-.19-.03,0-.02.05,0,.05.36.03.71.1,1.07.2-.16.03-.33.07-.48.13-.39-.06-.77-.11-1.15-.16-.03,0-.04.05,0,.06.3.07.59.14.89.22-.03.02-.07.04-.1.06-.04.02-.04.09,0,.1-.35-.03-.71-.03-1.05-.02-.03,0-.04.05,0,.05.36.05.72.11,1.08.16-.02,0-.03,0-.05.01-.37-.03-.73-.02-1.07.02-.04,0-.05.07,0,.07.19.02.37.04.56.07-1.37.22-2.77.91-3.5,1.91-.04.05.04.1.08.05.76-.95,1.92-1.34,3.1-1.55.21-.02.43-.05.64-.06-.15.05-.29.1-.43.16-.84.15-1.65.39-2.36.92-.62.47-1.24,1-1.77,1.6-.42.27-.83.56-1.22.85-1.07.8-2.64,1.87-2.66,3.35,0,.07.09.07.1,0Zm23.59-8.27s.01.01.02.02c.34.4,1.2,1.29,1.19,1.86-.19-.53-.55-1.03-.94-1.49-.08-.13-.17-.27-.27-.4Zm-4.33-.49s-.1-.03-.15-.04c-.14-.07-.29-.15-.43-.22.17.05.35.1.51.16.08.05.16.1.24.15-.06-.02-.12-.03-.17-.05Zm-.72,1.32c.43.14.86.31,1.22.54-.38-.19-.79-.37-1.22-.54Zm-2-1.55s-.07,0-.11,0c-.01,0-.02,0-.03-.01.05,0,.09.01.14.02Zm1.46-.1c-.17-.04-.35-.08-.53-.11.11,0,.21,0,.32,0,.07.03.14.07.2.1Zm-.76.48s-.09-.04-.13-.07c.2.04.41.08.61.13.05.02.1.05.15.07-.21-.05-.42-.1-.63-.14Zm.17,1.4s.01-.06.02-.08c.12.07.23.14.33.23-.12-.05-.23-.1-.35-.14Zm-.7.39s.02,0,.02,0c0,0,0,0,0,0,0,0-.01,0-.02-.01Zm-.57-1.83c.21.03.46.09.69.16,0,0,0,.01-.01.02-.04,0-.08,0-.11.03-.19-.08-.38-.15-.58-.21Zm-.8,1.29s0,0,.01,0c.17.07.34.14.5.21-.14-.05-.28-.1-.42-.14-.03-.02-.06-.04-.09-.06Zm-2.24-1.44c-.19-.07-.39-.13-.59-.19.39.04.77.09,1.16.15.11.04.22.08.33.12.17.07.35.13.52.2,0,0-.01,0-.02,0-.47-.12-.93-.21-1.41-.28Zm-1.19,2.46c.11.01.21.02.31.03-.02,0-.04.01-.07.02-.08-.02-.16-.03-.25-.05Zm-1.13-1.48c.18,0,.35,0,.52.01.11,0,.22,0,.33.01-.03.03-.02.1.04.11.06.01.13.03.19.04-.14,0-.28,0-.4,0-.23-.06-.45-.11-.68-.17Zm-1.24.04c.18-.02.35-.03.53-.03.16.05.32.1.48.14.03,0,.06.02.09.03-.1,0-.21,0-.31,0-.26-.05-.53-.1-.79-.14Zm-.95.19h0c.12-.04.23-.07.35-.09.17.04.34.08.51.12-.09.01-.18.02-.26.04-.2-.03-.4-.05-.59-.07Zm-3.21,2.21c.11-.08.21-.16.32-.24.16-.12.33-.22.5-.3-.05.03-.09.07-.14.1-.21.13-.4.27-.6.41-.03.01-.05.02-.08.03Z"/></g></g></svg>