<?xml version="1.0" encoding="UTF-8"?><svg xmlns="http://www.w3.org/2000/svg" xmlns:xlink="http://www.w3.org/1999/xlink" viewBox="0 0 284.93 302"><defs><style>.cls-1,.cls-2{fill:none;}.cls-3{clip-path:url(#clippath);}.cls-4{fill:#fd9;}.cls-5,.cls-6,.cls-7,.cls-8{fill:#fff;}.cls-9{fill:#ffd25a;}.cls-10,.cls-11{fill:#3f2414;}.cls-6{stroke-width:.97px;}.cls-6,.cls-2,.cls-12,.cls-11,.cls-7{stroke-miterlimit:10;}.cls-6,.cls-2,.cls-7{stroke:#fff;}.cls-13{clip-path:url(#clippath-1);}.cls-2{opacity:.7;}.cls-2,.cls-12{stroke-width:1.94px;}.cls-12{stroke:#000;}.cls-11{stroke:#3f2414;stroke-width:.69px;}.cls-14{opacity:.6;}.cls-15{opacity:.8;}.cls-7{stroke-width:.71px;}.cls-8{opacity:.74;}.cls-16{filter:url(#outer-glow-9);}</style><filter id="outer-glow-9" filterUnits="userSpaceOnUse"><feOffset dx="0" dy="0"/><feGaussianBlur result="blur" stdDeviation="5"/><feFlood flood-color="#f6ff00" flood-opacity=".41"/><feComposite in2="blur" operator="in"/><feComposite in="SourceGraphic"/></filter><clipPath id="clippath"><path class="cls-1" d="m95.83,203.55c-4.2,5.45-15.27,3.98-24.73-3.31-9.46-7.26-13.72-17.58-9.53-23.03,4.19-5.46,15.26-3.98,24.72,3.28,9.46,7.29,13.73,17.6,9.54,23.06Z"/></clipPath><clipPath id="clippath-1"><path class="cls-1" d="m200.66,195.69c5.02,4.69,15.71,1.43,23.86-7.28,8.15-8.74,10.67-19.61,5.65-24.31-5.03-4.7-15.71-1.44-23.86,7.31-8.15,8.7-10.68,19.59-5.65,24.28Z"/></clipPath></defs><g id="Platforms"><path class="cls-4" d="m12.51,283.16h259.92c2.78,0,5.04-2.26,5.04-5.04l4-127.92c0-2.78-2.26-5.04-5.04-5.04H8.51c-2.78,0-5.04,2.26-5.04,5.04l3,127.92c0,2.78,3.26,5.04,6.04,5.04Z"/><path d="m6.46,278.12c0,2.78,3.26,5.04,6.04,5.04h259.92c2.78,0,5.04-2.26,5.04-5.04H6.46Z"/></g><g id="Bells"><g class="cls-16"><path class="cls-9" d="m224.48,153.99c.84,3.03,1.15,6.15,1.29,9.22.2,4-.02,7.97-.75,11.82-1.17,6.28-4.04,11.65-8.2,16.4-4.9,5.61-10.96,9.72-17.43,13.31-8.24,4.6-17.02,7.83-26.23,9.96-6.53,1.54-13.13,2.62-19.8,3.32-1.55.14-3.07.25-4.59.38-7.66.73-15.3.9-22.98.5-13.55-.71-26.55-3.63-38.79-9.66-5.09-2.49-9.73-5.63-13.64-9.75-4.1-4.39-6.81-9.5-8.28-15.35-1.05-4.19-1.71-8.39-1.81-12.67-.15-7.44,2.06-14.09,6.33-20.17,2.08-2.95,4.68-5.5,7.28-7.98.95-.94,1.92-1.89,2.62-3.05.54-.88.98-1.77.93-2.82-.1-2.48.36-4.86,1.07-7.19,3.01-9.44,5.14-19.16,8.52-28.54,2.17-5.98,5.12-11.62,9.2-16.53.5-.62.99-1.21,1.52-1.78,1.66-1.86,3.51-3.55,5.15-5.51,2.45-2.81,5.73-4.59,9.13-6.07,5.08-2.24,10.42-3.56,15.89-4.35,6.29-.87,12.56-1.04,18.88-.33,4.3.51,8.59,1.33,12.51,3.19,7.6,3.61,14.42,8.26,19.64,15.02,3.34,4.3,6.12,8.94,8.47,13.82,3.52,7.26,6.89,14.55,10.44,21.79.9,1.88,1.65,3.83,1.91,5.95.2,1.67,1.15,2.89,2.35,3.92,2,1.66,4.23,3.01,6.31,4.55,6.37,4.83,10.89,10.93,13.07,18.6Z"/><path class="cls-1" d="m113.59,93.32c-.27-3.26,4-6.25,9.55-6.71"/><path class="cls-6" d="m131.06,118.81c.24,2.9.04,6-2.18,7.59-1.14.82-3.67.93-5.17,1.06-1.58.13-4.46.31-5.77-.38-2.34-1.24-2.66-4.12-2.89-6.94-.36-4.43,2.92-8.32,7.35-8.69s8.3,2.94,8.67,7.37Z"/><path class="cls-11" d="m127.14,121.08c.07.87.16,2.33-.25,2.96-.44.66-1.42.8-2.18.86s-1.98.16-2.52-.39c-.53-.55-.32-2.1-.39-2.99-.15-1.82.93-3.37,2.4-3.49s2.79,1.23,2.94,3.05Z"/><path class="cls-6" d="m154.82,116.85c.24,2.9.94,5.92,3.39,7.13,1.26.62,3.77.32,5.28.2,1.58-.13,4.45-.43,5.63-1.32,2.11-1.6,1.95-4.5,1.72-7.32-.36-4.43-4.24-7.73-8.67-7.37-4.42.36-7.71,4.25-7.35,8.69Z"/><path class="cls-11" d="m159.07,118.45c.07.87.22,2.33.73,2.88.54.58,1.53.55,2.29.49s1.98-.16,2.42-.79c.44-.63-.03-2.12-.1-3.02-.15-1.82-1.47-3.17-2.94-3.05-1.47.12-2.55,1.67-2.4,3.49Z"/><path class="cls-10" d="m141.57,137.88c.38-.2.64-.54.99-.78.4-.28.9-.35,1.38-.35.51,0,1,.2,1.48.33s.89.36,1.27.64.74-.35.37-.63c-.42-.31-.9-.57-1.41-.7-.56-.15-1.13-.37-1.72-.37-.54,0-1.09.09-1.57.35-.44.23-.72.66-1.16.89s-.05.84.37.63h0Z"/><path class="cls-10" d="m115.56,102.44c.52-.82,1.3-1.49,1.98-2.17.58-.58,1.24-.66,2.01-.81,1.32-.26,3.31-.78,4.26.52.27.38.9.01.63-.37-1.15-1.58-3.19-1.23-4.86-.9-.86.17-1.68.25-2.37.86-.42.38-.8.81-1.2,1.21s-.78.81-1.08,1.29c-.25.4.38.76.63.37h0Z"/><path class="cls-10" d="m167.06,97.01c-.38-.42-.83-.75-1.29-1.07s-.89-.66-1.34-.97c-.77-.52-1.68-.46-2.57-.49-1.64-.06-3.69-.04-4.55,1.63-.21.42.41.78.63.37.74-1.45,2.65-1.31,4.03-1.26.8.03,1.53-.02,2.2.47.8.58,1.71,1.11,2.37,1.85.31.35.83-.17.51-.51h0Z"/><g class="cls-15"><g class="cls-3"><path class="cls-5" d="m70,176.99c4.94,14.11,16.71,27.06,32.26,28.65,3.85.39,7.78-.06,11.44-1.31,1.76-.6,1.01-3.41-.77-2.81-13.1,4.44-26.53-3.06-34.11-13.68-2.55-3.57-4.55-7.49-6-11.63-.61-1.76-3.43-1-2.81.77h0Z"/></g></g><g class="cls-14"><g class="cls-13"><path class="cls-5" d="m218.97,164.75c-2.36,13.48-10.93,27.34-24.8,31.18-3.4.94-6.97,1.17-10.45.6-1.83-.3-2.62,2.5-.77,2.81,14.92,2.44,28.14-7.65,34.51-20.52,2.08-4.2,3.52-8.68,4.32-13.29.32-1.83-2.48-2.62-2.81-.77h0Z"/></g></g><rect class="cls-12" x="129.29" y="70.51" width="16.63" height="6.37" transform="translate(-5.57 11.51) rotate(-4.7)"/><path class="cls-12" d="m156.27,54.54c.58,7.09-4.43,13.59-11.88,16.33-1.86.7-3.87,1.14-6.01,1.32-2.79.23-5.48-.05-7.93-.76-6.92-1.96-12.03-7.18-12.57-13.73-.73-8.86,7.27-16.75,17.87-17.62,10.61-.87,19.8,5.61,20.53,14.47Z"/><path class="cls-2" d="m204.09,156.52c-1.26-.28-2.65-1.88-3.17-3.03-.44-.97-.55-3.13-.95-3.67"/><path class="cls-5" d="m127.21,47.22l1.63-.13.94,11.49-1.63.13-.06-.69c-.59.64-1.29,1-2.1,1.06-.96.08-1.79-.19-2.48-.8-.69-.62-1.07-1.44-1.15-2.45-.08-.99.17-1.84.74-2.55.57-.72,1.33-1.12,2.28-1.19.82-.07,1.59.19,2.29.77l-.46-5.63Zm-3.18,8.47c.05.63.27,1.14.67,1.51.4.37.89.54,1.45.49.6-.05,1.07-.28,1.41-.71.34-.43.48-.96.43-1.58-.05-.62-.28-1.12-.68-1.49-.4-.36-.9-.52-1.49-.47-.56.05-1.01.28-1.35.71-.34.43-.48.95-.43,1.54Z"/><path class="cls-5" d="m136.26,46.82l.07.86-1.26.1-.07,1.42,1.15-.09.07.86-1.27.1-.11,2.36-.92-.04.11-2.25-1.54.13-.12,2.36-.93-.04.11-2.27-1.18.1-.07-.84,1.31-.11.07-1.42-1.2.1-.07-.86,1.31-.11.11-2.21.92.04-.1,2.1,1.53-.13.11-2.21.92.04-.1,2.1,1.16-.1Zm-2.13,1.04l-1.52.12-.07,1.42,1.54-.13.06-1.42Z"/><path class="cls-5" d="m144.02,64.63l-5.04.41c.09.54.31.96.67,1.25.36.29.8.41,1.32.37.4-.03.73-.15.98-.35.25-.2.51-.56.81-1.08l1.43.61c-.18.36-.38.67-.6.93-.22.26-.45.48-.71.66-.26.18-.54.32-.85.42-.31.1-.64.16-1.01.19-1.05.09-1.92-.16-2.6-.75-.69-.59-1.08-1.41-1.16-2.47-.09-1.05.15-1.92.72-2.62.57-.69,1.36-1.08,2.39-1.16,1.03-.09,1.88.16,2.53.73.65.57,1.02,1.4,1.11,2.49l.02.36Zm-1.77-1.11c-.29-.8-.87-1.16-1.74-1.09-.2.02-.38.06-.55.13-.17.07-.32.17-.45.28s-.24.26-.33.41c-.09.16-.15.33-.19.53l3.26-.27Z"/><path class="cls-5" d="m145.77,53.39l.33,4.05c.43-.49.94-.77,1.53-.81.68-.06,1.27.14,1.76.58.49.44.77,1.01.83,1.72.06.73-.12,1.36-.54,1.88-.41.51-.97.8-1.66.85-.58.05-1.12-.12-1.62-.51l.04.5-1.17.1-.68-8.26,1.17-.1Zm3.26,5.68c-.04-.46-.2-.82-.49-1.08-.29-.27-.64-.39-1.04-.36-.43.04-.77.21-1.01.51-.24.3-.35.68-.31,1.13.04.46.2.82.48,1.08.29.26.64.38,1.07.34.4-.03.73-.2.97-.51.25-.31.35-.68.32-1.11Z"/><line class="cls-7" x1="146.43" y1="48.1" x2="127.81" y2="63.26"/></g><ellipse class="cls-8" cx="145.25" cy="164.47" rx="13.4" ry="14.26" transform="translate(-14.2 13.73) rotate(-5.16)"/></g></svg>