<?xml version="1.0" encoding="UTF-8"?><svg xmlns="http://www.w3.org/2000/svg" xmlns:xlink="http://www.w3.org/1999/xlink" viewBox="0 0 284.93 302"><defs><style>.cls-1,.cls-2{fill:none;}.cls-3{clip-path:url(#clippath);}.cls-4{fill:#f94f03;}.cls-5,.cls-6,.cls-7,.cls-8{fill:#fff;}.cls-9{fill:#ff5e4d;}.cls-10,.cls-11{fill:#3f2414;}.cls-6{stroke-width:.97px;}.cls-6,.cls-2,.cls-12,.cls-11,.cls-7{stroke-miterlimit:10;}.cls-6,.cls-2,.cls-7{stroke:#fff;}.cls-13{clip-path:url(#clippath-1);}.cls-2{opacity:.7;}.cls-2,.cls-12{stroke-width:1.94px;}.cls-12{stroke:#000;}.cls-11{stroke:#3f2414;stroke-width:.69px;}.cls-14{opacity:.6;}.cls-15{opacity:.8;}.cls-7{stroke-width:.71px;}.cls-8{opacity:.74;}.cls-16{filter:url(#outer-glow-8);}</style><filter id="outer-glow-8" filterUnits="userSpaceOnUse"><feOffset dx="0" dy="0"/><feGaussianBlur result="blur" stdDeviation="5"/><feFlood flood-color="#f6ff00" flood-opacity=".41"/><feComposite in2="blur" operator="in"/><feComposite in="SourceGraphic"/></filter><clipPath id="clippath"><path class="cls-1" d="m92.74,204.37c-4.28,5.39-15.33,3.75-24.68-3.68-9.35-7.39-13.46-17.78-9.19-23.17,4.27-5.39,15.32-3.75,24.67,3.65,9.35,7.43,13.47,17.81,9.19,23.2Z"/></clipPath><clipPath id="clippath-1"><path class="cls-1" d="m197.67,198.06c4.95,4.77,15.69,1.66,23.96-6.92,8.28-8.62,10.96-19.45,6.01-24.23-4.96-4.78-15.69-1.67-23.96,6.95-8.28,8.58-10.97,19.43-6.01,24.2Z"/></clipPath></defs><g id="Platforms"><path class="cls-9" d="m12.51,283.16h259.92c2.78,0,5.04-2.26,5.04-5.04l4-127.92c0-2.78-2.26-5.04-5.04-5.04H8.51c-2.78,0-5.04,2.26-5.04,5.04l3,127.92c0,2.78,3.26,5.04,6.04,5.04Z"/><path d="m6.46,278.12c0,2.78,3.26,5.04,6.04,5.04h259.92c2.78,0,5.04-2.26,5.04-5.04H6.46Z"/></g><g id="Bells"><g class="cls-16"><path class="cls-4" d="m222.1,156.72c.8,3.04,1.06,6.16,1.15,9.24.14,4-.14,7.96-.93,11.8-1.26,6.26-4.21,11.59-8.44,16.28-4.99,5.54-11.1,9.56-17.63,13.05-8.3,4.48-17.13,7.58-26.38,9.57-6.55,1.44-13.17,2.43-19.84,3.02-1.55.11-3.07.21-4.6.31-7.67.62-15.31.67-22.98.16-13.54-.91-26.49-4.02-38.64-10.23-5.05-2.56-9.64-5.78-13.49-9.95-4.04-4.45-6.67-9.6-8.05-15.47-.99-4.2-1.59-8.41-1.62-12.7-.03-7.45,2.27-14.06,6.63-20.08,2.13-2.92,4.76-5.43,7.39-7.87.96-.93,1.95-1.86,2.67-3.01.56-.87,1.01-1.76.97-2.8-.07-2.48.43-4.86,1.17-7.17,3.15-9.39,5.42-19.08,8.94-28.41,2.25-5.94,5.29-11.54,9.44-16.4.51-.61,1.01-1.2,1.55-1.76,1.69-1.84,3.56-3.5,5.24-5.43,2.49-2.77,5.8-4.51,9.22-5.93,5.11-2.17,10.47-3.4,15.95-4.11,6.31-.77,12.58-.85,18.88-.05,4.29.58,8.57,1.45,12.46,3.37,7.55,3.72,14.29,8.48,19.41,15.3,3.28,4.35,5.98,9.03,8.27,13.94,3.41,7.31,6.68,14.65,10.11,21.95.87,1.89,1.59,3.85,1.82,5.98.18,1.68,1.1,2.91,2.3,3.96,1.98,1.69,4.18,3.07,6.25,4.64,6.3,4.92,10.73,11.09,12.79,18.8Z"/><path class="cls-1" d="m112.13,94.41c-.22-3.26,4.09-6.19,9.65-6.56"/><path class="cls-6" d="m129.09,118.16c.2,2.9-.05,6-2.29,7.55-1.16.8-3.68.88-5.19.98-1.59.11-4.47.24-5.76-.47-2.33-1.27-2.6-4.16-2.79-6.98-.3-4.44,3.05-8.28,7.47-8.58,4.43-.3,8.26,3.06,8.56,7.5Z"/><path class="cls-11" d="m125.13,120.37c.06.87.12,2.34-.3,2.96-.45.65-1.44.78-2.19.83s-1.99.14-2.51-.42c-.52-.56-.29-2.1-.35-3-.12-1.83.98-3.36,2.45-3.46s2.77,1.27,2.9,3.1Z"/><path class="cls-6" d="m152.88,116.56c.2,2.9.85,5.93,3.28,7.18,1.25.64,3.76.38,5.27.28,1.59-.11,4.46-.36,5.65-1.24,2.13-1.57,2.02-4.47,1.83-7.29-.3-4.44-4.13-7.8-8.56-7.5-4.43.3-7.77,4.14-7.47,8.58Z"/><path class="cls-11" d="m157.1,118.22c.06.87.19,2.33.69,2.89.53.59,1.53.58,2.28.53s1.99-.13,2.43-.76c.44-.62,0-2.12-.06-3.02-.12-1.83-1.42-3.2-2.9-3.1s-2.58,1.63-2.45,3.46Z"/><path class="cls-10" d="m139.45,139.39c.39-.19.65-.53,1-.77.4-.27.91-.33,1.38-.33.51,0,.99.22,1.48.35s.88.37,1.26.66c.16.12.41.02.5-.13.11-.19.02-.38-.13-.5-.42-.32-.89-.58-1.4-.72-.56-.16-1.12-.39-1.71-.39-.54,0-1.09.08-1.57.33-.44.22-.73.65-1.17.87s-.05.83.37.63h0Z"/><path class="cls-10" d="m113.9,102.56c.53-.81,1.33-1.47,2.02-2.14.59-.57,1.25-.63,2.03-.78,1.33-.24,3.32-.73,4.25.59.27.38.9.02.63-.37-1.12-1.59-3.18-1.27-4.85-.97-.87.16-1.68.23-2.38.83-.43.37-.81.8-1.22,1.19s-.79.8-1.1,1.27c-.26.39.37.76.63.37h0Z"/><path class="cls-10" d="m165.46,97.9c-.37-.42-.82-.76-1.27-1.09s-.88-.67-1.33-.99c-.77-.53-1.67-.48-2.56-.53-1.64-.08-3.68-.09-4.57,1.57-.22.41.41.78.63.37.76-1.43,2.67-1.27,4.05-1.2.81.04,1.54,0,2.22.52.78.59,1.67,1.12,2.32,1.87.31.35.82-.16.51-.51h0Z"/><ellipse class="cls-8" cx="143.72" cy="167.33" rx="13.4" ry="14.26" transform="translate(-24.43 24.56) rotate(-9.01)"/><g class="cls-15"><g class="cls-3"><path class="cls-5" d="m67.31,177.45c4.72,14.16,16.29,27.26,31.78,29.1,3.87.46,7.82.06,11.53-1.13,1.78-.57,1.02-3.38-.77-2.81-13.21,4.26-26.53-3.52-33.96-14.29-2.47-3.59-4.39-7.51-5.77-11.64-.59-1.77-3.4-1.01-2.81.77h0Z"/></g></g><g class="cls-14"><g class="cls-13"><path class="cls-5" d="m216.43,167.42c-2.56,13.45-11.35,27.16-25.28,30.79-3.41.89-6.99,1.06-10.46.43-1.83-.33-2.62,2.48-.77,2.81,14.88,2.66,28.24-7.27,34.8-20.03,2.14-4.16,3.64-8.63,4.51-13.23.35-1.83-2.46-2.61-2.81-.77h0Z"/></g></g><rect class="cls-12" x="128.11" y="71.97" width="16.63" height="6.37" transform="translate(-4.74 9.32) rotate(-3.85)"/><path class="cls-12" d="m155.38,56.27c.48,7.1-4.63,13.52-12.12,16.16-1.87.67-3.89,1.08-6.03,1.23-2.79.19-5.48-.13-7.92-.88-6.89-2.06-11.92-7.36-12.36-13.92-.6-8.87,7.52-16.64,18.12-17.36,10.62-.71,19.72,5.9,20.31,14.77Z"/><path class="cls-2" d="m201.68,158.95c-1.25-.3-2.62-1.92-3.12-3.08-.43-.98-.5-3.14-.9-3.68"/><path class="cls-5" d="m127.1,53.65l.14,2.04c-.4-.4-.75-.67-1.06-.81-.3-.14-.65-.2-1.04-.18-.61.04-1.11.28-1.48.71-.38.43-.55.95-.5,1.56.04.62.27,1.12.69,1.49.42.37.94.54,1.55.5.39-.03.73-.13,1.02-.31.28-.17.6-.5.96-.97l.14,2.02c-.64.37-1.29.57-1.95.62-1.09.07-2.02-.2-2.8-.81-.78-.62-1.2-1.42-1.27-2.41-.07-.99.25-1.85.94-2.58.7-.73,1.58-1.13,2.66-1.21.69-.05,1.36.07,2,.34Z"/><path class="cls-5" d="m133.7,48.37l.06.86-1.26.08-.09,1.42,1.15-.08.06.86-1.27.09-.15,2.36-.92-.05.15-2.25-1.54.1-.15,2.36-.93-.05.14-2.27-1.18.08-.06-.84,1.31-.09.09-1.42-1.2.08-.06-.86,1.31-.09.14-2.21.92.05-.14,2.1,1.53-.1.14-2.21.92.05-.14,2.1,1.16-.08Zm-2.14,1.01l-1.53.1-.09,1.42,1.54-.1.08-1.42Z"/><path class="cls-5" d="m141.21,57.7l1.63-.11.77,11.5-1.63.11-.05-.69c-.6.63-1.31.98-2.12,1.03-.96.06-1.79-.21-2.47-.83-.68-.63-1.05-1.46-1.12-2.47-.07-.99.19-1.84.78-2.54.58-.71,1.35-1.1,2.3-1.16.82-.06,1.58.21,2.28.8l-.38-5.64Zm-3.31,8.42c.04.64.26,1.14.65,1.52.4.38.88.55,1.44.51.6-.04,1.08-.27,1.42-.68.34-.43.5-.95.45-1.58-.04-.62-.26-1.12-.66-1.5-.4-.37-.89-.54-1.48-.5-.56.04-1.01.27-1.36.69-.34.43-.5.94-.46,1.54Z"/><path class="cls-5" d="m145.61,54.91l.27,4.05c.44-.49.95-.75,1.54-.79.68-.05,1.27.16,1.75.6.49.45.75,1.02.8,1.74.05.73-.14,1.36-.56,1.87-.42.51-.98.78-1.67.83-.58.04-1.12-.14-1.61-.53l.03.5-1.17.08-.56-8.27,1.17-.08Zm3.18,5.73c-.03-.46-.19-.82-.47-1.09-.29-.28-.63-.4-1.03-.37-.43.03-.77.19-1.02.5-.25.3-.36.67-.33,1.12.03.46.19.82.47,1.08.28.27.64.38,1.07.36.4-.03.73-.19.98-.49.25-.31.36-.67.33-1.1Z"/><line class="cls-7" x1="145.63" y1="49.69" x2="126.79" y2="64.57"/></g></g></svg>