<?xml version="1.0" encoding="UTF-8"?><svg xmlns="http://www.w3.org/2000/svg" xmlns:xlink="http://www.w3.org/1999/xlink" viewBox="0 0 284.93 302"><defs><style>.cls-1{fill:none;}.cls-2{filter:url(#outer-glow-21);}.cls-3{clip-path:url(#clippath);}.cls-4,.cls-5,.cls-6{fill:#fff;}.cls-7{fill:#a5d5a3;}.cls-8{fill:#52cf84;}.cls-9,.cls-10{fill:#502b19;}.cls-11{clip-path:url(#clippath-1);}.cls-10{stroke:#502b19;stroke-width:.99px;}.cls-10,.cls-5,.cls-12{stroke-miterlimit:10;}.cls-5{stroke:#fff;stroke-width:.83px;}.cls-13{opacity:.6;}.cls-12{stroke:#000;stroke-width:1.66px;}.cls-6{opacity:.74;}</style><filter id="outer-glow-21" filterUnits="userSpaceOnUse"><feOffset dx="0" dy="0"/><feGaussianBlur result="blur" stdDeviation="5"/><feFlood flood-color="#f6ff00" flood-opacity=".41"/><feComposite in2="blur" operator="in"/><feComposite in="SourceGraphic"/></filter><clipPath id="clippath"><path class="cls-1" d="m81.29,203.41c-5.32,6.52-18.8,4.34-30.12-4.88-11.33-9.22-16.19-21.98-10.88-28.51,5.32-6.52,18.8-4.35,30.12,4.87,11.33,9.23,16.19,21.99,10.88,28.51Z"/></clipPath><clipPath id="clippath-1"><path class="cls-1" d="m209.04,197.65c5.98,5.92,19.15,2.29,29.42-8.09,10.25-10.39,13.71-23.61,7.74-29.52-6-5.92-19.17-2.29-29.42,8.1-10.26,10.39-13.73,23.61-7.73,29.51Z"/></clipPath></defs><g id="Platforms"><path class="cls-7" d="m12.51,283.16h259.92c2.78,0,5.04-2.26,5.04-5.04l4-127.92c0-2.78-2.26-5.04-5.04-5.04H8.51c-2.78,0-5.04,2.26-5.04,5.04l3,127.92c0,2.78,3.26,5.04,6.04,5.04Z"/><path d="m6.46,278.12c0,2.78,3.26,5.04,6.04,5.04h259.92c2.78,0,5.04-2.26,5.04-5.04H6.46Z"/></g><g id="Bells"><g class="cls-2"><path class="cls-8" d="m239.81,147.3c.93,3.72,1.2,7.5,1.27,11.33.09,4.87-.31,9.67-1.33,14.42-1.61,7.59-5.32,14.1-10.56,19.75-6.21,6.7-13.77,11.51-21.77,15.68-10.26,5.35-21.11,8.98-32.42,11.27-8.05,1.64-16.16,2.79-24.35,3.35-1.87.14-3.75.22-5.61.32-9.38.64-18.75.57-28.11-.18-16.55-1.31-32.37-5.34-47.11-13.11-6.11-3.24-11.69-7.21-16.31-12.4-4.87-5.5-8.03-11.87-9.61-19.07-1.13-5.13-1.83-10.31-1.79-15.54.07-9.09,2.99-17.19,8.41-24.44,2.66-3.57,5.93-6.56,9.19-9.55,1.2-1.1,2.39-2.21,3.29-3.59.73-1.05,1.27-2.19,1.26-3.46-.06-3.01.57-5.9,1.54-8.7,4-11.45,6.94-23.27,11.38-34.59,2.87-7.29,6.66-14.05,11.81-19.98.61-.7,1.24-1.41,1.9-2.08,2.11-2.23,4.43-4.26,6.52-6.58,3.08-3.38,7.16-5.38,11.35-7.08,6.31-2.55,12.85-3.98,19.6-4.76,7.69-.86,15.39-.88,23.06.24,5.26.76,10.45,1.9,15.19,4.31,9.17,4.66,17.32,10.61,23.49,19,3.93,5.37,7.17,11.13,9.9,17.19,4.04,8.99,7.92,18.03,11.99,27,1.07,2.32,1.9,4.77,2.14,7.37.19,1.99,1.31,3.55,2.77,4.85,2.37,2.1,5.06,3.82,7.55,5.8,7.61,6.09,12.92,13.68,15.32,23.19Z"/><path class="cls-1" d="m106.76,69.23c-.22-3.98,5.11-7.49,11.9-7.86"/><path class="cls-10" d="m122.06,94.2c.19,3.43-2.44,6.35-5.86,6.54-3.42.19-6.35-2.43-6.54-5.86-.18-3.42,2.44-6.35,5.86-6.54,3.43-.19,6.35,2.45,6.53,5.87Z"/><path class="cls-10" d="m168.15,91.71c.19,3.43-2.44,6.35-5.86,6.54-3.42.19-6.35-2.43-6.54-5.86-.18-3.42,2.44-6.35,5.87-6.54,3.43-.19,6.35,2.45,6.53,5.87Z"/><path class="cls-9" d="m113.62,71.32c2.41-.66,4.85-.69,7.13-.17.71.16,1.05-.83.4-1.15-2.43-1.2-5.29-1.54-8.1-.77-2.82.78-5.09,2.54-6.56,4.81-.39.61.41,1.28.93.78,1.69-1.61,3.8-2.84,6.21-3.51Z"/><path class="cls-9" d="m161.42,68.19c2.43.6,4.56,1.78,6.29,3.35.54.49,1.32-.2.91-.8-1.53-2.24-3.85-3.94-6.69-4.64-2.83-.7-5.68-.29-8.08.97-.64.34-.27,1.32.43,1.14,2.27-.57,4.7-.61,7.13-.01Z"/><path class="cls-9" d="m139.81,114.32c1.39-.07,2.71.21,3.89.76.37.17.67-.32.36-.58-1.18-.94-2.69-1.47-4.31-1.39-1.62.08-3.07.77-4.14,1.83-.29.28.07.74.41.54,1.11-.67,2.4-1.09,3.79-1.16Z"/><ellipse class="cls-6" cx="140.19" cy="149.06" rx="16.5" ry="18" transform="translate(-12.84 13.21) rotate(-5.16)"/><g class="cls-13"><g class="cls-3"><path class="cls-4" d="m50.95,170.03c5.49,17.25,19.4,33.41,38.17,35.82,4.67.6,9.43.18,13.93-1.21,1.77-.55,1.01-3.33-.77-2.78-16.36,5.07-32.71-4.81-41.68-18.21-2.97-4.44-5.26-9.29-6.88-14.38-.56-1.76-3.35-1.01-2.78.77h0Z"/></g></g><g class="cls-13"><g class="cls-11"><path class="cls-4" d="m232.78,160.58c-3.37,16.59-14.55,33.36-31.84,37.53-4.19,1.01-8.56,1.13-12.79.3-1.81-.35-2.59,2.43-.77,2.78,18,3.49,34.36-8.49,42.5-23.82,2.67-5.03,4.56-10.45,5.69-16.03.37-1.81-2.41-2.59-2.78-.77h0Z"/></g></g><rect class="cls-12" x="126.93" y="42.19" width="19.85" height="7.78" transform="translate(-2.29 7.46) rotate(-3.1)"/><path class="cls-12" d="m160.26,23.31c.47,8.69-5.87,16.44-15.08,19.55-2.3.77-4.79,1.27-7.39,1.41-3.41.18-6.69-.24-9.69-1.19-8.37-2.63-14.46-9.22-14.89-17.22-.59-10.88,9.46-20.26,22.45-20.97,13.01-.7,24.02,7.54,24.61,18.42Z"/><path class="cls-4" d="m128.62,15.72l-4.88.26.17,3.17,4.71-.25.1,1.87-4.71.25.34,6.29-2.11.12-.71-13.2,7-.38.1,1.87Z"/><path class="cls-4" d="m137.24,12.57l.06,1.08-1.58.09-.14,1.78,1.45-.08.06,1.08-1.59.09-.23,2.96-1.16-.08.22-2.82-1.94.1-.23,2.96-1.17-.08.22-2.84-1.49.08-.06-1.06,1.65-.09.14-1.78-1.51.08-.06-1.08,1.65-.09.21-2.77,1.15.08-.21,2.63,1.92-.1.22-2.77,1.15.08-.21,2.63,1.46-.08Zm-2.71,1.23l-1.92.1-.14,1.78,1.93-.1.13-1.78Z"/><path class="cls-4" d="m143.17,30.51l5.79-.31.02.44c.05.99-.02,1.88-.23,2.65-.2.72-.58,1.4-1.12,2.05-1.23,1.45-2.84,2.23-4.85,2.34-1.96.11-3.67-.47-5.14-1.73-1.47-1.26-2.26-2.83-2.36-4.71-.1-1.92.52-3.58,1.87-4.99,1.35-1.42,3.04-2.18,5.08-2.29,1.09-.06,2.13.1,3.1.47.93.37,1.86,1.01,2.79,1.91l-1.43,1.44c-1.23-1.38-2.67-2.03-4.32-1.94-1.48.08-2.7.63-3.65,1.65-.95,1-1.39,2.21-1.31,3.64.08,1.47.71,2.65,1.88,3.54,1.09.83,2.25,1.21,3.47,1.14,1.04-.06,1.96-.44,2.75-1.14.79-.71,1.21-1.54,1.26-2.47l-3.49.19-.1-1.87Z"/><path class="cls-4" d="m151.76,19.32l.28,5.09c.56-.61,1.21-.93,1.95-.97.86-.05,1.58.22,2.19.79.6.57.93,1.3.98,2.19.05.92-.2,1.7-.74,2.33-.54.63-1.24.97-2.11,1.01-.73.04-1.41-.19-2.01-.69l.03.63-1.47.08-.56-10.38,1.47-.08Zm3.89,7.24c-.03-.57-.22-1.03-.57-1.38-.36-.35-.78-.51-1.29-.48-.54.03-.97.23-1.29.61-.32.37-.46.84-.43,1.4.03.58.22,1.04.57,1.37.35.34.79.49,1.33.46.51-.03.92-.23,1.24-.6.32-.38.46-.84.44-1.38Z"/><line class="cls-5" x1="148.08" y1="13.84" x2="124.2" y2="32.2"/></g></g></svg>