<?xml version="1.0" encoding="UTF-8"?><svg xmlns="http://www.w3.org/2000/svg" xmlns:xlink="http://www.w3.org/1999/xlink" viewBox="0 0 284.93 302"><defs><style>.cls-1,.cls-2{fill:none;}.cls-3{filter:url(#outer-glow-11);}.cls-4{clip-path:url(#clippath);}.cls-5{fill:#f2e714;}.cls-6,.cls-7,.cls-8,.cls-9{fill:#fff;}.cls-10{fill:#fdf051;}.cls-11,.cls-12{fill:#3f2414;}.cls-13{fill:#502b19;}.cls-7{stroke-width:.97px;}.cls-7,.cls-2{stroke:#fff;}.cls-7,.cls-2,.cls-12,.cls-8{stroke-miterlimit:10;}.cls-14{clip-path:url(#clippath-1);}.cls-2{opacity:.7;stroke-width:1.94px;}.cls-12{stroke:#3f2414;stroke-width:.69px;}.cls-8{stroke:#f2e714;stroke-width:2.23px;}.cls-15{opacity:.6;}.cls-16{opacity:.8;}.cls-9{opacity:.74;}</style><filter id="outer-glow-11" filterUnits="userSpaceOnUse"><feOffset dx="0" dy="0"/><feGaussianBlur result="blur" stdDeviation="5"/><feFlood flood-color="#f6ff00" flood-opacity=".41"/><feComposite in2="blur" operator="in"/><feComposite in="SourceGraphic"/></filter><clipPath id="clippath"><path class="cls-1" d="m96.07,211.87c-4.2,5.45-15.27,3.96-24.73-3.34-9.45-7.26-13.7-17.6-9.51-23.04,4.19-5.45,15.27-3.96,24.72,3.31,9.46,7.3,13.71,17.62,9.51,23.07Z"/></clipPath><clipPath id="clippath-1"><path class="cls-1" d="m200.91,204.11c5.02,4.7,15.71,1.45,23.87-7.25,8.16-8.73,10.69-19.6,5.67-24.31-5.03-4.71-15.71-1.46-23.86,7.28-8.16,8.69-10.7,19.58-5.67,24.28Z"/></clipPath></defs><g id="Platforms"><path class="cls-10" d="m12.51,283.16h259.92c2.78,0,5.04-2.26,5.04-5.04l4-127.92c0-2.78-2.26-5.04-5.04-5.04H8.51c-2.78,0-5.04,2.26-5.04,5.04l3,127.92c0,2.78,3.26,5.04,6.04,5.04Z"/><path d="m6.46,278.12c0,2.78,3.26,5.04,6.04,5.04h259.92c2.78,0,5.04-2.26,5.04-5.04H6.46Z"/></g><g id="Bells"><g class="cls-3"><path class="cls-5" d="m224.77,162.44c.84,3.03,1.14,6.15,1.28,9.23.19,4-.03,7.97-.77,11.82-1.17,6.28-4.05,11.65-8.22,16.39-4.91,5.6-10.97,9.71-17.45,13.29-8.24,4.59-17.03,7.81-26.24,9.93-6.53,1.53-13.13,2.61-19.8,3.3-1.55.13-3.07.25-4.59.37-7.66.72-15.3.88-22.98.47-13.55-.73-26.55-3.65-38.78-9.7-5.08-2.49-9.72-5.64-13.63-9.77-4.1-4.39-6.8-9.51-8.26-15.36-1.05-4.19-1.71-8.39-1.79-12.67-.14-7.44,2.07-14.09,6.35-20.17,2.08-2.95,4.69-5.49,7.28-7.97.95-.94,1.92-1.89,2.63-3.05.55-.88.98-1.77.93-2.82-.1-2.48.36-4.86,1.08-7.18,3.02-9.43,5.16-19.15,8.55-28.53,2.17-5.97,5.13-11.61,9.21-16.52.5-.62.99-1.21,1.52-1.78,1.67-1.86,3.51-3.55,5.16-5.5,2.45-2.81,5.73-4.59,9.14-6.06,5.08-2.24,10.43-3.54,15.89-4.33,6.29-.86,12.56-1.03,18.88-.31,4.3.52,8.59,1.34,12.51,3.2,7.6,3.62,14.41,8.28,19.62,15.04,3.34,4.3,6.11,8.94,8.46,13.83,3.51,7.26,6.88,14.55,10.42,21.81.89,1.88,1.64,3.83,1.9,5.95.2,1.67,1.14,2.89,2.35,3.92,2,1.66,4.23,3.01,6.31,4.55,6.36,4.83,10.88,10.94,13.05,18.62Z"/><path class="cls-1" d="m113.94,101.66c-.26-3.26,4-6.24,9.56-6.7"/><path class="cls-7" d="m131.07,123.17c.24,2.9.03,6-2.19,7.58-1.14.82-3.67.93-5.17,1.05-1.58.13-4.46.3-5.77-.39-2.34-1.24-2.66-4.12-2.89-6.95-.36-4.43,2.93-8.32,7.36-8.68,4.42-.36,8.3,2.95,8.66,7.38Z"/><path class="cls-12" d="m127.14,125.44c.07.87.16,2.33-.26,2.96-.44.66-1.42.8-2.18.86s-1.98.16-2.52-.39c-.53-.55-.32-2.1-.39-2.99-.15-1.82.93-3.37,2.41-3.49,1.47-.12,2.79,1.23,2.94,3.06Z"/><path class="cls-7" d="m154.83,121.24c.24,2.9.94,5.92,3.38,7.13,1.26.62,3.77.33,5.27.2,1.58-.13,4.45-.42,5.63-1.32,2.11-1.6,1.96-4.5,1.73-7.32-.36-4.43-4.23-7.74-8.66-7.38s-7.72,4.25-7.36,8.68Z"/><path class="cls-12" d="m159.07,122.85c.07.87.22,2.33.73,2.88.54.58,1.53.56,2.29.49s1.98-.16,2.42-.79c.44-.63-.02-2.12-.1-3.02-.15-1.82-1.46-3.18-2.94-3.06s-2.55,1.67-2.41,3.49Z"/><path class="cls-11" d="m141.88,146.25c.38-.2.64-.54.99-.78.4-.28.9-.35,1.38-.35.51,0,1,.21,1.48.33s.89.36,1.27.64.74-.35.37-.63c-.42-.31-.9-.57-1.41-.71-.56-.15-1.13-.37-1.72-.37-.54,0-1.09.09-1.57.35-.44.23-.72.66-1.16.89s-.05.84.37.63h0Z"/><path class="cls-11" d="m115.66,107.78c.52-.81,1.3-1.49,1.99-2.17.58-.58,1.24-.65,2.01-.81,1.32-.26,3.31-.78,4.26.53.27.38.9.01.63-.37-1.14-1.58-3.19-1.23-4.86-.9-.86.17-1.68.25-2.37.86-.42.38-.8.81-1.2,1.21s-.78.81-1.09,1.29c-.25.39.38.76.63.37h0Z"/><path class="cls-11" d="m167.16,102.41c-.38-.42-.83-.75-1.29-1.08s-.89-.66-1.34-.97c-.77-.52-1.68-.46-2.57-.5-1.64-.06-3.69-.05-4.55,1.62-.21.42.41.78.63.37.74-1.44,2.65-1.31,4.03-1.26.81.03,1.54-.01,2.23.49.79.58,1.68,1.1,2.34,1.83.31.35.83-.17.51-.51h0Z"/><ellipse class="cls-9" cx="146.34" cy="171.78" rx="13.4" ry="14.26" transform="translate(-27.09 27.41) rotate(-9.8)"/><g class="cls-16"><g class="cls-4"><path class="cls-6" d="m70.27,185.28c4.92,14.11,16.68,27.08,32.23,28.68,3.85.4,7.78-.06,11.44-1.29,1.76-.6,1.01-3.41-.77-2.81-13.1,4.43-26.52-3.09-34.1-13.72-2.55-3.57-4.55-7.5-5.99-11.64-.61-1.76-3.43-1-2.81.77h0Z"/></g></g><g class="cls-15"><g class="cls-14"><path class="cls-6" d="m219.25,173.2c-2.37,13.48-10.96,27.33-24.84,31.15-3.4.94-6.97,1.16-10.45.59-1.83-.3-2.62,2.5-.77,2.81,14.92,2.46,28.15-7.63,34.53-20.49,2.08-4.2,3.52-8.68,4.34-13.29.32-1.83-2.48-2.62-2.81-.77h0Z"/></g></g><rect class="cls-6" x="129.66" y="78.87" width="16.63" height="6.37" transform="translate(-6.18 11.42) rotate(-4.64)"/><path class="cls-8" d="m156.66,62.92c.58,7.09-4.44,13.58-11.9,16.32-1.86.7-3.88,1.14-6.01,1.31-2.79.23-5.48-.05-7.93-.77-6.92-1.96-12.02-7.19-12.56-13.75-.72-8.86,7.29-16.75,17.88-17.61,10.61-.86,19.79,5.63,20.51,14.49Z"/><path class="cls-13" d="m146.31,64.59l-13.53,1.1c.23,1.45.83,2.57,1.79,3.37.96.78,2.14,1.11,3.53,1,1.09-.09,1.96-.4,2.63-.95.66-.54,1.38-1.51,2.16-2.9l3.84,1.64c-.49.96-1.03,1.79-1.61,2.49-.58.7-1.22,1.29-1.9,1.77-.69.48-1.45.85-2.27,1.11-.82.26-1.73.43-2.71.51-2.82.23-5.15-.44-6.99-2.01-1.84-1.58-2.88-3.79-3.11-6.62-.23-2.81.41-5.16,1.93-7.03,1.53-1.85,3.67-2.89,6.42-3.11,2.78-.23,5.04.43,6.79,1.97,1.74,1.53,2.72,3.76,2.96,6.69l.06.97Zm-4.75-3c-.79-2.14-2.34-3.12-4.67-2.93-.53.04-1.02.16-1.47.35-.45.19-.86.44-1.22.76-.36.32-.66.69-.9,1.11-.24.42-.41.9-.51,1.42l8.76-.71Z"/><path class="cls-2" d="m204.38,164.95c-1.26-.29-2.65-1.88-3.17-3.03-.44-.97-.54-3.13-.95-3.67"/></g></g></svg>