<?xml version="1.0" encoding="UTF-8"?><svg xmlns="http://www.w3.org/2000/svg" xmlns:xlink="http://www.w3.org/1999/xlink" viewBox="0 0 284.93 302"><defs><style>.cls-1{fill:none;}.cls-2{filter:url(#outer-glow-17);}.cls-3{clip-path:url(#clippath);}.cls-4{fill:#f26973;}.cls-5{fill:#e92024;}.cls-6,.cls-7,.cls-8{fill:#fff;}.cls-9,.cls-10,.cls-11{fill:#502b19;}.cls-12{clip-path:url(#clippath-1);}.cls-10{stroke-width:.99px;}.cls-10,.cls-11{stroke:#502b19;}.cls-10,.cls-11,.cls-7{stroke-miterlimit:10;}.cls-11{stroke-width:.96px;}.cls-7{stroke:#e92024;stroke-width:1.66px;}.cls-13{opacity:.6;}.cls-8{opacity:.74;}</style><filter id="outer-glow-17" filterUnits="userSpaceOnUse"><feOffset dx="0" dy="0"/><feGaussianBlur result="blur" stdDeviation="5"/><feFlood flood-color="#f6ff00" flood-opacity=".41"/><feComposite in2="blur" operator="in"/><feComposite in="SourceGraphic"/></filter><clipPath id="clippath"><path class="cls-1" d="m77.18,201.4c-6.22,5.4-18.85,1.03-28.21-9.74-9.37-10.78-11.92-23.9-5.71-29.3,6.22-5.4,18.85-1.04,28.21,9.74,9.37,10.79,11.92,23.9,5.71,29.3Z"/></clipPath><clipPath id="clippath-1"><path class="cls-1" d="m201.25,217.24c4.78,6.7,18.07,5.42,29.71-2.87,11.62-8.29,17.17-20.45,12.4-27.15-4.79-6.71-18.09-5.42-29.71,2.88-11.63,8.29-17.18,20.45-12.39,27.15Z"/></clipPath></defs><g id="Platforms"><path class="cls-4" d="m12.51,283.16h259.92c2.78,0,5.04-2.26,5.04-5.04l4-127.92c0-2.78-2.26-5.04-5.04-5.04H8.51c-2.78,0-5.04,2.26-5.04,5.04l3,127.92c0,2.78,3.26,5.04,6.04,5.04Z"/><path d="m6.46,278.12c0,2.78,3.26,5.04,6.04,5.04h259.92c2.78,0,5.04-2.26,5.04-5.04H6.46Z"/></g><g id="Bells"><g class="cls-2"><path class="cls-5" d="m239.35,173.86c.28,3.74-.1,7.43-.67,11.13-.73,4.71-1.92,9.27-3.7,13.68-2.83,7.05-7.49,12.7-13.48,17.27-7.1,5.42-15.19,8.78-23.6,11.47-10.78,3.43-21.84,5.12-33.13,5.44-8.03.23-16.04-.02-24.03-.85-1.83-.18-3.65-.41-5.46-.63-9.15-.95-18.17-2.59-27.06-4.87-15.73-4.04-30.3-10.57-43.2-20.53-5.35-4.14-10.06-8.9-13.65-14.67-3.78-6.13-5.75-12.79-6.06-19.99-.23-5.12-.04-10.24.88-15.27,1.59-8.74,5.75-16.06,12.2-22.14,3.17-3,6.81-5.32,10.45-7.66,1.34-.86,2.68-1.73,3.78-2.9.88-.89,1.6-1.9,1.79-3.13.44-2.91,1.53-5.59,2.94-8.12,5.77-10.37,10.58-21.26,16.76-31.42,3.99-6.55,8.77-12.42,14.73-17.28.71-.58,1.43-1.15,2.18-1.68,2.4-1.8,4.98-3.36,7.38-5.25,3.54-2.74,7.8-3.99,12.13-4.92,6.51-1.4,13.05-1.68,19.69-1.31,7.56.46,14.98,1.72,22.18,4.09,4.94,1.62,9.75,3.58,13.92,6.7,8.06,6.03,14.92,13.12,19.46,22.24,2.89,5.83,5.05,11.93,6.66,18.22,2.38,9.34,4.62,18.7,7.03,28.03.64,2.42,1.03,4.91.83,7.46-.15,1.95.67,3.64,1.86,5.14,1.93,2.42,4.23,4.53,6.31,6.85,6.32,7.14,10.16,15.35,10.88,24.92Z"/><g class="cls-13"><g class="cls-3"><path class="cls-6" d="m53.54,164.4c2.39,17.42,13.18,35.32,30.76,40.7,4.36,1.33,8.98,1.74,13.5,1.16,1.82-.23,1.84-3.12,0-2.89-16.74,2.16-30.75-10.05-37.25-24.55-2.16-4.82-3.52-9.98-4.24-15.2-.25-1.83-3.03-1.05-2.78.77h0Z"/></g></g><g class="cls-13"><g class="cls-12"><path class="cls-6" d="m230.22,185.71c-5.97,15.29-19.71,29.59-36.93,30.59-4.28.25-8.51-.41-12.52-1.94-1.74-.66-2.49,2.13-.77,2.78,16.8,6.39,34.63-2.79,44.94-16.2,3.39-4.41,6.04-9.29,8.07-14.47.68-1.73-2.11-2.48-2.78-.77h0Z"/></g></g><rect class="cls-6" x="153.26" y="49.38" width="7.61" height="19.42" transform="translate(79.9 208.11) rotate(-83.24)"/><path class="cls-7" d="m183.43,41.06c-1,8.45-8.41,14.86-17.81,16.32-2.34.36-4.83.42-7.36.12-3.32-.39-6.41-1.36-9.14-2.77-7.62-3.93-12.39-11.3-11.47-19.09,1.25-10.58,12.51-17.94,25.15-16.45,12.66,1.5,21.88,11.29,20.63,21.87Z"/><path class="cls-11" d="m168.97,27.68l-.53,4.5c-2.11-2.11-4.42-3.32-6.91-3.61-2.75-.33-5.17.33-7.27,1.97-2.11,1.62-3.33,3.78-3.64,6.45-.31,2.64.37,4.99,2.05,7.03,1.68,2.04,3.89,3.22,6.64,3.55,1.42.17,2.65.09,3.7-.22.58-.15,1.19-.38,1.83-.68.64-.3,1.32-.67,2.04-1.12l-.54,4.58c-2.45.96-4.95,1.28-7.49.98-3.82-.45-6.93-2.1-9.34-4.93-2.39-2.85-3.37-6.07-2.95-9.65.38-3.21,1.84-5.94,4.39-8.18,3.14-2.75,6.9-3.86,11.3-3.34,2.4.28,4.65,1.17,6.74,2.67Z"/><path class="cls-10" d="m136.76,104.33c-.4,3.34-3.41,5.71-6.74,5.32s-5.71-3.41-5.32-6.75c.39-3.32,3.42-5.71,6.75-5.32s5.71,3.42,5.31,6.75Z"/><path class="cls-10" d="m181.59,109.65c-.4,3.34-3.41,5.71-6.74,5.32s-5.71-3.41-5.32-6.75c.39-3.32,3.42-5.71,6.75-5.32s5.71,3.42,5.31,6.75Z"/><path class="cls-9" d="m132.46,78.92c2.43-.24,4.79.15,6.9,1.03.66.27,1.15-.62.58-1.04-2.14-1.56-4.84-2.37-7.68-2.1-2.84.28-5.33,1.59-7.13,3.54-.48.52.18,1.3.77.91,1.9-1.27,4.13-2.1,6.57-2.34Z"/><path class="cls-9" d="m179.04,83.9c2.24.99,4.1,2.48,5.5,4.28.44.56,1.31.03,1.02-.62-1.1-2.41-3.05-4.44-5.66-5.59-2.61-1.15-5.43-1.23-7.95-.41-.68.22-.48,1.22.23,1.17,2.28-.17,4.63.2,6.87,1.18Z"/><path class="cls-9" d="m148.54,130.61c1.35.16,2.58.65,3.62,1.38.32.23.7-.2.44-.5-.98-1.1-2.34-1.87-3.92-2.06-1.58-.19-3.09.23-4.3,1.07-.32.23-.06.73.31.59,1.18-.46,2.5-.65,3.85-.48Z"/><ellipse class="cls-8" cx="143.16" cy="160.29" rx="18" ry="16.5" transform="translate(-40.34 272.15) rotate(-79.6)"/></g></g></svg>