<?xml version="1.0" encoding="UTF-8"?><svg xmlns="http://www.w3.org/2000/svg" xmlns:xlink="http://www.w3.org/1999/xlink" viewBox="0 0 284.93 302"><defs><style>.cls-1,.cls-2{fill:none;}.cls-3{clip-path:url(#clippath);}.cls-4{fill:#502b19;stroke:#502b19;stroke-width:1.16px;}.cls-4,.cls-5,.cls-2,.cls-6,.cls-7{stroke-miterlimit:10;}.cls-8{fill:#f26973;}.cls-9{fill:#e92024;}.cls-10,.cls-5,.cls-6,.cls-11{fill:#fff;}.cls-12,.cls-7{fill:#3f2414;}.cls-5{stroke:#e92024;}.cls-5,.cls-2{stroke-width:2px;}.cls-13{clip-path:url(#clippath-1);}.cls-2{opacity:.7;}.cls-2,.cls-6{stroke:#fff;}.cls-14{opacity:.6;}.cls-15{opacity:.8;}.cls-11{opacity:.74;}.cls-7{stroke:#3f2414;stroke-width:.71px;}.cls-16{filter:url(#outer-glow-3);}</style><filter id="outer-glow-3" filterUnits="userSpaceOnUse"><feOffset dx="0" dy="0"/><feGaussianBlur result="blur" stdDeviation="5"/><feFlood flood-color="#f6ff00" flood-opacity=".41"/><feComposite in2="blur" operator="in"/><feComposite in="SourceGraphic"/></filter><clipPath id="clippath"><path class="cls-1" d="m102.83,212.99c-3.55,6.14-15.06,6.14-25.72-.03-10.65-6.13-16.41-16.11-12.87-22.24,3.54-6.14,15.06-6.14,25.71,0,10.66,6.17,16.42,16.13,12.88,22.28Z"/></clipPath><clipPath id="clippath-1"><path class="cls-1" d="m208.89,190.72c5.77,4.11,16.25-.67,23.39-10.68,7.14-10.04,8.24-21.49,2.47-25.61-5.78-4.12-16.25.66-23.39,10.71-7.15,10-8.26,21.47-2.48,25.58Z"/></clipPath></defs><g id="Platforms"><path class="cls-8" d="m12.51,283.16h259.92c2.78,0,5.04-2.26,5.04-5.04l4-127.92c0-2.78-2.26-5.04-5.04-5.04H8.51c-2.78,0-5.04,2.26-5.04,5.04l3,127.92c0,2.78,3.26,5.04,6.04,5.04Z"/><path d="m6.46,278.12c0,2.78,3.26,5.04,6.04,5.04h259.92c2.78,0,5.04-2.26,5.04-5.04H6.46Z"/></g><g id="Bells"><g class="cls-16"><path class="cls-9" d="m227.57,144.87c1.27,2.98,2.01,6.12,2.57,9.25.74,4.06,1.06,8.14.83,12.18-.34,6.57-2.55,12.46-6.15,17.88-4.25,6.4-9.88,11.42-16.01,15.97-7.79,5.82-16.33,10.31-25.46,13.74-6.46,2.46-13.06,4.46-19.78,6.08-1.56.35-3.1.67-4.64,1.01-7.73,1.79-15.51,3-23.41,3.63-13.95,1.11-27.62-.1-40.95-4.6-5.54-1.85-10.71-4.44-15.26-8.11-4.79-3.93-8.25-8.79-10.54-14.56-1.64-4.14-2.89-8.34-3.57-12.71-1.16-7.59.19-14.68,3.73-21.48,1.73-3.3,4.04-6.26,6.35-9.14.84-1.09,1.7-2.19,2.27-3.47.44-.97.76-1.94.56-3-.44-2.52-.29-5.02.12-7.49,1.79-10.05,2.65-20.28,4.83-30.33,1.4-6.4,3.65-12.57,7.15-18.15.43-.7.85-1.38,1.31-2.03,1.45-2.13,3.1-4.11,4.52-6.33,2.12-3.2,5.23-5.47,8.51-7.44,4.89-2.98,10.17-5.05,15.65-6.6,6.31-1.74,12.7-2.77,19.24-2.9,4.46-.06,8.96.19,13.22,1.56,8.26,2.65,15.86,6.49,22.11,12.68,4,3.94,7.46,8.3,10.54,12.97,4.58,6.94,9.02,13.93,13.63,20.86,1.17,1.8,2.2,3.69,2.75,5.82.44,1.68,1.56,2.8,2.94,3.69,2.27,1.42,4.73,2.5,7.07,3.79,7.16,4.07,12.62,9.69,15.88,17.24Z"/><path class="cls-1" d="m106.01,97.93c-.72-3.29,3.24-6.93,8.85-8.15"/><path class="cls-6" d="m128.64,127.65c.64,2.93.85,6.12-1.2,8.05-1.06.99-3.62,1.45-5.14,1.78-1.6.35-4.52.92-5.95.39-2.56-.95-3.28-3.85-3.9-6.7-.97-4.48,1.86-8.9,6.33-9.87,4.47-.97,8.88,1.88,9.86,6.36Z"/><path class="cls-7" d="m124.94,130.5c.19.88.48,2.36.14,3.06-.36.73-1.35,1.01-2.11,1.17s-2.01.44-2.62-.05c-.62-.49-.61-2.1-.81-3.01-.4-1.84.49-3.57,1.98-3.9s3.02.88,3.42,2.72Z"/><path class="cls-6" d="m152.66,122.43c.64,2.93,1.77,5.92,4.43,6.83,1.37.47,3.9-.18,5.42-.51,1.6-.35,4.49-1.04,5.57-2.11,1.94-1.93,1.38-4.86.76-7.72-.97-4.48-5.39-7.33-9.86-6.36s-7.3,5.4-6.33,9.87Z"/><path class="cls-7" d="m157.22,123.49c.19.88.55,2.35,1.14,2.84.63.52,1.64.36,2.41.19s2.01-.43,2.37-1.14c.36-.7-.32-2.16-.51-3.07-.4-1.84-1.93-3.05-3.42-2.72-1.49.32-2.38,2.05-1.98,3.9Z"/><path class="cls-12" d="m140.62,139.7c.37-.26.6-.63.92-.94.36-.35.86-.49,1.34-.57.52-.08,1.05.06,1.57.12.49.06.95.23,1.38.47s.8-.41.38-.65c-.47-.26-.99-.47-1.53-.54-.59-.08-1.21-.23-1.81-.16-.55.07-1.11.22-1.56.54-.42.29-.65.78-1.07,1.06s-.02.92.38.65h0Z"/><path class="cls-12" d="m110.77,114.08c.41-.88,1.09-1.61,1.65-2.4.21-.29.45-.58.77-.77s.72-.28,1.08-.4c1.4-.48,3.43-1.36,4.65-.08.33.35.86-.18.53-.53-1.42-1.5-3.6-.72-5.27-.15-.84.29-1.57.5-2.15,1.21-.68.84-1.45,1.75-1.91,2.74-.2.43.44.82.65.38h0Z"/><path class="cls-12" d="m162.72,101.53c-.44-.38-.94-.67-1.45-.93s-1.05-.59-1.59-.85c-.88-.41-1.83-.22-2.76-.12-1.69.17-3.69.49-4.34,2.32-.16.46.56.65.72.2.54-1.51,2.48-1.66,3.84-1.79.85-.08,1.64-.25,2.42.18.87.48,1.86.88,2.62,1.53.37.31.9-.22.53-.53h0Z"/><g class="cls-15"><g class="cls-3"><path class="cls-10" d="m72.91,189.53c6.91,13.65,20.94,25.44,36.97,24.73,4.01-.18,7.89-1.2,11.48-2.97,1.73-.86.21-3.44-1.51-2.59-12.83,6.34-27.61.15-36.75-9.66-3.06-3.29-5.57-7.02-7.6-11.02-.87-1.72-3.46-.21-2.59,1.51h0Z"/></g></g><g class="cls-14"><g class="cls-13"><path class="cls-10" d="m223.39,156.82c-.57,14.05-7.61,29.44-21.28,35.12-3.37,1.4-6.98,2.04-10.63,1.93-1.93-.06-1.93,2.94,0,3,15.55.47,27.57-11.89,32.32-25.78,1.57-4.59,2.39-9.42,2.59-14.27.08-1.93-2.92-1.93-3,0h0Z"/></g></g><rect class="cls-10" x="119.31" y="71.34" width="17.14" height="6.57" transform="translate(-12.93 28.87) rotate(-12.27)"/><path class="cls-5" d="m144.36,52.51c1.56,7.17-2.68,14.49-9.93,18.31-1.8.97-3.8,1.69-5.96,2.16-2.82.61-5.61.7-8.21.3-7.34-1.06-13.27-5.71-14.71-12.33-1.95-8.96,5.15-18.11,15.86-20.44,10.73-2.33,21,3.04,22.94,12Z"/><path class="cls-4" d="m130.23,50.56l1.2,5.52c-1.26-.94-2.33-1.54-3.22-1.79-.88-.27-1.85-.29-2.91-.06-1.66.36-2.92,1.21-3.78,2.54-.86,1.33-1.11,2.83-.75,4.47.37,1.69,1.2,2.96,2.49,3.81,1.31.85,2.79,1.09,4.45.73,1.06-.23,1.94-.65,2.66-1.25.69-.59,1.44-1.6,2.23-3.04l1.19,5.48c-1.6,1.26-3.29,2.09-5.08,2.48-2.95.64-5.61.28-7.99-1.09-2.38-1.38-3.86-3.41-4.44-6.09-.58-2.68-.07-5.17,1.54-7.45,1.61-2.28,3.88-3.74,6.8-4.38,1.88-.41,3.75-.37,5.6.12Z"/><path class="cls-4" d="m120.26,46.19c-.13-.58-.01-1.13.35-1.66.36-.52.85-.85,1.48-.99.63-.14,1.21-.04,1.76.29.54.33.88.79,1.01,1.38.13.6.02,1.16-.34,1.69-.35.51-.84.84-1.48.97-.65.14-1.24.05-1.77-.27-.53-.32-.86-.79-1-1.41Z"/><path class="cls-2" d="m207.08,150.23c-1.32-.12-2.97-1.56-3.65-2.67-.58-.93-.98-3.12-1.47-3.62"/></g><ellipse class="cls-11" cx="149.76" cy="169.41" rx="13.4" ry="14.26" transform="translate(-32.83 36.03) rotate(-12.38)"/></g></svg>