<?xml version="1.0" encoding="UTF-8"?><svg xmlns="http://www.w3.org/2000/svg" xmlns:xlink="http://www.w3.org/1999/xlink" viewBox="0 0 284.93 302"><defs><style>.cls-1,.cls-2{fill:none;}.cls-3{filter:url(#outer-glow-10);}.cls-4{clip-path:url(#clippath);}.cls-5{fill:#f4941d;}.cls-6,.cls-7,.cls-8,.cls-9{fill:#fff;}.cls-10{fill:#fcbe85;}.cls-11,.cls-12{fill:#3f2414;}.cls-7{stroke-width:.97px;}.cls-7,.cls-2{stroke:#fff;}.cls-7,.cls-2,.cls-12,.cls-8,.cls-13{stroke-miterlimit:10;}.cls-14{clip-path:url(#clippath-1);}.cls-2{opacity:.7;stroke-width:1.94px;}.cls-12{stroke:#3f2414;stroke-width:.69px;}.cls-8{stroke:#f4941d;stroke-width:2.23px;}.cls-13{fill:#502b19;stroke:#502b19;stroke-width:.44px;}.cls-15{opacity:.6;}.cls-16{opacity:.8;}.cls-9{opacity:.74;}</style><filter id="outer-glow-10" filterUnits="userSpaceOnUse"><feOffset dx="0" dy="0"/><feGaussianBlur result="blur" stdDeviation="5"/><feFlood flood-color="#f6ff00" flood-opacity=".41"/><feComposite in2="blur" operator="in"/><feComposite in="SourceGraphic"/></filter><clipPath id="clippath"><path class="cls-1" d="m91.56,198.45c-4.15,5.49-15.23,4.12-24.76-3.09-9.52-7.17-13.88-17.46-9.73-22.94,4.14-5.49,15.23-4.12,24.75,3.06,9.53,7.21,13.89,17.48,9.74,22.98Z"/></clipPath><clipPath id="clippath-1"><path class="cls-1" d="m196.32,189.65c5.07,4.65,15.73,1.29,23.79-7.49,8.07-8.81,10.5-19.7,5.43-24.36-5.07-4.66-15.72-1.3-23.79,7.52-8.07,8.77-10.51,19.68-5.43,24.33Z"/></clipPath></defs><g id="Platforms"><path class="cls-10" d="m12.51,283.16h259.92c2.78,0,5.04-2.26,5.04-5.04l4-127.92c0-2.78-2.26-5.04-5.04-5.04H8.51c-2.78,0-5.04,2.26-5.04,5.04l3,127.92c0,2.78,3.26,5.04,6.04,5.04Z"/><path d="m6.46,278.12c0,2.78,3.26,5.04,6.04,5.04h259.92c2.78,0,5.04-2.26,5.04-5.04H6.46Z"/></g><g id="Bells"><g class="cls-3"><path class="cls-5" d="m219.76,147.74c.87,3.02,1.2,6.14,1.37,9.21.23,4,.05,7.97-.65,11.82-1.11,6.29-3.94,11.69-8.05,16.48-4.85,5.65-10.87,9.82-17.31,13.47-8.19,4.67-16.95,7.98-26.14,10.2-6.52,1.59-13.11,2.74-19.77,3.49-1.55.15-3.07.28-4.59.42-7.66.8-15.29,1.03-22.97.7-13.56-.59-26.58-3.39-38.88-9.31-5.11-2.44-9.78-5.55-13.73-9.63-4.14-4.35-6.9-9.44-8.41-15.27-1.09-4.18-1.79-8.37-1.92-12.66-.21-7.44,1.93-14.11,6.15-20.23,2.06-2.97,4.63-5.54,7.2-8.04.94-.95,1.9-1.91,2.6-3.07.54-.88.96-1.78.9-2.83-.13-2.48.32-4.86,1-7.19,2.92-9.46,4.97-19.2,8.26-28.62,2.11-6,5.01-11.66,9.05-16.62.49-.62.98-1.22,1.5-1.8,1.65-1.88,3.48-3.59,5.11-5.55,2.43-2.83,5.69-4.65,9.08-6.15,5.06-2.29,10.39-3.65,15.85-4.49,6.29-.92,12.55-1.15,18.87-.5,4.3.47,8.6,1.25,12.54,3.08,7.63,3.54,14.49,8.13,19.77,14.84,3.38,4.27,6.2,8.88,8.6,13.74,3.59,7.23,7.02,14.48,10.63,21.7.91,1.87,1.68,3.82,1.96,5.93.22,1.67,1.17,2.88,2.39,3.9,2.02,1.64,4.26,2.97,6.35,4.49,6.41,4.77,10.99,10.83,13.23,18.49Z"/><path class="cls-1" d="m108.33,88.06c-.3-3.25,3.94-6.28,9.49-6.79"/><path class="cls-7" d="m125.84,111.4c.26,2.9.09,6-2.11,7.61-1.14.83-3.66.96-5.16,1.1-1.58.14-4.46.35-5.77-.33-2.35-1.22-2.7-4.1-2.95-6.92-.4-4.43,2.85-8.35,7.27-8.75s8.33,2.87,8.73,7.29Z"/><path class="cls-12" d="m121.93,113.71c.08.87.18,2.33-.23,2.96-.43.66-1.42.81-2.17.88s-1.98.18-2.52-.36c-.54-.55-.34-2.09-.42-2.99-.17-1.82.9-3.38,2.37-3.51s2.8,1.2,2.97,3.03Z"/><path class="cls-7" d="m149.58,109.24c.26,2.9.99,5.91,3.45,7.1,1.27.61,3.77.29,5.28.15,1.58-.14,4.45-.47,5.62-1.37,2.1-1.62,1.91-4.52,1.66-7.34-.4-4.43-4.31-7.7-8.73-7.29-4.42.4-7.67,4.32-7.27,8.75Z"/><path class="cls-12" d="m153.84,110.8c.08.87.25,2.33.76,2.87.54.58,1.54.54,2.29.47s1.98-.18,2.41-.81c.43-.64-.05-2.12-.13-3.02-.17-1.82-1.5-3.16-2.97-3.03s-2.54,1.69-2.37,3.51Z"/><path class="cls-11" d="m136.71,132.38c.38-.2.63-.55.98-.79.39-.28.9-.36,1.37-.37.51,0,1,.19,1.49.32s.89.35,1.28.63.74-.36.37-.63c-.42-.31-.91-.56-1.41-.69-.56-.15-1.13-.36-1.72-.35-.54,0-1.09.1-1.57.36-.44.23-.72.67-1.15.9s-.05.84.37.63h0Z"/><path class="cls-11" d="m110.01,93.18c.52-.82,1.29-1.5,1.96-2.19.58-.59,1.23-.67,2-.83,1.32-.28,3.3-.82,4.26.48.28.37.91,0,.63-.37-1.16-1.57-3.2-1.21-4.86-.86-.86.18-1.68.27-2.36.88-.42.38-.79.82-1.19,1.22s-.77.82-1.07,1.3c-.25.4.38.76.63.37h0Z"/><path class="cls-11" d="m161.45,87.3c-.38-.41-.83-.75-1.3-1.06s-.89-.65-1.35-.96c-.78-.51-1.68-.45-2.57-.47-1.64-.04-3.69-.01-4.53,1.67-.21.42.42.79.63.37.73-1.45,2.63-1.34,4.02-1.3.8.02,1.53-.04,2.21.45.8.57,1.72,1.1,2.39,1.83.32.35.83-.17.51-.51h0Z"/><ellipse class="cls-9" cx="141.45" cy="158.25" rx="13.4" ry="14.26" transform="translate(-26.35 28.27) rotate(-10.44)"/><g class="cls-16"><g class="cls-4"><path class="cls-6" d="m65.49,172.1c5.06,14.06,16.94,26.92,32.5,28.37,3.85.36,7.78-.13,11.43-1.4,1.76-.61,1-3.43-.77-2.81-13.06,4.55-26.56-2.8-34.24-13.36-2.58-3.55-4.62-7.45-6.11-11.58-.63-1.75-3.44-.99-2.81.77h0Z"/></g></g><g class="cls-15"><g class="cls-14"><path class="cls-6" d="m214.35,158.54c-2.23,13.47-10.64,27.39-24.43,31.39-3.41.99-7.01,1.27-10.53.72-1.83-.28-2.62,2.52-.77,2.81,14.96,2.31,28.12-7.92,34.37-20.89,2.02-4.2,3.41-8.66,4.17-13.26.3-1.83-2.5-2.62-2.81-.77h0Z"/></g></g><rect class="cls-6" x="123.85" y="65.04" width="16.63" height="6.37" transform="translate(-5.65 12.28) rotate(-5.21)"/><path class="cls-8" d="m150.66,48.91c.65,7.08-4.31,13.62-11.74,16.44-1.85.72-3.86,1.18-5.99,1.37-2.79.25-5.48,0-7.94-.69-6.94-1.89-12.09-7.07-12.69-13.62-.81-8.86,7.12-16.82,17.71-17.78,10.61-.97,19.85,5.43,20.66,14.29Z"/><path class="cls-13" d="m131.93,38.92l3.15-.29,2.01,22.01-3.15.29-.12-1.33c-1.13,1.24-2.48,1.93-4.04,2.08-1.86.17-3.45-.32-4.8-1.48-1.33-1.18-2.09-2.74-2.27-4.68-.17-1.89.29-3.53,1.39-4.91,1.09-1.39,2.55-2.16,4.38-2.33,1.59-.14,3.06.33,4.43,1.44l-.98-10.79Zm-6.01,16.3c.11,1.22.55,2.18,1.31,2.88.79.71,1.72,1.01,2.81.91,1.16-.11,2.06-.56,2.71-1.38.64-.84.91-1.85.8-3.04s-.56-2.14-1.34-2.85c-.78-.69-1.75-.98-2.89-.88-1.08.1-1.94.56-2.6,1.39-.64.84-.91,1.83-.81,2.96Z"/><path class="cls-2" d="m199.39,150.45c-1.26-.27-2.67-1.86-3.2-3-.45-.97-.57-3.12-.98-3.66"/></g></g></svg>