<?xml version="1.0" encoding="UTF-8"?>
<svg xmlns="http://www.w3.org/2000/svg" xmlns:xlink="http://www.w3.org/1999/xlink" viewBox="0 0 284.93 302">
  <defs>
    <style>
      .cls-1, .cls-2 {
        fill: none;
      }

      .cls-2 {
        opacity: .7;
      }

      .cls-2, .cls-3 {
        stroke-width: 1.94px;
      }

      .cls-2, .cls-3, .cls-4, .cls-5, .cls-6 {
        stroke-miterlimit: 10;
      }

      .cls-2, .cls-4, .cls-5 {
        stroke: #fff;
      }

      .cls-3 {
        stroke: #000;
      }

      .cls-7 {
        opacity: .74;
      }

      .cls-7, .cls-8, .cls-9, .cls-4, .cls-5, .cls-10, .cls-11 {
        fill: #fff;
      }

      .cls-8, .cls-9 {
        font-size: 17.23px;
      }

      .cls-8, .cls-9, .cls-10 {
        font-family: Futura-Medium, Futura;
        font-weight: 500;
      }

      .cls-12 {
        fill: #a5d5a3;
      }

      .cls-9 {
        letter-spacing: 0em;
      }

      .cls-4 {
        stroke-width: .97px;
      }

      .cls-5 {
        stroke-width: .71px;
      }

      .cls-13 {
        fill: #52cf84;
      }

      .cls-10 {
        font-size: 13.98px;
      }

      .cls-14 {
        clip-path: url(#clippath-1);
      }

      .cls-6 {
        stroke: #3f2414;
        stroke-width: .69px;
      }

      .cls-6, .cls-15 {
        fill: #3f2414;
      }

      .cls-16 {
        opacity: .8;
      }

      .cls-17 {
        opacity: .6;
      }

      .cls-18 {
        clip-path: url(#clippath);
      }

      .cls-19 {
        filter: url(#outer-glow-12);
      }
    </style>
    <filter id="outer-glow-12" x="34.92" y="23" width="203" height="213" filterUnits="userSpaceOnUse">
      <feOffset dx="0" dy="0"/>
      <feGaussianBlur result="blur" stdDeviation="5"/>
      <feFlood flood-color="#f6ff00" flood-opacity=".41"/>
      <feComposite in2="blur" operator="in"/>
      <feComposite in="SourceGraphic"/>
    </filter>
    <clipPath id="clippath">
      <path class="cls-1" d="M81.22,192.93c-5.24,4.46-15.76.7-23.49-8.4-7.74-9.07-9.75-20.06-4.51-24.51,5.24-4.46,15.76-.7,23.49,8.37,7.73,9.11,9.75,20.08,4.51,24.55Z"/>
    </clipPath>
    <clipPath id="clippath-1">
      <path class="cls-1" d="M185.38,207.13c3.93,5.64,15.07,4.68,24.85-2.13,9.79-6.84,14.53-16.95,10.6-22.6-3.94-5.65-15.06-4.69-24.86,2.16-9.79,6.81-14.54,16.93-10.59,22.57Z"/>
    </clipPath>
  </defs>
  <g id="Platforms">
    <g>
      <path class="cls-12" d="M12.51,283.16h259.92c2.78,0,5.04-2.26,5.04-5.04l4-127.92c0-2.78-2.26-5.04-5.04-5.04H8.51c-2.78,0-5.04,2.26-5.04,5.04l3,127.92c0,2.78,3.26,5.04,6.04,5.04Z"/>
      <path d="M6.46,278.12c0,2.78,3.26,5.04,6.04,5.04h259.92c2.78,0,5.04-2.26,5.04-5.04H6.46Z"/>
    </g>
  </g>
  <g id="Bells">
    <g class="cls-19">
      <g>
        <g>
          <path class="cls-13" d="M217.38,171.33c.19,3.14-.16,6.25-.66,9.29-.64,3.95-1.68,7.79-3.2,11.4-2.45,5.9-6.39,10.55-11.44,14.33-5.97,4.46-12.74,7.22-19.83,9.38-9.02,2.78-18.28,4.1-27.73,4.26-6.71.14-13.39-.18-20.05-.89-1.54-.19-3.06-.39-4.57-.59-7.65-.89-15.15-2.32-22.57-4.31-13.11-3.53-25.21-9.09-35.92-17.55-4.45-3.5-8.34-7.54-11.3-12.38-3.09-5.15-4.68-10.72-4.89-16.74-.15-4.31.08-8.56.88-12.77,1.41-7.31,4.95-13.35,10.4-18.41,2.65-2.45,5.73-4.4,8.78-6.28,1.12-.73,2.27-1.45,3.2-2.43.72-.74,1.33-1.53,1.49-2.56.42-2.45,1.37-4.68,2.54-6.8,4.91-8.6,9.03-17.66,14.29-26.13,3.37-5.39,7.43-10.29,12.45-14.25.62-.5,1.22-.98,1.86-1.43,2.02-1.47,4.17-2.74,6.19-4.31,2.98-2.24,6.56-3.3,10.2-4.02,5.44-1.13,10.93-1.3,16.45-.93,6.34.47,12.5,1.61,18.53,3.61,4.1,1.4,8.12,3.09,11.57,5.73,6.68,5.12,12.37,11.09,16.07,18.78,2.37,4.9,4.12,10.02,5.4,15.28,1.93,7.83,3.7,15.66,5.66,23.49.48,2.02.81,4.09.62,6.22-.15,1.68.52,3.06,1.48,4.33,1.61,2.04,3.51,3.83,5.23,5.76,5.22,6.05,8.37,12.96,8.89,20.92Z"/>
          <path class="cls-1" d="M121.6,88.84c.42-3.24,5.21-5.28,10.74-4.56"/>
          <g>
            <path class="cls-4" d="M133.11,119.39c-.37,2.88-1.22,5.87-3.71,6.96-1.29.56-3.78.15-5.28-.05-1.58-.2-4.43-.63-5.56-1.58-2.03-1.7-1.74-4.59-1.38-7.39.57-4.41,4.6-7.53,9-6.96s7.51,4.61,6.94,9.02Z"/>
            <path class="cls-6" d="M128.8,120.8c-.11.87-.33,2.32-.87,2.84-.56.55-1.56.48-2.31.39s-1.98-.25-2.38-.9c-.41-.65.12-2.12.24-3.01.23-1.81,1.61-3.1,3.08-2.91s2.47,1.79,2.24,3.6Z"/>
            <path class="cls-4" d="M156.76,122.45c-.37,2.88-.32,5.99,1.82,7.68,1.1.87,3.62,1.1,5.12,1.29,1.58.2,4.44.51,5.78-.12,2.4-1.13,2.85-3.99,3.21-6.8.57-4.41-2.53-8.45-6.94-9.02s-8.43,2.55-9,6.96Z"/>
            <path class="cls-6" d="M160.58,124.9c-.11.87-.27,2.32.12,2.97.4.68,1.38.86,2.14.96s1.97.26,2.53-.27c.56-.53.42-2.08.53-2.97.23-1.81-.77-3.41-2.24-3.6-1.47-.19-2.85,1.1-3.08,2.91Z"/>
            <path class="cls-15" d="M139.65,138.27c.42-.11.75-.39,1.14-.56.46-.2,1.02-.16,1.49-.04s.88.4,1.3.61.8.53,1.11.89.82-.16.51-.51c-.34-.39-.76-.75-1.22-.99-.49-.25-.97-.57-1.51-.7s-1.15-.17-1.7-.02c-.48.13-.85.5-1.32.63s-.26.82.19.7h0Z"/>
            <path class="cls-15" d="M120.98,103.14c.68-.69,1.59-1.19,2.4-1.72.73-.47,1.44-.39,2.28-.37,1.39.02,3.29-.02,3.95,1.47.19.43.82.06.63-.37-.76-1.71-2.85-1.8-4.47-1.82-.88-.01-1.73-.11-2.52.33-.5.28-.97.63-1.45.94s-.93.63-1.33,1.03c-.33.33.18.85.51.51h0Z"/>
            <path class="cls-15" d="M172.49,108.59c-.54-.93-1.38-1.75-2.12-2.52-.62-.65-1.4-.79-2.23-1-1.63-.41-3.75-.93-4.99.58-.29.36.22.88.51.51,1.08-1.32,2.99-.71,4.39-.36.73.18,1.37.3,1.89.88.65.73,1.43,1.43,1.92,2.28.23.41.86.04.63-.37h0Z"/>
            <ellipse class="cls-7" cx="137.59" cy="165.14" rx="14.26" ry="13.4" transform="translate(-32.7 296.3) rotate(-87.8)"/>
          </g>
        </g>
        <g class="cls-16">
          <g class="cls-18">
            <path class="cls-11" d="M61.5,161.47c1.88,14.82,10.64,30.09,25.58,34.85,3.66,1.17,7.55,1.55,11.36,1.1,1.84-.21,1.86-3.13,0-2.91-13.8,1.61-25.22-8.44-30.55-20.39-1.78-4-2.93-8.31-3.48-12.65-.23-1.83-3.15-1.86-2.91,0h0Z"/>
          </g>
        </g>
        <g class="cls-17">
          <g class="cls-14">
            <path class="cls-11" d="M209.63,180.98c-5.08,12.6-16.58,24.34-30.84,25.04-3.59.18-7.1-.41-10.45-1.72-1.74-.68-2.5,2.13-.77,2.81,14.02,5.48,29.15-1.99,37.9-13.18,2.91-3.72,5.2-7.8,6.96-12.18.7-1.74-2.11-2.49-2.81-.77h0Z"/>
          </g>
        </g>
        <g>
          <rect class="cls-3" x="146" y="66.35" width="6.37" height="16.63" transform="translate(56.03 213.06) rotate(-82.64)"/>
          <path class="cls-3" d="M171.44,59.83c-.91,7.06-7.17,12.36-15.03,13.49-1.96.3-4.03.31-6.15.03-2.77-.36-5.35-1.19-7.6-2.4-6.36-3.36-10.27-9.54-9.42-16.06,1.14-8.82,10.61-14.87,21.15-13.51,10.56,1.36,18.19,9.62,17.05,18.44Z"/>
        </g>
        <path class="cls-2" d="M196.91,169.54c-1.17-.54-2.2-2.39-2.47-3.63-.23-1.04.12-3.17-.16-3.79"/>
      </g>
      <g>
        <text class="cls-10" transform="translate(142.42 56.14) rotate(7.36) scale(1.06 1)"><tspan x="0" y="0">f</tspan></text>
        <text class="cls-9" transform="translate(147.52 51.02) rotate(7.36) scale(.62 .58)"><tspan x="0" y="0">#</tspan></text>
        <text class="cls-10" transform="translate(149.6 69.1) rotate(7.36) scale(1.06 1)"><tspan x="0" y="0">g</tspan></text>
        <text class="cls-8" transform="translate(159.14 64.55) rotate(7.36) scale(.62 .58)"><tspan x="0" y="0">b</tspan></text>
        <line class="cls-5" x1="163.16" y1="51.47" x2="141.79" y2="62.41"/>
      </g>
    </g>
  </g>
</svg>