<?xml version="1.0" encoding="UTF-8"?><svg xmlns="http://www.w3.org/2000/svg" xmlns:xlink="http://www.w3.org/1999/xlink" viewBox="0 0 284.93 302"><defs><style>.cls-1{fill:none;}.cls-2{clip-path:url(#clippath);}.cls-3{fill:#009696;}.cls-4,.cls-5,.cls-6{fill:#fff;}.cls-7{fill:#52c3c3;}.cls-8,.cls-9,.cls-10{fill:#502b19;}.cls-5{stroke:url(#radial-gradient);stroke-width:1.66px;}.cls-5,.cls-9,.cls-10{stroke-miterlimit:10;}.cls-11{clip-path:url(#clippath-1);}.cls-9{stroke-width:.99px;}.cls-9,.cls-10{stroke:#502b19;}.cls-10{stroke-width:.96px;}.cls-12{opacity:.6;}.cls-6{opacity:.74;}.cls-13{filter:url(#outer-glow-2);}</style><filter id="outer-glow-2" filterUnits="userSpaceOnUse"><feOffset dx="0" dy="0"/><feGaussianBlur result="blur" stdDeviation="5"/><feFlood flood-color="#f6ff00" flood-opacity=".41"/><feComposite in2="blur" operator="in"/><feComposite in="SourceGraphic"/></filter><clipPath id="clippath"><path class="cls-1" d="m76.37,211.9c-5.82,6.08-19.09,2.83-29.64-7.25-10.56-10.09-14.4-23.2-8.58-29.28,5.82-6.08,19.09-2.84,29.64,7.25,10.56,10.1,14.4,23.2,8.58,29.29Z"/></clipPath><clipPath id="clippath-1"><path class="cls-1" d="m204.17,216.3c5.5,6.37,18.91,3.81,29.97-5.73,11.04-9.54,15.54-22.44,10.05-28.81-5.51-6.37-18.92-3.8-29.97,5.74-11.05,9.54-15.56,22.45-10.05,28.81Z"/></clipPath><radialGradient id="radial-gradient" cx="143.85" cy="38.03" fx="143.85" fy="38.03" r="22.55" gradientTransform="translate(2.99 -3.64) rotate(1.45)" gradientUnits="userSpaceOnUse"><stop offset=".21" stop-color="#009696"/><stop offset=".33" stop-color="#009696"/><stop offset=".33" stop-color="#009696"/></radialGradient></defs><g id="Platforms"><path class="cls-7" d="m12.51,283.16h259.92c2.78,0,5.04-2.26,5.04-5.04l4-127.92c0-2.78-2.26-5.04-5.04-5.04H8.51c-2.78,0-5.04,2.26-5.04,5.04l3,127.92c0,2.78,3.26,5.04,6.04,5.04Z"/><path d="m6.46,278.12c0,2.78,3.26,5.04,6.04,5.04h259.92c2.78,0,5.04-2.26,5.04-5.04H6.46Z"/></g><g id="Bells"><g class="cls-13"><path class="cls-3" d="m238.84,168.54c.64,3.79.6,7.57.37,11.4-.3,4.86-1.08,9.61-2.48,14.27-2.21,7.44-6.42,13.63-12.09,18.85-6.72,6.19-14.64,10.38-22.95,13.9-10.65,4.51-21.75,7.28-33.22,8.67-8.15.99-16.33,1.5-24.54,1.41-1.88,0-3.76-.07-5.61-.12-9.4-.11-18.74-.92-28.01-2.41-16.39-2.62-31.84-7.89-45.92-16.81-5.84-3.71-11.08-8.11-15.28-13.65-4.42-5.87-7.06-12.47-8.06-19.77-.72-5.2-1.01-10.42-.55-15.63.79-9.05,4.34-16.9,10.32-23.69,2.94-3.35,6.43-6.06,9.91-8.79,1.29-1,2.56-2.02,3.57-3.31.81-.99,1.44-2.09,1.53-3.35.18-3,1.03-5.84,2.23-8.55,4.89-11.1,8.76-22.65,14.09-33.57,3.44-7.04,7.76-13.48,13.36-18.98.67-.65,1.34-1.31,2.06-1.92,2.28-2.06,4.75-3.89,7.02-6.04,3.34-3.13,7.57-4.8,11.88-6.16,6.49-2.04,13.13-2.95,19.92-3.19,7.74-.25,15.41.34,22.97,2.07,5.18,1.18,10.26,2.72,14.8,5.51,8.77,5.37,16.43,11.95,21.91,20.8,3.49,5.67,6.27,11.67,8.51,17.92,3.31,9.28,6.47,18.6,9.81,27.87.88,2.4,1.51,4.9,1.55,7.52.03,2,1.03,3.64,2.38,5.06,2.2,2.28,4.74,4.21,7.07,6.38,7.1,6.67,11.8,14.66,13.43,24.34Z"/><g class="cls-12"><g class="cls-2"><path class="cls-4" d="m48.8,176.33c4.08,17.52,16.79,34.97,35.32,38.66,4.63.92,9.36.87,13.96-.16,1.81-.41,1.04-3.19-.77-2.78-16.7,3.75-32.16-7.53-40.01-21.54-2.63-4.68-4.5-9.72-5.72-14.94-.42-1.81-3.2-1.04-2.78.77h0Z"/></g></g><g class="cls-12"><g class="cls-11"><path class="cls-4" d="m230.74,181.34c-4.67,16.27-17.18,31.95-34.7,34.78-4.29.69-8.7.41-12.88-.76-1.79-.5-2.56,2.28-.77,2.78,17.63,4.9,34.83-5.86,44.14-20.41,3.09-4.83,5.4-10.14,6.98-15.64.51-1.79-2.27-2.55-2.78-.77h0Z"/></g></g><rect class="cls-4" x="140.35" y="49.55" width="7.78" height="19.85" transform="translate(81.12 202.16) rotate(-88.55)"/><path class="cls-5" d="m169.38,38.63c-.22,8.69-7.16,15.92-16.59,18.29-2.35.59-4.88.88-7.48.82-3.41-.09-6.65-.78-9.56-1.95-8.13-3.28-13.68-10.34-13.48-18.35.28-10.89,11.04-19.45,24.04-19.12,13.02.33,23.34,9.42,23.07,20.31Z"/><path class="cls-10" d="m146.92,37.29l11.37.29-.02.86c-.05,1.95-.34,3.67-.86,5.15-.51,1.38-1.35,2.65-2.5,3.83-2.62,2.65-5.91,3.92-9.85,3.82-3.85-.1-7.11-1.49-9.79-4.18-2.68-2.7-3.97-5.89-3.88-9.58.1-3.76,1.57-6.92,4.43-9.46,2.86-2.56,6.29-3.79,10.29-3.69,2.15.05,4.15.52,5.99,1.4,1.76.87,3.48,2.26,5.15,4.16l-3.03,2.6c-2.19-2.89-4.9-4.38-8.14-4.46-2.91-.07-5.38.81-7.4,2.65-2.02,1.81-3.06,4.11-3.13,6.91-.07,2.89.96,5.29,3.12,7.22,2.01,1.79,4.22,2.71,6.62,2.77,2.04.05,3.89-.55,5.56-1.81,1.66-1.27,2.61-2.81,2.84-4.63l-6.86-.17.09-3.68Z"/><path class="cls-9" d="m126.08,105.62c-.09,3.43-2.93,6.14-6.36,6.05-3.43-.09-6.14-2.93-6.05-6.36s2.94-6.14,6.36-6.05c3.43.09,6.13,2.94,6.05,6.37Z"/><path class="cls-9" d="m172.22,106.79c-.09,3.43-2.93,6.14-6.36,6.05-3.43-.09-6.14-2.93-6.05-6.36s2.94-6.14,6.37-6.05c3.43.09,6.13,2.95,6.05,6.37Z"/><path class="cls-8" d="m121.4,78.1c2.46-.47,4.89-.3,7.12.39.69.22,1.12-.74.49-1.11-2.33-1.39-5.15-1.96-8.02-1.41-2.87.55-5.28,2.13-6.93,4.28-.44.58.3,1.31.87.85,1.82-1.47,4.01-2.53,6.46-3Z"/><path class="cls-8" d="m169.29,78.77c2.37.79,4.4,2.13,6.01,3.84.5.53,1.34-.1.97-.73-1.35-2.35-3.53-4.23-6.3-5.16-2.77-.93-5.64-.74-8.13.33-.67.29-.38,1.29.34,1.17,2.3-.39,4.73-.24,7.11.56Z"/><path class="cls-8" d="m142.32,133.09c1.39.04,2.69.42,3.82,1.07.35.2.7-.27.4-.55-1.1-1.03-2.56-1.68-4.19-1.72-1.62-.04-3.12.52-4.27,1.49-.31.26,0,.75.37.57,1.16-.58,2.48-.9,3.87-.86Z"/><ellipse class="cls-6" cx="140.69" cy="161.98" rx="18" ry="16.5" transform="translate(-33.93 286.65) rotate(-84.55)"/></g></g></svg>