<?xml version="1.0" encoding="UTF-8"?><svg xmlns="http://www.w3.org/2000/svg" xmlns:xlink="http://www.w3.org/1999/xlink" viewBox="0 0 284.93 302"><defs><style>.cls-1{fill:none;}.cls-2{clip-path:url(#clippath);}.cls-3{stroke-width:1.16px;}.cls-3,.cls-4,.cls-5{fill:#502b19;}.cls-3,.cls-5{stroke:#502b19;}.cls-3,.cls-5,.cls-6{stroke-miterlimit:10;}.cls-7,.cls-6{fill:#fff;}.cls-8{fill:#a082bb;}.cls-9{fill:#79559f;}.cls-5{stroke-width:1.2px;}.cls-6{stroke:#79559f;stroke-width:2px;}.cls-10{clip-path:url(#clippath-1);}.cls-11{opacity:.6;}</style><clipPath id="clippath"><path class="cls-1" d="m80.5,230.84c-5.49,6.03-18.42,3.21-28.9-6.3-10.48-9.51-14.52-22.12-9.04-28.16,5.49-6.03,18.43-3.22,28.9,6.29,10.48,9.53,14.52,22.13,9.03,28.17Z"/></clipPath><clipPath id="clippath-1"><path class="cls-1" d="m204.44,231.96c5.48,6.04,18.42,3.22,28.9-6.29,10.47-9.51,14.51-22.13,9.03-28.16-5.5-6.04-18.43-3.22-28.9,6.29-10.48,9.52-14.52,22.13-9.03,28.16Z"/></clipPath></defs><g id="Platforms"><rect class="cls-8" x="3.46" y="145.16" width="278" height="128" rx="5.04" ry="5.04"/><path d="m3.46,268.12c0,2.78,2.26,5.04,5.04,5.04h267.92c2.78,0,5.04-2.26,5.04-5.04"/></g><g id="Bells"><path class="cls-9" d="m236.86,184.84c.71,3.65.77,7.32.64,11.02-.17,4.72-.81,9.35-2.05,13.89-1.96,7.27-5.89,13.38-11.25,18.57-6.36,6.16-13.93,10.41-21.89,14.04-10.21,4.64-20.9,7.59-31.97,9.21-7.87,1.16-15.79,1.85-23.74,1.97-1.82.04-3.64.02-5.44.02-9.11.13-18.18-.43-27.2-1.64-15.95-2.15-31.04-6.86-44.9-15.16-5.75-3.45-10.94-7.59-15.14-12.85-4.43-5.58-7.15-11.91-8.3-18.96-.83-5.02-1.23-10.07-.92-15.14.54-8.78,3.79-16.47,9.42-23.2,2.77-3.32,6.08-6.03,9.39-8.76,1.22-1,2.43-2.02,3.38-3.31.76-.96,1.35-2.06,1.4-3.28.1-2.91.86-5.68,1.95-8.34,4.47-10.88,7.93-22.16,12.83-32.87,3.16-6.91,7.19-13.25,12.48-18.72.63-.65,1.27-1.3,1.95-1.91,2.16-2.05,4.51-3.89,6.65-6.02,3.16-3.11,7.21-4.84,11.36-6.26,6.24-2.14,12.65-3.18,19.22-3.58,7.49-.43,14.94-.05,22.3,1.44,5.05,1.01,10.01,2.38,14.48,4.97,8.63,4.99,16.21,11.17,21.74,19.62,3.52,5.4,6.36,11.15,8.68,17.16,3.44,8.91,6.72,17.86,10.19,26.76.92,2.3,1.58,4.71,1.68,7.24.08,1.94,1.08,3.5,2.43,4.84,2.19,2.16,4.69,3.97,7.01,6,7.05,6.28,11.79,13.92,13.61,23.25Z"/><g class="cls-11"><g class="cls-2"><path class="cls-7" d="m52.58,197.11c4.41,16.97,17.22,33.7,35.36,36.84,4.58.79,9.22.65,13.73-.48,2.16-.54,1.25-3.89-.92-3.35-15.93,4-31.03-6.42-38.92-19.66-2.65-4.46-4.59-9.26-5.9-14.28-.56-2.16-3.91-1.24-3.35.92h0Z"/></g></g><g class="cls-11"><g class="cls-10"><path class="cls-7" d="m229,197.31c-4.1,15.76-15.7,31.18-32.48,34.34-4.09.77-8.31.62-12.33-.39-2.17-.54-3.09,2.8-.92,3.35,17.4,4.36,34.02-6.56,42.74-21.1,2.84-4.74,4.95-9.92,6.34-15.27.56-2.16-2.78-3.09-3.35-.92h0Z"/></g></g><rect class="cls-7" x="132.89" y="77.72" width="19.24" height="7.54"/><path class="cls-6" d="m166.36,60.68c0,8.43-6.54,15.6-15.62,18.13-2.26.63-4.7.97-7.23.97-3.31,0-6.46-.59-9.32-1.66-7.96-2.98-13.51-9.68-13.51-17.45,0-10.56,10.22-19.11,22.83-19.11s22.85,8.56,22.85,19.11Z"/><path class="cls-3" d="m149.76,66.89h-11.42l-2.97,6.1h-4.34l13.2-26.71,12.73,26.71h-4.41l-2.8-6.1Zm-1.64-3.56l-3.96-8.55-4.15,8.55h8.1Z"/><g class="cls-11"><path class="cls-7" d="m167.33,162.89h.13c.07,13.88-10.75,25.17-24.24,25.39-13.5-.09-24.42-11.28-24.48-25.15h.14c.02,5,10.7,8.99,23.98,9.05h.58c13.28-.18,23.92-4.28,23.9-9.29Z"/></g><path class="cls-5" d="m126.34,132.46c0,3.33-2.69,6.02-6.01,6.02s-6.02-2.69-6.02-6.02,2.69-6.02,6.02-6.02,6.01,2.7,6.01,6.02Z"/><path class="cls-5" d="m171.07,132.46c0,3.33-2.69,6.02-6.02,6.02s-6.02-2.69-6.02-6.02,2.7-6.02,6.02-6.02,6.02,2.7,6.02,6.02Z"/><path class="cls-4" d="m119.37,109.88c2.37-.52,4.73-.41,6.91.21.68.19,1.06-.74.45-1.09-2.29-1.29-5.04-1.77-7.8-1.17-2.77.6-5.06,2.19-6.61,4.31-.41.57.33,1.26.86.8,1.72-1.47,3.82-2.55,6.19-3.07Z"/><path class="cls-4" d="m165.8,109.35c2.32.71,4.32,1.96,5.92,3.57.5.5,1.29-.13.93-.73-1.36-2.24-3.52-4.01-6.23-4.84-2.71-.83-5.49-.57-7.87.52-.64.29-.33,1.26.36,1.12,2.22-.44,4.58-.35,6.9.36Z"/><path class="cls-4" d="m142.47,152.86c1.35,0,2.62.34,3.73.94.35.19.67-.28.37-.54-1.09-.97-2.52-1.56-4.1-1.57-1.57,0-3.01.58-4.1,1.55-.29.26.03.72.37.54,1.11-.59,2.38-.93,3.73-.93Z"/></g></svg>