<?xml version="1.0" encoding="UTF-8"?><svg xmlns="http://www.w3.org/2000/svg" xmlns:xlink="http://www.w3.org/1999/xlink" viewBox="0 0 284.93 302"><defs><style>.cls-1{fill:none;}.cls-2{filter:url(#outer-glow-20);}.cls-3{clip-path:url(#clippath);}.cls-4{fill:#fd9;}.cls-5,.cls-6,.cls-7{fill:#fff;}.cls-8{fill:#ffd25a;}.cls-9,.cls-10{fill:#502b19;}.cls-11{clip-path:url(#clippath-1);}.cls-10{stroke:#502b19;stroke-width:.99px;}.cls-10,.cls-6,.cls-12{stroke-miterlimit:10;}.cls-6{stroke:#fff;stroke-width:.83px;}.cls-13{opacity:.6;}.cls-12{stroke:#000;stroke-width:1.66px;}.cls-7{opacity:.74;}</style><filter id="outer-glow-20" filterUnits="userSpaceOnUse"><feOffset dx="0" dy="0"/><feGaussianBlur result="blur" stdDeviation="5"/><feFlood flood-color="#f6ff00" flood-opacity=".41"/><feComposite in2="blur" operator="in"/><feComposite in="SourceGraphic"/></filter><clipPath id="clippath"><path class="cls-1" d="m83.4,206.48c-5.31,6.53-18.8,4.36-30.13-4.84-11.34-9.21-16.22-21.96-10.91-28.5,5.31-6.53,18.8-4.37,30.13,4.84,11.34,9.22,16.22,21.97,10.91,28.5Z"/></clipPath><clipPath id="clippath-1"><path class="cls-1" d="m211.14,200.58c5.99,5.91,19.16,2.27,29.41-8.13,10.24-10.4,13.69-23.62,7.7-29.53-6.01-5.91-19.17-2.27-29.41,8.13-10.25,10.4-13.7,23.62-7.7,29.52Z"/></clipPath></defs><g id="Platforms"><path class="cls-4" d="m12.51,283.16h259.92c2.78,0,5.04-2.26,5.04-5.04l4-127.92c0-2.78-2.26-5.04-5.04-5.04H8.51c-2.78,0-5.04,2.26-5.04,5.04l3,127.92c0,2.78,3.26,5.04,6.04,5.04Z"/><path d="m6.46,278.12c0,2.78,3.26,5.04,6.04,5.04h259.92c2.78,0,5.04-2.26,5.04-5.04H6.46Z"/></g><g id="Bells"><g class="cls-2"><path class="cls-8" d="m241.85,150.18c.94,3.72,1.21,7.5,1.29,11.33.1,4.87-.3,9.67-1.32,14.42-1.6,7.59-5.3,14.11-10.53,19.76-6.2,6.71-13.76,11.52-21.75,15.71-10.25,5.36-21.1,9.01-32.41,11.31-8.05,1.64-16.16,2.81-24.35,3.38-1.87.14-3.75.23-5.61.33-9.38.65-18.75.59-28.11-.15-16.55-1.29-32.37-5.3-47.12-13.06-6.12-3.23-11.7-7.2-16.33-12.38-4.88-5.5-8.04-11.86-9.63-19.06-1.14-5.12-1.84-10.3-1.8-15.53.06-9.09,2.97-17.19,8.38-24.45,2.66-3.57,5.92-6.56,9.17-9.56,1.2-1.1,2.39-2.22,3.29-3.59.73-1.05,1.27-2.2,1.25-3.47-.06-3.01.56-5.9,1.53-8.7,3.98-11.46,6.91-23.28,11.34-34.6,2.86-7.3,6.65-14.06,11.79-20,.61-.71,1.23-1.41,1.9-2.08,2.1-2.23,4.42-4.26,6.51-6.58,3.08-3.38,7.16-5.39,11.35-7.1,6.31-2.56,12.85-4,19.6-4.79,7.69-.87,15.39-.9,23.06.21,5.26.76,10.45,1.88,15.2,4.3,9.18,4.65,17.34,10.59,23.52,18.97,3.94,5.37,7.19,11.13,9.92,17.18,4.05,8.98,7.94,18.02,12.02,26.99,1.07,2.32,1.9,4.77,2.15,7.37.19,1.99,1.31,3.55,2.78,4.85,2.37,2.1,5.06,3.82,7.56,5.79,7.62,6.08,12.94,13.67,15.35,23.18Z"/><path class="cls-1" d="m108.71,72.27c-.22-3.98,5.1-7.5,11.9-7.87"/><path class="cls-10" d="m125.06,98.79c.19,3.43-2.44,6.35-5.86,6.54-3.42.19-6.35-2.43-6.54-5.86-.18-3.42,2.44-6.35,5.86-6.54,3.43-.19,6.35,2.45,6.53,5.87Z"/><path class="cls-10" d="m171.15,96.29c.19,3.43-2.44,6.35-5.86,6.54-3.42.19-6.35-2.43-6.54-5.86-.18-3.42,2.44-6.35,5.87-6.54,3.43-.19,6.35,2.45,6.53,5.87Z"/><path class="cls-9" d="m116.62,75.91c2.41-.66,4.85-.69,7.13-.17.71.16,1.05-.83.4-1.15-2.43-1.2-5.29-1.54-8.1-.77-2.82.78-5.09,2.54-6.56,4.81-.39.61.41,1.28.93.78,1.69-1.61,3.8-2.84,6.21-3.51Z"/><path class="cls-9" d="m164.42,72.77c2.43.6,4.56,1.78,6.29,3.35.54.49,1.32-.2.91-.8-1.53-2.24-3.85-3.94-6.69-4.64-2.83-.7-5.68-.29-8.08.97-.64.34-.27,1.32.43,1.14,2.27-.57,4.7-.61,7.13-.01Z"/><path class="cls-9" d="m142.81,118.91c1.39-.07,2.71.21,3.89.76.37.17.67-.32.36-.58-1.18-.94-2.69-1.47-4.31-1.39-1.62.08-3.07.77-4.14,1.83-.29.28.07.74.41.54,1.11-.67,2.4-1.09,3.79-1.16Z"/><ellipse class="cls-7" cx="143.19" cy="153.64" rx="16.5" ry="18" transform="translate(-13.24 13.5) rotate(-5.16)"/><g class="cls-13"><g class="cls-3"><path class="cls-5" d="m53.02,173.13c5.5,17.23,19.43,33.4,38.21,35.78,4.67.59,9.43.17,13.93-1.23,1.77-.55,1.01-3.34-.77-2.78-16.36,5.09-32.71-4.77-41.7-18.16-2.98-4.44-5.27-9.29-6.9-14.37-.56-1.76-3.35-1.01-2.78.77h0Z"/></g></g><g class="cls-13"><g class="cls-11"><path class="cls-5" d="m234.83,163.48c-3.35,16.59-14.51,33.38-31.8,37.57-4.19,1.01-8.56,1.14-12.79.32-1.81-.35-2.59,2.43-.77,2.78,18,3.47,34.35-8.52,42.47-23.87,2.66-5.03,4.55-10.46,5.67-16.03.37-1.81-2.41-2.59-2.78-.77h0Z"/></g></g><rect class="cls-12" x="128.85" y="45.2" width="19.85" height="7.78" transform="translate(-2.5 7.73) rotate(-3.16)"/><path class="cls-12" d="m162.16,26.29c.48,8.69-5.85,16.45-15.06,19.57-2.3.78-4.79,1.27-7.39,1.42-3.41.19-6.69-.24-9.69-1.18-8.37-2.62-14.47-9.2-14.91-17.21-.6-10.88,9.44-20.27,22.43-20.99,13.01-.72,24.03,7.51,24.63,18.39Z"/><path class="cls-5" d="m120.81,30.66l-.73-13.2,2.94-.16c1.41-.08,2.53,0,3.36.21.89.21,1.71.6,2.46,1.18,1.51,1.16,2.33,2.76,2.44,4.78.11,2.03-.55,3.71-1.99,5.05-.72.67-1.49,1.15-2.31,1.44-.76.29-1.85.47-3.27.55l-2.9.16Zm2.01-1.99l.95-.05c.95-.05,1.73-.19,2.35-.41.62-.23,1.17-.58,1.65-1.04.99-.95,1.45-2.15,1.37-3.58-.08-1.45-.66-2.59-1.74-3.44-.97-.75-2.36-1.08-4.16-.98l-.95.05.52,9.46Z"/><path class="cls-5" d="m139.85,15.55l.06,1.08-1.58.09-.14,1.78,1.45-.08.06,1.08-1.59.09-.22,2.96-1.16-.08.22-2.82-1.94.11-.23,2.96-1.17-.08.22-2.84-1.49.08-.06-1.06,1.65-.09.14-1.78-1.51.08-.06-1.08,1.65-.09.21-2.77,1.15.08-.2,2.63,1.92-.11.21-2.77,1.15.08-.2,2.63,1.46-.08Zm-2.7,1.24l-1.92.11-.14,1.78,1.93-.11.12-1.78Z"/><path class="cls-5" d="m146.28,30.66l-5.62.31.18,3.17,5.45-.3.1,1.87-5.45.3.24,4.41,5.62-.31.1,1.87-7.73.43-.73-13.2,7.73-.43.1,1.87Z"/><path class="cls-5" d="m149.43,24.23l.28,5.09c.56-.61,1.2-.93,1.95-.97.86-.05,1.59.21,2.19.78.6.57.93,1.3.98,2.19.05.92-.19,1.7-.73,2.33-.54.63-1.24.97-2.11,1.02-.73.04-1.41-.19-2.01-.69l.03.63-1.47.08-.57-10.38,1.47-.08Zm3.9,7.24c-.03-.57-.22-1.03-.57-1.37-.36-.35-.78-.51-1.29-.48-.54.03-.97.23-1.29.61-.32.37-.46.84-.43,1.4.03.58.22,1.04.57,1.37.35.34.79.49,1.33.46.51-.03.92-.23,1.24-.6.32-.38.46-.84.43-1.38Z"/><line class="cls-6" x1="151.04" y1="17.58" x2="127.18" y2="35.97"/></g></g></svg>