<?xml version="1.0" encoding="UTF-8"?><svg xmlns="http://www.w3.org/2000/svg" xmlns:xlink="http://www.w3.org/1999/xlink" viewBox="0 0 284.93 302"><defs><style>.cls-1{fill:none;}.cls-2{clip-path:url(#clippath);}.cls-3,.cls-4{fill:#fff;}.cls-5{fill:#a5d5a3;}.cls-6{fill:#52cf84;}.cls-7,.cls-8{fill:#502b19;}.cls-9{clip-path:url(#clippath-1);}.cls-8{stroke:#502b19;stroke-width:.99px;}.cls-8,.cls-4,.cls-10{stroke-miterlimit:10;}.cls-4{stroke:#fff;stroke-width:.83px;}.cls-11{opacity:.6;}.cls-10{stroke:#000;stroke-width:1.66px;}</style><clipPath id="clippath"><path class="cls-1" d="m78.53,225.08c-5.66,6.23-19.01,3.32-29.82-6.5-10.81-9.82-14.98-22.83-9.32-29.06,5.66-6.23,19.01-3.32,29.82,6.49,10.81,9.83,14.98,22.83,9.32,29.06Z"/></clipPath><clipPath id="clippath-1"><path class="cls-1" d="m206.41,226.24c5.65,6.23,19,3.33,29.81-6.49,10.8-9.82,14.97-22.83,9.32-29.06-5.67-6.23-19.01-3.32-29.82,6.49-10.81,9.82-14.98,22.83-9.32,29.05Z"/></clipPath></defs><g id="Platforms"><rect class="cls-5" x="3.46" y="145.16" width="278" height="128" rx="5.04" ry="5.04"/><path d="m3.46,268.12c0,2.78,2.26,5.04,5.04,5.04h267.92c2.78,0,5.04-2.26,5.04-5.04"/></g><g id="Bells"><path class="cls-6" d="m239.85,177.62c.73,3.77.79,7.56.66,11.38-.17,4.86-.83,9.64-2.11,14.33-2.02,7.49-6.07,13.79-11.61,19.15-6.56,6.36-14.37,10.74-22.59,14.48-10.53,4.78-21.56,7.83-32.99,9.51-8.12,1.2-16.29,1.91-24.5,2.03-1.88.04-3.76.02-5.62.02-9.4.13-18.76-.45-28.06-1.7-16.45-2.2-32.03-7.08-46.33-15.64-5.93-3.56-11.28-7.83-15.62-13.26-4.57-5.76-7.37-12.29-8.56-19.56-.85-5.18-1.27-10.39-.94-15.61.56-9.07,3.91-17,9.72-23.95,2.85-3.42,6.28-6.23,9.69-9.04,1.26-1.04,2.51-2.08,3.48-3.4.78-1.01,1.39-2.12,1.44-3.39.1-3.01.88-5.86,2.01-8.6,4.61-11.22,8.19-22.86,13.23-33.92,3.26-7.13,7.41-13.67,12.88-19.32.65-.67,1.31-1.34,2.01-1.97,2.22-2.11,4.65-4.01,6.87-6.22,3.26-3.21,7.44-4.99,11.72-6.46,6.44-2.2,13.05-3.28,19.83-3.7,7.73-.45,15.42-.05,23.01,1.48,5.21,1.05,10.33,2.46,14.94,5.13,8.91,5.15,16.73,11.53,22.43,20.24,3.64,5.58,6.56,11.51,8.96,17.7,3.54,9.19,6.94,18.43,10.51,27.61.94,2.38,1.64,4.86,1.74,7.47.08,2,1.12,3.62,2.51,5,2.25,2.22,4.84,4.09,7.23,6.19,7.27,6.49,12.17,14.36,14.05,23.99Z"/><path class="cls-1" d="m111.21,92.48c0-3.98,5.51-7.2,12.31-7.2"/><g class="cls-11"><path class="cls-3" d="m168.11,154.51h.13c.07,14.32-11.09,25.97-25.01,26.2-13.93-.09-25.19-11.64-25.26-25.95h.14c.02,5.16,11.04,9.28,24.75,9.34h.6c13.7-.19,24.68-4.41,24.66-9.58Z"/></g><path class="cls-8" d="m125.83,123.1c0,3.44-2.78,6.21-6.21,6.21s-6.21-2.77-6.21-6.21,2.78-6.21,6.21-6.21,6.21,2.79,6.21,6.21Z"/><path class="cls-8" d="m171.98,123.1c0,3.44-2.78,6.21-6.21,6.21s-6.21-2.77-6.21-6.21,2.78-6.21,6.21-6.21,6.21,2.79,6.21,6.21Z"/><path class="cls-7" d="m118.64,99.8c2.44-.53,4.88-.42,7.12.21.7.2,1.1-.77.46-1.12-2.36-1.33-5.2-1.83-8.05-1.2-2.85.62-5.22,2.26-6.82,4.45-.43.59.34,1.3.89.83,1.78-1.52,3.94-2.63,6.39-3.17Z"/><path class="cls-7" d="m166.54,99.26c2.39.73,4.46,2.02,6.1,3.68.51.52,1.33-.13.96-.75-1.41-2.31-3.63-4.14-6.42-5-2.79-.86-5.66-.59-8.12.54-.66.3-.34,1.3.37,1.16,2.29-.45,4.73-.36,7.12.37Z"/><path class="cls-7" d="m142.47,144.16c1.39,0,2.7.35,3.84.97.36.19.69-.29.39-.56-1.12-1-2.6-1.61-4.23-1.62-1.62,0-3.11.6-4.23,1.6-.3.27.03.75.38.56,1.15-.61,2.46-.96,3.85-.96Z"/><g class="cls-11"><g class="cls-2"><path class="cls-3" d="m50.06,190.19c4.52,17.42,17.68,34.6,36.33,37.79,4.63.79,9.33.63,13.89-.51,1.8-.45,1.04-3.24-.77-2.78-16.56,4.16-32.28-6.61-40.51-20.39-2.77-4.64-4.8-9.65-6.15-14.88-.47-1.8-3.25-1.03-2.78.77h0Z"/></g></g><g class="cls-11"><g class="cls-9"><path class="cls-3" d="m232.09,190.58c-4.25,16.35-16.3,32.36-33.71,35.67-4.29.82-8.72.66-12.96-.4-1.8-.45-2.57,2.33-.77,2.78,17.84,4.48,34.86-6.8,43.77-21.72,2.89-4.84,5.03-10.12,6.45-15.57.47-1.8-2.32-2.57-2.78-.77h0Z"/></g></g><rect class="cls-10" x="132.59" y="67.1" width="19.85" height="7.78"/><path class="cls-10" d="m167.12,49.51c0,8.7-6.75,16.1-16.12,18.71-2.34.65-4.85,1.01-7.46,1.01-3.42,0-6.67-.61-9.61-1.71-8.21-3.08-13.94-9.98-13.94-18,0-10.89,10.54-19.72,23.55-19.72s23.57,8.83,23.57,19.72Z"/><path class="cls-3" d="m135.91,40.22h-4.89v3.18h4.72v1.88h-4.72v6.29h-2.12v-13.22h7.01v1.88Z"/><path class="cls-3" d="m144.69,37.54v1.08h-1.59l-.23,1.77h1.45v1.08h-1.59l-.39,2.94-1.15-.14.37-2.8h-1.94l-.39,2.94-1.16-.14.37-2.82h-1.49v-1.06h1.65l.24-1.77h-1.51v-1.08h1.65l.36-2.76,1.14.14-.35,2.62h1.93l.37-2.76,1.14.14-.35,2.62h1.46Zm-2.77,1.08h-1.92l-.23,1.77h1.93l.22-1.77Z"/><path class="cls-3" d="m149.64,55.77h5.8v.44c0,.99-.12,1.87-.37,2.64-.24.71-.65,1.37-1.23,1.99-1.3,1.38-2.96,2.07-4.97,2.07s-3.64-.67-5.04-2c-1.4-1.34-2.1-2.95-2.1-4.83s.71-3.54,2.14-4.88c1.42-1.34,3.16-2.01,5.2-2.01,1.1,0,2.12.21,3.07.63.91.42,1.8,1.11,2.68,2.05l-1.51,1.36c-1.15-1.44-2.55-2.17-4.21-2.17-1.48,0-2.73.48-3.73,1.45-1.01.95-1.51,2.13-1.51,3.56s.56,2.69,1.68,3.64c1.05.88,2.18,1.33,3.41,1.33,1.04,0,1.98-.33,2.81-.99.83-.67,1.29-1.47,1.39-2.4h-3.5v-1.88Z"/><path class="cls-3" d="m158.82,45.06v5.09c.59-.57,1.25-.86,2-.86.86,0,1.57.3,2.14.9.57.6.86,1.35.86,2.24s-.29,1.69-.86,2.29c-.57.6-1.29.9-2.16.9-.74,0-1.39-.27-1.97-.8v.63h-1.47v-10.39h1.47Zm3.49,7.44c0-.57-.17-1.04-.5-1.4-.34-.37-.76-.55-1.26-.55-.54,0-.98.18-1.32.54-.33.35-.5.81-.5,1.38s.17,1.05.5,1.4c.33.36.77.54,1.31.54.51,0,.93-.18,1.27-.54.34-.36.51-.81.51-1.35Z"/><line class="cls-4" x1="155.47" y1="39.39" x2="130.63" y2="56.44"/></g></svg>