<?xml version="1.0" encoding="UTF-8"?>
<svg xmlns="http://www.w3.org/2000/svg" xmlns:xlink="http://www.w3.org/1999/xlink" viewBox="0 0 284.93 302">
  <defs>
    <style>
      .cls-1, .cls-2 {
        fill: none;
      }

      .cls-2 {
        opacity: .7;
      }

      .cls-2, .cls-3 {
        stroke-width: 1.94px;
      }

      .cls-2, .cls-3, .cls-4, .cls-5, .cls-6 {
        stroke-miterlimit: 10;
      }

      .cls-2, .cls-4, .cls-5 {
        stroke: #fff;
      }

      .cls-3 {
        stroke: #000;
      }

      .cls-7, .cls-8 {
        font-size: 17.23px;
      }

      .cls-7, .cls-8, .cls-4, .cls-5, .cls-9, .cls-10 {
        fill: #fff;
      }

      .cls-7, .cls-8, .cls-9 {
        font-family: Futura-Medium, Futura;
        font-weight: 500;
      }

      .cls-11 {
        fill: #a5d5a3;
      }

      .cls-8 {
        letter-spacing: 0em;
      }

      .cls-4 {
        stroke-width: .97px;
      }

      .cls-5 {
        stroke-width: .71px;
      }

      .cls-12 {
        fill: #52cf84;
      }

      .cls-9 {
        font-size: 13.98px;
      }

      .cls-13 {
        clip-path: url(#clippath-1);
      }

      .cls-6 {
        stroke: #3f2414;
        stroke-width: .69px;
      }

      .cls-6, .cls-14 {
        fill: #3f2414;
      }

      .cls-15 {
        opacity: .8;
      }

      .cls-16 {
        opacity: .6;
      }

      .cls-17 {
        opacity: .3;
      }

      .cls-18 {
        clip-path: url(#clippath);
      }
    </style>
    <clipPath id="clippath">
      <path class="cls-1" d="M89.9,224.25c-4.63,5.09-15.54,2.72-24.38-5.33-8.83-8.01-12.24-18.65-7.61-23.73,4.62-5.09,15.54-2.72,24.37,5.29,8.84,8.04,12.25,18.67,7.62,23.77Z"/>
    </clipPath>
    <clipPath id="clippath-1">
      <path class="cls-1" d="M195.03,224.99c4.62,5.09,15.54,2.71,24.37-5.3,8.84-8.04,12.24-18.67,7.62-23.77-4.63-5.1-15.54-2.72-24.37,5.33-8.84,8-12.25,18.65-7.62,23.74Z"/>
    </clipPath>
  </defs>
  <g id="Platforms">
    <g>
      <rect class="cls-11" x="3.46" y="145.16" width="278" height="128" rx="5.04" ry="5.04"/>
      <path d="M3.46,268.12c0,2.78,2.26,5.04,5.04,5.04h267.92c2.78,0,5.04-2.26,5.04-5.04"/>
    </g>
  </g>
  <g id="Bells">
    <g>
      <g>
        <g>
          <path class="cls-12" d="M222.17,185.39c.59,3.09.64,6.22.53,9.3-.13,4-.67,7.94-1.72,11.72-1.68,6.16-4.98,11.28-9.52,15.68-5.35,5.19-11.72,8.79-18.47,11.84-8.59,3.91-17.6,6.41-26.96,7.78-6.63,1-13.3,1.54-20,1.69-1.55,0-3.08,0-4.61,0-7.7.1-15.32-.36-22.94-1.39-13.45-1.82-26.16-5.79-37.87-12.8-4.87-2.9-9.23-6.41-12.79-10.84-3.73-4.71-6.01-10.03-6.99-15.98-.71-4.26-1.02-8.5-.76-12.78.46-7.43,3.2-13.87,7.96-19.59,2.32-2.77,5.11-5.1,7.9-7.36,1.02-.86,2.07-1.73,2.86-2.82.61-.83,1.12-1.69,1.15-2.73.1-2.48.76-4.82,1.65-7.07,3.77-9.16,6.69-18.67,10.83-27.75,2.65-5.78,6.05-11.16,10.52-15.73.55-.57,1.09-1.13,1.66-1.65,1.81-1.72,3.79-3.25,5.59-5.06,2.67-2.6,6.09-4.11,9.6-5.3,5.25-1.82,10.68-2.69,16.19-3.03,6.34-.35,12.6,0,18.84,1.21,4.24.86,8.45,2.03,12.21,4.2,7.28,4.22,13.69,9.42,18.34,16.57,2.98,4.56,5.36,9.41,7.31,14.46,2.91,7.52,5.68,15.06,8.62,22.58.74,1.94,1.33,3.95,1.41,6.09.07,1.69.91,2.97,2.03,4.1,1.86,1.82,3.97,3.35,5.92,5.05,5.95,5.33,9.96,11.78,11.5,19.61Z"/>
          <path class="cls-1" d="M116.62,115.84c0-3.27,4.49-5.9,10.07-5.9"/>
          <g>
            <path class="cls-4" d="M131.96,148.67c0,2.91-.45,5.98-2.79,7.38-1.21.72-3.73.63-5.24.63-1.59,0-4.47-.06-5.72-.86-2.23-1.43-2.31-4.32-2.31-7.16,0-4.45,3.6-8.06,8.03-8.06s8.03,3.61,8.03,8.06Z"/>
            <path class="cls-6" d="M127.85,150.61c0,.88-.03,2.34-.5,2.93-.49.62-1.48.68-2.24.68s-1.99,0-2.48-.59c-.49-.59-.15-2.12-.15-3.02,0-1.83,1.2-3.28,2.68-3.28s2.68,1.45,2.68,3.28Z"/>
            <path class="cls-4" d="M155.8,148.67c0,2.91.45,5.98,2.79,7.38,1.21.72,3.73.63,5.24.63,1.59,0,4.47-.06,5.72-.86,2.23-1.43,2.31-4.32,2.31-7.16,0-4.45-3.6-8.06-8.03-8.06s-8.03,3.61-8.03,8.06Z"/>
            <path class="cls-6" d="M159.9,150.61c0,.88.03,2.34.5,2.93.49.62,1.48.68,2.24.68s1.99,0,2.48-.59c.49-.59.15-2.12.15-3.02,0-1.83-1.2-3.28-2.68-3.28s-2.68,1.45-2.68,3.28Z"/>
            <path class="cls-14" d="M140.8,162.57c.41-.17.7-.47,1.07-.7.42-.26.94-.3,1.43-.27.51.04.98.28,1.46.45.44.15.83.4,1.18.71s.87-.21.51-.51c-.4-.35-.85-.65-1.34-.84-.52-.2-1.06-.45-1.62-.51s-1.13-.02-1.64.18c-.46.19-.78.6-1.23.79-.18.08-.31.24-.25.45.05.17.27.33.45.25h0Z"/>
            <path class="cls-14" d="M117.86,132.06c.59-.77,1.43-1.38,2.16-2,.63-.53,1.31-.54,2.09-.63,1.36-.16,3.33-.48,4.17.9.24.4.87.03.63-.37-1.01-1.66-3.13-1.45-4.8-1.26-.88.1-1.68.12-2.41.68-.87.67-1.81,1.43-2.48,2.31-.28.37.35.73.63.37h0Z"/>
            <path class="cls-14" d="M169.65,130.95c-.34-.45-.75-.83-1.18-1.19s-.85-.75-1.29-1.1c-.71-.57-1.54-.59-2.41-.7-1.68-.2-3.77-.4-4.8,1.26-.25.4.38.76.63.37.86-1.38,2.81-1.06,4.18-.9.78.09,1.48.11,2.1.65.72.63,1.58,1.21,2.16,1.97.28.37.91,0,.63-.37h0Z"/>
            <g>
              <g class="cls-17">
                <path class="cls-10" d="M159.41,176.58h.08c0,9.04-7.5,16.36-16.85,16.46-9.32-.1-16.86-7.42-16.86-16.45h.1c.02,3.24,7.37,5.87,16.56,5.95h.4c9.18-.08,16.55-2.71,16.57-5.95Z"/>
              </g>
              <path class="cls-10" d="M159.59,176.58h.11c0,9.04-7.52,16.36-16.84,16.46-9.37-.1-16.87-7.42-16.87-16.45h.09c.02,3.24,7.4,5.87,16.58,5.95h.41c9.19-.08,16.51-2.71,16.53-5.95Z"/>
            </g>
          </g>
        </g>
        <g class="cls-15">
          <g class="cls-18">
            <path class="cls-10" d="M66.36,195.77c3.73,14.31,14.51,28.43,29.82,31.09,3.86.67,7.77.55,11.58-.4,1.82-.45,1.05-3.26-.77-2.81-13.44,3.36-26.16-5.4-32.83-16.58-2.25-3.77-3.89-7.83-4.99-12.08-.47-1.81-3.28-1.04-2.81.77h0Z"/>
          </g>
        </g>
        <g class="cls-16">
          <g class="cls-13">
            <path class="cls-10" d="M215.77,195.77c-3.46,13.28-13.21,26.26-27.34,28.96-3.47.66-7.05.54-10.48-.32-1.82-.45-2.59,2.35-.77,2.81,14.66,3.65,28.64-5.5,36.02-17.75,2.42-4.01,4.2-8.4,5.38-12.92.47-1.81-2.33-2.59-2.81-.77h0Z"/>
          </g>
        </g>
        <g>
          <rect class="cls-3" x="133.85" y="95.07" width="16.63" height="6.37"/>
          <path class="cls-3" d="M162.34,80.69c0,7.11-5.53,13.18-13.18,15.31-1.91.55-3.95.82-6.09.82-2.8,0-5.46-.5-7.85-1.41-6.74-2.52-11.4-8.14-11.4-14.72,0-8.89,8.62-16.1,19.25-16.1s19.28,7.21,19.28,16.1Z"/>
        </g>
        <path class="cls-2" d="M201.65,186.24c-1.23-.39-2.49-2.09-2.91-3.28-.36-1-.29-3.16-.65-3.74"/>
      </g>
      <g>
        <text class="cls-9" transform="translate(133.09 80.75) scale(1.06 1)"><tspan x="0" y="0">f</tspan></text>
        <text class="cls-8" transform="translate(137.49 75.01) scale(.62 .58)"><tspan x="0" y="0">#</tspan></text>
        <text class="cls-9" transform="translate(141.87 92.68) scale(1.06 1)"><tspan x="0" y="0">g</tspan></text>
        <text class="cls-7" transform="translate(150.75 86.95) scale(.62 .58)"><tspan x="0" y="0">b</tspan></text>
        <line class="cls-5" x1="153.06" y1="73.46" x2="133.26" y2="87.05"/>
      </g>
    </g>
  </g>
</svg>