<?xml version="1.0" encoding="UTF-8"?>
<svg xmlns="http://www.w3.org/2000/svg" xmlns:xlink="http://www.w3.org/1999/xlink" viewBox="0 0 284.93 302">
  <defs>
    <style>
      .cls-1 {
        fill: none;
      }

      .cls-2 {
        font-family: Futura-Medium, Futura;
        font-size: 34.4px;
        font-weight: 500;
        stroke-width: .96px;
      }

      .cls-2, .cls-3, .cls-4 {
        fill: #502b19;
      }

      .cls-2, .cls-4 {
        stroke: #502b19;
      }

      .cls-2, .cls-4, .cls-5 {
        stroke-miterlimit: 10;
      }

      .cls-6 {
        fill: #c3c3c3;
      }

      .cls-7 {
        fill: #52c3c3;
      }

      .cls-8 {
        clip-path: url(#clippath-1);
      }

      .cls-9 {
        fill: #009696;
      }

      .cls-10, .cls-5 {
        fill: #fff;
      }

      .cls-4 {
        stroke-width: .99px;
      }

      .cls-11 {
        opacity: .6;
      }

      .cls-5 {
        stroke: url(#radial-gradient);
        stroke-width: 1.66px;
      }

      .cls-12 {
        clip-path: url(#clippath);
      }

      .cls-13 {
        filter: url(#outer-glow-14);
      }
    </style>
    <filter id="outer-glow-14" x="21.92" y="-1" width="241" height="251" filterUnits="userSpaceOnUse">
      <feOffset dx="0" dy="0"/>
      <feGaussianBlur result="blur" stdDeviation="5"/>
      <feFlood flood-color="#f6ff00" flood-opacity=".41"/>
      <feComposite in2="blur" operator="in"/>
      <feComposite in="SourceGraphic"/>
    </filter>
    <clipPath id="clippath">
      <path class="cls-1" d="M81.15,215.9c-5.11,6.69-18.65,4.94-30.26-3.91-11.62-8.85-16.89-21.45-11.79-28.15,5.11-6.69,18.65-4.95,30.26,3.9,11.62,8.86,16.89,21.46,11.79,28.15Z"/>
    </clipPath>
    <clipPath id="clippath-1">
      <path class="cls-1" d="M208.65,206.05c6.17,5.72,19.22,1.68,29.14-9.03,9.91-10.71,12.95-24.03,6.79-29.75-6.19-5.72-19.23-1.67-29.15,9.04-9.92,10.71-12.96,24.04-6.78,29.75Z"/>
    </clipPath>
    <radialGradient id="radial-gradient" cx="139.07" cy="34.7" fx="139.07" fy="34.7" r="22.55" gradientTransform="translate(-10.71 12.78) rotate(-4.94)" gradientUnits="userSpaceOnUse">
      <stop offset=".21" stop-color="#009696"/>
      <stop offset=".33" stop-color="#009696"/>
      <stop offset=".33" stop-color="#009696"/>
    </radialGradient>
  </defs>
  <g id="Platforms">
    <g>
      <path class="cls-7" d="M12.51,283.16h259.92c2.78,0,5.04-2.26,5.04-5.04l4-127.92c0-2.78-2.26-5.04-5.04-5.04H8.51c-2.78,0-5.04,2.26-5.04,5.04l3,127.92c0,2.78,3.26,5.04,6.04,5.04Z"/>
      <path d="M6.46,278.12c0,2.78,3.26,5.04,6.04,5.04h259.92c2.78,0,5.04-2.26,5.04-5.04H6.46Z"/>
    </g>
  </g>
  <g id="Bells">
    <g class="cls-13">
      <g>
        <path class="cls-9" d="M237.79,154.73c1.05,3.69,1.44,7.46,1.64,11.29.25,4.86,0,9.67-.87,14.46-1.37,7.64-4.86,14.26-9.92,20.08-5.99,6.9-13.39,11.94-21.26,16.37-10.08,5.67-20.81,9.66-32.04,12.31-7.99,1.89-16.06,3.3-24.23,4.13-1.87.2-3.74.34-5.59.5-9.36.94-18.73,1.17-28.1.72-16.58-.78-32.52-4.3-47.5-11.6-6.22-3.04-11.91-6.83-16.7-11.87-5.05-5.34-8.4-11.61-10.21-18.75-1.3-5.09-2.16-10.24-2.28-15.47-.22-9.08,2.43-17.27,7.62-24.69,2.55-3.66,5.72-6.74,8.87-9.84,1.17-1.14,2.32-2.29,3.18-3.69.69-1.07,1.2-2.23,1.14-3.5-.16-3,.38-5.91,1.26-8.74,3.63-11.58,6.19-23.48,10.26-34.93,2.63-7.38,6.21-14.26,11.17-20.35.59-.72,1.19-1.45,1.83-2.14,2.03-2.3,4.29-4.4,6.3-6.78,2.97-3.48,6.99-5.61,11.12-7.44,6.23-2.75,12.72-4.39,19.44-5.39,7.66-1.11,15.35-1.38,23.05-.5,5.28.59,10.5,1.56,15.32,3.82,9.32,4.36,17.66,10.04,24.09,18.23,4.1,5.24,7.53,10.9,10.45,16.86,4.32,8.85,8.5,17.77,12.85,26.61,1.15,2.29,2.05,4.71,2.37,7.3.25,1.99,1.42,3.51,2.93,4.76,2.44,2.02,5.18,3.66,7.74,5.55,7.8,5.84,13.36,13.26,16.06,22.69Z"/>
        <g class="cls-11">
          <g class="cls-12">
            <path class="cls-10" d="M49.75,183.47c6.04,17.07,20.42,32.78,39.27,34.62,4.68.46,9.44-.11,13.89-1.65,1.74-.6.99-3.39-.77-2.78-16.18,5.59-32.86-3.69-42.26-16.81-3.11-4.34-5.57-9.12-7.35-14.15-.62-1.74-3.4-.99-2.78.77h0Z"/>
          </g>
        </g>
        <g class="cls-11">
          <g class="cls-8">
            <path class="cls-10" d="M231.2,168.19c-2.83,16.67-13.44,33.84-30.59,38.56-4.15,1.14-8.52,1.42-12.78.74-1.82-.29-2.6,2.49-.77,2.78,18.1,2.91,34.08-9.51,41.73-25.12,2.51-5.12,4.23-10.58,5.18-16.2.31-1.82-2.47-2.6-2.78-.77h0Z"/>
          </g>
        </g>
        <g>
          <rect class="cls-10" x="121.71" y="52.98" width="19.85" height="7.78" transform="translate(-4.41 11.54) rotate(-4.94)"/>
          <path class="cls-5" d="M154.3,33.36c.75,8.67-5.34,16.62-14.45,20.02-2.27.85-4.75,1.42-7.34,1.64-3.4.29-6.69-.03-9.72-.88-8.45-2.36-14.75-8.75-15.44-16.74-.94-10.85,8.81-20.56,21.77-21.68,12.98-1.12,24.25,6.77,25.18,17.62Z"/>
        </g>
        <text class="cls-2" transform="translate(115.65 49.44) rotate(-4.94) scale(1.06 1)"><tspan x="0" y="0">G</tspan></text>
      </g>
      <g>
        <path class="cls-6" d="M192.24,180.76c-3.26-.99-6-3.02-8.56-5.07-1.39-1.11-2.78-2.25-4.18-3.36.95-.46,1.85-1.1,2.66-1.94-2.74-1.21-5.07-3.59-7.26-5.98-5.46-5.96-10.79-12.64-17.41-13.4-5.32-.72-14.35-1.68-18.88,2.97-5.27-3.8-13.99-1.31-19.11.31-6.39,1.88-10.5,9.37-14.86,16.18-1.74,2.72-3.63,5.47-6.12,7.13,1.19.88,2.48,1.42,3.78,1.65-1.1,1.24-2.18,2.5-3.28,3.74-2.17,2.45-4.52,4.93-7.56,6.46,5.49,2.9,12.77,1.19,17.01-3.15-.73.78-1.39,2.04-2.1,2.94,3.45-.11,5.6-3.83,8.22-5.72-.23.88,0,2.32-.23,3.2,4.11.63,9.86-3.44,12.58-7.03-.16,1.29.13,3.15-.39,4.5,3.51.3,6.99-1.93,9.31-4.62.06.41.16,1.03.26,1.65,2.31.55,4-.55,5.19-2.38,1.48,1.6,3.33,2.39,5.52,1.45-.01-.63-.02-1.25-.03-1.67,2.74,2.25,6.55,3.85,9.96,2.95-.74-1.24-.78-3.12-1.16-4.36,3.3,3.07,9.66,6.09,13.6,4.77-.38-.83-.4-2.29-.78-3.12,2.91,1.41,5.67,4.7,9.08,4.22-.86-.77-1.72-1.9-2.57-2.54,4.93,3.55,12.39,3.99,17.3.19ZM139.58,167.19c.05-.1.1-.2.14-.3.13.19.27.37.4.54-.18-.09-.36-.16-.55-.24Z"/>
        <path class="cls-6" d="M95.08,88.69c.54-1.34,2.35-2.14,3.63-2.72-.01.01-.03.03-.04.04-.04.03-.08.05-.12.08-1.13.48-2.15,1.17-2.77,2-.04.05.02.12.07.07.39-.37.81-.68,1.25-.93-.3.29-.58.6-.82.91-.02.03.02.08.05.05.21-.16.42-.32.62-.48.01.03.06.05.09.02.19-.17.39-.33.6-.49.02,0,.04,0,.06-.01.15-.13.3-.26.46-.38.15-.11.3-.21.45-.31.11-.04.21-.07.32-.11-.51.44-.95.95-1.21,1.54-.02.04.04.07.06.03.35-.7,1.04-1.27,1.77-1.74.05-.01.09-.02.14-.04-.52.41-1.01.84-1.46,1.29-.04.04.01.1.06.07.73-.55,1.48-1.08,2.27-1.56.12-.03.25-.05.37-.08-.47.37-.92.74-1.33,1.05-.06.04,0,.14.06.1.75-.43,1.46-.9,2.19-1.34.11-.02.22-.04.33-.07-.38.24-.74.51-1.07.82-.04.04.01.1.06.07.76-.42,1.55-.87,2.37-1.25.1-.02.2-.03.3-.04.11-.01.23-.02.34-.02-.42.22-.82.46-1.22.73-.04.02,0,.07.04.05.52-.29,1.07-.55,1.62-.78.14,0,.28.01.42.02-.35.12-.69.26-1.02.44-.03.02,0,.06.03.05.55-.16,1.1-.32,1.66-.45.02,0,.04,0,.05,0,.03,0,.04-.01.05-.03.17-.04.33-.07.5-.1.04,0,.08-.01.11-.02.11.02.23.05.34.07.07.01.12-.09.05-.12,0,0-.01,0-.02-.01.01,0,.02,0,.03,0,.28.08.56.15.84.21.1.02.16-.11.07-.17-.05-.03-.09-.05-.14-.08.02-.02.03-.05.02-.08.09-.01.18-.03.27-.05.27.1.45.2.46.29,0,.08.07.14.15.12.02,0,.04-.01.06-.02.07-.02.12-.08.13-.14.17.06.33.12.5.18.09.03.13-.1.06-.15-.26-.17-.54-.32-.82-.46,0,0,0,0,0,0,0-.03,0-.06-.03-.08.26.1.51.2.77.31-.05.06,0,.16.08.16.11,0,.22,0,.32,0,.1,0,.17-.09.18-.18.34.15.68.31,1.03.45.1.04.18-.11.1-.18-.11-.09-.23-.19-.35-.28.09.04.18.07.27.1.07.02.13-.01.16-.07.42.17.85.34,1.28.47.1.03.14-.1.06-.15-.2-.15-.41-.28-.62-.41-.15-.14-.31-.27-.47-.4.07.04.15.07.22.11.09.08.19.16.29.23.04.02.08.02.11,0,.53.29,1.04.6,1.59.86.09.04.19-.07.11-.14-.17-.16-.35-.32-.54-.46,0,0,.01,0,.01-.01.02-.01.03-.03.05-.04.03-.02.04-.06.05-.1.51.26,1.03.5,1.57.7.07.03.12-.08.07-.12-.21-.18-.43-.34-.65-.5.03-.01.05-.04.05-.09,0-.04,0-.07,0-.11.68.32,1.34.67,2.02,1,.06.03.13-.05.08-.1-.11-.09-.23-.19-.35-.28.08.03.19-.04.15-.14-.02-.07-.06-.14-.1-.2.44.3.87.62,1.31.91.09.06.16-.07.11-.14-.01-.01-.02-.02-.03-.04,0,0,0-.02.01-.03,0-.04.01-.07,0-.11.31.23.64.45.98.61.09.04.18-.06.11-.14-.06-.06-.12-.12-.18-.18.02,0,.05-.02.07-.04.12.13.19.21.18.21-.08.07-.01.17.07.19.02.03.05.05.09.06.19.01.3-.04.35-.12,0,.01,0,.03.01.04.02.07.08.11.14.11.08.11.17.22.25.33.1.14.32,0,.22-.16-.05-.08-.11-.17-.16-.25-.02-.03-.04-.04-.06-.04-.03-.04-.06-.08-.08-.11,0-.06,0-.13-.02-.19,0,0,.01.02.02.02.06.06.15.01.17-.06.21.36.4.74.59,1.12-.02.03-.02.06,0,.09.04.05.08.11.12.16.11.14.37.07.31-.13,0,0,0,0,0,0,.07.02.15-.01.15-.1,0-.08-.01-.17-.02-.25.02.03.06.06.1.05.03,0,.06,0,.09,0,.07,0,.13-.04.17-.1.02.15.22.22.3.07.07-.13.08-.29.05-.47.26-1.02-.55-2.51-1-3.33-.62-1.12-1.51-1.95-2.7-2.41-.07-.03-.12.09-.05.13,1.25.63,2.27,1.92,2.83,3.34-.02-.02-.03-.05-.05-.07-.31-.53-.68-1.02-1.08-1.48-.07-.08-.18.04-.12.12,0,0,0,0,0,0-.3-.28-.61-.54-.93-.78-.03-.03-.07.02-.04.05.75.71,1.37,1.47,1.94,2.29.06.12.11.23.16.35.12.27.22.54.31.81-.07-.13-.14-.26-.21-.38-.5-1.24-1.42-2.5-2.53-3.2-.04-.03-.07.04-.04.07.44.48.9.93,1.29,1.45-.1-.09-.19-.17-.3-.25-.01,0-.02-.01-.04-.01-.49-.63-1.06-1.19-1.68-1.6-.03-.02-.06.02-.04.04.54.56,1.07,1.12,1.53,1.75-.51-.56-1.1-1.05-1.75-1.44-.07-.04-.14.06-.08.11.84.74,1.63,1.51,2.26,2.44-.69-.88-1.53-1.66-2.42-2.29-.45-.47-.94-.9-1.48-1.25-.03-.02-.07.01-.05.04.74.84,1.58,1.6,2.3,2.46.36.43.7.88,1.02,1.33-.01-.01-.03-.02-.04-.04-.05-.06-.1-.11-.15-.16-.55-.64-1.17-1.47-1.96-1.84-.38-.38-.77-.75-1.18-1.11-.08-.07-.53-.5-.59-.16,0,.03.03.03.04.01.1-.16.71.52.79.59.2.2.4.41.6.62.04.04.07.08.11.12-.43-.36-.87-.69-1.33-.99-.06-.04-.12.05-.07.1.1.1.46.44.93.89-.32-.27-.65-.51-1.01-.66-.65-.53-1.34-1.04-2.07-1.38-.05-.02-.08.04-.05.07.5.44,1.04.84,1.58,1.24,0,.04.01.07.06.09.1.03.4.28.8.62-.16-.06-.31-.11-.47-.14-.16-.12-.33-.23-.49-.35-.75-.52-1.51-1.08-2.32-1.5-.04-.02-.07.03-.04.06.72.6,1.53,1.1,2.28,1.66.03.02.06.05.09.07-.13,0-.25,0-.38.02-.02,0-.04-.01-.06-.02-.81-.58-1.66-1.1-2.55-1.49-.03-.01-.06.03-.03.05.6.4,1.2.79,1.78,1.2-.24-.06-.47-.11-.71-.15-.62-.37-1.27-.7-1.91-.97-.02,0-.05.02-.02.04.47.33.96.64,1.45.94,0,.02.02.04.04.05.04.01.08.03.11.04.14.09.28.18.42.27-.04.02-.05.1.01.12.12.04.24.08.36.12.06.04.13.08.19.13-.16-.06-.34-.12-.49-.09-.94-.64-1.99-1.16-2.98-1.63-.04-.02-.06.04-.03.06.68.36,1.33.75,1.98,1.17-.43-.15-.86-.29-1.3-.4-.38-.22-.77-.43-1.17-.61-.02-.01-.05.02-.03.04.2.15.41.29.62.42-.34-.08-.68-.15-1.01-.22-.05-.03-.11-.05-.16-.08-.03-.01-.05.01-.04.04-.1-.02-.19-.04-.29-.06-.1-.02-.14.13-.04.15.25.06.5.12.75.18.1.06.2.12.3.19-.28-.08-.56-.17-.84-.25-.09-.02-.12.11-.04.13.64.21,1.26.46,1.87.74.1.06.2.13.3.19-.05,0-.1,0-.16,0-.07-.03-.15-.05-.22-.08-.33-.15-.68-.28-1.03-.4-.07-.03-.15-.06-.23-.08,0,0-.01,0-.01,0-.55-.18-1.11-.32-1.66-.44-.1-.02-.14.12-.04.15.39.1.77.21,1.14.34,0,0,0,0-.01,0-.59-.18-1.19-.3-1.8-.37-.25-.07-.49-.13-.74-.18-.04,0-.06.05-.02.07.57.25,1.17.45,1.75.67-.26-.04-.52-.08-.78-.11-.47-.24-.98-.48-1.47-.46-.03,0-.03.04,0,.05.35.09.68.23,1.01.38-.17,0-.33.01-.5.04-.37-.12-.74-.24-1.11-.36-.03-.01-.05.04-.02.06.28.12.56.25.84.37-.04.01-.07.02-.11.04-.04.02-.05.08-.02.1-.34-.09-.69-.16-1.03-.2-.03,0-.04.04-.02.05.35.12.69.23,1.03.35-.02,0-.04,0-.05,0-.36-.09-.72-.15-1.06-.17-.05,0-.06.06-.01.07.18.05.36.11.54.17-1.38-.03-2.89.4-3.78,1.26-.04.04.02.11.07.07.92-.8,2.13-.98,3.33-.98.21.01.43.03.64.05-.15.02-.3.05-.45.08-.85,0-1.69.09-2.48.48-.7.35-1.4.76-2.03,1.26-.46.2-.91.41-1.35.62-1.19.6-2.93,1.37-3.21,2.82-.01.07.07.09.1.03ZM119.76,84.74s0,.02.01.02c.27.45.95,1.48.84,2.05-.09-.55-.36-1.11-.66-1.63-.06-.15-.12-.29-.19-.44ZM115.59,83.49s-.09-.05-.14-.07c-.13-.1-.26-.19-.39-.29.16.08.32.16.48.25.07.06.14.13.21.19-.05-.03-.11-.05-.16-.08ZM114.64,84.66c.4.22.8.45,1.11.74-.34-.26-.72-.51-1.11-.74ZM112.95,82.79s-.07-.02-.11-.03c0,0-.02-.01-.03-.02.05.02.09.03.14.05ZM114.41,82.95c-.17-.07-.33-.14-.5-.2.11.02.21.04.32.06.06.05.12.09.18.14ZM113.58,83.29s-.08-.06-.12-.09c.19.08.39.16.58.24.04.03.09.07.14.1-.2-.09-.39-.17-.59-.25ZM113.5,84.69s.02-.05.03-.08c.1.09.2.18.29.28-.11-.07-.21-.14-.32-.2ZM112.74,84.95s.02.01.02,0c0,0,0,0,0,0,0,0-.01,0-.02-.01ZM112.51,83.05c.2.06.44.17.65.28,0,0,0,0-.01.02-.04-.01-.08,0-.11,0-.17-.11-.35-.21-.53-.31ZM111.5,84.18s0,0,.01,0c.15.1.31.2.45.29-.13-.07-.26-.15-.39-.22-.02-.02-.05-.05-.07-.07ZM109.55,82.36c-.18-.1-.36-.2-.54-.29.37.11.74.23,1.11.36.1.06.2.12.31.18.16.1.32.19.48.29,0,0-.01,0-.02,0-.44-.2-.88-.37-1.33-.53ZM107.94,84.57c.1.03.2.06.3.09-.02,0-.04,0-.07,0-.07-.03-.15-.06-.24-.09ZM107.09,82.91c.17.03.34.07.51.1.11.02.22.05.33.07-.03.03-.03.09.02.11.06.02.12.05.18.07-.14-.03-.27-.05-.4-.07-.21-.1-.43-.19-.64-.29ZM105.86,82.72c.18.01.35.04.53.06.15.08.3.15.44.22.03.01.06.03.09.04-.1-.02-.21-.03-.31-.05-.25-.1-.5-.19-.75-.28ZM104.89,82.74h0c.12-.02.24-.02.36-.03.16.07.32.14.48.21-.09,0-.18,0-.27,0-.19-.06-.38-.12-.57-.17ZM101.34,84.34c.12-.06.24-.12.36-.18.18-.09.36-.16.55-.21-.05.02-.1.05-.16.07-.22.09-.45.19-.66.3-.03,0-.06.01-.08.02Z"/>
        <path class="cls-6" d="M172.84,81.94c-.53-1.39-2.37-1.85-3.65-2.23-.47-.14-.95-.27-1.44-.38-.7-.38-1.47-.67-2.21-.89-.85-.25-1.69-.2-2.53-.05-.15,0-.31,0-.46,0,.21-.06.41-.11.62-.16,1.18-.21,2.4-.24,3.45.39.05.03.11-.04.06-.08-1.02-.7-2.58-.86-3.94-.6.16-.09.33-.17.5-.25.04-.02.02-.08-.02-.07-.33.08-.68.2-1.01.35-.02,0-.04,0-.05,0,.32-.17.64-.35.96-.52.03-.01,0-.05-.02-.05-.33.1-.66.23-.98.38.02-.03,0-.09-.04-.1-.04,0-.08-.01-.11-.02.26-.17.51-.34.76-.51.03-.02,0-.07-.03-.05-.34.18-.68.36-1.03.54-.17,0-.33.01-.5.04.3-.21.6-.4.93-.55.02-.01.02-.05-.01-.05-.49.06-.95.39-1.37.7-.25.07-.5.16-.75.24.54-.32,1.09-.61,1.61-.96.04-.02,0-.08-.04-.07-.24.08-.47.19-.7.3-.59.17-1.16.39-1.71.67,0,0,0,0-.01,0,.34-.19.7-.37,1.07-.53.09-.04.03-.18-.06-.14-.52.21-1.05.45-1.56.72,0,0,0,0-.01,0-.07.04-.14.07-.21.12-.32.18-.64.37-.94.57-.07.04-.14.08-.21.12-.05,0-.1.02-.15.04.09-.08.17-.16.26-.24.55-.38,1.12-.74,1.72-1.05.08-.04.02-.16-.06-.12-.26.13-.53.25-.79.39.09-.08.17-.16.26-.24.23-.11.47-.21.7-.31.09-.04.03-.17-.06-.14-.09.03-.18.07-.27.1,0-.02-.02-.05-.05-.03-.05.03-.1.07-.14.1-.31.12-.63.25-.95.39.19-.17.37-.34.54-.52.02-.02-.01-.05-.03-.03-.36.24-.71.52-1.05.8-.41.19-.82.39-1.21.62.56-.52,1.14-1.02,1.75-1.49.03-.02,0-.07-.04-.05-.9.64-1.84,1.33-2.65,2.12-.16,0-.32.09-.47.18.06-.05.11-.1.17-.16.11-.06.22-.12.34-.18.06-.03.04-.1-.01-.12.12-.11.25-.22.37-.33.03-.02.07-.04.1-.06.02-.01.03-.04.03-.06.43-.38.85-.77,1.26-1.18.02-.02,0-.05-.03-.03-.59.38-1.17.81-1.72,1.28-.23.08-.45.17-.67.27.51-.5,1.03-.99,1.55-1.48.03-.02-.01-.06-.04-.04-.81.53-1.56,1.19-2.26,1.9-.02.01-.04.02-.06.03-.13,0-.25.01-.38.04.03-.03.05-.06.08-.08.65-.67,1.36-1.31,1.97-2.02.03-.03-.01-.07-.05-.05-.73.55-1.38,1.23-2.03,1.87-.14.14-.28.28-.43.43-.15.06-.3.14-.44.22.34-.41.59-.7.69-.75.04-.02.05-.07.04-.1.46-.49.92-.97,1.34-1.49.03-.04-.02-.09-.06-.06-.66.46-1.25,1.08-1.8,1.71-.32.21-.61.5-.88.82.38-.52.68-.92.76-1.04.04-.05-.04-.13-.09-.08-.4.38-.78.78-1.14,1.21.03-.05.06-.09.09-.14.16-.24.32-.48.49-.71.06-.09.55-.87.68-.72.02.02.05,0,.04-.02-.11-.32-.49.18-.55.26-.34.42-.66.85-.97,1.29-.71.5-1.18,1.43-1.61,2.15-.03.06-.07.12-.12.19-.01.01-.02.03-.04.04.24-.51.5-1,.78-1.49.56-.98,1.26-1.86,1.84-2.82.02-.03-.03-.06-.05-.03-.47.43-.88.94-1.24,1.48-.77.77-1.47,1.68-1.99,2.67.47-1.02,1.11-1.92,1.81-2.79.05-.06-.04-.15-.1-.09-.58.5-1.07,1.08-1.48,1.72.34-.7.77-1.34,1.21-1.99.02-.03-.02-.06-.04-.04-.53.51-1,1.16-1.38,1.86-.01,0-.02,0-.03.02-.09.1-.17.2-.25.3.3-.58.67-1.1,1.02-1.65.02-.03-.02-.09-.05-.06-.97.89-1.67,2.28-1.94,3.59-.05.13-.1.27-.14.41.04-.29.1-.57.16-.85.03-.13.06-.25.1-.37.42-.9.9-1.76,1.52-2.59.03-.03-.02-.07-.05-.04-.28.29-.54.6-.78.93,0,0,0,0,0,0,.05-.09-.08-.19-.13-.1-.32.53-.6,1.08-.81,1.65-.01.03-.02.05-.04.08.32-1.49,1.09-2.93,2.22-3.77.06-.05,0-.16-.07-.11-1.1.65-1.83,1.63-2.25,2.84-.31.88-.85,2.48-.42,3.45,0,.18.05.34.13.45.1.13.29.03.29-.12.04.05.11.07.18.06.03,0,.06,0,.09,0,.04,0,.07-.03.09-.07,0,.08.01.17.02.25.01.09.1.11.16.07,0,0,0,0,0,0-.02.21.25.24.33.08.03-.06.06-.12.09-.18.02-.03,0-.07-.01-.09.12-.41.25-.81.39-1.21.03.06.12.1.17.03,0,0,.01-.02.02-.03,0,.07,0,.13.02.19-.02.04-.04.08-.06.13-.02,0-.04.02-.05.05-.04.09-.08.18-.11.28-.07.16.17.28.25.12.06-.12.13-.25.19-.37.06-.02.12-.06.12-.13,0-.01,0-.03,0-.04.06.07.17.1.36.06.04,0,.06-.04.08-.07.08-.03.12-.15.03-.2-.01,0,.04-.09.14-.24.02.01.05.02.07.03-.05.07-.1.14-.14.21-.05.09.05.18.13.12.32-.22.6-.49.87-.77,0,.04.01.07.03.11,0,0,0,.02.02.02,0,.01-.02.03-.03.04-.04.08.05.19.13.12.39-.37.75-.75,1.13-1.12-.03.07-.05.14-.06.22-.01.1.1.15.18.11-.1.11-.2.23-.3.34-.05.06.04.13.09.09.61-.44,1.21-.9,1.82-1.33,0,.04,0,.07,0,.11,0,.04.03.07.06.08-.19.19-.38.39-.56.6-.04.05.03.14.09.11.49-.29.96-.62,1.42-.96,0,.04.03.07.06.09.02.01.04.02.05.03,0,0,.01,0,.02,0-.16.17-.31.36-.45.55-.06.09.05.18.13.12.49-.34.95-.74,1.42-1.12.03.02.08.02.11-.01.09-.09.17-.18.25-.27.06-.05.13-.1.2-.15-.14.15-.28.31-.4.47-.19.16-.37.33-.54.51-.06.06,0,.19.09.14.41-.21.8-.44,1.18-.69.04.05.1.08.17.04.09-.04.17-.1.25-.15-.11.11-.21.22-.3.34-.07.08.04.22.13.16.32-.2.63-.41.94-.62.02.09.11.16.21.14.11-.02.21-.04.32-.06.08-.01.11-.13.05-.17.23-.15.46-.3.7-.44-.01.03-.02.06-.01.08,0,0,0,0,0,0-.25.18-.5.38-.73.59-.06.06,0,.18.09.14.15-.08.31-.17.46-.26.02.06.08.11.15.12.02,0,.04,0,.07,0,.08,0,.14-.06.13-.14,0-.09.16-.22.4-.36.09,0,.18,0,.28,0,0,.03.02.05.04.07-.04.03-.09.07-.13.11-.08.07,0,.19.1.15.27-.11.53-.23.79-.36.01,0,.02,0,.03,0,0,0-.01,0-.02.01-.06.05,0,.14.07.11.11-.04.22-.09.33-.13.04,0,.08,0,.12,0,.17,0,.34,0,.51.02.01.01.03.02.06.02.02,0,.04,0,.05-.01.57.03,1.14.09,1.71.16.03,0,.05-.05.02-.06-.35-.12-.71-.2-1.08-.25.14-.03.27-.06.41-.09.59.13,1.17.29,1.73.49.04.01.07-.04.03-.06-.44-.2-.88-.37-1.33-.51.11-.02.22-.03.34-.04.1,0,.2-.01.3-.01.87.23,1.72.54,2.55.82.05.02.09-.05.04-.08-.39-.24-.79-.44-1.2-.62.11,0,.22,0,.33,0,.79.31,1.58.65,2.39.94.07.03.1-.07.04-.11-.45-.24-.95-.52-1.49-.81.13,0,.25,0,.38.01.85.34,1.69.74,2.5,1.15.05.02.09-.05.04-.08-.51-.36-1.07-.71-1.66-1.02.05,0,.09,0,.14.01.8.35,1.58.79,2.04,1.42.02.03.07,0,.05-.04-.36-.54-.88-.96-1.46-1.31.11.01.22.03.33.05.17.07.33.15.5.23.17.09.35.19.52.29.02.01.04,0,.06,0,.23.12.45.25.67.38.04.02.08,0,.09-.04.23.12.46.24.7.36.03.02.07-.04.04-.06-.29-.27-.62-.53-.96-.76.48.18.95.41,1.39.71.06.04.11-.04.06-.08-.76-.7-1.88-1.21-3.07-1.49-.04-.02-.09-.04-.14-.06-.02-.01-.03-.02-.05-.03,1.36.35,3.28.82,4.05,2.06.03.05.12.02.09-.04ZM147.63,82.79c-.22.56-.38,1.16-.37,1.72-.2-.53.29-1.67.48-2.16,0,0,0-.02.01-.03-.04.15-.08.31-.11.46ZM151.5,80.48c.06-.08.12-.15.18-.22.14-.11.28-.22.43-.32-.11.12-.22.23-.33.35-.04.03-.09.06-.13.09-.05.03-.1.07-.15.11ZM151.81,82.29c.26-.34.61-.64.97-.92-.35.3-.67.61-.97.92ZM154.25,79.16s-.02.02-.02.02c-.03.02-.07.03-.1.05.04-.02.08-.05.13-.07ZM152.87,79.48c.1-.05.2-.08.3-.12-.15.09-.31.19-.46.28.05-.06.1-.11.16-.16ZM153.05,80.18s.08-.08.12-.12c.17-.11.35-.22.53-.33-.03.04-.07.07-.1.11-.18.11-.36.23-.54.35ZM153.63,81.45c.07-.11.15-.22.24-.33.01.02.03.05.04.07-.09.08-.19.17-.28.25ZM154.68,81.35s0,0,0,0c0,0,0,0,.02-.01,0,0-.01.01-.02.02ZM154.13,79.81s-.07,0-.11,0c0,0-.01,0-.02-.01.2-.15.41-.29.6-.39-.16.13-.32.26-.47.39ZM155.74,80.44c-.12.09-.23.18-.35.28.13-.12.26-.24.4-.36,0,0,0,0,.01,0-.02.03-.04.06-.06.08ZM156.18,78.98s0,0-.01,0c.14-.12.28-.24.42-.37.09-.08.18-.15.27-.23.34-.19.68-.37,1.03-.54-.16.13-.32.25-.48.38-.42.23-.83.47-1.22.75ZM159.14,80.26s-.04,0-.07,0c.1-.04.19-.09.29-.14-.08.04-.15.08-.22.13ZM159.34,78.74c-.12.04-.25.09-.38.14.05-.03.11-.07.16-.1.05-.03.04-.09,0-.11.1-.04.21-.08.31-.12.16-.06.32-.13.49-.19-.19.13-.39.26-.58.39ZM160.4,78.36c-.1.03-.2.06-.3.1.03-.02.05-.04.08-.06.13-.1.27-.2.4-.3.17-.06.34-.11.51-.15-.23.13-.46.27-.69.4ZM161.52,78.07c-.09.02-.17.04-.26.06.15-.1.29-.19.43-.29.12-.02.24-.03.36-.03h0c-.18.08-.36.17-.54.27ZM165.75,78.77c-.23-.07-.47-.13-.7-.18-.06-.02-.11-.03-.17-.05.19.02.38.06.57.11.13.04.25.08.38.12-.03,0-.06,0-.08,0Z"/>
        <g>
          <g>
            <path class="cls-4" d="M120.03,108.41c.3,3.42-2.23,6.42-5.65,6.72-3.42.3-6.42-2.23-6.72-5.65s2.24-6.43,5.65-6.72,6.42,2.24,6.72,5.65Z"/>
            <path class="cls-4" d="M166.01,104.44c.3,3.42-2.23,6.43-5.65,6.72s-6.43-2.23-6.72-5.65,2.24-6.43,5.65-6.72,6.42,2.24,6.72,5.65Z"/>
          </g>
          <path class="cls-3" d="M138.42,127.95c1.39-.12,2.72.12,3.91.63.37.16.66-.34.34-.59-1.21-.9-2.73-1.38-4.35-1.25-1.62.14-3.04.87-4.08,1.96-.28.29.09.74.43.52,1.09-.71,2.37-1.17,3.75-1.28Z"/>
        </g>
      </g>
    </g>
  </g>
</svg>