<?xml version="1.0" encoding="UTF-8"?>
<svg xmlns="http://www.w3.org/2000/svg" xmlns:xlink="http://www.w3.org/1999/xlink" viewBox="0 0 284.93 302">
  <defs>
    <style>
      .cls-1 {
        fill: none;
      }

      .cls-2 {
        font-size: 17.54px;
      }

      .cls-2, .cls-3, .cls-4, .cls-5 {
        fill: #fff;
      }

      .cls-2, .cls-5 {
        font-family: Futura-Medium, Futura;
        font-weight: 500;
      }

      .cls-6, .cls-7 {
        fill: #502b19;
      }

      .cls-8 {
        fill: #c3c3c3;
      }

      .cls-3 {
        stroke: #fff;
        stroke-width: .83px;
      }

      .cls-3, .cls-9, .cls-7 {
        stroke-miterlimit: 10;
      }

      .cls-10 {
        clip-path: url(#clippath-1);
      }

      .cls-9 {
        stroke: #000;
        stroke-width: 1.66px;
      }

      .cls-11 {
        fill: #0480cb;
      }

      .cls-7 {
        stroke: #502b19;
        stroke-width: .99px;
      }

      .cls-12 {
        opacity: .6;
      }

      .cls-5 {
        font-size: 21.62px;
        letter-spacing: 0em;
      }

      .cls-13 {
        fill: #51bdec;
      }

      .cls-14 {
        clip-path: url(#clippath);
      }
    </style>
    <clipPath id="clippath">
      <path class="cls-1" d="M78.45,223.89c-5.68,6.21-19.02,3.26-29.8-6.59-10.78-9.85-14.91-22.87-9.24-29.08,5.68-6.21,19.02-3.27,29.8,6.58,10.78,9.86,14.91,22.88,9.23,29.09Z"/>
    </clipPath>
    <clipPath id="clippath-1">
      <path class="cls-1" d="M206.32,225.43c5.64,6.25,18.99,3.38,29.83-6.4,10.83-9.78,15.04-22.79,9.41-29.03-5.65-6.25-19-3.38-29.84,6.41-10.84,9.79-15.05,22.79-9.4,29.03Z"/>
    </clipPath>
  </defs>
  <g id="Platforms">
    <g>
      <rect class="cls-13" x="3.46" y="145.16" width="278" height="128" rx="5.04" ry="5.04"/>
      <path d="M3.46,268.12c0,2.78,2.26,5.04,5.04,5.04h267.92c2.78,0,5.04-2.26,5.04-5.04"/>
    </g>
  </g>
  <g id="Bells">
    <g>
      <g>
        <g>
          <g>
            <path class="cls-11" d="M239.92,176.9c.72,3.77.77,7.56.63,11.39-.19,4.86-.86,9.64-2.15,14.32-2.04,7.49-6.11,13.77-11.66,19.12-6.58,6.34-14.4,10.7-22.63,14.41-10.55,4.75-21.58,7.77-33.01,9.41-8.13,1.17-16.3,1.86-24.5,1.96-1.88.04-3.76,0-5.62,0-9.4.1-18.76-.5-28.05-1.78-16.45-2.25-32.01-7.17-46.28-15.78-5.92-3.58-11.26-7.86-15.58-13.31-4.55-5.77-7.34-12.31-8.5-19.58-.84-5.18-1.24-10.39-.9-15.61.59-9.07,3.96-16.99,9.79-23.92,2.86-3.41,6.29-6.21,9.72-9.01,1.26-1.03,2.51-2.07,3.49-3.39.78-1,1.4-2.12,1.45-3.39.11-3.01.9-5.86,2.04-8.6,4.64-11.21,8.25-22.84,13.33-33.88,3.28-7.12,7.45-13.65,12.93-19.28.65-.67,1.31-1.34,2.02-1.96,2.23-2.11,4.66-4,6.88-6.19,3.27-3.2,7.46-4.96,11.74-6.42,6.45-2.18,13.06-3.24,19.84-3.64,7.73-.42,15.42,0,23.01,1.55,5.21,1.06,10.32,2.49,14.92,5.17,8.89,5.18,16.69,11.58,22.37,20.31,3.62,5.59,6.53,11.53,8.9,17.73,3.52,9.2,6.88,18.45,10.43,27.64.94,2.38,1.62,4.87,1.71,7.48.08,2,1.11,3.62,2.49,5,2.25,2.23,4.83,4.11,7.21,6.22,7.25,6.51,12.12,14.4,13.97,24.03Z"/>
            <path class="cls-1" d="M111.52,91.38c.01-3.98,5.53-7.19,12.33-7.17"/>
          </g>
          <g class="cls-12">
            <g class="cls-14">
              <path class="cls-4" d="M50.08,188.92c4.47,17.44,17.58,34.65,36.22,37.89,4.63.8,9.33.66,13.89-.47,1.8-.45,1.04-3.23-.77-2.78-16.58,4.11-32.26-6.72-40.45-20.51-2.76-4.65-4.77-9.67-6.11-14.89-.46-1.8-3.24-1.04-2.78.77h0Z"/>
            </g>
          </g>
          <g class="cls-12">
            <g class="cls-10">
              <path class="cls-4" d="M232.11,189.85c-4.3,16.34-16.4,32.31-33.82,35.56-4.3.8-8.73.64-12.96-.44-1.8-.46-2.57,2.32-.77,2.78,17.83,4.53,34.88-6.71,43.83-21.59,2.9-4.83,5.06-10.1,6.49-15.55.47-1.8-2.31-2.56-2.78-.77h0Z"/>
            </g>
          </g>
          <g>
            <rect class="cls-9" x="139" y="60.06" width="7.78" height="19.85" transform="translate(72.48 212.67) rotate(-89.83)"/>
            <path class="cls-9" d="M167.56,48.59c-.03,8.7-6.8,16.08-16.17,18.66-2.34.64-4.86.99-7.46.98-3.42-.01-6.66-.63-9.61-1.74-8.2-3.1-13.91-10.03-13.89-18.04.03-10.89,10.6-19.69,23.61-19.65,13.03.04,23.55,8.9,23.52,19.79Z"/>
          </g>
          <text class="cls-2" transform="translate(124.28 50.47) rotate(.17) scale(1.06 1)"><tspan x="0" y="0">G</tspan></text>
          <text class="cls-5" transform="translate(139.97 43.32) rotate(.17) scale(.62 .58)"><tspan x="0" y="0">#</tspan></text>
          <text class="cls-2" transform="translate(140.27 61.61) rotate(.17) scale(1.06 1)"><tspan x="0" y="0">A</tspan></text>
          <text class="cls-5" transform="translate(154.07 54.45) rotate(.17) scale(.62 .58)"><tspan x="0" y="0">b</tspan></text>
        </g>
        <line class="cls-3" x1="156.18" y1="39.27" x2="131.29" y2="56.24"/>
      </g>
      <g>
        <path class="cls-8" d="M193.8,191.47c-3.16-1.27-5.71-3.55-8.07-5.81-1.29-1.23-2.57-2.49-3.86-3.72.99-.37,1.94-.93,2.82-1.7-2.62-1.44-4.73-4.03-6.7-6.6-4.91-6.43-9.62-13.55-16.15-14.89-5.24-1.19-14.14-2.95-19.07,1.28-4.91-4.25-13.82-2.55-19.06-1.39-6.53,1.31-11.29,8.4-16.24,14.8-1.98,2.56-4.1,5.13-6.73,6.56,1.11.99,2.34,1.63,3.62,1.98-1.2,1.14-2.4,2.3-3.6,3.43-2.38,2.25-4.94,4.51-8.1,5.76,5.21,3.38,12.61,2.32,17.23-1.63-.8.71-1.57,1.91-2.36,2.74,3.44.19,5.92-3.32,8.7-4.96-.31.86-.21,2.31-.51,3.17,4.04.99,10.12-2.55,13.15-5.88-.28,1.27-.15,3.15-.79,4.44,3.47.61,7.13-1.3,9.68-3.77.03.42.07,1.04.11,1.67,2.26.75,4.03-.19,5.38-1.91,1.34,1.72,3.1,2.68,5.37,1.94.04-.62.09-1.25.12-1.67,2.53,2.48,6.19,4.42,9.66,3.83-.63-1.3-.5-3.17-.77-4.45,3.01,3.35,9.07,6.93,13.12,5.96-.3-.86-.19-2.32-.5-3.17,2.77,1.66,5.23,5.19,8.67,5.01-.78-.84-1.54-2.04-2.34-2.76,4.6,3.98,11.98,5.08,17.22,1.73ZM142.57,173.27c.06-.09.11-.19.17-.28.11.2.23.39.35.57-.17-.1-.35-.19-.52-.29Z"/>
        <path class="cls-8" d="M104.52,99.09c.66-1.29,2.53-1.92,3.86-2.38-.01.01-.03.03-.04.04-.04.02-.09.04-.13.07-1.17.38-2.24.98-2.94,1.74-.04.05.01.12.07.08.42-.34.86-.6,1.33-.82-.33.26-.63.54-.9.84-.03.03.02.08.05.06.22-.14.44-.28.66-.42.01.03.05.06.09.03.21-.15.42-.3.64-.44.02,0,.04,0,.06,0,.16-.12.33-.23.49-.34.16-.09.32-.18.48-.27.11-.03.22-.05.33-.08-.55.39-1.04.86-1.35,1.42-.02.04.03.07.05.04.41-.67,1.15-1.17,1.91-1.58.05,0,.09-.02.14-.02-.56.36-1.08.75-1.56,1.15-.04.03,0,.11.05.08.78-.48,1.58-.94,2.4-1.36.13-.02.25-.03.38-.04-.51.33-.98.66-1.41.93-.06.04-.02.14.05.1.78-.36,1.54-.77,2.3-1.14.11-.01.22-.02.33-.04-.4.21-.78.45-1.14.72-.04.03,0,.1.05.08.8-.35,1.63-.73,2.47-1.03.1,0,.2-.01.3-.01.11,0,.23,0,.34.01-.44.18-.86.39-1.28.62-.04.02,0,.07.03.06.55-.24,1.11-.45,1.69-.63.14.02.28.04.42.06-.36.09-.71.2-1.05.34-.03.01,0,.06.02.06.56-.11,1.12-.22,1.69-.3.02,0,.04,0,.05,0,.03,0,.04,0,.06-.02.17-.02.34-.04.51-.06.04,0,.08,0,.12,0,.11.03.22.07.34.1.07.02.13-.07.06-.11,0,0-.01,0-.02-.01.01,0,.02,0,.03,0,.27.1.54.2.82.29.1.03.17-.1.09-.16-.04-.03-.09-.06-.13-.09.02-.02.03-.05.03-.07.09,0,.18-.01.28-.02.26.12.43.24.43.33,0,.08.06.14.14.13.02,0,.04,0,.07-.01.07-.01.12-.07.14-.13.16.08.32.15.48.22.09.04.14-.09.07-.14-.25-.19-.51-.37-.77-.53,0,0,0,0,0,0,0-.03,0-.06-.02-.08.25.12.49.24.73.38-.05.05-.02.16.07.17.11.01.21.02.32.03.1.01.18-.07.19-.16.33.18.65.37.98.54.1.05.19-.1.12-.17-.1-.1-.21-.21-.33-.31.09.05.17.09.26.13.07.03.13,0,.16-.06.41.21.81.42,1.24.59.1.04.14-.09.08-.15-.18-.17-.38-.32-.58-.46-.14-.15-.28-.3-.44-.44.07.04.14.09.21.13.09.09.17.18.27.25.04.03.08.02.11,0,.5.34.98.69,1.5,1,.09.05.19-.05.12-.13-.15-.18-.32-.35-.5-.51,0,0,.01,0,.02,0,.02-.01.03-.03.05-.04.03-.02.05-.06.05-.09.49.3.98.59,1.5.83.06.03.13-.06.08-.11-.19-.19-.39-.38-.6-.55.03-.01.05-.04.06-.08,0-.04,0-.07,0-.11.65.38,1.28.79,1.92,1.18.06.04.14-.04.09-.09-.1-.1-.21-.21-.33-.31.08.03.19-.03.17-.13-.02-.07-.04-.14-.08-.21.41.34.81.69,1.22,1.02.08.07.17-.05.12-.13,0-.01-.02-.03-.03-.04,0,0,.01-.02.01-.02.01-.04.02-.07.02-.11.29.26.59.51.93.7.09.05.18-.05.12-.13-.05-.07-.1-.13-.16-.2.03,0,.05-.02.07-.03.11.14.17.22.16.23-.09.06-.03.17.05.2.02.03.04.06.08.06.19.03.3,0,.35-.08,0,.01,0,.03,0,.04.01.07.07.11.13.12.07.12.15.24.22.36.09.15.31.02.24-.14-.04-.09-.09-.18-.14-.27-.01-.03-.03-.04-.05-.05-.02-.04-.05-.08-.07-.12,0-.06,0-.13,0-.19,0,0,.01.02.02.02.06.07.14.03.17-.04.17.38.33.77.49,1.17-.02.03-.03.06,0,.09.04.06.07.12.11.17.1.15.36.1.32-.1,0,0,0,0,0,0,.06.03.15,0,.16-.08,0-.08,0-.17,0-.25.02.04.05.06.09.06.03,0,.06,0,.1,0,.07,0,.14-.03.18-.08,0,.15.2.24.29.1.08-.12.1-.28.09-.46.35-1-.32-2.55-.7-3.4-.52-1.17-1.33-2.08-2.48-2.64-.07-.03-.13.08-.06.12,1.19.74,2.09,2.12,2.53,3.58-.01-.02-.03-.05-.04-.07-.26-.55-.59-1.07-.95-1.58-.06-.09-.18.02-.13.11,0,0,0,0,0,0-.27-.31-.56-.6-.86-.86-.03-.03-.08.01-.05.05.68.78,1.24,1.59,1.73,2.45.04.12.09.24.13.36.09.28.17.56.23.84-.06-.14-.12-.27-.18-.39-.39-1.28-1.19-2.61-2.24-3.42-.04-.03-.07.03-.05.06.4.52.81,1.01,1.15,1.56-.09-.1-.18-.19-.27-.28,0,0-.02-.01-.03-.01-.43-.67-.95-1.28-1.53-1.74-.03-.02-.06.01-.04.04.49.61.97,1.21,1.37,1.88-.46-.6-1-1.14-1.62-1.59-.06-.05-.15.04-.09.1.77.81,1.48,1.65,2.04,2.63-.61-.94-1.38-1.79-2.21-2.5-.41-.5-.86-.98-1.36-1.37-.03-.02-.07,0-.05.04.66.91,1.43,1.73,2.07,2.66.32.46.62.93.9,1.42-.01-.01-.03-.03-.04-.04-.05-.06-.09-.12-.13-.18-.49-.68-1.03-1.57-1.79-2.01-.35-.41-.7-.82-1.08-1.21-.07-.07-.49-.54-.57-.22,0,.03.03.04.04.02.11-.16.67.58.73.66.18.22.37.45.55.67.03.04.07.09.1.13-.39-.39-.8-.76-1.24-1.11-.06-.04-.12.04-.08.09.09.11.42.48.85.97-.29-.3-.6-.56-.94-.75-.6-.59-1.24-1.15-1.94-1.56-.04-.03-.09.03-.05.07.46.48.96.93,1.46,1.38,0,.04,0,.08.05.1.1.04.38.31.75.69-.15-.07-.3-.13-.46-.18-.15-.13-.31-.26-.46-.39-.7-.59-1.4-1.21-2.18-1.7-.03-.02-.07.03-.04.05.67.66,1.42,1.24,2.13,1.85.03.03.06.05.09.08-.13-.02-.25-.02-.38,0-.02,0-.04-.02-.06-.03-.75-.65-1.56-1.24-2.41-1.71-.03-.02-.07.03-.04.05.56.45,1.12.89,1.67,1.35-.23-.08-.46-.15-.69-.21-.59-.42-1.2-.81-1.82-1.14-.02-.01-.05.02-.03.04.44.37.9.72,1.36,1.07,0,.02.01.05.04.06.04.02.07.04.11.05.13.1.27.2.4.3-.05.02-.06.09,0,.12.12.05.23.1.35.15.06.05.12.09.18.14-.16-.08-.33-.15-.48-.14-.88-.72-1.87-1.33-2.82-1.89-.03-.02-.06.03-.03.05.64.42,1.26.87,1.86,1.34-.41-.19-.83-.36-1.26-.51-.36-.25-.73-.5-1.11-.71-.02-.01-.05.02-.03.04.19.17.38.32.58.48-.33-.11-.66-.21-.98-.31-.05-.03-.1-.06-.15-.09-.03-.02-.05,0-.05.03-.09-.03-.19-.05-.28-.08-.09-.03-.15.11-.05.14.24.08.49.16.73.25.09.07.19.14.28.21-.27-.11-.54-.21-.81-.32-.08-.03-.13.09-.05.13.62.26,1.21.57,1.8.9.09.07.19.14.28.21-.05-.01-.1-.02-.16-.02-.07-.03-.14-.07-.22-.1-.32-.18-.65-.34-.99-.49-.07-.04-.14-.07-.22-.1,0,0,0,0-.01,0-.53-.22-1.08-.42-1.62-.59-.09-.03-.15.11-.05.14.38.13.75.28,1.11.44,0,0,0,0-.01,0-.57-.23-1.16-.4-1.76-.52-.24-.09-.48-.18-.72-.24-.04-.01-.07.05-.03.07.54.3,1.12.55,1.68.82-.25-.06-.51-.13-.77-.18-.45-.28-.93-.57-1.43-.59-.03,0-.03.04,0,.05.34.12.66.29.97.47-.17-.01-.33-.02-.5,0-.36-.16-.72-.31-1.07-.45-.03-.01-.05.04-.02.05.27.15.54.3.8.45-.04,0-.07.02-.11.03-.04.01-.06.07-.03.1-.33-.12-.67-.22-1.01-.3-.03,0-.05.03-.02.05.33.15.67.29,1,.44-.02,0-.04,0-.05,0-.35-.12-.7-.22-1.04-.27-.04,0-.06.05-.02.07.17.07.35.14.52.21-1.38-.15-2.92.14-3.88.92-.05.04.01.11.06.07.99-.71,2.21-.79,3.4-.68.21.03.42.07.63.11-.15,0-.31.02-.46.04-.85-.08-1.69-.06-2.51.26-.73.29-1.46.63-2.13,1.07-.48.15-.95.32-1.4.5-1.24.49-3.04,1.1-3.45,2.53-.02.06.07.09.1.04ZM129.45,97.35s0,.02.01.02c.23.47.81,1.56.66,2.11-.04-.56-.25-1.14-.52-1.68-.05-.15-.1-.3-.15-.45ZM125.41,95.73s-.09-.05-.13-.08c-.12-.11-.24-.22-.36-.32.15.09.31.19.45.29.06.07.13.14.19.21-.05-.03-.1-.06-.15-.09ZM124.36,96.81c.38.25.75.52,1.04.84-.32-.29-.67-.57-1.04-.84ZM122.84,94.79s-.07-.03-.11-.04c0,0-.02-.01-.03-.02.04.02.09.04.13.06ZM124.28,95.09c-.16-.08-.32-.17-.48-.24.1.02.21.06.31.09.06.05.11.1.17.15ZM123.43,95.35s-.07-.07-.11-.1c.19.09.37.19.55.29.04.04.08.07.13.11-.19-.1-.38-.21-.57-.3ZM123.22,96.74s.02-.05.04-.08c.1.1.18.2.26.31-.1-.08-.2-.15-.3-.23ZM122.44,96.94s.02.01.02.01c0,0,0,0,0,0,0,0-.01-.01-.02-.02ZM122.38,95.02c.2.08.42.21.63.34,0,0-.01,0-.02.01-.04-.01-.08-.01-.11,0-.16-.12-.33-.24-.5-.35ZM121.27,96.05s0,0,.01,0c.14.11.29.22.43.33-.12-.08-.25-.17-.37-.25-.02-.03-.04-.05-.07-.08ZM119.49,94.07c-.17-.12-.34-.23-.51-.34.36.14.72.29,1.07.46.1.07.19.14.29.21.15.11.3.22.45.33,0,0-.01,0-.02,0-.42-.24-.85-.45-1.28-.64ZM117.7,96.12c.1.04.2.08.3.11-.02,0-.04,0-.07,0-.07-.04-.15-.08-.23-.11ZM117,94.4c.17.05.34.1.5.15.11.03.21.06.32.1-.04.02-.04.09,0,.11.06.03.11.06.17.09-.14-.04-.27-.07-.39-.11-.2-.12-.41-.23-.61-.34ZM115.79,94.1c.17.03.35.07.52.11.14.09.28.18.42.26.03.02.06.03.08.05-.1-.03-.2-.05-.3-.07-.24-.12-.48-.23-.72-.35ZM114.82,94.03h0c.12,0,.24,0,.36,0,.15.08.3.17.46.25-.09-.01-.18-.02-.26-.03-.18-.08-.37-.15-.56-.22ZM111.14,95.31c.12-.05.25-.1.37-.15.19-.07.38-.12.56-.16-.05.02-.11.04-.16.06-.23.07-.46.15-.69.24-.03,0-.06,0-.08.01Z"/>
        <path class="cls-8" d="M182.56,99.28c-.41-1.43-2.2-2.05-3.44-2.55-.45-.18-.92-.35-1.4-.51-.67-.44-1.4-.79-2.13-1.08-.82-.33-1.66-.35-2.51-.28-.15-.02-.3-.04-.46-.04.21-.04.42-.07.63-.1,1.2-.11,2.42-.02,3.4.7.05.04.11-.03.06-.07-.96-.78-2.5-1.09-3.87-.94.17-.07.34-.14.52-.21.04-.02.03-.07-.02-.07-.34.05-.69.14-1.04.26-.02,0-.04,0-.05,0,.33-.14.67-.29,1-.43.03-.01,0-.05-.02-.05-.34.07-.68.17-1.01.29.03-.03.01-.09-.03-.1-.04-.01-.07-.02-.11-.03.27-.15.54-.3.81-.44.03-.02,0-.07-.02-.05-.35.15-.71.29-1.07.45-.17-.02-.33-.01-.5,0,.31-.18.64-.35.98-.47.02,0,.02-.05,0-.05-.49.01-.98.3-1.43.58-.26.05-.51.11-.77.17.56-.27,1.14-.52,1.69-.81.04-.02.01-.08-.03-.07-.24.06-.48.14-.72.24-.6.12-1.2.29-1.77.51,0,0,0,0-.01,0,.36-.16.73-.31,1.11-.44.09-.03.04-.17-.05-.14-.54.17-1.08.36-1.62.58,0,0,0,0-.01,0-.07.03-.15.06-.22.1-.34.15-.67.31-.99.49-.07.03-.15.06-.22.1-.05,0-.1.01-.16.02.09-.07.19-.14.28-.21.59-.33,1.19-.63,1.8-.89.08-.03.04-.16-.05-.13-.27.1-.55.21-.82.31.09-.07.19-.14.28-.21.24-.09.48-.17.73-.24.09-.03.04-.17-.05-.14-.09.03-.19.05-.28.08,0-.02-.02-.05-.05-.03-.05.03-.1.06-.15.09-.32.09-.65.19-.98.3.2-.15.4-.31.58-.47.02-.02,0-.05-.03-.04-.38.21-.75.45-1.12.7-.42.15-.85.32-1.26.51.61-.47,1.23-.91,1.87-1.33.03-.02,0-.07-.03-.05-.95.55-1.95,1.16-2.83,1.88-.16-.02-.32.06-.48.14.06-.05.12-.09.18-.14.12-.05.23-.1.35-.15.06-.02.05-.1,0-.12.13-.1.27-.2.4-.3.04-.02.07-.03.11-.05.02-.01.04-.03.04-.06.46-.34.92-.69,1.36-1.06.02-.02,0-.05-.03-.04-.62.33-1.24.71-1.83,1.13-.23.06-.46.13-.69.21.55-.45,1.11-.89,1.68-1.34.03-.02,0-.06-.04-.05-.86.46-1.66,1.05-2.42,1.69-.02,0-.04.02-.06.03-.13,0-.25,0-.38,0,.03-.03.06-.05.09-.08.71-.61,1.47-1.19,2.14-1.84.03-.03,0-.08-.04-.05-.78.48-1.49,1.1-2.19,1.68-.15.13-.31.26-.46.39-.16.05-.31.11-.46.18.37-.38.65-.65.75-.69.05-.02.06-.06.05-.1.5-.45,1-.89,1.47-1.37.03-.04,0-.09-.05-.07-.7.4-1.34.96-1.94,1.55-.34.18-.66.45-.95.74.43-.49.76-.86.85-.97.04-.05-.03-.13-.08-.09-.44.34-.85.71-1.24,1.1.03-.04.07-.09.1-.13.18-.22.37-.45.55-.67.07-.08.63-.81.74-.66.01.02.05,0,.04-.02-.09-.33-.51.14-.58.21-.38.39-.73.79-1.08,1.2-.75.43-1.3,1.32-1.8,2-.04.05-.09.11-.13.17-.01.01-.03.03-.04.04.28-.48.59-.95.91-1.41.65-.92,1.42-1.74,2.09-2.65.02-.03-.02-.06-.05-.04-.51.39-.96.86-1.37,1.37-.84.7-1.61,1.55-2.22,2.48.56-.98,1.28-1.81,2.05-2.62.06-.06-.03-.15-.09-.1-.62.45-1.16.98-1.63,1.58.41-.66.89-1.27,1.38-1.87.02-.03-.01-.06-.04-.04-.58.46-1.1,1.06-1.54,1.73-.01,0-.02,0-.03.01-.1.09-.19.18-.27.28.35-.55.76-1.04,1.16-1.55.02-.03,0-.09-.05-.06-1.05.8-1.86,2.13-2.26,3.4-.06.12-.12.26-.18.39.07-.28.15-.56.24-.84.04-.12.09-.24.13-.36.5-.86,1.06-1.67,1.74-2.44.03-.03-.01-.08-.05-.05-.3.26-.59.55-.86.86,0,0,0,0,0,0,.06-.09-.06-.2-.13-.11-.36.5-.69,1.02-.96,1.57-.01.02-.03.05-.04.07.45-1.46,1.35-2.82,2.55-3.56.07-.04,0-.15-.06-.12-1.15.55-1.97,1.46-2.49,2.62-.38.85-1.06,2.4-.72,3.4,0,.18.01.34.09.46.09.14.29.05.3-.09.04.05.1.08.18.08.03,0,.06,0,.1,0,.04,0,.08-.03.09-.06,0,.08,0,.17,0,.25,0,.09.09.11.16.08,0,0,0,0,0,0-.04.2.23.26.32.11.04-.06.07-.12.11-.17.02-.03.01-.07,0-.09.16-.4.32-.79.5-1.17.03.07.11.11.17.04,0,0,.01-.02.02-.02,0,.06,0,.13,0,.19-.02.04-.05.08-.07.12-.02,0-.04.02-.05.05-.05.09-.09.18-.14.27-.08.16.14.29.23.14.07-.12.15-.24.22-.35.06,0,.12-.05.13-.12,0-.01,0-.03,0-.04.05.08.16.11.35.09.04,0,.07-.03.08-.06.08-.03.14-.14.05-.2-.01,0,.05-.09.16-.23.02.02.04.03.07.03-.06.06-.11.13-.16.2-.06.08.03.18.12.13.33-.19.64-.44.93-.69,0,.04,0,.07.02.11,0,0,0,.02.01.02,0,.01-.02.03-.03.04-.05.08.03.2.12.13.42-.33.82-.68,1.23-1.02-.04.07-.07.14-.08.21-.02.1.09.16.17.13-.11.1-.22.21-.33.31-.05.05.03.13.08.09.65-.39,1.28-.79,1.93-1.17,0,.04,0,.07,0,.11,0,.04.03.07.05.08-.21.17-.41.36-.61.55-.05.05.01.15.08.11.52-.25,1.01-.53,1.5-.83,0,.04.02.07.05.09.02.01.03.03.05.04,0,0,.01,0,.02,0-.18.16-.34.33-.5.5-.07.08.03.18.12.13.52-.3,1.01-.65,1.51-.99.03.02.07.03.11,0,.1-.08.19-.16.27-.25.07-.04.14-.09.21-.13-.15.14-.3.28-.44.44-.2.14-.4.29-.59.46-.07.06-.02.19.08.15.42-.17.83-.37,1.24-.58.03.05.09.08.16.06.09-.04.18-.08.26-.13-.12.1-.23.2-.33.31-.07.07.02.22.12.17.34-.17.66-.35.99-.54.01.09.09.17.19.16.11-.01.21-.02.32-.03.08,0,.12-.12.07-.17.24-.13.49-.26.74-.37-.02.03-.02.06-.02.08,0,0,0,0,0,0-.27.16-.53.33-.78.53-.07.05-.02.18.07.14.16-.07.32-.14.48-.22.02.07.07.12.14.13.02,0,.04,0,.07.01.08.01.14-.05.14-.13,0-.09.17-.21.43-.33.09,0,.18.02.28.03,0,.03.01.05.03.08-.05.03-.09.06-.14.09-.09.06-.02.19.08.16.28-.08.55-.18.82-.28.01,0,.02,0,.03,0,0,0-.01,0-.02.01-.07.04,0,.14.06.12.11-.03.22-.07.34-.1.04,0,.08,0,.12.01.17.02.34.04.51.06.01.02.03.03.05.02.02,0,.04,0,.05,0,.57.08,1.13.19,1.69.31.03,0,.06-.04.02-.06-.34-.15-.69-.26-1.05-.35.14-.02.28-.04.42-.06.57.18,1.14.4,1.68.64.04.02.07-.04.03-.06-.42-.23-.84-.44-1.28-.62.11,0,.23-.01.34,0,.1,0,.2,0,.3.01.84.31,1.67.69,2.47,1.05.05.02.09-.04.05-.08-.36-.27-.74-.51-1.14-.73.11.01.22.03.33.04.76.38,1.51.78,2.29,1.15.07.03.11-.06.05-.1-.43-.28-.9-.6-1.41-.94.13.02.25.03.38.05.82.42,1.61.88,2.39,1.37.04.03.09-.04.05-.08-.48-.41-1-.8-1.56-1.16.05,0,.09.02.14.02.76.42,1.5.92,1.91,1.59.02.04.07,0,.05-.04-.31-.57-.79-1.03-1.34-1.43.11.02.22.05.33.08.16.09.32.18.48.27.16.11.33.22.49.34.02.01.04.01.06,0,.21.14.43.29.64.44.04.03.08,0,.09-.03.22.14.44.28.66.42.03.02.08-.03.05-.06-.27-.3-.57-.58-.89-.84.46.22.91.49,1.32.83.05.04.11-.03.07-.08-.69-.77-1.76-1.37-2.93-1.76-.04-.02-.09-.05-.13-.07-.01-.01-.03-.03-.04-.04,1.33.47,3.19,1.11,3.85,2.41.03.06.11.03.1-.03ZM157.39,97.88c-.26.54-.48,1.12-.53,1.68-.15-.55.44-1.64.67-2.11,0,0,0-.02.01-.02-.06.15-.11.3-.16.45ZM161.44,95.93c.07-.07.13-.14.19-.21.15-.1.3-.19.46-.29-.12.11-.24.21-.36.32-.04.03-.09.05-.13.08-.05.03-.1.06-.15.09ZM161.59,97.76c.29-.32.66-.59,1.04-.83-.37.27-.73.55-1.04.83ZM164.3,94.86s-.02.01-.03.02c-.04.01-.07.02-.11.04.04-.02.09-.04.13-.06ZM162.9,95.05c.1-.04.21-.07.31-.09-.16.08-.32.16-.48.24.06-.05.11-.1.17-.15ZM163.01,95.77s.08-.07.13-.11c.18-.1.37-.19.55-.29-.04.03-.07.07-.11.1-.19.09-.38.19-.57.3ZM163.47,97.09c.08-.11.17-.21.27-.3.01.03.02.05.04.08-.1.07-.2.15-.3.23ZM164.54,97.08s0,0,0,0c0,0,0,0,.02-.01,0,0-.01.01-.02.02ZM164.13,95.5s-.07-.01-.11,0c0,0-.01,0-.02-.01.21-.13.43-.25.63-.34-.17.11-.34.23-.5.35ZM165.67,96.26c-.13.08-.25.16-.37.25.14-.11.29-.22.43-.33,0,0,0,0,.01,0-.02.03-.05.05-.07.08ZM166.24,94.85s-.01,0-.02,0c.15-.11.3-.22.45-.33.1-.07.19-.14.29-.21.35-.16.71-.31,1.08-.45-.17.11-.35.22-.52.34-.44.19-.87.4-1.28.64ZM169.08,96.39s-.04,0-.07,0c.1-.03.2-.07.3-.11-.08.03-.16.07-.23.11ZM169.4,94.89c-.12.03-.25.07-.39.1.06-.03.11-.06.17-.09.05-.03.05-.09.01-.11.11-.03.21-.07.32-.1.17-.05.33-.1.5-.15-.2.11-.41.23-.61.34ZM170.5,94.61c-.1.02-.2.05-.3.07.03-.02.06-.03.08-.05.14-.08.28-.17.42-.26.17-.04.35-.08.52-.1-.24.11-.49.22-.73.34ZM171.64,94.42c-.09,0-.18.02-.26.03.15-.08.31-.17.46-.25.12,0,.24,0,.36,0h0c-.19.07-.37.14-.56.22ZM175.79,95.49c-.23-.09-.45-.17-.68-.24-.05-.02-.11-.04-.16-.06.19.04.37.09.56.16.12.05.25.1.37.15-.03,0-.06,0-.08-.01Z"/>
        <g>
          <g>
            <path class="cls-7" d="M127.61,120.95c-.01,3.44-2.79,6.2-6.22,6.19-3.43-.01-6.2-2.79-6.19-6.23s2.8-6.2,6.23-6.19c3.43.01,6.2,2.81,6.19,6.23Z"/>
            <path class="cls-7" d="M173.77,121.08c-.01,3.44-2.8,6.2-6.23,6.19s-6.2-2.79-6.19-6.23,2.8-6.2,6.23-6.19c3.43.01,6.2,2.81,6.19,6.23Z"/>
          </g>
          <path class="cls-6" d="M144.19,142.05c1.39,0,2.7.36,3.84.98.36.19.69-.28.39-.55-1.12-1.01-2.6-1.62-4.22-1.63-1.62,0-3.11.59-4.24,1.59-.3.27.03.75.38.56,1.15-.61,2.46-.95,3.85-.94Z"/>
        </g>
      </g>
    </g>
  </g>
</svg>