<?xml version="1.0" encoding="UTF-8"?><svg xmlns="http://www.w3.org/2000/svg" xmlns:xlink="http://www.w3.org/1999/xlink" viewBox="0 0 284.93 302"><defs><style>.cls-1{fill:none;}.cls-2{filter:url(#outer-glow-17);}.cls-3{clip-path:url(#clippath);}.cls-4,.cls-5{fill:#fff;}.cls-6{fill:#a05a90;}.cls-7{fill:#c3c3c3;}.cls-8{fill:#d78dbc;}.cls-9,.cls-10{fill:#502b19;}.cls-11{clip-path:url(#clippath-1);}.cls-10{stroke:#502b19;stroke-width:.99px;}.cls-10,.cls-5,.cls-12{stroke-miterlimit:10;}.cls-5{stroke:#fff;stroke-width:.83px;}.cls-13{opacity:.6;}.cls-12{stroke:#000;stroke-width:1.66px;}</style><filter id="outer-glow-17" filterUnits="userSpaceOnUse"><feOffset dx="0" dy="0"/><feGaussianBlur result="blur" stdDeviation="5"/><feFlood flood-color="#f6ff00" flood-opacity=".41"/><feComposite in2="blur" operator="in"/><feComposite in="SourceGraphic"/></filter><clipPath id="clippath"><path class="cls-1" d="m65.31,199.99c-6.6,5.23-19.3.19-28.37-11.25-9.08-11.44-11.08-24.95-4.49-30.18,6.6-5.23,19.3-.2,28.37,11.24,9.07,11.45,11.08,24.96,4.49,30.19Z"/></clipPath><clipPath id="clippath-1"><path class="cls-1" d="m191.3,221.86c4.57,7.07,18.21,6.36,30.47-1.57,12.25-7.93,18.47-20.1,13.91-27.16-4.59-7.07-18.22-6.36-30.48,1.57-12.26,7.94-18.48,20.1-13.9,27.16Z"/></clipPath></defs><g id="Platforms"><path class="cls-8" d="m12.51,283.16h259.92c2.78,0,5.04-2.26,5.04-5.04l4-127.92c0-2.78-2.26-5.04-5.04-5.04H8.51c-2.78,0-5.04,2.26-5.04,5.04l3,127.92c0,2.78,3.26,5.04,6.04,5.04Z"/><path d="m6.46,278.12c0,2.78,3.26,5.04,6.04,5.04h259.92c2.78,0,5.04-2.26,5.04-5.04H6.46Z"/></g><g id="Bells"><g class="cls-2"><path class="cls-6" d="m232.19,179.3c.11,3.84-.44,7.58-1.19,11.34-.96,4.77-2.38,9.38-4.41,13.8-3.21,7.07-8.23,12.62-14.56,17.02-7.5,5.21-15.92,8.27-24.64,10.63-11.17,3.01-22.54,4.23-34.09,4.03-8.21-.13-16.38-.76-24.5-1.97-1.86-.26-3.71-.59-5.54-.89-9.3-1.39-18.44-3.48-27.41-6.22-15.88-4.84-30.46-12.18-43.18-22.94-5.27-4.48-9.86-9.56-13.26-15.62-3.58-6.42-5.28-13.32-5.28-20.69,0-5.25.43-10.46,1.6-15.56,2.02-8.86,6.61-16.14,13.47-22.05,3.37-2.91,7.2-5.13,11.03-7.35,1.41-.82,2.81-1.65,3.99-2.79.93-.87,1.72-1.87,1.97-3.11.59-2.95,1.82-5.64,3.38-8.16,6.37-10.33,11.78-21.23,18.56-31.33,4.37-6.51,9.53-12.29,15.84-16.97.75-.56,1.51-1.11,2.3-1.62,2.54-1.72,5.24-3.2,7.78-5.02,3.74-2.64,8.15-3.71,12.61-4.47,6.71-1.13,13.41-1.12,20.17-.43,7.7.81,15.22,2.45,22.47,5.19,4.97,1.88,9.79,4.1,13.91,7.48,7.95,6.52,14.64,14.09,18.86,23.61,2.68,6.09,4.61,12.42,5.97,18.92,2.01,9.64,3.86,19.31,5.89,28.95.55,2.5.82,5.07.5,7.66-.24,1.99.52,3.75,1.67,5.34,1.86,2.56,4.12,4.82,6.13,7.29,6.12,7.58,9.68,16.14,9.97,25.95Z"/><path class="cls-1" d="m119.06,74.43c.65-3.93,6.6-6.22,13.32-5.11"/><g class="cls-13"><g class="cls-3"><path class="cls-4" d="m42.86,160.78c1.65,18.07,11.74,36.95,29.66,43.31,4.38,1.55,9.08,2.16,13.7,1.78,1.84-.15,1.85-3.04,0-2.89-17,1.42-30.87-11.56-36.78-26.54-1.98-5.01-3.21-10.3-3.7-15.66-.17-1.83-3.05-1.85-2.89,0h0Z"/></g></g><g class="cls-13"><g class="cls-11"><path class="cls-4" d="m222.49,190.71c-6.82,15.39-21.24,29.39-38.93,29.84-4.37.11-8.76-.68-12.78-2.42-1.69-.73-3.16,1.75-1.46,2.49,16.86,7.3,35.46-.83,46.72-14.14,3.66-4.32,6.65-9.15,8.94-14.32.75-1.68-1.74-3.15-2.49-1.46h0Z"/></g></g><rect class="cls-12" x="149.54" y="48.38" width="7.78" height="19.85" transform="translate(71.02 200.25) rotate(-80.67)"/><path class="cls-12" d="m181.19,41.1c-1.41,8.58-9.27,14.79-18.94,15.85-2.41.26-4.95.2-7.52-.22-3.37-.55-6.48-1.68-9.21-3.24-7.6-4.37-12.14-12.11-10.84-20.02,1.77-10.75,13.6-17.75,26.44-15.64,12.86,2.11,21.83,12.53,20.07,23.28Z"/><path class="cls-4" d="m147.84,33.62l-5.93-.97-2.06,2.92-2.25-.37,9.13-12.74,4.33,14.95-2.29-.38-.93-3.41Zm-.55-1.99l-1.32-4.77-2.88,4.08,4.21.69Z"/><path class="cls-4" d="m161.31,24.87l-.18,1.07-1.57-.26-.52,1.71,1.43.23-.18,1.07-1.57-.26-.86,2.84-1.11-.33.82-2.7-1.91-.31-.86,2.84-1.12-.33.83-2.73-1.47-.24.17-1.04,1.63.27.52-1.71-1.49-.25.18-1.07,1.63.27.8-2.66,1.1.33-.77,2.52,1.9.31.81-2.66,1.1.33-.77,2.52,1.44.24Zm-2.91.62l-1.89-.31-.52,1.71,1.91.31.51-1.71Z"/><path class="cls-4" d="m157.17,50.49l2.14-13.05,2.08.34c.93.15,1.65.34,2.18.57.53.23.97.53,1.29.92.33.4.57.86.72,1.39.15.54.18,1.07.1,1.58-.15.93-.66,1.66-1.53,2.19.7.36,1.21.87,1.54,1.53.33.66.44,1.37.31,2.15-.17,1.02-.69,1.82-1.57,2.4-.53.36-1.1.57-1.7.65-.65.06-1.45.01-2.4-.14l-3.17-.52Zm2.39-1.51l1.29.21c.94.16,1.67.1,2.17-.18.53-.3.84-.74.94-1.32.09-.56-.05-1.07-.44-1.53-.37-.45-1.12-.77-2.25-.95l-1.06-.17-.65,3.95Zm.92-5.59l.65.11c.78.13,1.37.06,1.79-.21.41-.26.67-.71.78-1.34.1-.61,0-1.11-.33-1.49-.32-.38-.83-.63-1.54-.74l-.74-.12-.62,3.79Z"/><path class="cls-4" d="m171.58,35.03l-.83,5.03c.67-.47,1.38-.65,2.11-.53.85.14,1.5.55,1.97,1.24.47.68.63,1.47.48,2.35-.15.91-.56,1.62-1.22,2.12-.66.5-1.42.68-2.28.54-.73-.12-1.33-.49-1.82-1.11l-.1.62-1.45-.24,1.69-10.26,1.45.24Zm2.24,7.91c.09-.57,0-1.05-.26-1.46-.27-.42-.66-.67-1.15-.75-.53-.09-1,.02-1.39.31-.39.29-.63.72-.72,1.28-.09.58,0,1.06.26,1.46.27.41.67.65,1.2.74.5.08.95-.03,1.34-.32.39-.3.63-.72.72-1.25Z"/><line class="cls-5" x1="171.44" y1="30.09" x2="144.17" y2="42.88"/><path class="cls-7" d="m171.49,208.44c-2.02-2.74-2.99-6.02-3.82-9.18-.45-1.73-.88-3.47-1.33-5.2,1.04.2,2.14.23,3.29.04-1.47-2.61-1.91-5.92-2.23-9.13-.8-8.04-1.07-16.58-5.91-21.15-3.83-3.76-10.48-9.94-16.9-8.93-1.94-6.2-10.42-9.43-15.49-11.2-6.24-2.32-14.02,1.21-21.59,4.06-3.03,1.14-6.19,2.21-9.17,2.04.43,1.42,1.13,2.62,2.04,3.59-1.62.34-3.25.7-4.87,1.03-3.2.66-6.57,1.24-9.92.64,2.66,5.61,9.51,8.6,15.51,7.67-1.05.19-2.33.8-3.45,1.1,2.83,1.97,6.78.29,10.01.35-.71.57-1.39,1.86-2.1,2.43,2.91,2.96,9.95,3.15,14.28,1.91-.9.94-1.78,2.6-3.01,3.37,2.63,2.34,6.75,2.64,10.22,1.88-.2.37-.49.92-.78,1.48,1.52,1.83,3.53,1.95,5.58,1.2.23,2.17,1.23,3.91,3.55,4.47.37-.51.73-1.02.98-1.36.85,3.44,2.94,7.01,6.21,8.33.15-1.44,1.24-2.96,1.68-4.19.8,4.44,4.08,10.66,8.03,11.96.19-.89,1.05-2.07,1.25-2.96,1.48,2.87,1.72,7.16,4.74,8.82-.23-1.13-.24-2.55-.54-3.57,1.82,5.8,7.53,10.61,13.74,10.52Zm-34.03-42.41c.1-.05.19-.1.29-.15,0,.23,0,.45,0,.67-.09-.18-.19-.35-.29-.52Z"/><path class="cls-7" d="m114.85,82.72c.86-1.17,2.81-1.5,4.19-1.74-.02.01-.03.02-.05.03-.05.01-.09.03-.14.05-1.21.19-2.37.61-3.18,1.25-.05.04,0,.12.05.09.47-.27.95-.46,1.44-.6-.37.21-.71.43-1.02.68-.03.02,0,.08.04.07.24-.1.48-.21.72-.31,0,.03.04.06.08.04.23-.12.46-.22.7-.33.02.01.04.01.06,0,.18-.09.36-.17.54-.25.17-.07.34-.13.51-.19.11,0,.22-.02.34-.02-.6.3-1.16.68-1.56,1.19-.02.03.02.08.05.04.51-.59,1.32-.97,2.14-1.25.05,0,.09,0,.14,0-.61.27-1.19.57-1.73.89-.04.03-.01.1.04.08.84-.35,1.71-.68,2.58-.96.13,0,.25,0,.38.02-.55.25-1.07.49-1.54.69-.07.03-.04.13.03.11.83-.23,1.64-.51,2.45-.76.11,0,.22.01.33.02-.42.14-.84.32-1.24.53-.05.03-.01.1.04.08.84-.22,1.72-.46,2.6-.62.1,0,.2.02.3.04.11.02.22.04.33.07-.46.11-.91.24-1.36.4-.04.01-.02.07.02.06.58-.15,1.17-.27,1.77-.35.14.04.27.08.4.12-.37.03-.73.08-1.09.17-.04,0-.02.06.01.06.57-.02,1.14-.04,1.72-.02.02,0,.03.01.05.02.03,0,.04,0,.06-.01.17,0,.34.01.51.02.04,0,.08,0,.12,0,.11.05.21.1.32.15.06.03.14-.05.08-.1,0,0-.01,0-.02-.01.01,0,.02,0,.03,0,.25.14.5.29.76.42.09.05.18-.07.11-.15-.04-.04-.08-.08-.12-.11.02-.02.04-.04.04-.07.09,0,.18.02.28.02.23.16.39.3.37.39-.01.08.03.15.12.15.02,0,.04,0,.07,0,.07,0,.13-.05.16-.11.15.1.29.2.44.29.08.05.16-.06.1-.13-.21-.23-.44-.44-.68-.65,0,0,0,0,0,0,0-.03,0-.06,0-.08.23.16.45.32.67.49-.06.04-.04.16.04.18.1.03.21.06.31.08.1.03.19-.04.22-.13.29.23.58.47.89.69.09.06.21-.06.15-.15-.08-.12-.17-.24-.27-.36.08.06.16.12.24.17.06.04.13.02.17-.03.37.27.74.54,1.13.78.09.05.16-.07.1-.13-.16-.19-.32-.37-.5-.55-.11-.17-.23-.34-.36-.5.06.05.12.11.18.16.07.1.14.2.23.29.03.03.07.04.11.02.44.41.86.84,1.33,1.22.08.06.2-.02.14-.11-.12-.2-.26-.39-.41-.58,0,0,.01,0,.02,0,.02,0,.04-.02.06-.03.03-.02.06-.05.07-.08.43.37.88.73,1.35,1.06.06.04.14-.04.1-.1-.16-.22-.33-.44-.51-.64.03,0,.06-.03.07-.07,0-.04.01-.07.02-.11.58.48,1.13.98,1.71,1.47.05.04.14-.02.1-.08-.09-.12-.18-.24-.27-.36.07.05.19,0,.18-.1,0-.07-.02-.15-.05-.22.35.4.69.81,1.05,1.21.07.08.17-.03.14-.11,0-.01-.01-.03-.02-.04,0,0,.01-.01.02-.02.02-.03.03-.07.04-.1.25.3.51.6.8.84.08.06.19-.02.14-.11-.04-.08-.08-.15-.13-.22.03,0,.05,0,.07-.02.09.15.13.25.12.25-.09.05-.06.16.02.2,0,.03.03.06.07.08.19.06.3.04.36-.03,0,.01,0,.03,0,.04,0,.07.05.12.11.14.05.13.11.26.16.39.07.16.31.07.25-.1-.03-.09-.06-.19-.09-.28,0-.03-.03-.05-.05-.05-.02-.04-.04-.09-.05-.13.02-.06.03-.13.03-.19,0,0,0,.02.01.03.05.08.14.05.18-.01.11.4.21.81.3,1.23-.02.02-.04.06-.02.09.03.06.05.13.08.19.07.17.34.16.34-.05,0,0,0,0,0,0,.06.04.15.03.17-.06.02-.08.03-.16.04-.25.01.04.04.07.08.08.03,0,.06.01.09.02.07.01.14,0,.19-.05-.02.15.16.26.28.14.1-.11.15-.26.17-.44.5-.93.09-2.57-.15-3.47-.33-1.24-.98-2.26-2.03-3-.06-.05-.14.06-.08.11,1.06.92,1.72,2.42,1.92,3.93-.01-.03-.02-.05-.03-.08-.17-.59-.41-1.15-.69-1.71-.05-.1-.18,0-.14.09,0,0,0,0,0,0-.22-.35-.46-.68-.71-.99-.03-.03-.08,0-.05.04.55.87.97,1.76,1.32,2.7.03.13.05.25.07.38.05.29.08.58.1.86-.04-.14-.08-.29-.11-.42-.18-1.32-.76-2.77-1.66-3.73-.03-.04-.08.02-.06.05.31.57.64,1.12.89,1.72-.07-.11-.14-.21-.22-.32,0-.01-.02-.02-.03-.02-.32-.73-.74-1.41-1.23-1.96-.02-.03-.06,0-.05.03.38.68.76,1.35,1.05,2.08-.36-.67-.8-1.29-1.34-1.83-.06-.06-.15.02-.11.09.63.93,1.2,1.87,1.59,2.92-.45-1.03-1.07-1.99-1.78-2.82-.33-.56-.69-1.11-1.13-1.57-.02-.02-.07,0-.06.03.51,1,1.14,1.94,1.62,2.95.24.51.46,1.02.66,1.54-.01-.01-.02-.03-.03-.04-.04-.07-.07-.13-.1-.19-.38-.75-.77-1.71-1.44-2.27-.28-.46-.56-.92-.87-1.37-.06-.08-.39-.61-.53-.3-.01.02.02.04.04.02.14-.13.56.68.62.77.15.25.29.5.43.75.03.05.05.1.08.14-.32-.45-.67-.88-1.05-1.29-.05-.05-.13.02-.09.07.07.12.34.54.68,1.09-.24-.34-.51-.65-.81-.89-.5-.67-1.04-1.33-1.66-1.85-.04-.03-.09.02-.06.06.38.55.8,1.07,1.22,1.59-.01.03,0,.08.03.1.09.06.32.37.63.8-.14-.09-.28-.18-.42-.25-.13-.15-.26-.31-.39-.46-.6-.69-1.19-1.42-1.88-2.02-.03-.03-.07.02-.05.05.55.76,1.21,1.45,1.81,2.17.02.03.05.06.07.09-.12-.03-.25-.06-.37-.07-.02-.01-.04-.02-.05-.03-.64-.76-1.34-1.47-2.11-2.07-.03-.02-.07.01-.04.04.48.53.96,1.06,1.43,1.6-.21-.12-.43-.22-.65-.32-.51-.51-1.05-.99-1.61-1.41-.02-.02-.05.01-.03.03.38.44.77.86,1.17,1.27,0,.02,0,.05.03.06.03.02.07.05.1.07.12.12.23.24.35.36-.05.01-.07.08-.02.12.11.07.22.14.32.2.05.06.1.11.16.17-.14-.1-.3-.2-.45-.21-.75-.85-1.64-1.61-2.48-2.32-.03-.03-.07.02-.04.05.57.52,1.11,1.06,1.63,1.62-.38-.25-.76-.49-1.16-.71-.32-.31-.64-.61-.99-.88-.02-.02-.05.01-.03.03.16.19.33.38.5.56-.31-.16-.62-.31-.92-.46-.05-.04-.09-.08-.14-.11-.02-.02-.05,0-.05.03-.09-.04-.18-.08-.26-.12-.09-.04-.16.09-.08.13.23.12.45.24.68.36.08.08.16.17.24.25-.25-.15-.5-.3-.75-.44-.08-.04-.14.07-.07.12.57.36,1.11.76,1.63,1.18.08.09.16.17.24.26-.05-.02-.1-.03-.15-.05-.07-.04-.13-.09-.2-.13-.29-.23-.59-.44-.9-.64-.07-.05-.13-.09-.2-.13,0,0,0,0-.01,0-.49-.31-1-.58-1.5-.84-.09-.04-.16.09-.08.13.36.19.69.4,1.02.61,0,0,0,0-.01,0-.53-.32-1.08-.58-1.66-.8-.22-.13-.44-.25-.67-.35-.04-.02-.07.04-.04.06.49.39,1.02.72,1.53,1.08-.24-.1-.48-.21-.73-.3-.4-.34-.83-.71-1.31-.81-.03,0-.04.03-.01.05.32.17.61.39.89.62-.16-.04-.33-.07-.49-.08-.33-.21-.66-.42-.98-.62-.03-.02-.06.03-.03.05.24.19.48.38.72.57-.04,0-.08,0-.11,0-.04,0-.07.06-.04.09-.31-.17-.63-.32-.95-.45-.03-.01-.05.03-.03.04.31.2.61.39.92.59-.02,0-.04,0-.05,0-.32-.18-.66-.33-.98-.43-.04-.01-.07.04-.03.06.16.1.32.19.48.29-1.33-.37-2.9-.32-3.98.29-.05.03,0,.11.05.08,1.09-.54,2.3-.43,3.47-.12.2.07.41.13.61.21-.15-.02-.3-.03-.46-.03-.82-.21-1.66-.33-2.52-.14-.76.17-1.54.39-2.27.72-.5.08-.98.17-1.46.27-1.3.28-3.17.6-3.81,1.94-.03.06.05.1.09.05Zm24.89,2.25s0,.02,0,.03c.15.5.55,1.67.31,2.19.05-.56-.07-1.17-.24-1.74-.02-.16-.05-.31-.08-.47Zm-3.74-2.24s-.08-.07-.12-.1c-.1-.13-.2-.25-.3-.38.14.12.27.24.4.36.05.08.1.16.16.24-.05-.04-.09-.08-.14-.12Zm-1.2.9c.34.31.66.64.89,1-.27-.33-.57-.67-.89-1Zm-1.18-2.23s-.07-.04-.1-.05c0,0-.01-.02-.02-.02.04.03.08.05.12.08Zm1.37.52c-.14-.11-.29-.21-.44-.32.1.04.2.09.29.14.05.06.1.12.14.18Zm-.89.12s-.06-.08-.09-.12c.17.12.34.25.5.37.04.04.07.09.11.13-.17-.13-.34-.26-.51-.39Zm-.42,1.34s.03-.05.05-.07c.08.11.15.23.21.34-.09-.09-.17-.18-.26-.27Zm-.8.07s.02.02.02.01c0,0,0,0,0,0,0,0-.01-.01-.02-.02Zm.24-1.9c.18.11.38.27.56.43,0,0-.01,0-.02.01-.04-.02-.07-.02-.11-.02-.14-.15-.29-.29-.44-.43Zm-1.26.84s0,0,.01,0c.12.13.25.27.37.39-.11-.1-.22-.21-.33-.31-.02-.03-.04-.06-.05-.09Zm-1.44-2.24c-.15-.14-.3-.28-.45-.42.34.2.67.4.99.62.08.08.17.17.25.25.13.13.26.26.39.4,0,0,0,0-.01-.01-.37-.3-.76-.58-1.16-.84Zm-2.1,1.74c.09.05.18.11.27.16-.02,0-.04,0-.07-.01-.06-.05-.13-.1-.21-.14Zm-.42-1.82c.16.08.32.15.47.23.1.05.2.1.3.15-.04.02-.05.08,0,.11.05.04.1.08.15.12-.13-.06-.25-.12-.37-.17-.18-.15-.36-.29-.55-.44Zm-1.15-.48c.17.06.33.12.5.19.12.11.25.22.38.32.02.02.05.04.07.06-.1-.04-.19-.08-.29-.12-.22-.16-.44-.31-.66-.46Zm-.94-.23h0c.12.01.24.04.36.06.14.11.27.21.41.32-.08-.03-.17-.05-.25-.08-.17-.11-.34-.21-.51-.31Zm-3.84.68c.13-.03.26-.06.39-.09.2-.04.39-.06.58-.07-.06.01-.11.02-.17.03-.24.03-.48.07-.72.13-.03,0-.06,0-.09,0Z"/><path class="cls-7" d="m191.87,95.34c-.18-1.47-1.85-2.38-2.99-3.06-.42-.25-.85-.5-1.3-.73-.59-.54-1.26-1.01-1.93-1.41-.76-.46-1.59-.61-2.44-.67-.15-.04-.3-.08-.44-.12.21,0,.43,0,.64,0,1.2.08,2.39.36,3.25,1.23.04.04.11-.02.07-.06-.82-.93-2.29-1.47-3.67-1.55.18-.04.36-.08.55-.12.04,0,.04-.07,0-.07-.34,0-.71.03-1.07.09-.02,0-.04,0-.05,0,.35-.09.7-.18,1.06-.27.03,0,.02-.05-.01-.05-.35.02-.7.06-1.05.12.03-.02.03-.08-.01-.1-.03-.02-.07-.03-.11-.05.29-.1.58-.21.87-.31.03-.01.02-.06-.01-.06-.37.09-.75.18-1.13.27-.16-.04-.33-.07-.49-.08.34-.13.68-.24,1.04-.31.03,0,.03-.04,0-.05-.49-.06-1.02.14-1.5.34-.26,0-.52.03-.78.05.6-.18,1.21-.33,1.8-.54.04-.01.02-.08-.02-.07-.25.02-.5.06-.75.12-.61.02-1.23.09-1.83.23,0,0,0,0-.01,0,.38-.1.77-.19,1.17-.25.1-.02.07-.16-.03-.15-.56.08-1.13.18-1.69.31,0,0,0,0-.01,0-.08.02-.15.04-.23.06-.36.09-.71.2-1.06.32-.08.02-.15.04-.23.06-.05,0-.1,0-.16,0,.1-.05.21-.11.31-.16.63-.23,1.27-.44,1.92-.6.09-.02.06-.15-.03-.13-.29.06-.57.12-.86.18.1-.05.21-.11.31-.16.25-.05.5-.09.76-.12.1-.01.07-.16-.03-.15-.1.01-.19.02-.29.03,0-.02,0-.05-.04-.04-.06.02-.11.04-.17.07-.33.04-.68.09-1.02.14.22-.12.44-.24.65-.37.02-.01,0-.05-.02-.04-.41.15-.82.33-1.21.52-.44.08-.89.18-1.32.3.67-.37,1.36-.71,2.06-1.01.04-.02.02-.07-.02-.06-1.02.4-2.11.84-3.09,1.4-.15-.04-.33,0-.5.06.07-.04.13-.07.2-.11.12-.03.25-.06.37-.09.06-.01.06-.09.02-.12.15-.08.3-.16.44-.23.04-.01.08-.02.12-.03.02,0,.04-.03.05-.05.51-.27,1.02-.53,1.51-.83.02-.01,0-.05-.02-.04-.67.22-1.33.5-1.98.82-.24.02-.48.05-.72.09.61-.36,1.24-.7,1.87-1.06.03-.02,0-.06-.03-.05-.92.32-1.81.77-2.66,1.29-.02,0-.04.01-.06.02-.12-.03-.25-.05-.37-.05.03-.02.07-.04.1-.06.8-.49,1.64-.94,2.4-1.48.03-.02,0-.08-.03-.06-.84.35-1.64.85-2.43,1.31-.17.1-.35.21-.52.31-.16.02-.32.06-.48.1.43-.32.75-.53.85-.56.05-.01.07-.05.06-.09.56-.36,1.13-.72,1.67-1.12.04-.03,0-.1-.04-.08-.75.29-1.48.74-2.17,1.22-.37.12-.72.34-1.06.58.5-.41.89-.73,1-.82.05-.04,0-.13-.07-.1-.48.27-.95.57-1.4.89.04-.04.08-.07.12-.11.22-.19.43-.38.65-.57.08-.07.75-.7.83-.53.01.02.05.02.04-.01-.03-.34-.52.06-.6.12-.43.32-.85.66-1.26,1.02-.81.31-1.5,1.09-2.09,1.69-.05.05-.1.1-.16.15-.02.01-.03.02-.05.03.36-.43.73-.85,1.12-1.25.78-.81,1.68-1.5,2.48-2.28.03-.03-.01-.06-.04-.05-.56.3-1.08.7-1.57,1.13-.94.56-1.84,1.27-2.59,2.1.71-.88,1.55-1.59,2.44-2.26.06-.05,0-.15-.08-.12-.69.34-1.3.79-1.86,1.3.51-.59,1.08-1.11,1.66-1.63.03-.02,0-.06-.03-.05-.64.36-1.26.88-1.79,1.47-.01,0-.02,0-.04,0-.11.07-.21.15-.31.23.43-.49.92-.9,1.4-1.34.03-.03,0-.09-.04-.07-1.16.62-2.18,1.8-2.77,3-.08.11-.16.23-.24.36.11-.27.23-.53.37-.79.06-.11.12-.23.19-.34.63-.77,1.31-1.48,2.11-2.13.03-.03,0-.08-.04-.05-.34.21-.67.45-.99.71,0,0,0,0,0,0,.07-.08-.03-.2-.11-.13-.44.44-.84.9-1.2,1.4-.02.02-.04.04-.06.07.67-1.37,1.78-2.57,3.08-3.11.07-.03.03-.15-.04-.13-1.23.36-2.17,1.13-2.88,2.19-.51.78-1.43,2.2-1.25,3.24-.04.18-.04.34.02.47.07.15.28.1.31-.05.03.06.09.1.16.11.03,0,.06,0,.09.01.04,0,.08-.01.1-.05-.02.08-.03.16-.04.25,0,.09.07.13.14.11,0,0,0,0,0,0-.07.19.18.29.3.16.05-.05.09-.1.14-.15.03-.03.02-.06.01-.09.22-.37.44-.73.68-1.07.02.07.09.13.16.07,0,0,.02-.01.02-.02-.02.06-.03.13-.03.19-.03.04-.06.07-.09.11-.02,0-.04.01-.06.04-.06.08-.12.16-.18.24-.1.14.1.31.21.17.09-.11.18-.21.27-.31.06,0,.13-.03.15-.1,0-.01,0-.02.01-.04.04.08.14.14.34.14.04,0,.07-.02.09-.05.08-.02.16-.12.08-.19,0,0,.06-.08.2-.2.02.02.04.03.06.04-.07.05-.13.11-.19.17-.07.07,0,.18.1.15.36-.13.7-.33,1.03-.53,0,.04,0,.07,0,.11,0,0,0,.02,0,.03-.01.01-.02.02-.03.03-.06.07,0,.2.09.15.47-.26.91-.54,1.38-.81-.05.06-.09.13-.12.2-.04.09.06.17.14.15-.13.08-.25.17-.37.26-.06.04,0,.13.07.11.7-.28,1.39-.58,2.09-.85,0,.04-.01.07-.02.11,0,.04.01.07.04.09-.24.14-.47.28-.69.44-.06.04,0,.15.06.13.55-.16,1.08-.36,1.62-.58,0,.04.01.07.04.1.01.02.03.03.04.05,0,0,0,0,.01.01-.2.13-.39.27-.57.42-.08.07,0,.19.1.15.56-.21,1.1-.48,1.65-.73.03.03.07.04.11.02.11-.06.21-.13.31-.2.08-.03.15-.06.23-.09-.17.11-.34.23-.5.36-.22.11-.44.23-.65.36-.07.05-.05.18.05.16.44-.1.88-.23,1.32-.37.02.06.08.1.15.08.09-.02.19-.05.28-.08-.13.08-.26.17-.37.25-.08.06-.01.22.09.19.36-.11.71-.24,1.06-.37,0,.09.06.18.16.19.11,0,.22.01.32.02.08,0,.14-.1.09-.16.26-.09.52-.18.79-.25-.02.02-.03.05-.03.08,0,0,0,0-.01,0-.29.11-.58.24-.85.4-.08.04-.04.18.05.15.17-.04.34-.09.51-.14,0,.07.05.13.12.15.02,0,.04.01.06.02.08.03.15-.03.16-.11.01-.09.21-.18.48-.25.09.02.18.05.27.07,0,.03,0,.06.02.08-.05.02-.1.05-.15.07-.1.05-.05.19.06.17.29-.04.57-.09.85-.15.01,0,.02,0,.03,0,0,0-.01,0-.02,0-.07.03-.03.13.04.12.12-.01.23-.03.35-.04.04,0,.07.02.11.03.16.04.33.09.49.14,0,.02.02.03.05.03.02,0,.04,0,.05,0,.55.17,1.08.37,1.62.57.03.01.06-.03.03-.05-.31-.2-.64-.37-.98-.51.14,0,.28,0,.42.01.54.27,1.06.57,1.56.9.03.02.08-.02.04-.05-.38-.3-.76-.57-1.16-.82.11.01.22.03.34.04.1.02.2.04.3.06.78.44,1.54.95,2.27,1.43.04.03.1-.03.06-.07-.32-.33-.65-.63-1.01-.9.11.03.21.06.32.09.69.49,1.37,1.01,2.08,1.5.06.04.12-.05.07-.09-.38-.34-.8-.74-1.24-1.15.12.03.24.07.36.11.74.54,1.45,1.13,2.14,1.73.04.04.1-.03.06-.07-.41-.48-.86-.95-1.35-1.4.04.02.09.03.13.05.69.53,1.33,1.15,1.63,1.87.02.04.07.01.06-.03-.21-.61-.62-1.15-1.09-1.63.1.04.21.09.31.13.14.11.29.23.43.35.14.13.29.27.43.41.02.02.04.02.05.01.19.17.38.35.56.54.03.03.08.02.09-.01.19.17.39.35.59.52.03.03.08-.02.06-.05-.22-.34-.47-.66-.75-.97.42.29.82.63,1.18,1.03.05.05.11-.01.08-.07-.56-.87-1.52-1.64-2.61-2.2-.04-.03-.08-.06-.12-.09-.01-.01-.02-.03-.04-.04,1.23.67,2.98,1.61,3.42,2.99.02.06.11.05.1-.02Zm-24.63-5.39c-.35.49-.65,1.03-.79,1.58-.06-.57.7-1.54,1-1.97,0,0,.01-.01.02-.02-.08.14-.15.28-.23.42Zm4.32-1.28c.08-.06.15-.12.23-.17.16-.07.33-.14.5-.21-.14.09-.27.17-.41.26-.05.02-.1.04-.15.06-.05.02-.11.04-.17.07Zm-.15,1.83c.34-.27.75-.47,1.16-.66-.41.21-.8.43-1.16.66Zm3.13-2.43s-.02.01-.03.02c-.04,0-.07.01-.11.02.05-.01.09-.02.14-.04Zm-1.41-.03c.11-.02.22-.03.32-.04-.17.05-.34.1-.51.16.06-.04.13-.08.19-.12Zm0,.72s.1-.06.14-.09c.2-.07.39-.13.59-.19-.04.03-.08.05-.12.08-.2.06-.41.13-.61.2Zm.25,1.38c.09-.09.2-.18.31-.26,0,.03.02.05.02.08-.11.06-.22.12-.33.18Zm1.05.16s0,0,0,0c0,0,.01,0,.02,0,0,0-.01,0-.02.01Zm-.15-1.62s-.07-.03-.11-.02c0,0,0-.01-.01-.02.23-.09.47-.18.67-.23-.19.08-.37.17-.55.27Zm1.4,1c-.14.06-.27.12-.41.18.15-.08.32-.17.48-.25,0,0,0,0,.01,0-.03.02-.05.04-.08.07Zm.79-1.31s-.01,0-.02,0c.17-.08.33-.17.5-.25.11-.05.21-.11.32-.16.38-.1.75-.19,1.14-.27-.19.08-.38.17-.56.25-.46.12-.92.26-1.37.42Zm2.56,1.97s-.04,0-.07,0c.1-.02.21-.04.31-.06-.08.02-.17.04-.24.07Zm.56-1.42c-.12.01-.26.03-.4.04.06-.02.12-.04.18-.06.05-.02.06-.08.03-.11.11-.02.22-.03.33-.04.17-.02.35-.04.52-.06-.22.08-.44.16-.66.24Zm1.13-.11c-.1,0-.21.01-.31.02.03-.01.06-.02.09-.04.15-.06.31-.12.46-.19.18-.01.35-.02.53-.02-.26.07-.52.14-.77.22Zm1.15,0c-.09,0-.18,0-.27-.01.16-.06.33-.11.49-.17.12.01.24.03.36.06h0c-.2.04-.39.08-.59.13Zm3.92,1.72c-.21-.12-.42-.24-.64-.35-.05-.03-.1-.06-.15-.08.18.07.35.15.53.25.11.07.23.14.34.21-.03,0-.05-.02-.08-.03Z"/><path class="cls-10" d="m130.17,107.98c-.56,3.39-3.75,5.68-7.13,5.12-3.38-.56-5.68-3.74-5.12-7.13s3.75-5.68,7.13-5.12c3.39.56,5.67,3.76,5.12,7.13Z"/><path class="cls-10" d="m175.71,115.46c-.56,3.39-3.75,5.68-7.13,5.12s-5.68-3.74-5.12-7.13,3.75-5.68,7.14-5.12,5.67,3.76,5.12,7.13Z"/><path class="cls-9" d="m143.18,131.45c1.37.23,2.61.79,3.64,1.58.32.25.73-.17.47-.49-.95-1.17-2.31-2.02-3.91-2.28-1.6-.27-3.16.09-4.44.89-.34.22-.09.74.29.61,1.23-.42,2.58-.55,3.95-.32Z"/></g></g></svg>