<?xml version="1.0" encoding="UTF-8"?><svg xmlns="http://www.w3.org/2000/svg" xmlns:xlink="http://www.w3.org/1999/xlink" viewBox="0 0 284.93 302"><defs><style>.cls-1{fill:none;}.cls-2{filter:url(#outer-glow-19);}.cls-3{clip-path:url(#clippath);}.cls-4{fill:#ee5524;}.cls-5,.cls-6,.cls-7{fill:#fff;}.cls-8{fill:#ff5e4d;}.cls-9,.cls-10{fill:#502b19;}.cls-11{clip-path:url(#clippath-1);}.cls-10{stroke:#502b19;stroke-width:.99px;}.cls-10,.cls-6,.cls-12{stroke-miterlimit:10;}.cls-6{stroke:#fff;stroke-width:.83px;}.cls-13{opacity:.6;}.cls-12{stroke:#000;stroke-width:1.66px;}.cls-7{opacity:.74;}</style><filter id="outer-glow-19" filterUnits="userSpaceOnUse"><feOffset dx="0" dy="0"/><feGaussianBlur result="blur" stdDeviation="5"/><feFlood flood-color="#f6ff00" flood-opacity=".41"/><feComposite in2="blur" operator="in"/><feComposite in="SourceGraphic"/></filter><clipPath id="clippath"><path class="cls-1" d="m73.72,205.3c-6.01,5.89-19.17,2.23-29.4-8.18-10.24-10.42-13.66-23.64-7.65-29.54,6.01-5.89,19.17-2.23,29.4,8.18,10.23,10.43,13.66,23.65,7.65,29.54Z"/></clipPath><clipPath id="clippath-1"><path class="cls-1" d="m201.32,213.74c5.29,6.54,18.78,4.4,30.13-4.78,11.34-9.19,16.25-21.94,10.96-28.48-5.31-6.54-18.79-4.4-30.14,4.79-11.35,9.19-16.26,21.94-10.96,28.48Z"/></clipPath></defs><g id="Platforms"><path class="cls-8" d="m12.51,283.16h259.92c2.78,0,5.04-2.26,5.04-5.04l4-127.92c0-2.78-2.26-5.04-5.04-5.04H8.51c-2.78,0-5.04,2.26-5.04,5.04l3,127.92c0,2.78,3.26,5.04,6.04,5.04Z"/><path d="m6.46,278.12c0,2.78,3.26,5.04,6.04,5.04h259.92c2.78,0,5.04-2.26,5.04-5.04H6.46Z"/></g><g id="Bells"><g class="cls-2"><path class="cls-4" d="m237.48,167.1c.52,3.8.36,7.59.01,11.4-.45,4.85-1.38,9.57-2.92,14.19-2.44,7.37-6.85,13.42-12.68,18.46-6.91,5.97-14.96,9.91-23.37,13.17-10.79,4.18-21.97,6.59-33.47,7.61-8.18.73-16.37.98-24.57.63-1.88-.07-3.75-.19-5.61-.3-9.4-.4-18.7-1.51-27.92-3.29-16.3-3.14-31.58-8.89-45.36-18.25-5.72-3.9-10.82-8.46-14.84-14.13-4.23-6.01-6.66-12.69-7.43-20.02-.56-5.22-.68-10.44-.05-15.64,1.07-9.02,4.87-16.75,11.07-23.35,3.04-3.25,6.62-5.86,10.19-8.47,1.32-.96,2.62-1.94,3.67-3.2.84-.96,1.51-2.04,1.63-3.3.27-3,1.22-5.8,2.5-8.47,5.24-10.94,9.47-22.36,15.14-33.11,3.66-6.93,8.18-13.23,13.96-18.55.69-.63,1.38-1.26,2.12-1.85,2.34-1.98,4.87-3.74,7.21-5.81,3.44-3.02,7.72-4.55,12.07-5.78,6.55-1.83,13.22-2.53,20.01-2.56,7.74,0,15.39.83,22.89,2.79,5.14,1.34,10.17,3.04,14.62,5.97,8.6,5.65,16.04,12.46,21.24,21.48,3.31,5.77,5.89,11.86,7.93,18.18,3.02,9.38,5.88,18.8,8.92,28.17.81,2.43,1.36,4.95,1.31,7.56-.03,2,.91,3.67,2.22,5.13,2.12,2.35,4.6,4.36,6.87,6.6,6.89,6.89,11.33,15.03,12.66,24.75Z"/><path class="cls-1" d="m113.89,74.77c.23-3.98,5.91-6.88,12.7-6.49"/><path class="cls-10" d="m125.76,103.33c-.4,3.34-3.41,5.71-6.74,5.32s-5.71-3.41-5.32-6.75c.39-3.32,3.42-5.71,6.75-5.32s5.71,3.42,5.31,6.75Z"/><path class="cls-10" d="m170.59,108.65c-.4,3.34-3.41,5.71-6.74,5.32s-5.71-3.41-5.32-6.75c.39-3.32,3.42-5.71,6.75-5.32s5.71,3.42,5.31,6.75Z"/><path class="cls-9" d="m121.46,77.92c2.43-.24,4.79.15,6.9,1.03.66.27,1.15-.62.58-1.04-2.14-1.56-4.84-2.37-7.68-2.1-2.84.28-5.33,1.59-7.13,3.54-.48.52.18,1.3.77.91,1.9-1.27,4.13-2.1,6.57-2.34Z"/><path class="cls-9" d="m168.04,82.9c2.24.99,4.1,2.48,5.5,4.28.44.56,1.31.03,1.02-.62-1.1-2.41-3.05-4.44-5.66-5.59-2.61-1.15-5.43-1.23-7.95-.41-.68.22-.48,1.22.23,1.17,2.28-.17,4.63.2,6.87,1.18Z"/><path class="cls-9" d="m137.54,129.61c1.35.16,2.58.65,3.62,1.38.32.23.7-.2.44-.5-.98-1.1-2.34-1.87-3.92-2.06-1.58-.19-3.09.23-4.3,1.07-.32.23-.06.73.31.59,1.18-.46,2.5-.65,3.85-.48Z"/><ellipse class="cls-7" cx="135.16" cy="160.29" rx="18" ry="16.5" transform="translate(-46.9 264.28) rotate(-79.6)"/><g class="cls-13"><g class="cls-3"><path class="cls-5" d="m47.3,168.93c3.52,17.64,15.68,35.41,34.05,39.71,4.62,1.08,9.37,1.16,14.03.27,1.82-.35,1.05-3.13-.77-2.78-16.85,3.23-31.95-8.67-39.34-22.93-2.45-4.73-4.14-9.81-5.18-15.03-.36-1.82-3.15-1.05-2.78.77h0Z"/></g></g><g class="cls-13"><g class="cls-11"><path class="cls-5" d="m228.97,179.68c-5.14,16-18.23,31.52-35.79,33.63-4.34.52-8.69.12-12.86-1.18-1.78-.55-2.54,2.23-.77,2.78,17.5,5.47,35.04-4.85,44.79-19.12,3.22-4.71,5.67-9.92,7.42-15.35.57-1.77-2.22-2.53-2.78-.77h0Z"/></g></g><rect class="cls-12" x="142.48" y="45.18" width="7.78" height="19.85" transform="translate(83.03 198.1) rotate(-86.74)"/><path class="cls-12" d="m172.16,35.06c-.5,8.68-7.66,15.69-17.16,17.76-2.37.52-4.9.73-7.5.58-3.41-.19-6.62-.98-9.5-2.25-8.02-3.54-13.35-10.76-12.89-18.77.62-10.88,11.65-19.09,24.64-18.35,13.01.74,23.03,10.16,22.41,21.03Z"/><path class="cls-5" d="m141.6,22.88l-.13,2.36c-1.17-1.03-2.4-1.59-3.71-1.66-1.44-.08-2.68.34-3.72,1.25-1.05.91-1.61,2.07-1.69,3.47-.08,1.38.35,2.58,1.29,3.59.94,1.01,2.13,1.55,3.56,1.63.74.04,1.38-.04,1.92-.23.3-.1.61-.23.93-.41.32-.18.66-.39,1.02-.64l-.14,2.4c-1.25.58-2.53.83-3.87.75-2-.11-3.67-.87-5.01-2.27-1.33-1.41-1.95-3.05-1.84-4.93.1-1.68.77-3.14,2.03-4.4,1.54-1.53,3.47-2.23,5.77-2.1,1.26.07,2.46.46,3.59,1.17Z"/><path class="cls-5" d="m150.68,21.87l-.06,1.08-1.58-.09-.33,1.75,1.45.08-.06,1.08-1.59-.09-.55,2.91-1.14-.21.53-2.77-1.94-.11-.56,2.91-1.15-.21.53-2.8-1.49-.08.06-1.06,1.65.09.34-1.75-1.51-.09.06-1.08,1.65.09.52-2.73,1.13.21-.49,2.59,1.92.11.52-2.73,1.13.21-.5,2.59,1.46.08Zm-2.83.92l-1.92-.11-.33,1.75,1.93.11.32-1.75Z"/><path class="cls-5" d="m147.47,48.52l.75-13.2,2.94.17c1.41.08,2.51.28,3.32.58.86.31,1.63.79,2.31,1.44,1.38,1.33,2,3,1.89,5.02-.12,2.03-.96,3.63-2.54,4.79-.79.58-1.61.98-2.45,1.17-.79.2-1.89.26-3.31.18l-2.9-.17Zm2.22-1.75l.95.05c.95.05,1.74,0,2.38-.15.64-.16,1.23-.45,1.76-.85,1.09-.83,1.68-1.97,1.76-3.41.08-1.45-.36-2.65-1.34-3.61-.88-.86-2.22-1.34-4.02-1.44l-.95-.05-.54,9.46Z"/><path class="cls-5" d="m162.68,31.76l-.29,5.09c.62-.54,1.3-.79,2.04-.75.86.05,1.55.39,2.09,1.03.54.63.78,1.39.73,2.29-.05.92-.38,1.67-.99,2.24-.6.57-1.34.82-2.21.77-.73-.04-1.38-.35-1.92-.91l-.04.63-1.47-.08.59-10.38,1.47.08Zm3.06,7.63c.03-.57-.11-1.05-.42-1.43-.31-.39-.72-.6-1.23-.62-.54-.03-.99.12-1.35.46-.35.33-.55.78-.58,1.35-.03.58.11,1.06.42,1.42.31.37.73.58,1.27.61.51.03.94-.13,1.3-.46.36-.34.55-.78.59-1.32Z"/><line class="cls-6" x1="161.21" y1="25.11" x2="135.45" y2="40.72"/></g></g></svg>