<?xml version="1.0" encoding="UTF-8"?><svg xmlns="http://www.w3.org/2000/svg" xmlns:xlink="http://www.w3.org/1999/xlink" viewBox="0 0 284.93 302"><defs><style>.cls-1{fill:none;}.cls-2{clip-path:url(#clippath);}.cls-3,.cls-4,.cls-5{fill:#fff;}.cls-6{fill:#a05a90;}.cls-7{fill:#d78dbc;}.cls-8,.cls-9{fill:#502b19;}.cls-9{stroke:#502b19;stroke-width:1.2px;}.cls-9,.cls-4,.cls-10{stroke-miterlimit:10;}.cls-11{clip-path:url(#clippath-1);}.cls-4{stroke:#fff;}.cls-10{stroke:#000;stroke-width:2px;}.cls-12{opacity:.6;}.cls-5{opacity:.74;}.cls-13{filter:url(#outer-glow-7);}</style><filter id="outer-glow-7" filterUnits="userSpaceOnUse"><feOffset dx="0" dy="0"/><feGaussianBlur result="blur" stdDeviation="5"/><feFlood flood-color="#f6ff00" flood-opacity=".41"/><feComposite in2="blur" operator="in"/><feComposite in="SourceGraphic"/></filter><clipPath id="clippath"><path class="cls-1" d="m87.78,213.84c-4.96,6.47-18.09,4.75-29.32-3.85-11.24-8.6-16.32-20.83-11.37-27.3,4.96-6.47,18.09-4.75,29.32,3.85,11.24,8.61,16.32,20.83,11.37,27.31Z"/></clipPath><clipPath id="clippath-1"><path class="cls-1" d="m211.37,204.56c5.97,5.56,18.62,1.67,28.27-8.69,9.63-10.36,12.6-23.27,6.64-28.82-5.99-5.56-18.63-1.66-28.27,8.7-9.64,10.36-12.61,23.27-6.64,28.82Z"/></clipPath></defs><g id="Platforms"><path class="cls-7" d="m12.51,283.16h259.92c2.78,0,5.04-2.26,5.04-5.04l4-127.92c0-2.78-2.26-5.04-5.04-5.04H8.51c-2.78,0-5.04,2.26-5.04,5.04l3,127.92c0,2.78,3.26,5.04,6.04,5.04Z"/><path d="m6.46,278.12c0,2.78,3.26,5.04,6.04,5.04h259.92c2.78,0,5.04-2.26,5.04-5.04H6.46Z"/></g><g id="Bells"><g class="cls-13"><path class="cls-6" d="m239.72,154.89c1.01,3.58,1.38,7.23,1.56,10.93.23,4.72-.02,9.39-.87,14.02-1.34,7.4-4.74,13.8-9.65,19.44-5.82,6.67-13,11.55-20.64,15.82-9.78,5.48-20.19,9.32-31.08,11.86-7.75,1.82-15.58,3.17-23.49,3.95-1.81.19-3.63.33-5.42.48-9.07.89-18.15,1.09-27.24.64-16.07-.79-31.51-4.23-46.02-11.34-6.02-2.96-11.53-6.64-16.16-11.54-4.88-5.19-8.12-11.27-9.86-18.19-1.25-4.93-2.07-9.93-2.18-15.01-.2-8.79,2.39-16.73,7.44-23.91,2.48-3.54,5.56-6.52,8.62-9.53,1.13-1.09,2.25-2.21,3.09-3.57.67-1.02,1.17-2.16,1.12-3.38-.15-2.91.38-5.73,1.24-8.47,3.54-11.21,6.05-22.74,10.02-33.83,2.57-7.15,6.05-13.8,10.87-19.7.57-.7,1.16-1.4,1.78-2.07,1.98-2.22,4.17-4.25,6.12-6.56,2.89-3.36,6.78-5.42,10.79-7.19,6.04-2.65,12.34-4.23,18.85-5.18,7.43-1.06,14.88-1.3,22.35-.44,5.12.59,10.17,1.53,14.84,3.74,9.02,4.25,17.09,9.77,23.31,17.72,3.96,5.09,7.27,10.58,10.09,16.37,4.17,8.59,8.2,17.24,12.4,25.81,1.11,2.22,1.97,4.57,2.28,7.08.24,1.93,1.37,3.4,2.83,4.62,2.36,1.96,5.01,3.56,7.49,5.39,7.55,5.67,12.92,12.88,15.52,22.02Z"/><g class="cls-12"><g class="cls-2"><path class="cls-3" d="m57.08,182.44c5.88,16.73,19.91,32.07,38.36,33.89,4.54.45,9.18-.1,13.5-1.58,2.1-.72,1.2-4.07-.92-3.35-15.51,5.31-31.47-3.57-40.48-16.14-3.02-4.21-5.4-8.85-7.12-13.74-.74-2.09-4.09-1.19-3.35.92h0Z"/></g></g><g class="cls-12"><g class="cls-11"><path class="cls-3" d="m232.97,167.83c-2.75,16.01-12.93,32.49-29.4,37.05-3.99,1.1-8.21,1.38-12.31.72-2.18-.36-3.12,2.99-.92,3.35,17.64,2.87,33.29-9.09,40.82-24.31,2.48-5.01,4.2-10.37,5.14-15.88.38-2.18-2.97-3.12-3.35-.92h0Z"/></g></g><rect class="cls-10" x="127.42" y="56.05" width="19.24" height="7.54" transform="translate(-4.54 11.71) rotate(-4.81)"/><path class="cls-10" d="m159.05,37.08c.71,8.4-5.21,16.1-14.04,19.38-2.2.82-4.61,1.37-7.12,1.58-3.3.28-6.49-.04-9.42-.87-8.18-2.3-14.27-8.51-14.93-16.25-.89-10.52,8.58-19.9,21.14-20.96,12.58-1.06,23.49,6.61,24.37,17.13Z"/><path class="cls-3" d="m125.92,37.9l-5.8.49-1.25,3.23-2.2.19,5.56-14.13,7.61,13.03-2.24.19-1.68-2.98Zm-.99-1.74l-2.38-4.17-1.74,4.52,4.12-.35Z"/><path class="cls-3" d="m136.5,26.48l.09,1.05-1.53.13-.08,1.73,1.4-.12.09,1.05-1.54.13-.13,2.87-1.12-.04.13-2.73-1.87.16-.14,2.87-1.13-.04.13-2.76-1.44.12-.09-1.02,1.6-.13.08-1.73-1.46.12-.09-1.05,1.6-.13.12-2.69,1.12.04-.12,2.55,1.86-.16.13-2.69,1.12.04-.12,2.55,1.41-.12Zm-2.59,1.27l-1.85.16-.08,1.73,1.87-.16.07-1.72Z"/><path class="cls-3" d="m138.68,51.53l-1.08-12.77,2.04-.17c.91-.08,1.63-.07,2.18.02.56.09,1.03.27,1.43.55.41.29.74.67,1.01,1.14.27.47.43.96.47,1.46.08.92-.23,1.72-.92,2.42.74.17,1.34.53,1.8,1.07.47.54.74,1.19.8,1.95.08,1-.22,1.87-.91,2.62-.41.46-.9.8-1.44,1.01-.6.21-1.36.36-2.29.43l-3.1.26Zm1.43-7.46l.64-.05c.76-.06,1.3-.27,1.63-.62.33-.35.46-.83.41-1.45-.05-.6-.27-1.04-.66-1.32-.39-.28-.93-.39-1.62-.33l-.72.06.31,3.71Zm.46,5.47l1.26-.11c.92-.08,1.59-.31,1.99-.68.43-.41.61-.9.57-1.46-.05-.55-.3-1-.77-1.33-.46-.33-1.24-.45-2.34-.36l-1.04.09.33,3.86Z"/><path class="cls-3" d="m148.57,33.59l.41,4.92c.52-.6,1.14-.93,1.86-.99.83-.07,1.54.16,2.14.7.6.53.94,1.23,1.01,2.09.08.89-.14,1.65-.65,2.28-.5.62-1.17.97-2.01,1.04-.71.06-1.37-.14-1.97-.61l.05.61-1.42.12-.85-10.04,1.42-.12Zm3.98,6.9c-.05-.55-.24-.99-.59-1.31-.35-.33-.77-.47-1.26-.43-.52.04-.93.25-1.23.62-.29.37-.42.83-.37,1.37.05.56.25,1,.59,1.31.35.32.78.46,1.3.41.49-.04.89-.25,1.18-.62.3-.38.43-.83.38-1.35Z"/><line class="cls-4" x1="147.22" y1="28.21" x2="124.62" y2="46.7"/><path class="cls-9" d="m125.13,107.14c.28,3.32-2.18,6.22-5.49,6.5-3.31.28-6.22-2.17-6.5-5.49-.28-3.3,2.18-6.22,5.49-6.5,3.31-.28,6.22,2.19,6.5,5.49Z"/><path class="cls-9" d="m169.7,103.39c.28,3.32-2.18,6.22-5.49,6.5-3.31.28-6.22-2.17-6.5-5.49-.28-3.3,2.18-6.22,5.49-6.5,3.31-.28,6.22,2.19,6.5,5.49Z"/><path class="cls-8" d="m114.29,83.22c2.32-.71,4.68-.81,6.9-.37.69.13,1-.83.36-1.12-2.39-1.09-5.17-1.34-7.87-.51-2.71.83-4.86,2.61-6.22,4.85-.36.6.43,1.23.93.73,1.59-1.61,3.59-2.86,5.91-3.58Z"/><path class="cls-8" d="m160.51,78.8c2.37.51,4.47,1.59,6.19,3.06.54.46,1.28-.24.86-.8-1.55-2.12-3.84-3.71-6.61-4.31-2.77-.6-5.52-.11-7.8,1.18-.61.35-.23,1.28.45,1.09,2.18-.62,4.54-.73,6.91-.22Z"/><path class="cls-8" d="m142.91,130.12c1.34-.11,2.64.12,3.79.62.36.16.64-.33.33-.57-1.17-.88-2.65-1.35-4.22-1.22-1.57.13-2.95.84-3.96,1.89-.27.28.09.72.42.51,1.06-.68,2.3-1.12,3.64-1.24Z"/><ellipse class="cls-5" cx="145.3" cy="162.64" rx="16.5" ry="18" transform="translate(-14.04 13.73) rotate(-5.16)"/></g></g></svg>