<?xml version="1.0" encoding="UTF-8"?><svg xmlns="http://www.w3.org/2000/svg" xmlns:xlink="http://www.w3.org/1999/xlink" viewBox="0 0 284.93 302"><defs><style>.cls-1{fill:none;}.cls-2{filter:url(#outer-glow-23);}.cls-3{clip-path:url(#clippath);}.cls-4{fill:#f2e714;}.cls-5,.cls-6,.cls-7{fill:#fff;}.cls-8{fill:#fdf051;}.cls-9,.cls-10,.cls-11{fill:#502b19;}.cls-12{clip-path:url(#clippath-1);}.cls-10{stroke-width:.99px;}.cls-10,.cls-11{stroke:#502b19;}.cls-10,.cls-11,.cls-6{stroke-miterlimit:10;}.cls-11{stroke-width:.96px;}.cls-6{stroke:#f2e714;stroke-width:1.66px;}.cls-13{opacity:.6;}.cls-7{opacity:.74;}</style><filter id="outer-glow-23" filterUnits="userSpaceOnUse"><feOffset dx="0" dy="0"/><feGaussianBlur result="blur" stdDeviation="5"/><feFlood flood-color="#f6ff00" flood-opacity=".41"/><feComposite in2="blur" operator="in"/><feComposite in="SourceGraphic"/></filter><clipPath id="clippath"><path class="cls-1" d="m83.1,211.83c-5.33,6.51-18.81,4.3-30.11-4.93-11.31-9.24-16.15-22.01-10.82-28.53,5.33-6.51,18.81-4.31,30.11,4.93,11.31,9.25,16.15,22.02,10.82,28.53Z"/></clipPath><clipPath id="clippath-1"><path class="cls-1" d="m210.86,206.32c5.97,5.93,19.15,2.33,29.43-8.04,10.27-10.37,13.76-23.58,7.79-29.5-5.99-5.93-19.16-2.33-29.44,8.04-10.28,10.37-13.77,23.58-7.79,29.5Z"/></clipPath></defs><g id="Platforms"><path class="cls-8" d="m12.51,283.16h259.92c2.78,0,5.04-2.26,5.04-5.04l4-127.92c0-2.78-2.26-5.04-5.04-5.04H8.51c-2.78,0-5.04,2.26-5.04,5.04l3,127.92c0,2.78,3.26,5.04,6.04,5.04Z"/><path d="m6.46,278.12c0,2.78,3.26,5.04,6.04,5.04h259.92c2.78,0,5.04-2.26,5.04-5.04H6.46Z"/></g><g id="Bells"><g class="cls-2"><path class="cls-4" d="m241.73,156.02c.93,3.72,1.18,7.5,1.25,11.33.08,4.87-.33,9.67-1.36,14.42-1.63,7.59-5.35,14.09-10.59,19.73-6.22,6.69-13.79,11.48-21.8,15.64-10.27,5.33-21.12,8.94-32.44,11.21-8.05,1.62-16.17,2.76-24.36,3.31-1.87.14-3.75.22-5.61.31-9.38.62-18.76.53-28.11-.23-16.54-1.34-32.36-5.4-47.08-13.2-6.11-3.25-11.68-7.23-16.29-12.43-4.86-5.51-8-11.89-9.57-19.09-1.12-5.13-1.81-10.31-1.76-15.54.09-9.09,3.02-17.18,8.46-24.42,2.67-3.57,5.94-6.54,9.2-9.53,1.2-1.1,2.4-2.21,3.3-3.58.73-1.04,1.28-2.19,1.26-3.46-.06-3.01.58-5.9,1.56-8.69,4.02-11.45,6.98-23.26,11.45-34.56,2.88-7.29,6.69-14.04,11.85-19.96.61-.7,1.24-1.41,1.91-2.07,2.11-2.23,4.44-4.25,6.53-6.56,3.09-3.37,7.17-5.37,11.37-7.06,6.31-2.54,12.86-3.96,19.61-4.73,7.69-.85,15.39-.85,23.06.28,5.26.77,10.44,1.92,15.19,4.34,9.16,4.68,17.3,10.64,23.46,19.04,3.92,5.38,7.15,11.15,9.87,17.21,4.02,8.99,7.89,18.05,11.94,27.03,1.07,2.32,1.89,4.77,2.12,7.37.19,1.99,1.3,3.55,2.77,4.86,2.37,2.1,5.05,3.83,7.54,5.81,7.6,6.1,12.9,13.71,15.28,23.22Z"/><g class="cls-13"><g class="cls-3"><path class="cls-5" d="m52.82,178.4c5.45,17.25,19.34,33.46,38.11,35.89,4.67.6,9.43.2,13.93-1.19,1.77-.54,1.01-3.33-.77-2.78-16.37,5.04-32.7-4.88-41.64-18.29-2.96-4.45-5.24-9.3-6.85-14.4-.56-1.76-3.34-1.01-2.78.77h0Z"/></g></g><g class="cls-13"><g class="cls-12"><path class="cls-5" d="m234.67,169.3c-3.4,16.58-14.62,33.33-31.92,37.47-4.19,1-8.56,1.11-12.79.28-1.81-.36-2.59,2.42-.77,2.78,17.99,3.53,34.38-8.42,42.54-23.74,2.68-5.02,4.58-10.44,5.72-16.02.37-1.81-2.41-2.59-2.78-.77h0Z"/></g></g><rect class="cls-5" x="129.04" y="50.72" width="19.85" height="7.78" transform="translate(-2.66 7.32) rotate(-2.99)"/><path class="cls-6" d="m162.41,31.88c.45,8.69-5.9,16.43-15.12,19.52-2.3.77-4.79,1.26-7.39,1.39-3.41.18-6.69-.26-9.69-1.21-8.36-2.64-14.44-9.24-14.86-17.25-.57-10.88,9.5-20.24,22.49-20.92,13.01-.68,24,7.59,24.57,18.47Z"/><path class="cls-11" d="m144.66,23.23l-11.02.58.33,6.22,10.7-.56.19,3.67-10.7.56.45,8.66,11.02-.58.19,3.67-15.17.79-1.35-25.9,15.17-.79.19,3.67Z"/><path class="cls-10" d="m125.04,103.99c.18,3.43-2.45,6.35-5.87,6.52-3.42.18-6.35-2.45-6.52-5.88-.18-3.42,2.45-6.35,5.88-6.53,3.43-.18,6.34,2.46,6.52,5.88Z"/><path class="cls-10" d="m171.13,101.59c.18,3.43-2.45,6.35-5.88,6.52-3.42.18-6.35-2.45-6.53-5.88-.18-3.42,2.45-6.35,5.88-6.53,3.43-.18,6.34,2.46,6.52,5.88Z"/><path class="cls-9" d="m116.64,77.1c2.41-.66,4.85-.68,7.13-.16.71.16,1.06-.82.4-1.15-2.43-1.2-5.28-1.55-8.1-.78-2.82.77-5.1,2.53-6.57,4.8-.4.61.41,1.28.93.78,1.7-1.61,3.8-2.83,6.21-3.49Z"/><path class="cls-9" d="m164.45,74.06c2.43.61,4.56,1.79,6.29,3.36.54.49,1.32-.2.92-.8-1.52-2.24-3.84-3.95-6.68-4.66-2.83-.71-5.68-.3-8.08.96-.64.34-.28,1.32.43,1.14,2.27-.57,4.7-.6,7.13,0Z"/><path class="cls-9" d="m142.75,128.15c1.39-.07,2.71.21,3.89.77.37.17.67-.32.36-.57-1.17-.94-2.68-1.48-4.31-1.4-1.62.08-3.07.76-4.15,1.82-.29.28.07.74.41.54,1.11-.67,2.4-1.08,3.79-1.15Z"/><ellipse class="cls-7" cx="143.03" cy="158.48" rx="16.5" ry="18" transform="translate(-21.02 21.87) rotate(-8.15)"/></g></g></svg>