<?xml version="1.0" encoding="UTF-8"?><svg xmlns="http://www.w3.org/2000/svg" xmlns:xlink="http://www.w3.org/1999/xlink" viewBox="0 0 284.93 302"><defs><style>.cls-1,.cls-2{fill:none;}.cls-3{clip-path:url(#clippath);}.cls-4{fill:#fff;}.cls-5{fill:#818181;}.cls-6{fill:#a082bb;}.cls-7{fill:#c3c3c3;}.cls-8{fill:#79559f;}.cls-9,.cls-10,.cls-11,.cls-12{fill:#502b19;}.cls-13{clip-path:url(#clippath-1);}.cls-10{stroke-width:.99px;}.cls-10,.cls-11{stroke:#502b19;}.cls-10,.cls-11,.cls-14,.cls-2{stroke-miterlimit:10;}.cls-11{stroke-width:.96px;}.cls-14{fill:#f6f6f6;stroke:#79559f;stroke-width:1.66px;}.cls-15{opacity:.6;}.cls-2{stroke:#818181;stroke-width:1.91px;}.cls-12{opacity:.64;}</style><clipPath id="clippath"><path class="cls-1" d="m78.53,227.32c-5.66,6.23-19.01,3.32-29.82-6.5-10.81-9.82-14.98-22.83-9.32-29.06,5.66-6.23,19.01-3.32,29.82,6.49,10.81,9.83,14.98,22.83,9.32,29.06Z"/></clipPath><clipPath id="clippath-1"><path class="cls-1" d="m206.41,228.47c5.65,6.23,19,3.32,29.81-6.49,10.8-9.82,14.97-22.83,9.32-29.06-5.67-6.23-19.01-3.32-29.82,6.49-10.81,9.82-14.98,22.83-9.32,29.05Z"/></clipPath></defs><g id="Platforms"><rect class="cls-6" x="3.46" y="145.16" width="278" height="128" rx="5.04" ry="5.04"/><path d="m3.46,268.12c0,2.78,2.26,5.04,5.04,5.04h267.92c2.78,0,5.04-2.26,5.04-5.04"/></g><g id="Bells"><path class="cls-7" d="m182.42,56.31c0,21.92-17.77,39.69-39.69,39.69s-39.69-17.77-39.69-39.69,17.77-39.69,39.69-39.69,39.69,17.77,39.69,39.69Z"/><path class="cls-8" d="m239.85,179.85c.73,3.77.79,7.56.66,11.38-.17,4.86-.83,9.64-2.11,14.33-2.02,7.49-6.07,13.79-11.61,19.15-6.56,6.36-14.37,10.74-22.59,14.48-10.53,4.78-21.56,7.83-32.99,9.51-8.12,1.2-16.29,1.91-24.5,2.03-1.88.04-3.76.02-5.62.02-9.4.13-18.76-.45-28.06-1.7-16.45-2.2-32.03-7.08-46.33-15.64-5.93-3.56-11.28-7.83-15.62-13.26-4.57-5.76-7.37-12.29-8.56-19.56-.85-5.18-1.27-10.39-.94-15.61.56-9.07,3.91-17,9.72-23.95,2.85-3.42,6.28-6.23,9.69-9.04,1.26-1.04,2.51-2.08,3.48-3.4.78-1.01,1.39-2.12,1.44-3.39.1-3.01.88-5.86,2.01-8.6,4.61-11.22,8.19-22.86,13.23-33.92,3.26-7.13,7.41-13.67,12.88-19.32.65-.67,1.31-1.34,2.01-1.97,2.22-2.11,4.65-4.01,6.87-6.22,3.26-3.21,7.44-4.99,11.72-6.46,6.44-2.2,13.05-3.28,19.83-3.7,7.73-.45,15.42-.05,23.01,1.48,5.21,1.05,10.33,2.46,14.94,5.13,8.91,5.15,16.73,11.53,22.43,20.24,3.64,5.58,6.56,11.51,8.96,17.7,3.54,9.19,6.94,18.43,10.51,27.61.94,2.38,1.64,4.86,1.74,7.47.08,2,1.12,3.62,2.51,5,2.25,2.22,4.84,4.09,7.23,6.19,7.27,6.49,12.17,14.36,14.05,23.99Z"/><g class="cls-15"><g class="cls-3"><path class="cls-4" d="m50.06,192.42c4.52,17.42,17.68,34.6,36.33,37.79,4.63.79,9.33.63,13.89-.51,1.8-.45,1.04-3.24-.77-2.78-16.56,4.16-32.28-6.61-40.51-20.39-2.77-4.64-4.8-9.65-6.15-14.88-.47-1.8-3.25-1.03-2.78.77h0Z"/></g></g><g class="cls-15"><g class="cls-13"><path class="cls-4" d="m232.09,192.81c-4.25,16.35-16.3,32.36-33.71,35.67-4.29.82-8.72.66-12.96-.4-1.8-.45-2.57,2.33-.77,2.78,17.84,4.48,34.86-6.8,43.77-21.72,2.89-4.84,5.03-10.12,6.45-15.57.47-1.8-2.32-2.57-2.78-.77h0Z"/></g></g><path class="cls-10" d="m125.9,127.72c0,3.44-2.78,6.21-6.21,6.21s-6.21-2.77-6.21-6.21,2.78-6.21,6.21-6.21,6.21,2.79,6.21,6.21Z"/><path class="cls-10" d="m172.05,127.72c0,3.44-2.78,6.21-6.21,6.21s-6.21-2.77-6.21-6.21,2.78-6.21,6.21-6.21,6.21,2.79,6.21,6.21Z"/><path class="cls-9" d="m142.54,148.77c1.39,0,2.7.35,3.84.97.36.19.69-.29.39-.56-1.12-1-2.6-1.61-4.23-1.62-1.62,0-3.11.6-4.23,1.6-.3.27.03.75.38.56,1.15-.61,2.46-.96,3.85-.96Z"/><path class="cls-12" d="m119.67,144.14c-1.39,0-2.7-.14-3.85-.38-.36-.08-.69.11-.39.22,1.12.39,2.61.63,4.23.63,1.62,0,3.11-.24,4.23-.63.3-.11-.03-.29-.39-.22-1.15.24-2.46.38-3.85.38Z"/><path class="cls-12" d="m165.53,144.14c-1.39-.06-2.69-.25-3.83-.54-.35-.09-.69.08-.39.2,1.11.44,2.58.74,4.2.81,1.62.07,3.11-.11,4.25-.46.31-.09-.02-.29-.38-.23-1.15.19-2.47.28-3.86.22Z"/><path class="cls-2" d="m134.8,126.26c-.27,10.02-8.62,17.93-18.64,17.66s-17.93-8.61-17.66-18.64c.27-10.02,8.62-17.93,18.64-17.66,10.02.27,17.93,8.61,17.66,18.64Z"/><path class="cls-2" d="m186.53,125.2c-.27,10.02-8.61,17.93-18.64,17.66-10.02-.27-17.93-8.61-17.66-18.64.27-10.02,8.62-17.93,18.64-17.66,10.02.27,17.93,8.61,17.66,18.64Z"/><rect class="cls-5" x="140.45" y="117.98" width="3.82" height="15.08" transform="translate(13.05 264.44) rotate(-88.45)"/><path class="cls-7" d="m139.87,85.55c-17.77,13.2-57.03,31.27-58.17,41.89-9.83-5.45-5.73-10.45-5.73-23.36,0-31.59,31.54-49.53,67.9-48.78,36.37.74,51.98,21.88,58.2,36.04,6.23,14.17,1.47,24.9-3.82,34.37-3.4-16.64-44.78-29.26-58.39-40.17Z"/><rect class="cls-7" x="128.77" y="73.15" width="19.85" height="7.78"/><path class="cls-14" d="m163.3,55.57c0,8.7-6.75,16.1-16.12,18.71-2.34.65-4.85,1.01-7.46,1.01-3.42,0-6.67-.61-9.61-1.71-8.21-3.08-13.94-9.98-13.94-18,0-10.89,10.54-19.72,23.55-19.72s23.57,8.83,23.57,19.72Z"/><path class="cls-11" d="m146.17,61.97h-11.78l-3.07,6.3h-4.47l13.62-27.56,13.14,27.56h-4.55l-2.89-6.3Zm-1.69-3.68l-4.08-8.82-4.28,8.82h8.36Z"/><path class="cls-7" d="m179.19,108.84c.07-1.48-1.42-2.65-2.44-3.52-.37-.32-.76-.63-1.16-.93-.49-.63-1.07-1.2-1.66-1.71-.67-.58-1.46-.87-2.29-1.07-.14-.07-.28-.13-.42-.19.21.03.42.07.63.11,1.17.28,2.29.76,2.99,1.75.04.05.12,0,.08-.05-.66-1.05-2.01-1.83-3.36-2.14.19-.01.37-.02.56-.03.05,0,.05-.06,0-.07-.33-.06-.7-.09-1.07-.09-.02,0-.03-.01-.05-.02.36-.03.72-.06,1.09-.09.03,0,.02-.05,0-.05-.34-.04-.7-.06-1.05-.05.03-.02.04-.08,0-.1-.03-.02-.06-.04-.1-.06.3-.05.61-.11.91-.16.03,0,.03-.06,0-.06-.38.02-.77.05-1.16.08-.15-.07-.31-.12-.47-.16.36-.07.71-.12,1.08-.13.03,0,.04-.04,0-.05-.47-.14-1.03-.03-1.54.09-.26-.04-.52-.06-.78-.08.62-.08,1.25-.12,1.86-.23.04,0,.04-.07,0-.08-.25-.02-.5-.02-.76,0-.61-.08-1.22-.11-1.84-.08,0,0,0,0,0-.01.39-.04.79-.06,1.19-.06.1,0,.1-.15,0-.15-.56-.01-1.14-.01-1.72.03,0,0,0,0-.01,0-.08,0-.16.01-.24.02-.37.03-.73.08-1.09.14-.08,0-.16.01-.24.02-.05-.01-.1-.02-.15-.03.11-.04.22-.07.33-.11.66-.12,1.33-.22,1.99-.27.09,0,.09-.14,0-.14-.29,0-.58.02-.87.03.11-.04.22-.07.33-.11.26,0,.51,0,.77,0,.1,0,.09-.15,0-.15-.1,0-.19-.01-.29-.02.01-.02,0-.05-.03-.05-.06.01-.12.02-.17.04-.34-.02-.68-.03-1.03-.03.24-.08.47-.16.7-.26.03-.01.01-.05-.02-.04-.43.07-.86.19-1.28.31-.45,0-.91.03-1.36.08.73-.25,1.45-.47,2.2-.66.04,0,.03-.07-.01-.06-1.08.22-2.22.47-3.28.87-.14-.06-.33-.05-.5-.03.07-.03.14-.05.22-.07.13-.01.25-.02.38-.03.06,0,.08-.08.04-.11.16-.05.32-.1.48-.16.04,0,.08,0,.12-.01.03,0,.04-.02.05-.04.55-.18,1.09-.36,1.63-.57.03,0,.01-.05-.01-.04-.69.11-1.4.27-2.09.48-.24-.02-.48-.03-.72-.03.67-.25,1.34-.49,2.02-.73.03-.01.01-.06-.02-.06-.96.16-1.91.46-2.83.83-.02,0-.04,0-.06,0-.12-.05-.24-.09-.36-.12.04-.01.07-.03.11-.04.87-.35,1.77-.65,2.62-1.06.04-.02.02-.07-.02-.06-.89.2-1.76.56-2.62.89-.19.07-.38.15-.56.22-.16,0-.33,0-.49.02.48-.24.83-.4.93-.41.05,0,.07-.04.08-.07.62-.26,1.24-.52,1.83-.82.04-.02.02-.09-.03-.08-.79.16-1.58.48-2.34.84-.38.06-.77.21-1.14.4.56-.32,1-.57,1.12-.64.06-.03.02-.13-.05-.11-.52.18-1.03.4-1.53.64.05-.03.09-.06.14-.09.24-.15.49-.3.74-.45.09-.06.85-.57.91-.38,0,.02.04.02.04,0,.02-.34-.52-.03-.61.02-.48.25-.95.51-1.41.79-.85.17-1.66.83-2.34,1.31-.06.04-.12.08-.18.12-.02,0-.03.02-.05.02.42-.37.86-.71,1.31-1.05.91-.67,1.9-1.19,2.83-1.83.03-.02,0-.06-.03-.05-.6.21-1.18.51-1.74.85-1.02.4-2.02.94-2.91,1.64.84-.75,1.79-1.3,2.79-1.82.07-.04.02-.15-.05-.13-.73.22-1.42.56-2.05.97.6-.5,1.25-.91,1.91-1.33.03-.02,0-.06-.03-.05-.7.25-1.38.65-2.01,1.15-.01,0-.02,0-.04,0-.12.05-.23.11-.35.17.51-.41,1.05-.74,1.6-1.09.03-.02.02-.09-.03-.08-1.25.42-2.45,1.41-3.23,2.5-.1.1-.2.2-.3.31.16-.24.32-.48.49-.71.08-.1.16-.2.24-.3.75-.66,1.54-1.24,2.44-1.75.04-.02.01-.08-.03-.06-.37.15-.74.33-1.09.53,0,0,0,0,0,0,.08-.06,0-.21-.08-.14-.51.36-.98.74-1.41,1.18-.02.02-.04.04-.07.06.89-1.24,2.19-2.24,3.56-2.55.07-.02.06-.14-.02-.13-1.27.15-2.33.75-3.2,1.68-.64.68-1.78,1.93-1.78,2.98-.07.17-.1.33-.06.47.04.16.26.14.31,0,.02.06.07.11.14.13.03.01.06.02.09.03.04.01.08,0,.11-.03-.03.08-.06.16-.08.24-.02.08.05.14.12.13,0,0,0,0,0,0-.1.18.13.32.27.2.05-.04.11-.09.16-.13.03-.02.04-.06.03-.09.28-.33.56-.64.85-.94,0,.07.07.14.15.09,0,0,.02-.01.03-.02-.03.06-.05.12-.06.18-.04.03-.07.06-.11.09-.02,0-.05,0-.07.03-.07.07-.14.14-.22.21-.13.12.04.32.18.21.11-.09.22-.18.32-.26.06.01.13,0,.17-.07,0-.01.01-.02.02-.03.02.09.12.16.31.2.04,0,.07,0,.1-.03.08,0,.17-.09.11-.17,0-.01.08-.07.23-.16.01.02.03.04.06.05-.07.04-.15.09-.22.14-.09.06-.03.18.07.16.38-.07.74-.21,1.1-.36,0,.04-.02.07-.02.11,0,0,0,.02,0,.03-.01,0-.03.02-.04.03-.07.05-.03.2.07.16.5-.18.99-.38,1.49-.57-.06.05-.11.11-.15.17-.05.09.03.18.12.18-.14.06-.28.12-.41.19-.07.03-.02.13.05.12.74-.16,1.47-.34,2.2-.49-.01.03-.03.07-.04.1-.01.04,0,.07.03.09-.26.1-.51.2-.75.32-.06.03-.03.14.04.13.57-.07,1.13-.17,1.69-.3,0,.04,0,.07.02.1.01.02.02.04.04.05,0,0,0,0,.01.01-.22.09-.43.2-.63.32-.09.05-.03.19.07.17.59-.12,1.17-.29,1.75-.45.02.03.06.05.11.03.12-.04.23-.09.34-.15.08-.02.16-.04.24-.06-.19.08-.38.17-.56.27-.24.07-.47.15-.7.25-.08.03-.08.17.02.17.45-.02.91-.08,1.36-.15.01.06.06.11.14.11.1,0,.19-.02.29-.03-.14.06-.28.12-.41.19-.09.05-.05.22.06.2.37-.05.74-.12,1.11-.19-.01.09.03.19.13.22.1.02.21.05.31.07.08.02.15-.07.12-.14.27-.05.55-.09.82-.12-.02.02-.04.04-.04.07,0,0,0,0-.01,0-.31.06-.61.14-.9.25-.08.03-.07.17.02.16.18-.01.35-.03.53-.05,0,.07.03.14.09.17.02.01.04.02.06.03.07.04.15,0,.18-.08.03-.09.23-.14.51-.17.08.04.17.08.25.11,0,.03,0,.06,0,.08-.05.01-.11.03-.16.05-.1.03-.08.18.03.18.29.01.58,0,.87,0,.01,0,.02,0,.03.01,0,0-.02,0-.02,0-.08.02-.05.13.02.13.12,0,.23,0,.35.02.04.02.07.03.11.05.15.07.31.15.46.22,0,.02.02.03.04.04.02,0,.04,0,.05.01.51.26,1,.55,1.5.83.03.02.07-.02.04-.05-.27-.25-.57-.47-.88-.67.14.03.28.05.41.08.48.36.95.74,1.39,1.15.03.03.08-.01.05-.04-.32-.36-.65-.69-1.01-1,.11.03.22.06.32.1.1.03.19.07.28.11.7.56,1.36,1.19,2,1.78.04.03.1-.01.07-.06-.26-.38-.54-.73-.84-1.05.1.05.2.1.3.14.6.6,1.18,1.23,1.8,1.83.05.05.13-.03.08-.08-.32-.4-.66-.86-1.03-1.34.11.05.23.11.34.17.64.66,1.24,1.36,1.82,2.07.03.04.1-.01.07-.06-.32-.54-.69-1.08-1.1-1.6.04.02.08.04.12.07.59.64,1.12,1.36,1.29,2.12,0,.04.07.02.06-.02-.11-.64-.42-1.23-.81-1.79.1.06.19.12.29.18.12.13.24.27.36.41.12.16.24.31.35.48.01.02.03.03.05.02.16.2.31.41.46.62.03.04.07.03.09,0,.16.2.33.41.49.61.02.03.08,0,.07-.04-.16-.37-.35-.73-.57-1.09.37.36.7.75.99,1.21.04.06.11,0,.09-.05-.41-.95-1.23-1.87-2.21-2.61-.03-.04-.07-.07-.1-.11,0-.02-.02-.03-.03-.05,1.1.87,2.67,2.08,2.87,3.52,0,.06.1.07.1,0Zm-23.39-9.43c-.42.43-.81.91-1.04,1.42.03-.57.94-1.41,1.31-1.78,0,0,.01-.01.02-.02-.1.12-.2.25-.29.38Zm4.47-.54c.08-.05.17-.09.25-.13.17-.05.35-.09.52-.12-.15.06-.3.12-.45.19-.05.01-.1.02-.15.03-.06.01-.12.02-.18.04Zm-.45,1.78c.38-.21.81-.34,1.26-.45-.44.13-.86.29-1.26.45Zm3.49-1.88s-.02,0-.03.01c-.04,0-.07,0-.11,0,.05,0,.1,0,.14-.01Zm-1.39-.27c.11,0,.22,0,.32.01-.18.02-.36.05-.53.07.07-.03.14-.06.21-.09Zm-.12.71c.05-.02.1-.04.16-.06.2-.03.41-.06.62-.09-.05.02-.09.04-.14.06-.21.03-.42.06-.64.1Zm.01,1.4c.11-.08.23-.14.35-.2,0,.03,0,.06.01.08-.12.04-.24.08-.36.12Zm1.01.33s0,0,0,0c0,0,.01,0,.03,0,0,0-.02,0-.02,0Zm.12-1.63s-.06-.04-.1-.04c0,0,0-.01-.01-.02.24-.05.49-.1.7-.12-.2.05-.4.11-.59.17Zm1.21,1.22c-.14.04-.29.07-.43.11.17-.06.34-.11.51-.17,0,0,0,0,.01,0-.03.02-.06.03-.09.05Zm1-1.16s-.01,0-.02,0c.18-.06.35-.11.53-.16.11-.03.23-.07.34-.1.39-.04.78-.06,1.16-.08-.2.05-.4.1-.6.15-.47.04-.95.1-1.42.19Zm2.19,2.37s-.04-.01-.06-.02c.1,0,.21,0,.32,0-.09,0-.17.02-.25.03Zm.79-1.31c-.12,0-.26-.02-.4-.03.06,0,.13-.02.19-.03.06,0,.07-.07.05-.1.11,0,.22,0,.33.01.17,0,.35.02.52.02-.23.04-.46.08-.69.13Zm1.13.08c-.1-.01-.21-.02-.31-.03.03,0,.06-.01.1-.02.16-.03.32-.07.49-.11.18.02.35.04.53.07-.27.03-.53.06-.8.09Zm1.14.19c-.09-.02-.17-.04-.26-.05.17-.03.34-.06.51-.09.12.03.23.07.34.12h0c-.2,0-.4.01-.6.03Zm3.58,2.35c-.18-.16-.37-.31-.57-.45-.04-.04-.09-.07-.13-.11.16.09.32.2.48.34.1.09.2.17.3.26-.03-.01-.05-.03-.08-.04Z"/><path class="cls-7" d="m106.82,102.53c.59-1.32,2.43-2.05,3.74-2.58-.01.01-.03.03-.04.04-.04.02-.08.05-.13.07-1.15.44-2.19,1.09-2.85,1.89-.04.05.02.12.07.07.4-.36.83-.65,1.29-.89-.31.28-.6.57-.85.88-.02.03.02.08.05.06.22-.15.43-.3.64-.45.01.03.05.05.09.02.2-.16.41-.32.62-.47.02,0,.04,0,.06,0,.16-.13.31-.25.47-.36.15-.1.31-.2.46-.29.11-.03.22-.06.32-.09-.53.42-.99.91-1.27,1.49-.02.04.03.07.05.03.37-.69,1.09-1.22,1.83-1.67.05-.01.09-.02.14-.03-.54.39-1.04.81-1.5,1.23-.04.03.01.1.05.07.75-.52,1.53-1.02,2.32-1.48.12-.02.25-.04.37-.06-.49.36-.95.71-1.36,1-.06.04-.01.14.05.1.76-.4,1.5-.84,2.24-1.25.11-.02.22-.04.33-.05-.38.23-.75.49-1.11.78-.04.03,0,.1.05.07.78-.39,1.59-.81,2.42-1.16.1-.01.2-.02.3-.03.11,0,.23,0,.34,0-.43.2-.84.43-1.25.68-.04.02,0,.07.04.05.53-.27,1.09-.51,1.65-.72.14.01.28.02.42.04-.35.1-.7.23-1.03.4-.03.02,0,.06.03.05.56-.14,1.11-.27,1.67-.38.02,0,.04,0,.05,0,.03,0,.04,0,.05-.03.17-.03.33-.06.5-.09.04,0,.08-.01.11-.02.11.03.23.05.34.08.07.02.12-.08.05-.12,0,0-.01,0-.02-.01.01,0,.02,0,.03,0,.28.09.55.18.83.25.1.03.17-.11.08-.17-.04-.03-.09-.06-.14-.09.02-.02.03-.05.03-.08.09-.01.18-.02.27-.04.26.11.44.22.45.31,0,.08.07.14.15.12.02,0,.04,0,.07-.01.07-.02.12-.07.13-.14.16.07.33.13.49.2.09.03.14-.1.07-.15-.26-.18-.52-.34-.8-.49,0,0,0,0,0,0,0-.03,0-.06-.02-.08.25.11.5.22.75.34-.05.06,0,.16.07.17.11,0,.22.01.32.02.1,0,.17-.08.18-.17.33.17.67.34,1.01.49.1.04.19-.11.11-.18-.11-.1-.22-.2-.34-.29.09.04.18.08.27.11.07.03.13,0,.16-.06.42.19.83.37,1.26.52.1.03.14-.1.07-.15-.19-.16-.4-.3-.61-.43-.14-.15-.3-.29-.46-.42.07.04.14.08.21.12.09.08.18.17.28.24.04.03.08.02.11,0,.51.31,1.02.64,1.55.92.09.05.19-.06.11-.14-.16-.17-.34-.33-.52-.48,0,0,.01,0,.01,0,.02-.01.03-.03.05-.04.03-.02.04-.06.05-.09.5.28,1.01.53,1.54.76.07.03.13-.07.07-.12-.2-.18-.41-.36-.63-.52.03-.01.05-.04.05-.08,0-.04,0-.07,0-.11.66.35,1.31.72,1.98,1.08.06.03.14-.05.08-.1-.11-.1-.22-.2-.34-.3.08.03.19-.04.16-.14-.02-.07-.05-.14-.09-.21.43.32.84.65,1.27.96.09.06.17-.06.11-.13,0-.01-.02-.03-.03-.04,0,0,0-.02.01-.03,0-.04.01-.07.01-.11.3.24.62.48.96.65.09.05.18-.06.11-.14-.05-.07-.11-.13-.17-.19.03,0,.05-.02.07-.04.12.13.18.21.17.22-.08.06-.02.17.06.2.02.03.05.06.09.06.19.02.3-.02.35-.1,0,.01,0,.03,0,.04.01.07.08.11.14.12.08.11.16.23.24.34.1.15.32,0,.23-.15-.05-.09-.1-.17-.15-.26-.01-.03-.04-.04-.06-.04-.03-.04-.05-.08-.08-.12,0-.06,0-.13,0-.19,0,0,.01.02.02.02.06.06.15.02.17-.05.19.37.37.75.55,1.14-.02.03-.02.06,0,.09.04.06.08.11.12.17.1.15.37.08.32-.12,0,0,0,0,0,0,.06.03.15,0,.15-.09,0-.08,0-.17-.01-.25.02.03.05.06.1.06.03,0,.06,0,.1,0,.07,0,.13-.04.17-.09.01.15.22.22.3.08.07-.12.09-.29.07-.47.3-1.01-.45-2.53-.87-3.36-.58-1.14-1.43-2.01-2.61-2.51-.07-.03-.12.09-.06.12,1.23.68,2.19,2.01,2.7,3.44-.02-.02-.03-.05-.05-.07-.29-.54-.64-1.04-1.03-1.53-.07-.08-.18.03-.12.11,0,0,0,0,0,0-.29-.29-.59-.57-.9-.82-.03-.03-.07.02-.04.05.72.74,1.32,1.52,1.85,2.36.05.12.1.24.15.36.1.27.19.55.28.82-.07-.13-.13-.26-.2-.38-.45-1.26-1.33-2.55-2.41-3.3-.04-.03-.07.03-.05.07.42.49.86.96,1.23,1.5-.09-.09-.19-.18-.29-.26-.01,0-.02-.01-.03-.01-.47-.65-1.02-1.23-1.61-1.66-.03-.02-.06.01-.04.04.52.58,1.03,1.16,1.46,1.81-.49-.58-1.06-1.09-1.7-1.51-.07-.04-.15.05-.09.11.81.77,1.57,1.57,2.17,2.53-.66-.91-1.47-1.72-2.33-2.38-.44-.48-.91-.94-1.43-1.3-.03-.02-.07.01-.05.04.71.87,1.52,1.66,2.2,2.55.34.44.66.9.97,1.37-.01-.01-.03-.02-.04-.04-.05-.06-.1-.12-.14-.17-.52-.66-1.11-1.51-1.88-1.91-.37-.4-.74-.78-1.14-1.15-.07-.07-.51-.52-.58-.19,0,.03.03.04.04.02.11-.16.69.54.77.62.19.21.39.43.58.64.04.04.07.08.11.12-.41-.37-.84-.72-1.29-1.04-.06-.04-.12.04-.08.09.1.1.45.46.9.93-.31-.28-.63-.53-.98-.7-.63-.56-1.3-1.09-2.01-1.46-.05-.02-.09.04-.05.07.49.46,1.01.88,1.53,1.3,0,.04,0,.08.05.09.1.04.39.29.78.65-.15-.06-.31-.12-.47-.16-.16-.12-.32-.25-.48-.37-.73-.55-1.46-1.14-2.26-1.59-.03-.02-.07.03-.04.06.7.62,1.48,1.16,2.22,1.74.03.02.06.05.09.07-.13,0-.25,0-.38.01-.02,0-.04-.02-.06-.02-.78-.61-1.62-1.16-2.49-1.58-.03-.01-.06.03-.03.05.58.42,1.16.84,1.73,1.26-.23-.07-.47-.13-.7-.18-.61-.39-1.24-.74-1.87-1.04-.02-.01-.05.02-.03.04.46.35.93.68,1.41,1,0,.02.02.05.04.06.04.02.07.03.11.05.14.09.28.19.41.28-.05.02-.06.1,0,.12.12.04.24.09.36.13.06.04.13.09.19.13-.16-.07-.33-.14-.49-.11-.91-.67-1.94-1.24-2.91-1.75-.04-.02-.06.03-.03.05.66.39,1.3.8,1.93,1.24-.42-.17-.85-.32-1.28-.45-.37-.23-.75-.46-1.15-.65-.02-.01-.05.02-.03.04.19.16.4.3.6.45-.34-.09-.67-.18-1-.26-.05-.03-.1-.06-.16-.08-.03-.01-.05.01-.04.04-.1-.02-.19-.04-.28-.07-.1-.02-.14.12-.05.15.25.07.49.14.74.21.1.07.19.13.29.2-.27-.1-.55-.19-.83-.28-.08-.03-.12.1-.04.13.63.23,1.24.51,1.84.81.1.07.19.13.29.2-.05,0-.1-.01-.16-.02-.07-.03-.15-.06-.22-.09-.33-.16-.67-.31-1.01-.44-.07-.03-.15-.06-.22-.09,0,0,0,0-.01,0-.55-.2-1.1-.36-1.64-.51-.1-.02-.14.12-.05.15.39.11.76.24,1.13.39,0,0,0,0-.01,0-.58-.2-1.18-.35-1.79-.43-.24-.08-.49-.15-.73-.2-.04,0-.07.05-.03.07.56.27,1.15.49,1.72.74-.26-.05-.51-.1-.77-.14-.46-.25-.96-.52-1.45-.51-.03,0-.03.04,0,.05.35.1.68.26,1,.42-.17,0-.33,0-.5.02-.36-.14-.73-.27-1.09-.4-.03-.01-.05.04-.02.05.27.13.55.27.83.41-.04.01-.07.02-.11.03-.04.01-.05.08-.02.1-.34-.1-.68-.19-1.03-.24-.03,0-.05.04-.02.05.34.13.68.26,1.02.39-.02,0-.04,0-.05,0-.35-.11-.71-.18-1.05-.21-.05,0-.06.05-.02.07.18.06.35.12.53.19-1.38-.08-2.9.29-3.83,1.12-.05.04.02.11.07.07.95-.76,2.16-.9,3.36-.85.21.02.43.05.64.08-.15.01-.3.04-.46.06-.85-.04-1.69.02-2.5.39-.71.32-1.43.71-2.07,1.18-.47.18-.93.37-1.37.57-1.21.55-2.98,1.25-3.32,2.7-.02.07.07.09.1.03Zm24.82-3s0,.02.01.02c.25.46.89,1.52.76,2.08-.07-.56-.31-1.13-.6-1.66-.05-.15-.11-.3-.18-.44Zm-4.12-1.41s-.09-.05-.14-.07c-.13-.1-.25-.2-.38-.3.16.08.32.17.47.26.07.07.13.13.2.2-.05-.03-.11-.06-.16-.08Zm-.99,1.13c.39.23.78.48,1.08.79-.33-.27-.7-.53-1.08-.79Zm-1.62-1.94s-.07-.02-.11-.03c0,0-.02-.01-.03-.02.04.02.09.03.13.05Zm1.45.22c-.16-.08-.33-.15-.49-.22.1.02.21.04.31.08.06.05.12.09.18.14Zm-.84.3s-.08-.06-.11-.09c.19.08.38.17.57.26.04.04.09.07.13.1-.19-.1-.39-.19-.58-.27Zm-.13,1.4s.02-.05.03-.08c.1.09.19.19.28.29-.1-.07-.21-.14-.31-.21Zm-.77.23s.02.01.02.01c0,0,0,0,0,0,0,0-.01-.01-.02-.02Zm-.16-1.91c.2.07.43.19.64.31,0,0-.01,0-.02.01-.04-.01-.08,0-.11,0-.17-.11-.34-.22-.52-.33Zm-1.06,1.09s0,0,.01,0c.15.1.3.21.44.31-.13-.08-.26-.16-.38-.23-.02-.03-.05-.05-.07-.07Zm-1.87-1.89c-.18-.11-.35-.21-.53-.31.37.12.74.26,1.1.4.1.06.2.13.3.19.15.1.31.2.46.31,0,0-.01,0-.02,0-.43-.22-.87-.4-1.31-.58Zm-1.69,2.14c.1.03.2.07.3.1-.02,0-.04,0-.07,0-.07-.04-.15-.07-.23-.1Zm-.79-1.69c.17.04.34.08.51.12.11.03.22.05.32.08-.03.02-.04.09.02.11.06.03.12.05.17.08-.14-.03-.27-.06-.4-.09-.21-.1-.42-.21-.63-.31Zm-1.22-.23c.18.02.35.05.52.08.15.08.29.16.44.24.03.02.06.03.09.05-.1-.02-.2-.04-.31-.06-.24-.11-.49-.21-.74-.31Zm-.97-.02h0c.12-.01.24-.02.36-.02.16.08.31.15.47.23-.09,0-.18-.01-.26-.02-.19-.07-.38-.13-.57-.19Zm-3.61,1.47c.12-.06.24-.11.36-.17.19-.08.37-.14.55-.19-.05.02-.11.04-.16.07-.23.08-.45.17-.67.27-.03,0-.06.01-.08.02Z"/><g class="cls-15"><path class="cls-4" d="m166.56,156.88h.13c.07,14.32-11.09,25.97-25.01,26.2-13.93-.09-25.19-11.64-25.26-25.95h.14c.02,5.16,11.04,9.28,24.75,9.34h.6c13.7-.19,24.68-4.41,24.66-9.58Z"/></g></g></svg>