<?xml version="1.0" encoding="UTF-8"?><svg xmlns="http://www.w3.org/2000/svg" xmlns:xlink="http://www.w3.org/1999/xlink" viewBox="0 0 284.93 302"><defs><style>.cls-1{fill:none;}.cls-2{filter:url(#outer-glow-24);}.cls-3{clip-path:url(#clippath);}.cls-4{fill:#f4941d;}.cls-5,.cls-6,.cls-7{fill:#fff;}.cls-8{fill:#fcbe85;}.cls-9,.cls-10,.cls-11{fill:#502b19;}.cls-12{clip-path:url(#clippath-1);}.cls-10{stroke-width:.99px;}.cls-10,.cls-11{stroke:#502b19;}.cls-10,.cls-11,.cls-6{stroke-miterlimit:10;}.cls-11{stroke-width:.96px;}.cls-6{stroke:#f4941d;stroke-width:1.66px;}.cls-13{opacity:.6;}.cls-7{opacity:.74;}</style><filter id="outer-glow-24" filterUnits="userSpaceOnUse"><feOffset dx="0" dy="0"/><feGaussianBlur result="blur" stdDeviation="5"/><feFlood flood-color="#f6ff00" flood-opacity=".41"/><feComposite in2="blur" operator="in"/><feComposite in="SourceGraphic"/></filter><clipPath id="clippath"><path class="cls-1" d="m83.27,218.95c-5.32,6.52-18.8,4.34-30.12-4.88-11.33-9.22-16.19-21.98-10.88-28.51,5.32-6.52,18.8-4.35,30.12,4.87,11.33,9.23,16.19,21.99,10.88,28.51Z"/></clipPath><clipPath id="clippath-1"><path class="cls-1" d="m211.02,213.19c5.98,5.92,19.15,2.29,29.42-8.09,10.25-10.39,13.71-23.61,7.74-29.52-6-5.92-19.17-2.29-29.42,8.1-10.26,10.39-13.72,23.61-7.73,29.51Z"/></clipPath></defs><g id="Platforms"><path class="cls-8" d="m12.51,283.16h259.92c2.78,0,5.04-2.26,5.04-5.04l4-127.92c0-2.78-2.26-5.04-5.04-5.04H8.51c-2.78,0-5.04,2.26-5.04,5.04l3,127.92c0,2.78,3.26,5.04,6.04,5.04Z"/><path d="m6.46,278.12c0,2.78,3.26,5.04,6.04,5.04h259.92c2.78,0,5.04-2.26,5.04-5.04H6.46Z"/></g><g id="Bells"><g class="cls-2"><path class="cls-4" d="m241.79,162.83c.93,3.72,1.2,7.5,1.27,11.33.09,4.87-.31,9.67-1.33,14.42-1.61,7.59-5.32,14.1-10.56,19.75-6.21,6.7-13.77,11.51-21.77,15.68-10.26,5.35-21.11,8.98-32.42,11.28-8.05,1.64-16.16,2.79-24.35,3.35-1.87.14-3.75.22-5.61.32-9.38.64-18.75.57-28.11-.18-16.55-1.31-32.37-5.34-47.11-13.11-6.11-3.24-11.69-7.21-16.31-12.4-4.87-5.5-8.03-11.87-9.61-19.07-1.13-5.13-1.83-10.31-1.79-15.54.07-9.09,2.99-17.19,8.41-24.44,2.66-3.57,5.93-6.56,9.19-9.55,1.2-1.1,2.39-2.21,3.29-3.59.73-1.05,1.27-2.19,1.26-3.46-.06-3.01.57-5.9,1.54-8.7,4-11.45,6.94-23.27,11.38-34.59,2.87-7.3,6.66-14.05,11.81-19.98.61-.7,1.24-1.41,1.9-2.08,2.11-2.23,4.43-4.26,6.52-6.58,3.08-3.38,7.16-5.38,11.35-7.08,6.31-2.55,12.85-3.98,19.6-4.76,7.69-.86,15.39-.88,23.06.24,5.26.76,10.45,1.9,15.19,4.31,9.17,4.66,17.32,10.61,23.5,19,3.93,5.37,7.17,11.13,9.9,17.19,4.04,8.99,7.92,18.03,11.99,27,1.07,2.32,1.9,4.77,2.14,7.37.19,1.99,1.31,3.55,2.77,4.85,2.37,2.1,5.06,3.82,7.56,5.79,7.61,6.09,12.92,13.68,15.32,23.19Z"/><g class="cls-13"><g class="cls-3"><path class="cls-5" d="m52.93,185.57c5.49,17.25,19.4,33.41,38.17,35.82,4.67.6,9.43.18,13.93-1.21,1.77-.55,1.01-3.33-.77-2.78-16.36,5.07-32.71-4.81-41.68-18.21-2.97-4.44-5.26-9.29-6.88-14.38-.56-1.76-3.35-1.01-2.78.77h0Z"/></g></g><g class="cls-13"><g class="cls-12"><path class="cls-5" d="m234.76,176.11c-3.36,16.59-14.55,33.36-31.84,37.53-4.19,1.01-8.56,1.13-12.79.3-1.81-.35-2.59,2.43-.77,2.78,18,3.49,34.36-8.49,42.5-23.82,2.67-5.03,4.56-10.45,5.69-16.03.37-1.81-2.41-2.59-2.78-.77h0Z"/></g></g><rect class="cls-5" x="128.9" y="57.73" width="19.85" height="7.78" transform="translate(-3.13 7.6) rotate(-3.1)"/><path class="cls-6" d="m162.23,38.84c.47,8.69-5.87,16.44-15.08,19.55-2.3.77-4.79,1.27-7.39,1.41-3.41.18-6.69-.24-9.69-1.19-8.37-2.63-14.46-9.22-14.89-17.22-.59-10.88,9.46-20.26,22.45-20.97,13.01-.7,24.02,7.54,24.61,18.42Z"/><path class="cls-11" d="m130.55,53.29l-1.4-25.9,5.77-.31c2.77-.15,4.96-.01,6.59.42,1.75.41,3.35,1.18,4.82,2.31,2.97,2.29,4.56,5.41,4.77,9.38.22,3.98-1.09,7.28-3.91,9.9-1.42,1.31-2.92,2.25-4.52,2.82-1.49.56-3.63.92-6.42,1.07l-5.7.31Zm3.95-3.9l1.87-.1c1.86-.1,3.4-.37,4.62-.8,1.21-.46,2.29-1.14,3.25-2.04,1.95-1.87,2.84-4.21,2.69-7.03-.15-2.84-1.29-5.09-3.4-6.75-1.9-1.48-4.62-2.12-8.16-1.93l-1.87.1,1,18.55Z"/><path class="cls-10" d="m125.01,115.03c.19,3.43-2.44,6.35-5.86,6.54-3.42.19-6.35-2.43-6.54-5.86-.18-3.42,2.44-6.35,5.86-6.54,3.43-.19,6.35,2.45,6.53,5.87Z"/><path class="cls-10" d="m171.1,112.53c.19,3.43-2.44,6.35-5.86,6.54-3.42.19-6.35-2.43-6.54-5.86-.18-3.42,2.44-6.35,5.87-6.54,3.43-.19,6.35,2.45,6.53,5.87Z"/><path class="cls-9" d="m116.57,92.15c2.41-.66,4.85-.69,7.13-.17.71.16,1.05-.83.4-1.15-2.43-1.2-5.29-1.54-8.1-.77-2.82.78-5.09,2.54-6.56,4.81-.39.61.41,1.28.93.78,1.69-1.61,3.8-2.84,6.21-3.51Z"/><path class="cls-9" d="m164.37,89.01c2.43.6,4.56,1.78,6.29,3.35.54.49,1.32-.2.91-.8-1.53-2.24-3.85-3.94-6.69-4.64-2.83-.7-5.68-.29-8.08.97-.64.34-.27,1.32.43,1.14,2.27-.57,4.7-.61,7.13-.01Z"/><path class="cls-9" d="m142.76,135.15c1.39-.07,2.71.21,3.89.76.37.17.67-.32.36-.58-1.18-.94-2.69-1.47-4.31-1.39-1.62.08-3.07.77-4.14,1.83-.29.28.07.74.41.54,1.11-.67,2.4-1.09,3.79-1.16Z"/><ellipse class="cls-7" cx="143.14" cy="169.88" rx="16.5" ry="18" transform="translate(-14.7 13.56) rotate(-5.16)"/></g></g></svg>