<?xml version="1.0" encoding="UTF-8"?>
<svg xmlns="http://www.w3.org/2000/svg" viewBox="0 0 284.93 302">
  <defs>
    <style>
      .cls-1, .cls-2, .cls-3, .cls-4, .cls-5 {
        fill-rule: evenodd;
      }

      .cls-1, .cls-6 {
        fill: #fff;
      }

      .cls-2 {
        stroke: #efefef;
      }

      .cls-2, .cls-7, .cls-4, .cls-8, .cls-5, .cls-9 {
        stroke-miterlimit: 10;
      }

      .cls-2, .cls-8 {
        stroke-width: 1.32px;
      }

      .cls-2, .cls-5 {
        fill: #efefef;
      }

      .cls-10, .cls-4, .cls-9 {
        fill: #4f2b1a;
      }

      .cls-7 {
        stroke-width: .75px;
      }

      .cls-7, .cls-3 {
        fill: none;
      }

      .cls-7, .cls-4, .cls-5, .cls-9 {
        stroke: #4f2b1a;
      }

      .cls-11 {
        opacity: .83;
      }

      .cls-12 {
        opacity: .19;
      }

      .cls-4, .cls-9 {
        stroke-width: 1.25px;
      }

      .cls-8 {
        fill: #dbdbdb;
        stroke: #fff;
      }

      .cls-5 {
        stroke-width: .73px;
      }
    </style>
  </defs>
  <g id="Platforms">
    <g>
      <rect class="cls-8" x="3.46" y="144" width="278" height="128" rx="5.04" ry="5.04"/>
      <path d="M3.46,268.12c0,2.78,2.26,5.04,5.04,5.04h267.92c2.78,0,5.04-2.26,5.04-5.04"/>
    </g>
  </g>
  <g id="Bells">
    <g>
      <g>
        <g>
          <path class="cls-3" d="M146.63,27.34c2.22.58,4.5,1,6.66,1.76,4.54,1.6,8.38,4.26,11.29,8.13,5.83,7.77,5.06,17.88-1.9,24.93-.36.38-.77.71-1.34,1.22,1.28.31,2.32.58,3.36.84,8.75,2.11,16,6.94,22.87,12.48,8.82,7.1,14.86,16.28,19.2,26.57,3.84,9.1,7.23,18.39,10.75,27.63,1.5,3.93,2.85,7.92,4.2,11.91.29.87.39,1.84.4,2.76.02,2.13.85,3.9,2.38,5.28,2.47,2.23,5.04,4.35,7.54,6.54,8.11,7.11,13.45,15.84,15.33,26.54.9,5.11.79,10.27.33,15.41-.59,6.42-1.87,12.67-4.71,18.51-4.02,8.26-10.21,14.6-17.7,19.7-11.56,7.87-24.34,13.02-37.86,16.36-10.83,2.67-21.86,4.03-32.98,4.48-16.9.69-33.75.25-50.43-3-16.08-3.16-31.21-8.76-44.79-18.08-8.55-5.86-15.24-13.33-18.92-23.21-2.29-6.15-3.09-12.57-3.38-19.08-.3-6.89.48-13.59,3.15-20.02,3.03-7.32,7.79-13.34,13.82-18.4,1.84-1.53,3.68-3.06,5.48-4.64,1.99-1.73,3.31-3.77,3.41-6.57.13-3.63,1.65-6.9,2.93-10.23,3.61-9.37,7.08-18.81,10.75-28.17,3.58-9.12,8.2-17.68,15.04-24.82,3.08-3.22,6.57-6.03,9.74-9.18,4.92-4.91,11.19-7,17.62-8.83,1.7-.48,3.43-.84,5-1.22-1.34-1.91-2.88-3.67-3.96-5.67-4.26-7.95-2.28-17.24,4.83-23.43,4-3.47,8.7-5.43,13.9-6.25.31-.05.61-.17.92-.25h7.06ZM132.46,74.3c0-1.74-.06-3.43.02-5.12.04-.93-.34-1.29-1.13-1.7-1.83-.93-3.55-2.09-5.37-3.08-.51-.28-1.22-.5-1.77-.39-2.26.46-4.52.95-6.73,1.62-4.87,1.46-9.7,3.07-13.64,6.45-3.26,2.8-6.46,5.69-9.54,8.68-7.14,6.92-12.23,15.22-15.9,24.39-3.72,9.29-7.19,18.68-10.76,28.03-1.43,3.74-3.28,7.35-3.76,11.39-.24,1.97-.28,3.96-1.44,5.7-.44.67-.77,1.43-1.11,2.16-2.55,5.38-5.09,10.77-7.65,16.15-.13.27-.46.45-.7.67-.01-.34-.15-.74-.02-1.02,1.11-2.43,2.27-4.84,3.42-7.26,1.24-2.62,2.47-5.24,3.72-7.87-2.58,1.83-5,3.79-7.29,5.87-7.49,6.76-12.48,14.98-14.23,25-1.09,6.25-.7,12.52.06,18.79,1.52,12.43,7.28,22.46,16.86,30.38,7.65,6.33,16.37,10.76,25.51,14.45,15.18,6.13,31.09,8.78,47.33,9.65,12.77.69,25.55.55,38.29-.86,10.91-1.21,21.65-3.22,32.02-6.89,10.4-3.69,20.36-8.29,29.13-15.11,7.18-5.59,12.85-12.37,15.94-21.05,2.31-6.49,3.09-13.24,3.25-20.09.24-10.7-2.84-20.29-9.51-28.71-3.36-4.24-7.55-7.58-11.67-11-.37-.31-.74-.62-1.12-.93.19,1.01.55,1.85.93,2.69,1.88,4.09,3.77,8.17,5.63,12.26.15.32.06.74.09,1.12-.13,0-.27.02-.4.03-.13-.24-.27-.48-.39-.73-2.52-5.49-5.05-10.97-7.55-16.46-.66-1.46-1.59-2.96-1.72-4.49-.32-3.79-1.43-7.29-2.79-10.78-4.08-10.49-7.93-21.09-12.21-31.5-4.33-10.51-10.38-19.91-19.33-27.19-7.61-6.19-15.77-11.28-25.62-13.03-.56-.1-1.25.09-1.78.34-2.36,1.14-4.66,2.44-7.06,3.5-.83.37-1.08.74-1.04,1.58.06,1.44.01,2.88.01,4.36h-19ZM141.76,68.88c7.68,0,13.6-1.99,18.31-5.77,9.19-7.34,9.85-19.38,1.52-27.67-9.73-9.68-28.05-9.45-37.52.48-7,7.34-7.17,17.56-.28,24.99,5.16,5.57,11.78,7.81,17.97,7.97ZM133.51,73.27h16.8v-4.21c-5.7,1.36-11.25,1.09-16.8-.66v4.87Z"/>
          <path class="cls-2" d="M132.46,74.3h19c0-1.48.04-2.92-.01-4.36-.03-.84.21-1.2,1.04-1.58,2.4-1.06,4.69-2.36,7.06-3.5.53-.25,1.22-.44,1.78-.34,9.86,1.74,18.01,6.84,25.62,13.03,8.95,7.28,15,16.69,19.33,27.19,4.29,10.41,8.13,21,12.21,31.5,1.36,3.5,2.47,7,2.79,10.78.13,1.54,1.05,3.03,1.72,4.49,2.49,5.5,5.03,10.98,7.55,16.46.12.26.26.49.39.73.13-.01.27-.03.4-.03-.02-.38.06-.8-.09-1.12-1.86-4.1-3.75-8.18-5.63-12.26-.39-.84-.75-1.69-.93-2.69.38.31.75.62,1.12.93,4.12,3.42,8.31,6.76,11.67,11,6.67,8.42,9.75,18,9.51,28.71-.15,6.85-.94,13.6-3.25,20.09-3.09,8.69-8.76,15.47-15.94,21.05-8.78,6.82-18.73,11.42-29.13,15.11-10.37,3.67-21.11,5.68-32.02,6.89-12.74,1.41-25.51,1.55-38.29.86-16.24-.87-32.15-3.53-47.33-9.65-9.14-3.69-17.87-8.12-25.51-14.45-9.58-7.92-15.34-17.95-16.86-30.38-.77-6.27-1.16-12.54-.06-18.79,1.75-10.02,6.74-18.24,14.23-25,2.3-2.08,4.71-4.04,7.29-5.87-1.24,2.62-2.48,5.24-3.72,7.87-1.15,2.42-2.31,4.83-3.42,7.26-.13.28,0,.67.02,1.02.23-.22.57-.4.7-.67,2.57-5.38,5.1-10.77,7.65-16.15.35-.73.67-1.49,1.11-2.16,1.16-1.74,1.2-3.73,1.44-5.7.49-4.04,2.33-7.65,3.76-11.39,3.57-9.35,7.04-18.74,10.76-28.03,3.67-9.16,8.76-17.47,15.9-24.39,3.08-2.99,6.28-5.88,9.54-8.68,3.93-3.38,8.77-5,13.64-6.45,2.21-.66,4.47-1.16,6.73-1.62.55-.11,1.25.11,1.77.39,1.81.99,3.53,2.14,5.37,3.08.79.41,1.17.77,1.13,1.7-.08,1.69-.02,3.38-.02,5.12Z"/>
          <path class="cls-2" d="M141.76,68.88c-6.19-.16-12.81-2.4-17.97-7.97-6.89-7.43-6.72-17.65.28-24.99,9.47-9.93,27.78-10.16,37.52-.48,8.33,8.29,7.67,20.33-1.52,27.67-4.72,3.77-10.63,5.77-18.31,5.77ZM148.55,57.98c-1.34-2.09-2.58-4.08-3.87-6.04-1.02-1.54-1.13-3.11-.25-4.71.94-1.7,1.92-3.38,2.92-5.05.51-.83.75-1.64.05-2.46-1.88-2.22-3.77-4.44-5.66-6.66.03.88.27,1.64.54,2.39.8,2.17.65,4.21-.8,6.09-.54.71-.89,1.57-1.48,2.23-1.72,1.91-1.3,3.74.02,5.6.28.4.55.8.84,1.2.84,1.13,1.68,2.27,2.59,3.51-.61.11-1.07.2-1.54.27-.52.07-1.05.1-1.57.18-1.67.29-2.19.82-2.53,2.49-.52,2.57,1.65,5.8,4.65,6.85-.12-.22-.21-.4-.31-.57-.93-1.46-1.16-2.95-.06-4.41,1.07-1.42,2.52-1.79,4.22-1.39.7.17,1.41.31,2.22.47Z"/>
          <path class="cls-4" d="M133.51,73.27v-4.87c5.54,1.75,11.09,2.02,16.8.66v4.21h-16.8Z"/>
          <path class="cls-4" d="M148.55,57.98c-.82-.17-1.53-.3-2.22-.47-1.7-.41-3.16-.04-4.22,1.39-1.1,1.46-.87,2.95.06,4.41.11.17.19.34.31.57-3-1.04-5.17-4.28-4.65-6.85.34-1.67.86-2.2,2.53-2.49.52-.09,1.05-.11,1.57-.18.47-.07.93-.16,1.54-.27-.92-1.24-1.76-2.37-2.59-3.51-.29-.39-.56-.8-.84-1.2-1.32-1.86-1.74-3.69-.02-5.6.59-.66.93-1.52,1.48-2.23,1.45-1.89,1.6-3.92.8-6.09-.27-.75-.51-1.51-.54-2.39,1.89,2.22,3.79,4.44,5.66,6.66.69.82.45,1.63-.05,2.46-1.01,1.67-1.99,3.35-2.92,5.05-.88,1.6-.77,3.17.25,4.71,1.29,1.96,2.54,3.95,3.87,6.04Z"/>
          <path class="cls-1" d="M117.07,163.41c5.01,4.51,11.18,5.43,17.31,6.46-1.79,5.29-.39,10.28,1.33,15.26-8.59-1.55-17.71-10.88-18.64-21.72Z"/>
          <path class="cls-1" d="M152.07,183.91c-1.16-4.87-2.45-9.54-5.13-13.78,7.12-.92,14.14-1.77,19.93-6.78-1.51,9.42-6.32,16.22-14.8,20.56Z"/>
        </g>
        <g>
          <g class="cls-11">
            <g>
              <path class="cls-6" d="M167.04,161.77h.13c-.26,14.56-11.86,26.14-26.01,26.05-14.15-.41-25.34-12.4-25.08-26.95h.14c-.09,5.25,11.01,9.69,24.93,10.05h.61c13.93.13,25.18-3.91,25.27-9.16Z"/>
              <g>
                <path class="cls-7" d="M116.23,160.87c-.09,5.25,11.01,9.69,24.93,10.06"/>
                <path class="cls-7" d="M167.04,161.77c-.09,5.25-11.35,9.3-25.27,9.17h-.61"/>
                <path class="cls-7" d="M116.08,160.88c-.26,14.55,10.93,26.54,25.08,26.95.1.01.2.01.3.01"/>
                <path class="cls-7" d="M167.17,161.79c-.26,14.55-11.86,26.13-26.01,26.04-.1,0-.2,0-.3,0"/>
              </g>
            </g>
          </g>
          <g>
            <path class="cls-9" d="M124.78,128.9c-.08,3.49-2.96,6.25-6.45,6.17-3.48-.08-6.25-2.96-6.17-6.45s2.97-6.25,6.45-6.17c3.49.08,6.24,2.97,6.16,6.45Z"/>
            <path class="cls-9" d="M171.68,129.95c-.08,3.49-2.96,6.25-6.45,6.17-3.48-.08-6.25-2.96-6.17-6.45.08-3.48,2.97-6.25,6.45-6.17,3.49.08,6.24,2.98,6.17,6.45Z"/>
          </g>
          <g>
            <path class="cls-10" d="M118,105.06c2.49-.49,4.96-.32,7.23.38.71.22,1.13-.76.5-1.13-2.37-1.4-5.24-1.98-8.15-1.41-2.91.57-5.36,2.18-7.03,4.37-.45.59.31,1.33.89.86,1.84-1.5,4.07-2.58,6.56-3.07Z"/>
            <path class="cls-10" d="M166.69,105.6c2.41.8,4.48,2.16,6.12,3.88.51.54,1.36-.1.99-.74-1.38-2.38-3.6-4.29-6.41-5.23-2.82-.93-5.74-.73-8.27.36-.68.29-.38,1.31.35,1.19,2.34-.41,4.81-.26,7.22.54Z"/>
          </g>
          <path class="cls-10" d="M141.2,150.67c1.41.03,2.74.42,3.88,1.07.36.2.71-.27.41-.56-1.12-1.05-2.61-1.7-4.26-1.74-1.65-.04-3.17.54-4.34,1.53-.31.27.01.76.38.57,1.18-.6,2.52-.92,3.93-.88Z"/>
        </g>
      </g>
      <g class="cls-12">
        <path class="cls-10" d="M43.72,185c-1.47,7.19-.8,14.74,1.06,21.79s4.79,13.54,9.47,18.84c2.25,2.55,4.94,4.69,8.11,5.98.66.27.94-.8.29-1.06-5.76-2.34-9.81-7.76-12.61-13.1-3.33-6.35-5.31-13.5-5.87-20.65-.3-3.84-.17-7.73.6-11.51.14-.69-.92-.99-1.06-.29h0Z"/>
      </g>
      <g class="cls-12">
        <path class="cls-10" d="M240.82,185.3c1.4,6.86.91,14.07-.74,20.83s-4.42,13.25-8.93,18.44c-2.21,2.54-4.84,4.69-7.94,6.04-.65.28-.09,1.23.56.95,5.94-2.59,10.21-8,13.12-13.63,3.36-6.51,5.26-13.81,5.73-21.11.25-3.95.05-7.93-.74-11.81-.14-.69-1.2-.4-1.06.29h0Z"/>
      </g>
      <g>
        <path class="cls-5" d="M132.11,187.36c0,1.76-1.39,3.71-1.39,5.3.06.01.12.02.18.03.3-1.32.6-2.63.9-3.95.68-2.93,2.01-5.34,5.12-6.34.2-.06.39-.12.59-.17.13-.04,1.08-.36,1.29-.4.46,2.03.43,4.33.89,6.35.11-.01-.11.01,0,0,.02-.23.06-.46.06-.69-.11-3.48-1.28-6.74-2.22-10.04-.32-1.12-.56-2.28-.98-3.36-.94-2.45-.16-4.58,1.13-6.62.66-1.05,1.59-1.56,2.85-1.57,2.19,0,3.9.71,5.11,2.67,2.02,3.26,2.99,6.86,3.76,10.53.93,4.43,1.76,8.9,2.74,13.33.37,1.66,1.04,3.25,1.55,4.84.89.05-.04-.02-.21-.63-.87-3.11-1.63-6.47-2.46-9.57,3.07-1.27,7.82.12,9.39,3.14,2.15,4.15,2.4,8.48.97,12.91-1.22,3.76-3.38,6.97-6,9.9-1.21,1.35-2.72,1.61-4.35,1.15-6.75-1.9-12.52-.05-17.64,4.42-1.68,1.47-2.27,1.47-3.87-.04-3.69-3.47-6.61-7.42-7.57-12.5-.47-2.49-.63-5,.14-7.46.54-1.72,3.37-3.92,4.99-4.99.14,1.17-1.5,3.05-1.38,4.08,1.22-3.52,2.39-8.03,6.41-10.32Z"/>
        <path class="cls-5" d="M140.53,231.09c-2.36-.03-4.46-.35-6.37-1.44-2.73-1.56-3.6-4.21-2.3-7.05,1.16-2.56,3.21-4.27,5.65-5.53,4.12-2.11,8.44-2.93,13.01-1.78.03,0,.07.01.1.02,4.99,1.43,6.47,6.09,3.09,10.02-3.03,3.52-7.12,5.06-11.63,5.65-.58.07-1.17.08-1.56.11Z"/>
      </g>
    </g>
  </g>
</svg>