<?xml version="1.0" encoding="UTF-8"?>
<svg xmlns="http://www.w3.org/2000/svg" xmlns:xlink="http://www.w3.org/1999/xlink" viewBox="0 0 284.93 302">
  <defs>
    <style>
      .cls-1 {
        stroke: #efefef;
      }

      .cls-1, .cls-2, .cls-3, .cls-4, .cls-5, .cls-6 {
        stroke-miterlimit: 10;
      }

      .cls-1, .cls-7, .cls-3, .cls-5 {
        fill-rule: evenodd;
      }

      .cls-1, .cls-4 {
        stroke-width: 1.32px;
      }

      .cls-1, .cls-5 {
        fill: #efefef;
      }

      .cls-8, .cls-3, .cls-6 {
        fill: #4f2b1a;
      }

      .cls-2 {
        fill: #fff;
        stroke-width: .64px;
      }

      .cls-2, .cls-3, .cls-5, .cls-6 {
        stroke: #4f2b1a;
      }

      .cls-7 {
        fill: none;
      }

      .cls-9 {
        opacity: .19;
      }

      .cls-3, .cls-6 {
        stroke-width: 1.25px;
      }

      .cls-4 {
        fill: #dbdbdb;
        stroke: #fff;
      }

      .cls-5 {
        stroke-width: .73px;
      }

      .cls-10 {
        filter: url(#outer-glow-21);
      }
    </style>
    <filter id="outer-glow-21" x="21.92" y="-12" width="242" height="262" filterUnits="userSpaceOnUse">
      <feOffset dx="0" dy="0"/>
      <feGaussianBlur result="blur" stdDeviation="5"/>
      <feFlood flood-color="#f6ff00" flood-opacity=".41"/>
      <feComposite in2="blur" operator="in"/>
      <feComposite in="SourceGraphic"/>
    </filter>
  </defs>
  <g id="Platforms">
    <g>
      <path class="cls-4" d="M12.51,283.16h259.92c2.78,0,5.04-2.26,5.04-5.04l4-127.92c0-2.78-2.26-5.04-5.04-5.04H8.51c-2.78,0-5.04,2.26-5.04,5.04l3,127.92c0,2.78,3.26,5.04,6.04,5.04Z"/>
      <path d="M6.46,278.12c0,2.78,3.26,5.04,6.04,5.04h259.92c2.78,0,5.04-2.26,5.04-5.04H6.46Z"/>
    </g>
  </g>
  <g id="Bells">
    <g class="cls-10">
      <g>
        <g>
          <path class="cls-7" d="M138.4,3.03c2.25.46,4.55.75,6.74,1.39,4.62,1.35,8.6,3.8,11.72,7.51,6.25,7.44,6.02,17.58-.55,25-.34.4-.73.75-1.27,1.29,1.29.24,2.34.45,3.4.66,8.85,1.63,16.35,6.07,23.51,11.23,9.19,6.62,15.72,15.45,20.61,25.49,4.32,8.88,8.21,17.97,12.23,27.01,1.71,3.85,3.27,7.76,4.84,11.66.34.85.49,1.82.55,2.74.13,2.13,1.06,3.84,2.66,5.14,2.59,2.09,5.27,4.07,7.88,6.12,8.48,6.67,14.29,15.09,16.75,25.67,1.18,5.05,1.35,10.21,1.16,15.37-.24,6.44-1.18,12.75-3.71,18.74-3.57,8.46-9.41,15.13-16.61,20.63-11.12,8.49-23.6,14.32-36.92,18.39-10.67,3.25-21.61,5.21-32.69,6.26-16.84,1.6-33.69,2.08-50.52-.27-16.23-2.28-31.64-7.06-45.71-15.63-8.86-5.38-15.94-12.48-20.15-22.15-2.62-6.02-3.77-12.38-4.4-18.87-.67-6.86-.25-13.6,2.06-20.16,2.63-7.47,7.05-13.74,12.81-19.12,1.75-1.63,3.51-3.25,5.22-4.93,1.89-1.84,3.1-3.95,3.05-6.75-.07-3.63,1.27-6.98,2.38-10.38,3.1-9.56,6.06-19.17,9.21-28.71,3.08-9.31,7.24-18.1,13.68-25.6,2.9-3.38,6.24-6.38,9.23-9.69,4.65-5.17,10.8-7.59,17.12-9.77,1.67-.58,3.38-1.03,4.93-1.48-1.44-1.83-3.08-3.5-4.26-5.45-4.68-7.71-3.21-17.09,3.56-23.66,3.81-3.69,8.39-5.9,13.54-6.99.31-.07.6-.2.9-.3l7.05-.38ZM126.79,50.69c-.09-1.74-.24-3.42-.25-5.12,0-.93-.41-1.27-1.22-1.64-1.88-.83-3.66-1.89-5.52-2.78-.53-.25-1.25-.43-1.79-.29-2.23.58-4.46,1.2-6.63,1.98-4.78,1.72-9.52,3.59-13.27,7.18-3.11,2.97-6.14,6.03-9.06,9.18-6.75,7.29-11.39,15.86-14.56,25.21-3.21,9.48-6.17,19.04-9.23,28.57-1.22,3.81-2.87,7.52-3.14,11.58-.13,1.98-.06,3.97-1.13,5.77-.41.7-.69,1.47-.99,2.22-2.25,5.51-4.5,11.03-6.77,16.54-.11.28-.44.48-.66.71-.03-.34-.19-.73-.07-1.02.98-2.49,2.01-4.96,3.02-7.43,1.1-2.69,2.19-5.37,3.29-8.06-2.48,1.97-4.78,4.06-6.97,6.25-7.11,7.15-11.66,15.63-12.86,25.73-.75,6.3-.03,12.54,1.08,18.76,2.19,12.33,8.49,22.03,18.48,29.42,7.98,5.9,16.93,9.86,26.25,13.05,15.49,5.3,31.52,7.09,47.78,7.08,12.79,0,25.54-.83,38.19-2.93,10.83-1.8,21.45-4.38,31.6-8.61,10.19-4.25,19.88-9.38,28.27-16.66,6.87-5.97,12.17-13.04,14.78-21.88,1.95-6.61,2.37-13.39,2.15-20.24-.34-10.7-3.93-20.11-11.05-28.15-3.58-4.06-7.95-7.16-12.24-10.36-.39-.29-.78-.58-1.17-.87.24.99.65,1.82,1.08,2.64,2.09,3.98,4.21,7.95,6.28,11.94.16.31.1.73.15,1.11-.13.01-.27.03-.4.05-.14-.23-.29-.46-.43-.71-2.81-5.34-5.64-10.68-8.42-16.03-.74-1.43-1.74-2.87-1.96-4.4-.52-3.76-1.82-7.2-3.37-10.61-4.64-10.26-9.05-20.63-13.9-30.79-4.89-10.26-11.44-19.32-20.77-26.11-7.93-5.77-16.35-10.41-26.29-11.62-.56-.07-1.24.16-1.76.44-2.3,1.27-4.52,2.68-6.86,3.88-.81.42-1.03.8-.96,1.63.13,1.43.17,2.88.25,4.35-6.38.35-12.61.68-18.97,1.03ZM135.78,44.77c7.67-.41,13.47-2.72,17.98-6.75,8.78-7.82,8.79-19.88.02-27.71-10.24-9.14-28.52-7.92-37.44,2.51-6.6,7.71-6.21,17.92,1.07,24.97,5.46,5.28,12.19,7.16,18.37,6.99ZM127.78,49.61l16.77-.91-.23-4.21c-5.62,1.67-11.18,1.7-16.81.25l.26,4.86Z"/>
          <path class="cls-1" d="M126.79,50.69c6.37-.34,12.59-.68,18.97-1.03-.08-1.47-.11-2.92-.25-4.35-.08-.84.14-1.21.96-1.63,2.34-1.19,4.56-2.61,6.86-3.88.52-.28,1.19-.51,1.76-.44,9.94,1.21,18.36,5.86,26.29,11.62,9.33,6.79,15.88,15.85,20.77,26.11,4.84,10.16,9.25,20.53,13.9,30.79,1.55,3.42,2.85,6.85,3.37,10.61.21,1.53,1.22,2.97,1.96,4.4,2.79,5.36,5.61,10.69,8.42,16.03.13.25.28.48.43.71.13-.02.27-.04.4-.05-.04-.38.02-.8-.15-1.11-2.07-3.99-4.19-7.96-6.28-11.94-.43-.82-.84-1.64-1.08-2.64.39.29.78.58,1.17.87,4.3,3.2,8.66,6.3,12.24,10.36,7.12,8.05,10.71,17.45,11.05,28.15.22,6.85-.2,13.63-2.15,20.24-2.61,8.84-7.91,15.92-14.78,21.88-8.4,7.28-18.09,12.41-28.27,16.66-10.16,4.23-20.77,6.82-31.6,8.61-12.65,2.1-25.39,2.92-38.19,2.93-16.26,0-32.3-1.78-47.78-7.08-9.33-3.19-18.28-7.14-26.25-13.05-9.99-7.39-16.29-17.09-18.48-29.42-1.11-6.22-1.83-12.46-1.08-18.76,1.2-10.1,5.75-18.58,12.86-25.73,2.18-2.2,4.48-4.28,6.97-6.25-1.1,2.69-2.19,5.37-3.29,8.06-1.01,2.48-2.04,4.95-3.02,7.43-.11.29.04.67.07,1.02.22-.24.55-.43.66-.71,2.27-5.51,4.51-11.03,6.77-16.54.31-.75.59-1.52.99-2.22,1.06-1.8.99-3.79,1.13-5.77.27-4.06,1.92-7.77,3.14-11.58,3.06-9.53,6.02-19.09,9.23-28.57,3.17-9.35,7.81-17.92,14.56-25.21,2.92-3.15,5.95-6.21,9.06-9.18,3.74-3.59,8.49-5.46,13.27-7.18,2.17-.78,4.4-1.4,6.63-1.98.54-.14,1.26.04,1.79.29,1.86.89,3.64,1.95,5.52,2.78.81.36,1.21.71,1.22,1.64.01,1.69.16,3.38.25,5.12Z"/>
          <path class="cls-1" d="M135.78,44.77c-6.19.18-12.92-1.7-18.37-6.99-7.28-7.05-7.66-17.26-1.07-24.97,8.92-10.43,27.19-11.64,37.44-2.51,8.77,7.83,8.76,19.89-.02,27.71-4.5,4.02-10.3,6.34-17.98,6.75ZM141.97,33.52c-1.45-2.01-2.8-3.93-4.19-5.82-1.1-1.48-1.29-3.04-.5-4.69.85-1.75,1.73-3.48,2.65-5.2.46-.86.66-1.68-.08-2.46-1.99-2.12-4.01-4.23-6.02-6.34.08.88.36,1.62.67,2.35.91,2.12.87,4.16-.47,6.13-.5.73-.8,1.62-1.35,2.3-1.62,2-1.1,3.81.32,5.59.3.39.6.77.9,1.15.9,1.09,1.8,2.17,2.78,3.36-.6.14-1.06.26-1.52.36-.51.1-1.04.15-1.55.27-1.65.38-2.14.94-2.39,2.63-.38,2.59,1.97,5.71,5.01,6.59-.13-.22-.23-.39-.34-.55-1.01-1.4-1.32-2.88-.3-4.4.99-1.48,2.42-1.93,4.14-1.61.71.13,1.42.23,2.25.35Z"/>
          <path class="cls-3" d="M127.78,49.61l-.26-4.86c5.63,1.45,11.19,1.41,16.81-.25l.23,4.21-16.77.91Z"/>
          <path class="cls-3" d="M141.97,33.52c-.82-.12-1.54-.22-2.25-.35-1.72-.31-3.15.13-4.14,1.61-1.02,1.52-.71,3,.3,4.4.11.16.21.33.34.55-3.05-.88-5.4-4-5.01-6.59.25-1.69.74-2.25,2.39-2.63.51-.12,1.04-.17,1.55-.27.46-.1.92-.21,1.52-.36-.98-1.19-1.88-2.27-2.78-3.36-.31-.38-.6-.76-.9-1.15-1.42-1.78-1.94-3.59-.32-5.59.56-.69.85-1.57,1.35-2.3,1.34-1.96,1.38-4,.47-6.13-.31-.73-.59-1.48-.67-2.35,2.01,2.12,4.02,4.22,6.02,6.34.74.78.54,1.6.08,2.46-.91,1.72-1.8,3.45-2.65,5.2-.79,1.65-.6,3.21.5,4.69,1.4,1.89,2.75,3.81,4.19,5.82Z"/>
          <g>
            <g>
              <path class="cls-6" d="M122.07,105.63c.11,3.49-2.62,6.4-6.1,6.51-3.48.11-6.4-2.62-6.51-6.11s2.62-6.4,6.11-6.51c3.49-.11,6.39,2.63,6.5,6.11Z"/>
              <path class="cls-6" d="M168.95,104.14c.11,3.49-2.62,6.4-6.11,6.51-3.48.11-6.4-2.62-6.51-6.11-.11-3.48,2.63-6.4,6.11-6.51,3.48-.11,6.4,2.63,6.51,6.11Z"/>
            </g>
            <g>
              <path class="cls-8" d="M114.01,82.19c2.46-.62,4.94-.59,7.24-.01.72.18,1.09-.82.44-1.16-2.44-1.27-5.34-1.69-8.22-.96-2.88.73-5.23,2.46-6.78,4.74-.42.61.38,1.31.93.81,1.76-1.6,3.92-2.8,6.39-3.42Z"/>
              <path class="cls-8" d="M162.66,80.09c2.45.67,4.59,1.91,6.32,3.54.54.51,1.35-.18.95-.8-1.5-2.31-3.82-4.09-6.69-4.87-2.86-.78-5.77-.42-8.23.81-.66.33-.31,1.33.41,1.17,2.32-.53,4.79-.52,7.24.15Z"/>
            </g>
            <path class="cls-8" d="M139.65,126.48c1.41-.04,2.75.27,3.94.86.37.18.69-.31.37-.58-1.17-.98-2.7-1.56-4.35-1.51-1.65.05-3.14.71-4.25,1.76-.3.28.05.76.41.55,1.15-.66,2.47-1.05,3.88-1.09Z"/>
            <ellipse class="cls-2" cx="141.19" cy="147.06" rx="8.38" ry="6.6" transform="translate(-12.65 13.29) rotate(-5.16)"/>
          </g>
        </g>
        <g class="cls-9">
          <path class="cls-8" d="M44.17,166c-1.07,7.18-.04,14.61,2.16,21.5s5.54,13.48,10.59,18.57c2.37,2.39,5.15,4.38,8.35,5.49.67.23.96-.83.29-1.06-5.87-2.03-10.21-7.17-13.3-12.35-3.63-6.1-5.99-13.03-6.97-20.06-.54-3.9-.64-7.89-.06-11.79.1-.69-.96-.99-1.06-.29h0Z"/>
        </g>
        <g class="cls-9">
          <path class="cls-8" d="M240.98,155.64c1.77,6.78,1.69,14.02.4,20.88s-3.66,13.32-7.8,18.73c-2.07,2.72-4.63,5.06-7.7,6.6-.63.32-.08,1.27.56.95,5.76-2.89,9.72-8.46,12.32-14.2,3.03-6.68,4.56-14.08,4.65-21.41.05-3.99-.36-7.99-1.37-11.85-.18-.69-1.24-.39-1.06.29h0Z"/>
        </g>
        <g>
          <path class="cls-5" d="M132.55,163.61c.1,1.76-1.18,3.78-1.1,5.36.06,0,.12.01.19.02.23-1.33.45-2.66.69-3.99.52-2.96,1.72-5.45,4.77-6.6.19-.07.39-.14.58-.2.13-.04,1.06-.42,1.27-.47.57,2.01.67,4.3,1.23,6.29.11-.02-.11.02,0,0,0-.23.04-.47.02-.69-.3-3.47-1.64-6.66-2.76-9.9-.38-1.1-.69-2.24-1.16-3.3-1.07-2.4-.41-4.56.77-6.67.6-1.08,1.5-1.65,2.76-1.72,2.18-.12,3.93.49,5.25,2.39,2.19,3.14,3.35,6.68,4.32,10.31,1.17,4.38,2.24,8.79,3.45,13.16.46,1.64,1.21,3.19,1.81,4.75.89,0-.04-.02-.25-.62-1.03-3.05-1.97-6.37-2.98-9.43,3-1.44,7.81-.31,9.54,2.63,2.37,4.03,2.86,8.34,1.67,12.83-1.01,3.82-3,7.14-5.46,10.21-1.14,1.41-2.63,1.76-4.28,1.39-6.84-1.53-12.5.63-17.37,5.37-1.6,1.56-2.18,1.59-3.87.17-3.87-3.26-7-7.05-8.24-12.07-.61-2.46-.9-4.95-.26-7.46.45-1.74,3.15-4.1,4.71-5.25.2,1.16-1.33,3.13-1.15,4.15,1.02-3.58,1.96-8.15,5.84-10.65Z"/>
          <path class="cls-5" d="M143.32,206.81c-2.36.1-4.47-.11-6.43-1.09-2.81-1.41-3.82-4.01-2.68-6.91,1.02-2.62,2.97-4.44,5.34-5.83,4-2.33,8.27-3.39,12.9-2.48.03,0,.07,0,.1.02,5.06,1.16,6.79,5.74,3.63,9.84-2.84,3.68-6.83,5.44-11.3,6.27-.57.1-1.16.14-1.56.19Z"/>
        </g>
      </g>
    </g>
  </g>
</svg>